<svg xmlns="http://www.w3.org/2000/svg" viewBox="0 0 827.76 438.07" height="75" width="141.5"><defs><style>.cls-1{fill:#d44a02;}.cls-2{fill:#fff;}.cls-3{fill:none;stroke:#000;stroke-miterlimit:10;}</style></defs><title>Artboard 1</title><g id="Layer_2" data-name="Layer 2"><path d="M13.69,196c-7,17-15.7,59.11-12.5,76.5,3.36,18.27,20.66,54.51,36,65,12.28,8.4,44.38,10.81,59,8,9.75-1.87,23.22-9.13,35.25-15.17,0-3.2-9.56-1-12.75-1.33-5.75-.55-17.42-.53-23-2-5.85-1.53-16.87-6.81-22-10-6-3.75-17.34-12.64-22-18-4.42-5.08-11.86-16.62-14-23-2.4-7.15-3.37-22.47-3-30s2.88-23,6-30c2.83-6.35,15-20,17-22s18.65-21.45,18.65-21.45c-9.2-2.09-18.41-3.6-25.15-2C38.71,173.39,18.56,184.18,13.69,196Z"/><path class="cls-1" d="M34.69,246c-.37,7.53.6,22.85,3,30,2.14,6.38,9.58,17.92,14,23,4.66,5.36,16,14.25,22,18,5.13,3.19,16.15,8.47,22,10,5.58,1.47,17.25,1.45,23,2,3.19.31,12.75-1.87,12.75,1.33,2.14-1.07,4.24-2.1,6.25-3.06,0-3.32.46-10,0-13.27-.85-6-6-21-8-23s-5.41-21-7-28c-1.31-5.8-4.83-17.17-6-23-1.4-6.93-2.21-21.16-4-28a105.17,105.17,0,0,0-7-18c-2.63-4.77-13-17.51-13-17.51-5.06-1.15-10.72-2.66-16.38-3.94,0,0-16.65,19.45-18.65,21.45s-14.17,15.65-17,22C37.57,223,35.06,238.38,34.69,246Z"/><path class="cls-2" d="M92.72,176.51s10.34,12.74,13,17.51a105.17,105.17,0,0,1,7,18c1.79,6.84,2.6,21.07,4,28,1.17,5.83,4.69,17.2,6,23,1.59,7,5,26,7,28s7.15,17,8,23c.46,3.29,0,10,0,13.27q2.59-1.23,5-2.27a155.55,155.55,0,0,1,24.38-8.46h0c0-3.51-4.89-9.35-6.38-12.53-1.62-3.45-5.24-10.27-6-14-.91-4.41,0-13.5,0-18,0-5.25.76-15.81,0-21s-4.43-15-6-20c-1-3-3.41-8.89-4-12a84.13,84.13,0,0,1-1-18c.23-2.45,2.37-9.42,2.5-9.85-18.89-2.89-36.57-12-45.5-13.15C98.29,177.7,95.6,177.16,92.72,176.51Z"/><path d="M152.69,95c-7.84,8.28-16.69,30.1-16.5,41.5.22,13.6,6.35,42.42,16,52a5.67,5.67,0,0,0,2.27,1.23s6.93-19,8.23-26.73c1.07-6.41-2.75-20.11,0-26,3.44-7.4,18.11-16.62,25-21,9.53-6.06,30.23-15.57,41-19,9.2-2.93,28.38-6.12,38-7,5.17-.47,18.83-7.59,24-7-11.83-4.58-27-13.52-36.49-14.5-16.11-1.67-48.77.68-64.5,4.5C178.93,75.63,160.29,87,152.69,95Z"/><path class="cls-1" d="M292.12,83.56,290.68,83c-5.16-.59-18.82,6.53-24,7-9.62.88-28.8,4.07-38,7-10.77,3.43-31.47,12.94-41,19-6.89,4.38-21.56,13.6-25,21-2.75,5.89,1.07,19.59,0,26-1.3,7.75-8.23,26.73-8.23,26.73,5.78,1.89,17.62.38,13.23,1.27a61.85,61.85,0,0,1-21.5.15c-.13.43-2.27,7.4-2.5,9.85a84.13,84.13,0,0,0,1,18c.59,3.11,3,9,4,12,1.57,5,5.24,14.84,6,20s0,15.75,0,21c0,4.5-.91,13.59,0,18,.76,3.73,4.38,10.55,6,14,1.49,3.18,6.38,9,6.38,12.53h0c5.4-1.27,10.63-1.91,14.74-1.24,0-2.74,8.4-2.47,10.88-1.3,3.76,1.77,6.7,10.53,9,14,6.36,9.59,17.2,30.58,26,38,7.78,6.56,27.17,14.35,37,17,15,4.06,46.45,6.81,62,6,14.76-.77,57.51-11.6,58.84-11.94h0c.13-.05,3.49-7.44,3.13-10.05-.9-6.46-10.9-16.27-14-22-3.73-6.89-7.62-22.29-9-30-1.41-7.89-1.75-24-2-32-.22-7,1-21.08,0-28-1-6.73-5.42-19.71-8-26-2.67-6.52-10.17-18.55-13-25-2.36-5.36-6.12-16.46-8-22-3.47-10.18-10.93-30.45-13-41-1.79-9.11.89-28.58-3-37-1.34-2.89-6.32-7.29-9-9-4.27-2.72-16.88-6.14-16.88-11.21Z"/><path d="M181.81,315.32a11.2,11.2,0,0,1,5.38,2.2c9.16,7.56,3.54,35.63,7,47,3.05,10.06,10,31.2,18,38,8.33,7.06,31.14,10.84,42,12,11.46,1.23,34.76-.43,46-3,22-5,60.47-23.83,85.34-34.44-1.33.34-44.08,11.17-58.84,11.94-15.55.81-47-1.94-62-6-9.83-2.65-29.22-10.44-37-17-8.8-7.42-19.64-28.41-26-38-2.3-3.47-5.24-12.23-9-14C190.21,312.85,181.81,312.58,181.81,315.32Z"/><path class="cls-2" d="M299.19,85.52a35.56,35.56,0,0,1-6.38-1.71c0,5.07,12.61,8.49,16.88,11.21,2.68,1.71,7.66,6.11,9,9,3.89,8.42,1.21,27.89,3,37,2.07,10.55,9.53,30.82,13,41,1.88,5.54,5.64,16.64,8,22,2.83,6.45,10.33,18.48,13,25,2.58,6.29,7,19.27,8,26,1,6.92-.22,21,0,28,.25,8,.59,24.11,2,32,1.38,7.71,5.27,23.11,9,30,3.1,5.73,13.1,15.54,14,22,.36,2.61-3,10-3.13,10.05,3.11-1.33,6-2.52,8.63-3.55,6.95-2.72,23.91-11,42.23-17.82,0,0-.27-11.05.27-14.68,2.42-16.44,14.06-47.85,18-64,1.75-7.19,4.92-21.68,6-29,1.64-11.17,6.91-34.09,4-45-2.37-8.84-14.89-23.18-21-30-10.88-12.14-36.81-32.19-49-43-7.29-6.46-22.59-18.67-29-26a150.84,150.84,0,0,1-15-22c-.74-1.39-2.26-4.29-2.27-5.87A60.57,60.57,0,0,0,343.69,81C335.92,90.2,311.08,87.31,299.19,85.52Z"/><path class="cls-1" d="M348.42,76.14h0c0,1.58,1.53,4.48,2.27,5.87a150.84,150.84,0,0,0,15,22c6.41,7.33,21.71,19.54,29,26,12.19,10.81,38.12,30.86,49,43,6.11,6.82,18.63,21.16,21,30,2.91,10.91-2.36,33.83-4,45-1.08,7.32-4.25,21.81-6,29-3.94,16.15-15.58,47.56-18,64-.54,3.63-.27,14.68-.27,14.68,12-4.48,24.55-8.35,35.27-9.68,1.45-.18,2,.37,1.81,1.42h0s18.18,7.83,24.18,10.58c6.3,2.89,18.77,9,25,12,6,3,17.63,9.89,24,12,4.67,1.55,19.37,3.45,19.37,3.45,7.13-11.69,15.57-26.26,22.63-32.45,20-17.52,60.62-28.59,97.15-39.28-.61-.15-19.91-5.26-26.15-7.72-4.68-1.84-14.45-5.44-18-9-4-3.95-7.9-14.82-10-20-1.87-4.62-6-19-6-19s-8.52-14.86-11-20c-3.66-7.57-12.59-22.61-13-31-.51-10.19,8.62-29.37,12-39s10.61-28.78,15-38c3.94-8.29,13.16-24.2,18-32C649.34,93.73,658,86.39,658,81.35h0c-35-10-62.66-15.93-91.84-27.82-16.38-6.67-18-36.85-44-45-15.27-4.78-44.64-8.33-56-8-13.08.38-36,15.93-47,23C401.74,34.72,364.18,61.29,348.42,76.14Z"/><path d="M461.19,367.52c-3.79,9.15-8.34,29.18-7,39,.93,6.87,6.55,20.71,12,25,5.62,4.43,20.85,6.4,28,6,8.68-.48,25.52-6.55,33-11,9.12-5.43,24.61-20.52,31-29,2.29-3,5-7.31,7.87-12,0,0-14.7-1.9-19.37-3.45-6.37-2.11-18-9-24-12-6.23-3-18.7-9.11-25-12-6-2.75-24.18-10.58-24.18-10.58h0C473,351.39,463.31,362.4,461.19,367.52Z"/><path class="cls-2" d="M613.69,168c-3.38,9.63-12.51,28.81-12,39,.41,8.39,9.34,23.43,13,31,2.48,5.14,11,20,11,20s4.13,14.38,6,19c2.1,5.18,6,16.05,10,20,3.55,3.56,13.32,7.16,18,9,6.24,2.46,25.54,7.57,26.15,7.72,10.72-3.13,21.09-6.23,30.48-9.45-.19-.41-5.5-12.3-8.63-15.27-4.05-3.85-16.22-5.89-20-10-10-10.9-20.28-40.29-22-55-.8-6.78,3.5-20.19,4-27,.51-7-2.41-21.43,0-28,1.46-4,8.72-9.4,11-13,3.23-5.1,7.43-16.53,10-22,4.3-9.17,17.61-26.36,17.62-36.49-18.6-6.72-35.12-11.84-50.28-16.18,0,5-8.69,12.38-11.34,16.67-4.84,7.8-14.06,23.71-18,32C624.3,139.24,617.07,158.38,613.69,168Z"/><path class="cls-1" d="M669.69,197c-.5,6.81-4.8,20.22-4,27,1.72,14.71,12,44.1,22,55,3.78,4.11,15.95,6.15,20,10,3.13,3,8.44,14.86,8.63,15.27a179.73,179.73,0,0,0,23.87-9.77c30.07-15.6,55.12-26.08,72-51,5.31-7.85,14-20.62,15-37,1.29-20.35-13.62-35.64-26.5-50.5-14.27-16.45-27-31.57-33.5-34.5-21.88-9.89-41.31-17.66-58.88-24,0,10.13-13.32,27.32-17.62,36.49-2.57,5.47-6.77,16.9-10,22-2.28,3.6-9.54,9-11,13C667.28,175.59,670.2,190,669.69,197Zm46-14c-6.91,0-21-8.73-21-19.5s15.09-19.5,22-19.5,23,9.23,23,20S722.59,183,715.69,183Z"/><path d="M694.69,163.52c0,10.77,14.09,19.5,21,19.5s24-8.23,24-19-16.1-20-23-20S694.69,152.75,694.69,163.52Z"/><path class="cls-3" d="M385.56,377.07c3.11-1.33,6-2.52,8.63-3.55,6.95-2.72,23.91-11,42.23-17.82,12-4.48,24.55-8.35,35.27-9.68,1.45-.18,2,.37,1.81,1.42-.51,3.95-10.19,15-12.31,20.08-3.79,9.15-8.34,29.18-7,39,.93,6.87,6.55,20.71,12,25,5.62,4.43,20.85,6.4,28,6,8.68-.48,25.52-6.55,33-11,9.12-5.43,24.61-20.52,31-29,2.29-3,5-7.31,7.87-12,7.13-11.69,15.57-26.26,22.63-32.45,20-17.52,60.62-28.59,97.15-39.28,10.72-3.13,21.09-6.23,30.48-9.45a179.73,179.73,0,0,0,23.87-9.77c30.07-15.6,55.12-26.08,72-51,5.31-7.85,14-20.62,15-37,1.29-20.35-13.62-35.64-26.5-50.5-14.27-16.45-27-31.57-33.5-34.5-21.88-9.89-41.31-17.66-58.88-24-18.6-6.72-35.12-11.84-50.28-16.18"/><path class="cls-3" d="M348.42,76.15A60.57,60.57,0,0,0,343.69,81c-7.77,9.18-32.61,6.29-44.5,4.5a35.56,35.56,0,0,1-6.38-1.71l-.69-.25L290.68,83c-11.83-4.58-27-13.52-36.49-14.5-16.11-1.67-48.77.68-64.5,4.5-10.76,2.61-29.4,14-37,22-7.84,8.28-16.69,30.1-16.5,41.5.22,13.6,6.35,42.42,16,52a5.67,5.67,0,0,0,2.27,1.23c5.78,1.89,17.62.38,13.23,1.27a61.85,61.85,0,0,1-21.5.15c-18.89-2.89-36.57-12-45.5-13.15-2.4-.32-5.09-.86-8-1.51-5.06-1.15-10.72-2.66-16.38-3.94-9.2-2.09-18.41-3.6-25.15-2-12.48,2.87-32.63,13.66-37.5,25.5-7,17-15.7,59.11-12.5,76.5,3.36,18.27,20.66,54.51,36,65,12.28,8.4,44.38,10.81,59,8,9.75-1.87,23.22-9.13,35.25-15.17,2.14-1.07,4.24-2.1,6.25-3.06q2.59-1.23,5-2.27a155.55,155.55,0,0,1,24.38-8.46c5.4-1.27,10.63-1.91,14.74-1.24a11.2,11.2,0,0,1,5.38,2.2c9.16,7.56,3.54,35.63,7,47,3.05,10.06,10,31.2,18,38,8.33,7.06,31.14,10.84,42,12,11.46,1.23,34.76-.43,46-3,22-5,60.47-23.83,85.34-34.44"/><path class="cls-3" d="M658,81.34c-35-10-62.66-15.93-91.84-27.82-16.38-6.67-18-36.85-44-45-15.27-4.78-44.64-8.33-56-8-13.08.38-36,15.93-47,23-17.45,11.2-55,37.77-70.77,52.62"/><path class="cls-3" d="M292.81,83.81c0,5.07,12.61,8.49,16.88,11.21,2.68,1.71,7.66,6.11,9,9,3.89,8.42,1.21,27.89,3,37,2.07,10.55,9.53,30.82,13,41,1.88,5.54,5.64,16.64,8,22,2.83,6.45,10.33,18.48,13,25,2.58,6.29,7,19.27,8,26,1,6.92-.22,21,0,28,.25,8,.59,24.11,2,32,1.38,7.71,5.27,23.11,9,30,3.1,5.73,13.1,15.54,14,22,.36,2.61-3,10-3.13,10.05h0c-1.33.34-44.08,11.17-58.84,11.94-15.55.81-47-1.94-62-6-9.83-2.65-29.22-10.44-37-17-8.8-7.42-19.64-28.41-26-38-2.3-3.47-5.24-12.23-9-14-2.48-1.17-10.88-1.44-10.88,1.3"/><path class="cls-3" d="M348.42,76.14h0c0,1.58,1.53,4.48,2.27,5.87a150.84,150.84,0,0,0,15,22c6.41,7.33,21.71,19.54,29,26,12.19,10.81,38.12,30.86,49,43,6.11,6.82,18.63,21.16,21,30,2.91,10.91-2.36,33.83-4,45-1.08,7.32-4.25,21.81-6,29-3.94,16.15-15.58,47.56-18,64-.54,3.63-.27,14.68-.27,14.68"/><path class="cls-3" d="M716.32,304.3h0c-.19-.41-5.5-12.3-8.63-15.27-4.05-3.85-16.22-5.89-20-10-10-10.9-20.28-40.29-22-55-.8-6.78,3.5-20.19,4-27,.51-7-2.41-21.43,0-28,1.46-4,8.72-9.4,11-13,3.23-5.1,7.43-16.53,10-22,4.3-9.17,17.61-26.36,17.62-36.49h0"/><path class="cls-3" d="M685.85,313.75h0c-.61-.15-19.91-5.26-26.15-7.72-4.68-1.84-14.45-5.44-18-9-4-3.95-7.9-14.82-10-20-1.87-4.62-6-19-6-19s-8.52-14.86-11-20c-3.66-7.57-12.59-22.61-13-31-.51-10.19,8.62-29.37,12-39s10.61-28.78,15-38c3.94-8.29,13.16-24.2,18-32C649.34,93.73,658,86.39,658,81.35h0"/><path class="cls-3" d="M716.69,144c6.9,0,23,9.23,23,20s-17.1,19-24,19-21-8.73-21-19.5S709.78,144,716.69,144Z"/><path class="cls-3" d="M566.06,385.47s-14.7-1.9-19.37-3.45c-6.37-2.11-18-9-24-12-6.23-3-18.7-9.11-25-12-6-2.75-24.18-10.58-24.18-10.58"/><path class="cls-3" d="M154.46,189.75s6.93-19,8.23-26.73c1.07-6.41-2.75-20.11,0-26,3.44-7.4,18.11-16.62,25-21,9.53-6.06,30.23-15.57,41-19,9.2-2.93,28.38-6.12,38-7,5.17-.47,18.83-7.59,24-7a2.51,2.51,0,0,1,1.44.54,1.85,1.85,0,0,1,.57,1.46"/><path class="cls-3" d="M167.07,316.55c0-3.51-4.89-9.35-6.38-12.53-1.62-3.45-5.24-10.27-6-14-.91-4.41,0-13.5,0-18,0-5.25.76-15.81,0-21s-4.43-15-6-20c-1-3-3.41-8.89-4-12a84.13,84.13,0,0,1-1-18c.23-2.45,2.37-9.42,2.5-9.85v0"/><path class="cls-3" d="M92.72,176.51s10.34,12.74,13,17.51a105.17,105.17,0,0,1,7,18c1.79,6.84,2.6,21.07,4,28,1.17,5.83,4.69,17.2,6,23,1.59,7,5,26,7,28s7.15,17,8,23c.46,3.29,0,10,0,13.27"/><path class="cls-3" d="M131.44,330.35c0-3.2-9.56-1-12.75-1.33-5.75-.55-17.42-.53-23-2-5.85-1.53-16.87-6.81-22-10-6-3.75-17.34-12.64-22-18-4.42-5.08-11.86-16.62-14-23-2.4-7.15-3.37-22.47-3-30s2.88-23,6-30c2.83-6.35,15-20,17-22s18.65-21.45,18.65-21.45"/></g><g id="Layer_3" data-name="Layer 3"><path d="M455,223.52c-.28,4.6,2.1,13.8,4,18a49.31,49.31,0,0,0,8,11c5,4.9,17.05,12.3,23,16,7,4.37,21.29,13,29,16,3.84,1.51,16,4,16,4s-5.78-5.55-8-7c-3.93-2.57-12.89-5.72-17-8-4.43-2.46-13.71-7.15-17-11s-7.66-13.09-8-18c-.25-3.63,2.41-10.73,4-14,1.49-3.06,5.79-8.41,8-11,2.53-3,7.69-9,11-11,3.51-2.17,15-5,16-4s11.46,4.06,15,6c2.5,1.37,6.64,5.4,9,7,4,2.72,16.57,9.76,17,10-.41-.54-13.71-17.89-19-23a96.17,96.17,0,0,0-13-10c-7.29-4.37-22.5-13.72-31-14-4.27-.14-12.15,4.14-16,6s-11.62,6.23-15,9c-2.87,2.36-8.09,7.81-10,11C458.71,210.39,455.29,219,455,223.52Z"/></g></svg>
