<svg id="Layer_1" data-name="Layer 1" xmlns="http://www.w3.org/2000/svg" viewBox="0 0 164.37 342.37" width="54.79" height="114.12" ><defs><style>.cls-1{stroke:#000;stroke-miterlimit:10;}</style></defs><title>Artboard 1</title><path class="cls-1" d="M84.86.5s38.22,94.51,51,126c2.75,6.75,8.47,20.16,11,27,1.65,4.45,4.55,13.49,6,18,1.29,4,4,11.94,5,16,.95,3.71,2.4,11.22,3,15,.67,4.23,1.65,12.74,2,17,.44,5.24,1.08,15.74,1,21,0,3.26-.66,9.76-1,13-.39,3.76-1.14,11.31-2,15a148.15,148.15,0,0,1-5,15c-1.78,4.59-5.56,13.72-8,18-2.57,4.52-8.44,13.2-12,17a111.67,111.67,0,0,1-16,13,81,81,0,0,1-12,6,94.58,94.58,0,0,1-16,4,76.71,76.71,0,0,1-15,0,71.94,71.94,0,0,1-14-4,92.7,92.7,0,0,1-15-9,105.23,105.23,0,0,1-14-14c-3.34-4.35-8.69-14-11-19a111.53,111.53,0,0,1-5-14c-1.14-4.42-2.34-13.48-3-18-2-14.21-5.32-42.74-7-57-1.82-15.49-7-62-7-62l40,92-16-7s2.11,15,3,20c.86,4.78,2.91,14.27,4,19,.72,3.1,2.47,9.75,3.5,12.5a68.75,68.75,0,0,0,4.5,9.5,109.78,109.78,0,0,0,9,12,94.72,94.72,0,0,0,11,10,53.15,53.15,0,0,0,9,5,67.23,67.23,0,0,0,9,2,58.8,58.8,0,0,0,7.5.5,37.09,37.09,0,0,0,6.5-.5,86.49,86.49,0,0,0,10-3,84,84,0,0,0,10-5,71.93,71.93,0,0,0,8-6,85.39,85.39,0,0,0,10-11c3.16-4.61,7.86-14.84,10-20a108.2,108.2,0,0,0,4-12c.78-3.2,1.62-9.73,2-13,.36-3,1-9,1-12,.07-7.52-1.16-22.53-2-30-.53-4.78-2-14.3-3-19s-3.57-13.55-5-18c-4.46-13.93-14.88-41.29-20-55-7.58-20.31-23.25-60.75-31-81l-13-34Z"/></svg>
