<svg id="Layer_2" data-name="Layer 2" xmlns="http://www.w3.org/2000/svg" viewBox="0 0 868.89 346.75" width="219.22" height="86.68"><defs><style>.cls-1{fill:#25263f;}.cls-2{fill:#8bb4c3;}.cls-3{stroke:#000;stroke-miterlimit:10;}</style></defs><title>Artboard 1</title><path class="cls-1" d="M5.39,137.51c-.53.05-4.85.26-5.12.28.57.11,18.44,3.74,23.57,4.68,10.29,1.91,31.08,4.51,41.46,5.89,17.25,2.3,51.84,6.38,69.12,8.61,8.26,1.06,24.77,3.37,32.86,5.36,2.27.56,5.2,1.42,8.39,2.42l.72-2.77s-5.24-5.49-7.47-6.62c-8.37-4.21-36.68-7.7-36.68-7.7s6.41-2.72,8.68-3.08c1.33-.22,3-.41,5-.59l-.13-1.59c-9.81.83-22.82,1.53-30.14,1.55-13.8.05-53.75-2.9-55.12-3.22s-38-3.82-50.68-3.65C8.72,137.1,6.51,137.41,5.39,137.51Z"/><path class="cls-2" d="M159.46,185.41c-6.1,1.65-15.72,4.89-20.76,6.64-2.41.84-7.47,2.13-9.54,3.61s-8.37,5.71-6.88,7.85,7.5-2.29,10.07-2.76A139.62,139.62,0,0,1,150.16,199c4.65-.05,13.93.79,18.55,1.35,6.68.83,20,2.75,26.5,4.64,10.85,3.18,31.11,13.56,41.68,17.54,8.46,3.19,25.26,5.35,34.22,6.43,10.14,1.22,31.07,2.61,41.27,2.91,10.89.33,32.57,2.87,43.46,3.45,13.5.73,40.55,1.8,54.06,1.52,12.2-.24,36.49-2.47,48.65-3.34,14.95-1.06,44.8-4.63,59.78-4.42,8.55.12,26.77-1.06,34,3.45,4.24,2.65,7.33,13.2,10.62,16.95,4.7,5.35,16.25,13.86,22,18.1,4.4,3.27,13,10.72,18.24,12.17,1.24.34,4.1.49,5.14-.27s2-3.93,2-5.36c-.11-4.56-6-12.4-7-16.84-.71-3.05-1.27-9.42-.76-12.51a29.86,29.86,0,0,1,3.28-8,39.89,39.89,0,0,1,6.88-7.85c4.55-3.55,15.15-8.48,20.55-10.52,6.87-2.59,21.16-6.91,28.51-7.24,5.3-.23,15.74,2.51,21,3.37,3,.49,8.9,2.47,11.87,2s8.09-4,10.7-5.53c6.51-3.71,18.48-13.1,25.42-15.93,3.08-1.25,9.67-3,13-2.82,4.24.2,12.73,2.73,16.22,5.17,4.31,3,10.11,12.23,12.85,16.73,5.45,9,16.21,27,21.45,36.12,4.87,8.47,14.23,25.6,19,34.11,5.51,9.82,15.46,30.18,22.2,39.19a104,104,0,0,0,9.75,10.61l1.72-1.4a40.35,40.35,0,0,0-.86-4.69c-4.8-13.72-21-38.24-27.41-51.27C812.83,265.13,801,241.58,797,229.11c-2.23-6.84-5.18-19.93-4-27,.67-3.86,3.13-10.5,4-14.32,1-4.36.09-12.67-1.19-17-1.94-6.49-8.12-19.59-7-26.28,3.69-22.37,29.28-73.81,29.28-73.81l13.41-33.17c-.57,1-27.55,48.24-44.6,82.33-6.22,12.48-11.13,23.18-12.92,29.23-1.17,3.93-2.87,11.18-1.25,14.95,1.15,2.68,6.15,7.94,6.15,7.94s-47.71-2.59-63.07-6.5c-10.09-2.56-28.41-13.13-38.39-16.06-17.15-5.05-52.7-10.08-70.4-12.53-12.54-1.74-37.73-4.34-50.36-5-21.33-1.15-64.09,0-85.44-.74-27.94-1-83.5-6.11-111.41-4.53-15.9.9-47.68,5.94-63.48,7.92-17.21,2.17-68.68,5.28-68.68,5.28s-38.35,2.35-39.75,2.49c-1.95.18-28.26.48-42,1.69-1.95.18-3.66.37-5,.59-2.27.36-8.68,3.08-8.68,3.08s28.31,3.49,36.68,7.7c2.23,1.13,7.47,6.62,7.47,6.62l-.72,2.77c7,2.2,15.16,5.11,19.93,7,3.67,1.45,11.61,6.29,11.61,6.29s-10.45,1.08-14.89,1.66c-7.77,1-23.31,3.4-30.94,5.24C160.79,185.06,160.14,185.23,159.46,185.41Zm141.92,25c-1.06-1.58-2-5.79-1.17-7.52,1-2.28,6-4.84,8.47-5.31,7-1.35,19.22,3,25.34,6.54,3.27,1.9,10.68,7,13.9,9,4.21,2.6,12.84,4.16,17.6,5.49,5.3,1.49,15.79,4.89,20.89,7,1.77.73,8.49,4.13,6.26,4.34s-31-4.2-31-4.2c-2-.4-34.28-7.51-36.68-7.69-3.54-.27-10.74-.61-14.1-1.79C308.29,215.32,302.93,212.74,301.38,210.42Z"/><path class="cls-1" d="M145.78,142.4l.13,1.59c13.71-1.21,40-1.51,42-1.69,1.4-.14,39.75-2.49,39.75-2.49s51.47-3.11,68.68-5.28c15.8-2,47.58-7,63.48-7.92,27.91-1.58,83.47,3.56,111.41,4.53,21.35.73,64.11-.41,85.44.74,12.63.69,37.82,3.29,50.36,5,17.7,2.45,53.25,7.48,70.4,12.53,10,2.93,28.3,13.5,38.39,16.06,15.36,3.91,63.07,6.5,63.07,6.5s-5-5.26-6.15-7.94c-1.62-3.77.08-11,1.25-14.95,1.79-6.05,6.7-16.75,12.92-29.23l-1.57-.76c-4.61,9.36-9.36,18.23-13.59,23.77-2.46,3.24-8.72,8.57-12,11-1.59,1.22-6.39,3.25-8.69,3.09-4-.28-10.42-4.39-14.53-6.24-7.66-3.43-24.82-6.89-31.28-12.26-4.62-3.83-9.93-15-12.75-20.33-1.65-3.12-5.74-12.93-5.74-12.93s-11,11.15-15.88,12.32c-4.64,1.12-17.39-3.27-18.77-3.58s-51.55-12.54-68.92-15.82c-18-3.39-71.56-10.62-72.41-10.09s-60-8.49-79.83-12.51c-13.35-2.71-39-9.43-52.75-13.56C367,58.63,345,50.74,333.51,48.13c-2.78-.63-7.21-1.57-8.48-4.13-.75-1.5.34-3.33,1.1-4.82,1.4-2.72,3.41-8.51,4.76-11.24,1.94-3.92,7.71-14.62,7.93-15.6.16-.68,2.21-10-.22-11.66-3.37-2.2-11.26,4.59-14.62,6.81-4.88,3.22-13.44,11.29-17.37,15.6-3.25,3.57-9.25,11.53-12.22,15.33s-8.54,12.29-11,16.34a103,103,0,0,0-6.61,13c-1.16,3-3.13,9.28-4.91,11.93A22,22,0,0,1,268,83.87c-4.93,3.86-15.48,10.61-20.65,14.13-3.52,2.4-10.58,7.17-13.87,9.87-3.94,3.24-10.94,10.72-14.83,14a78.54,78.54,0,0,1-8.78,6.69c-5.11,2.92-21.17,7.74-22.15,8-1.54.37-25.88,4.11-34.55,5.13C151.1,141.92,148.56,142.18,145.78,142.4Z"/><path class="cls-1" d="M300.21,202.9c-.79,1.73.11,5.94,1.17,7.52,1.55,2.32,6.91,4.9,9.55,5.82,3.36,1.18,10.56,1.52,14.1,1.79,2.4.18,34.7,7.29,36.68,7.69,0,0,28.74,4.42,31,4.2s-4.49-3.61-6.26-4.34c-5.1-2.08-15.59-5.48-20.89-7-4.76-1.33-13.39-2.89-17.6-5.49-3.22-2-10.63-7.09-13.9-9-6.12-3.57-18.38-7.89-25.34-6.54C306.23,198.06,301.24,200.62,300.21,202.9Z"/><path class="cls-1" d="M846.91,332.85l-1.72,1.4c1.38,1.32,2.68,2.5,3.73,3.37,2.32,1.93,7.3,5.48,10.08,6.67,2.27,1,9.64,2.21,9.64,2.21s-6.45-5.63-8.38-7.73a73.9,73.9,0,0,1-6.16-7.94c-9.34-14.91-23.33-47.32-31.24-63-3-5.88-10.52-20.55-10.41-24.16s-9.68-24.47-11.28-33.06c-.44-2.31-.18-7.07,0-9.43.42-6.19,4.07-18.41,3.47-24.6-.56-5.61-7.51-15.65-7.45-21.29.06-5.35,5.84-15,7.5-20,2.3-7.06,5.87-21.51,8-28.63,2.35-7.81,7.26-23.39,10-31.07,2.31-6.39,7.1-19.16,10.15-25.24A144.82,144.82,0,0,1,841,36.91c2.12-3.06,9.2-11.67,9.2-11.67s-7.07,1.24-9.22,2.23a51.71,51.71,0,0,0-11.33,8.29l1.81,1.77v0L818.07,70.72s-25.59,51.44-29.28,73.81c-1.09,6.69,5.09,19.79,7,26.28,1.28,4.29,2.19,12.6,1.19,17-.88,3.82-3.34,10.46-4,14.32-1.23,7.09,1.72,20.18,4,27,4.08,12.47,15.88,36,21.69,47.78,6.43,13,22.61,37.55,27.41,51.27A40.35,40.35,0,0,1,846.91,332.85Z"/><path class="cls-1" d="M785.31,119.12l1.57.76c17-34.09,44-81.34,44.6-82.33v0l-1.81-1.77c-3,3.14-7.52,10.73-9.84,14.42s-6.47,11-8.46,14.75c-2.9,5.45-8.12,16.65-10.89,22.16C796.57,94.89,791.06,107.39,785.31,119.12Z"/><g id="Layer_1" data-name="Layer 1"><circle class="cls-3" cx="212.01" cy="160.27" r="3.5"/></g></svg>
