<svg id="Layer_2" data-name="Layer 2" xmlns="http://www.w3.org/2000/svg" viewBox="0 0 868.89 346.75" width="219.22" height="86.68"><defs><style>.cls-1{fill:#25263f;}.cls-2{fill:#8bb4c3;}.cls-3{stroke:#000;stroke-miterlimit:10;}</style></defs><title>Artboard 1</title><path class="cls-1" d="M39.21,35.76c3,3.14,7.52,10.73,9.84,14.42s6.47,11,8.46,14.75c2.9,5.45,8.12,16.65,10.89,22.16,3.93,7.8,9.44,20.3,15.19,32l-1.58.76C65,85.79,38,38.54,37.42,37.55l0,0Z"/><path class="cls-2" d="M709.44,185.41c6.09,1.65,15.71,4.89,20.75,6.64,2.42.84,7.47,2.13,9.54,3.61s8.37,5.71,6.88,7.85-7.5-2.29-10.07-2.76a139.64,139.64,0,0,0-17.8-1.72c-4.66-.05-13.94.79-18.56,1.35-6.68.83-20,2.75-26.5,4.64-10.85,3.18-31.1,13.56-41.68,17.54-8.45,3.19-25.26,5.35-34.22,6.43-10.14,1.22-31.07,2.61-41.26,2.91-10.9.33-32.58,2.87-43.47,3.45-13.5.73-40.54,1.8-54.06,1.52-12.19-.24-36.49-2.47-48.65-3.34-14.95-1.06-44.79-4.63-59.78-4.42-8.55.12-26.76-1.06-34,3.45-4.24,2.65-7.32,13.2-10.62,16.95-4.7,5.35-16.25,13.86-22,18.1-4.4,3.27-13,10.72-18.25,12.17-1.24.34-4.09.49-5.14-.27s-2-3.93-1.95-5.36c.1-4.56,6-12.4,7-16.84.71-3.05,1.27-9.42.76-12.51a29.86,29.86,0,0,0-3.28-8,39.89,39.89,0,0,0-6.88-7.85c-4.55-3.55-15.15-8.48-20.55-10.52-6.87-2.59-21.16-6.91-28.5-7.24-5.31-.23-15.75,2.51-21,3.37-3,.49-8.9,2.47-11.87,2s-8.09-4-10.7-5.53c-6.51-3.71-18.47-13.1-25.42-15.93-3.07-1.25-9.66-3-13-2.82-4.25.2-12.74,2.73-16.23,5.17-4.31,3-10.1,12.23-12.84,16.73-5.46,9-16.22,27-21.46,36.12-4.87,8.47-14.23,25.6-19,34.11-5.52,9.82-15.47,30.18-22.21,39.19a103.83,103.83,0,0,1-9.74,10.61L22,332.85a38.28,38.28,0,0,1,.86-4.69c4.79-13.72,21-38.24,27.41-51.27,5.8-11.76,17.61-35.31,21.68-47.78,2.23-6.84,5.18-19.93,4-27-.66-3.86-3.13-10.5-4-14.32-1-4.36-.09-12.67,1.19-17,1.94-6.49,8.13-19.59,7-26.28-3.68-22.37-29.27-73.81-29.27-73.81L37.42,37.55C38,38.54,65,85.79,82,119.88c6.23,12.48,11.13,23.18,12.92,29.23,1.17,3.93,2.87,11.18,1.26,14.95C95,166.74,90,172,90,172s47.72-2.59,63.08-6.5c10.08-2.56,28.4-13.13,38.39-16.06,17.14-5.05,52.69-10.08,70.4-12.53,12.53-1.74,37.72-4.34,50.35-5,21.33-1.15,64.09,0,85.44-.74,27.94-1,83.5-6.11,111.41-4.53,15.9.9,47.69,5.94,63.49,7.92,17.2,2.17,68.68,5.28,68.68,5.28s38.34,2.35,39.74,2.49c2,.18,28.26.48,42,1.69,2,.18,3.66.37,5,.59,2.27.36,8.69,3.08,8.69,3.08s-28.32,3.49-36.69,7.7c-2.23,1.13-7.47,6.62-7.47,6.62l.73,2.77c-7,2.2-15.16,5.11-19.93,7-3.68,1.45-11.62,6.29-11.62,6.29s10.46,1.08,14.89,1.66c7.78,1,23.32,3.4,30.95,5.24Zm-141.93,25c1.06-1.58,2-5.79,1.18-7.52-1-2.28-6-4.84-8.48-5.31-7-1.35-19.22,3-25.34,6.54-3.27,1.9-10.67,7-13.9,9-4.21,2.6-12.83,4.16-17.6,5.49-5.3,1.49-15.79,4.89-20.89,7-1.76.73-8.48,4.13-6.26,4.34s31-4.2,31-4.2c2-.4,34.28-7.51,36.68-7.69,3.55-.27,10.75-.61,14.1-1.79C560.6,215.32,566,212.74,567.51,210.42Z"/><path class="cls-1" d="M868.63,137.79c-.58.11-18.44,3.74-23.58,4.68-10.28,1.91-31.08,4.51-41.45,5.89-17.26,2.3-51.85,6.38-69.12,8.61-8.26,1.06-24.78,3.37-32.87,5.36-2.27.56-5.2,1.42-8.38,2.42L692.5,162s5.24-5.49,7.47-6.62c8.37-4.21,36.69-7.7,36.69-7.7s-6.42-2.72-8.69-3.08c-1.33-.22-3-.41-5-.59l.14-1.59c9.8.83,22.82,1.53,30.13,1.55,13.81.05,53.75-2.9,55.13-3.22s38-3.82,50.67-3.65c1.12,0,3.34.33,4.45.43C864,137.56,868.36,137.77,868.63,137.79Z"/><path class="cls-1" d="M64.27,176.55c.55-5.61,7.51-15.65,7.44-21.29-.06-5.35-5.84-15-7.5-20-2.3-7.06-5.87-21.51-8-28.63-2.35-7.81-7.25-23.39-10-31.07C43.85,69.12,39.06,56.35,36,50.27a146.94,146.94,0,0,0-8.14-13.36c-2.12-3.06-9.21-11.67-9.21-11.67s7.07,1.24,9.22,2.23a51.48,51.48,0,0,1,11.33,8.29L37.4,37.53l0,0L50.83,70.72s25.59,51.44,29.27,73.81c1.1,6.69-5.09,19.79-7,26.28-1.28,4.29-2.19,12.6-1.19,17,.88,3.82,3.35,10.46,4,14.32,1.23,7.09-1.72,20.18-4,27-4.07,12.47-15.88,36-21.68,47.78-6.44,13-22.62,37.55-27.41,51.27a38.28,38.28,0,0,0-.86,4.69l1.72,1.4c-1.39,1.32-2.69,2.5-3.73,3.37-2.33,1.93-7.31,5.48-10.08,6.67-2.28,1-9.65,2.21-9.65,2.21s6.45-5.63,8.38-7.73a72.64,72.64,0,0,0,6.16-7.94c9.34-14.91,23.33-47.32,31.24-63,3-5.88,10.52-20.55,10.42-24.16s9.67-24.47,11.27-33.06c.44-2.31.18-7.07,0-9.43C67.31,195,63.66,182.74,64.27,176.55Z"/><path class="cls-1" d="M543.87,44c.75-1.5-.35-3.33-1.11-4.82-1.39-2.72-3.4-8.51-4.76-11.24-1.93-3.92-7.7-14.62-7.93-15.6-.16-.68-2.2-10,.23-11.66,3.37-2.2,11.25,4.59,14.62,6.81,4.87,3.22,13.43,11.29,17.36,15.6,3.25,3.57,9.25,11.53,12.23,15.33s8.53,12.29,11,16.34a101.65,101.65,0,0,1,6.61,13c1.16,3,3.13,9.28,4.91,11.93a22,22,0,0,0,3.87,4.19c4.94,3.86,15.48,10.61,20.65,14.13,3.52,2.4,10.59,7.17,13.88,9.87,3.94,3.24,10.94,10.72,14.82,14a78.65,78.65,0,0,0,8.79,6.69c5.11,2.92,21.17,7.74,22.14,8,1.54.37,25.88,4.11,34.55,5.13,2.07.24,4.6.5,7.39.72L723,144c-13.71-1.21-40-1.51-42-1.69-1.4-.14-39.74-2.49-39.74-2.49s-51.48-3.11-68.68-5.28c-15.8-2-47.59-7-63.49-7.92-27.91-1.58-83.47,3.56-111.41,4.53-21.35.73-64.11-.41-85.44.74-12.63.69-37.82,3.29-50.35,5-17.71,2.45-53.26,7.48-70.4,12.53-10,2.93-28.31,13.5-38.39,16.06C137.75,169.41,90,172,90,172s5-5.26,6.16-7.94c1.61-3.77-.09-11-1.26-14.95-1.79-6.05-6.69-16.75-12.92-29.23l1.58-.76c4.6,9.36,9.35,18.23,13.58,23.77,2.46,3.24,8.73,8.57,12,11,1.59,1.22,6.39,3.25,8.69,3.09,4-.28,10.42-4.39,14.53-6.24,7.66-3.43,24.82-6.89,31.29-12.26,4.62-3.83,9.92-15,12.74-20.33,1.66-3.12,5.74-12.93,5.74-12.93s11,11.15,15.89,12.32c4.64,1.12,17.38-3.27,18.76-3.58s51.55-12.54,68.92-15.82c18-3.39,71.56-10.62,72.41-10.09s60-8.49,79.83-12.51c13.35-2.71,39-9.43,52.76-13.56,11.25-3.38,33.23-11.27,44.69-13.88C538.16,47.5,542.6,46.56,543.87,44Z"/><path class="cls-1" d="M568.69,202.9c.79,1.73-.12,5.94-1.18,7.52-1.55,2.32-6.91,4.9-9.55,5.82-3.35,1.18-10.55,1.52-14.1,1.79-2.4.18-34.7,7.29-36.68,7.69,0,0-28.73,4.42-31,4.2s4.5-3.61,6.26-4.34c5.1-2.08,15.59-5.48,20.89-7,4.77-1.33,13.39-2.89,17.6-5.49,3.23-2,10.63-7.09,13.9-9,6.12-3.57,18.39-7.89,25.34-6.54C562.67,198.06,567.65,200.62,568.69,202.9Z"/><g id="Layer_1" data-name="Layer 1"><circle class="cls-3" cx="656.88" cy="160.27" r="3.5"/></g></svg>
