<?xml version="1.0" encoding="utf-8"?>
<!-- Generator: Adobe Illustrator 23.0.3, SVG Export Plug-In . SVG Version: 6.00 Build 0)  -->
<svg version="1.1" id="Layer_1" xmlns="http://www.w3.org/2000/svg" xmlns:xlink="http://www.w3.org/1999/xlink" x="0px" y="0px"
	 viewBox="0 0 14400 14400" style="enable-background:new 0 0 14400 14400;" xml:space="preserve">
<style type="text/css">
	.st0{fill:#CC82FF;}
	.st1{fill:#82BDFF;}
	.st2{fill:#616EFF;}
	.st3{fill:#FFD6F9;}
	.st4{fill:#B86FFF;}
	.st5{fill:#FFFFFF;}
</style>
<g>
	<g>
		<path class="st0" d="M7255,7106.6c66.9-27.1,141-36.5,212.6-26.8c17.7,2.4,37.6,7.7,45.6,23.6c8.1,16.2-1,36.9-16,47.1
			s-34,12.2-52.1,12.3c-51.2,0.2-101.4-12.7-151-25.5c-8.3-2.1-16.8-4.4-23.7-9.4c-6.9-5-12-13.6-10.3-22"/>
	</g>
	<g>
		<path class="st1" d="M7434.3,7078.3c10-23.1,4.1-50.8-9.8-71.9c-13.9-21-34.7-36.4-56.1-49.8c7.1,10.2,1.7,24.3-5.2,34.6
			c-1.1,1.7-2.5,3.5-4.4,4c-2,0.5-4-0.5-5.9-1.5c-12.7-6.9-25.5-13.8-38.2-20.7c9.3,16.4,18.7,36.7,9.4,53.1
			c-0.9,1.6-2.1,3.2-3.9,3.7c-1.5,0.4-3.1-0.1-4.6-0.5c-5-1.6-10.1-3.2-15.1-4.8c8.1,13.7,16.2,31,7.9,44.6c-2.1,3.4-5.1,6.4-6,10.3
			c-0.8,3.9,2.4,8.9,6.2,7.7"/>
	</g>
	<g>
		<path class="st1" d="M7268.7,7100.3c-12-13.7-25.1-28.1-42.8-32.6c-10.4-2.6-21.2-1.5-31.9-1.5c-25.4-0.1-52.3-8.1-68.4-27.8
			c2.3,17,13.3,32.5,28.5,40.4c9.8,5.1,22.8,8.9,25,19.8c-18.6,5.7-39.2,4.6-57.1-3.1c5.6,10.5,16.2,18.2,28,20.2
			c4.9,0.8,10.1,0.8,14.8,2.6c4.7,1.9,8.8,6.6,7.7,11.5c-23.5,5.5-47.8,7.4-71.9,5.6c-4.9-0.4-9.9-0.9-14.3-3.1
			c-10.8-5.3-16.5-19.3-28.3-21.4c7.6,17.5,16.6,36.4,34,44.3c29.8,13.6,68.5-12.6,96.2,5c-6.2-2.1-13.1,1.2-17.5,6
			c-4.5,4.8-7.3,10.8-11,16.2c-9.1,13.1-24.3,21.7-40.2,22.9c-15.9,1.2-32.2-5-43.2-16.5c11.3,17.4,32.7,26.8,53.5,26.5
			c20.8-0.3,40.7-9.3,57.2-21.9c7.3-5.6,14.1-12.1,22.2-16.6c13.2-7.4,28.8-9.2,42.2-16.2c12-6.4,21.7-17,26.9-29.6"/>
	</g>
	<g>
		<path class="st1" d="M7458.9,7162.9c4.4,22.3-5.9,45.5-21.5,62.1s-35.8,27.8-55.8,38.8c16.4-7.7,28-24.6,29.2-42.7
			c-39.6,13.6-66.8,55.5-108.3,61.3c17.2-11.6,33.1-25.2,47.1-40.6c4.7-5.1,9.2-10.6,11.3-17.2c2.1-6.6,1.1-14.6-4.1-19.2
			c-24,20.6-53.1,35.4-84,42.5c11.6-5.3,22.6-12,32.6-20c6.2-5,12.1-10.6,15.4-17.8c3.2-7.2,3.3-16.4-1.8-22.5
			c-15.8,12.1-35.5,18.9-55.4,19.2c9-8.7,18.4-17.9,21.7-30c3.4-12.4-0.3-25.5-4-37.8"/>
	</g>
	<g>
		<g>
			<path class="st1" d="M7279.5,7139.6c-0.5-1.1-0.4-2.4,0.1-3.4c0.9-1.7-1.7-3.2-2.6-1.5c-1,2.1-1,4.3-0.1,6.4
				c0.3,0.7,1.4,0.9,2.1,0.5C7279.7,7141.2,7279.8,7140.3,7279.5,7139.6L7279.5,7139.6z"/>
		</g>
	</g>
	<g>
		<path class="st1" d="M7487.9,7160.3c7.5,14.4,13,30.3,13.3,46.5c0.3,16.3-4.9,33.1-16.2,44.7c6.1-14.6,6.8-31.4,2-46.5
			c-2.2-6.9-5.6-13.5-8.5-20.2c-1.8-4.2-3.6-8.7-3.1-13.2c0.5-4.5,4-9.1,8.5-9.3"/>
	</g>
	<g>
		<g>
			<path class="st1" d="M7480.5,7166.1c1.2-1.2,2.5-2.5,3.7-3.7c1.4-1.4-0.8-3.5-2.1-2.1c-1.2,1.2-2.5,2.5-3.7,3.7
				C7477,7165.3,7479.1,7167.5,7480.5,7166.1L7480.5,7166.1z"/>
		</g>
	</g>
	<g>
		<g>
			<path class="st1" d="M7481.9,7160.3c1.9,0,1.9-3,0-3C7480,7157.3,7480,7160.3,7481.9,7160.3L7481.9,7160.3z"/>
		</g>
	</g>
	<g>
		<g>
			<path class="st0" d="M7485.6,7157.4c-3.4,0-6.3,1-9.4,2.2c-4.7,1.7-8.3,2.1-13.2,0.5c-8.4-2.8-16.7-6.1-25.1-9.2
				c-1.8-0.7-2.6,2.2-0.8,2.9c8.8,3.2,17.6,7.2,26.7,9.7c8.1,2.3,13.9-3,21.7-3.1C7487.5,7160.4,7487.5,7157.4,7485.6,7157.4
				L7485.6,7157.4z"/>
		</g>
	</g>
	<g>
		<g>
			<path class="st0" d="M7478.2,7160.2c3.1,0.1,6-1.5,7.7-4.1c1.1-1.6-1.5-3.1-2.6-1.5c-1.2,1.7-3.1,2.7-5.1,2.6
				C7476.3,7157.1,7476.3,7160.1,7478.2,7160.2L7478.2,7160.2z"/>
		</g>
	</g>
	<g>
		<g>
			<path class="st0" d="M7314,7138.4c-5.2-0.7-10.4-1.4-15.6-2c-4.8-0.6-11.6-0.6-14.3-5.5c-0.9-1.7-3.5-0.2-2.6,1.5
				c2.3,4.3,6.7,5.5,11.2,6.2c7,1.1,14.1,1.9,21.2,2.8C7315.9,7141.7,7315.9,7138.7,7314,7138.4L7314,7138.4z"/>
		</g>
	</g>
	<g>
		<g>
			<path class="st0" d="M7280.3,7122.3c-6.9,9.1,3.6,18.2,12.3,19.3c7,0.9,14.4-0.2,21.4-0.7c8.2-0.5,16.5-1,24.7-1.6
				c1.9-0.1,1.9-3.1,0-3c-11.4,0.7-22.8,1.5-34.2,2.2c-4.9,0.3-10.2,0.9-15-0.6c-5.7-1.8-10.9-8.4-6.6-14.1
				C7284,7122.2,7281.4,7120.7,7280.3,7122.3L7280.3,7122.3z"/>
		</g>
	</g>
	<g>
		<g>
			<path class="st2" d="M7370.6,6955.3c3.9,16.1-10.6,30.1-8.2,46.4c1.2,8.6,5.8,16.3,7.3,24.8c2.1,11.2-2.6,21.8-7.2,31.7
				c-0.8,1.7,1.8,3.3,2.6,1.5c3.9-8.5,7.9-17.3,8.2-26.7c0.2-9.7-4.5-18.2-7-27.3c-2.7-10.1,0.3-18.7,3.9-28.1
				c2.9-7.6,5.3-15.1,3.3-23.2C7373.1,6952.7,7370.2,6953.5,7370.6,6955.3L7370.6,6955.3z"/>
		</g>
	</g>
	<g>
		<g>
			<path class="st2" d="M7310.5,6971.8c4.1,7.9,8.2,15.8,10.7,24.3c2.4,8.2,2.3,16,1.5,24.3c-1.3,14.5,1.2,27.5,10.3,39.2
				c1.2,1.5,3.3-0.6,2.1-2.1c-5.2-6.7-8.6-14.7-9.6-23.2c-0.9-7.7,0.8-15.2,0.9-22.8c0.2-14.9-6.6-28.4-13.3-41.2
				C7312.2,6968.6,7309.6,6970.1,7310.5,6971.8L7310.5,6971.8z"/>
		</g>
	</g>
	<g>
		<g>
			<path class="st2" d="M7298.8,7030.6c4.6,1.8,9.2,4.5,11.9,8.7c3.4,5.4,1.9,10.9,0.5,16.7c-1.4,5.9-1.8,12.7,3.4,16.8
				c1.5,1.2,3.6-0.9,2.1-2.1c-8.5-6.7,0.9-19.3-1.3-28c-2-7.5-8.9-12.3-15.8-15C7297.8,7027,7297,7029.9,7298.8,7030.6
				L7298.8,7030.6z"/>
		</g>
	</g>
	<g>
		<g>
			<path class="st2" d="M7125.2,7038.6c5,16.1,15.2,30.3,29,40c6.9,4.9,14.4,8.1,22.3,10.9c9.1,3.3,18.3,6.6,24.6,14.3
				c1.2,1.5,3.3-0.6,2.1-2.1c-10.6-12.9-28.8-14.3-42.5-22.4c-15.6-9.2-27.3-24.2-32.6-41.5
				C7127.5,7035.9,7124.6,7036.7,7125.2,7038.6L7125.2,7038.6z"/>
		</g>
	</g>
	<g>
		<g>
			<path class="st2" d="M7201.1,7102.8c-24.1-7.4-49.5,0.4-73.8-5.1c-1.9-0.4-2.7,2.5-0.8,2.9c24.4,5.4,49.8-2.3,73.8,5.1
				C7202.2,7106.3,7203,7103.4,7201.1,7102.8L7201.1,7102.8z"/>
		</g>
	</g>
	<g>
		<g>
			<path class="st2" d="M7122.4,7098.3c5.7,2.1,11.5,4.3,17.2,6.4c1.8,0.7,2.6-2.2,0.8-2.9c-5.7-2.1-11.5-4.3-17.2-6.4
				C7121.3,7094.7,7120.6,7097.6,7122.4,7098.3L7122.4,7098.3z"/>
		</g>
	</g>
	<g>
		<g>
			<path class="st2" d="M7121.2,7098.5c5.9,7.2,14,11.8,22.7,14.8c4.6,1.6,9.3,2.8,14,3.8c2.4,0.5,5.1,0.7,7.4,1.5
				c3.9,1.3,5,4.3,7.2,7.4c12.3,17.8,36.7,13.1,54.4,8.7c1.9-0.5,1.1-3.4-0.8-2.9c-10.8,2.7-22.3,5.7-33.5,3.3
				c-5-1.1-9.9-3.2-13.9-6.6c-3.5-3-4.7-7.6-8-10.6c-2.6-2.4-6.5-2.5-9.8-3.2c-4.5-0.9-9-2-13.4-3.3c-9.4-2.9-18-7.3-24.3-15
				C7122.1,7094.9,7120,7097,7121.2,7098.5L7121.2,7098.5z"/>
		</g>
	</g>
	<g>
		<g>
			<path class="st2" d="M7058,7113c5.2,1.9,8.6,6.4,12.8,9.9c3.5,2.9,7.3,5.3,11.4,7.1c8.6,3.9,18,5.7,27.5,6.3
				c11.2,0.7,22.5-0.3,33.7-1c11.9-0.7,23.7-1.5,35.6-2.2c1.9-0.1,1.9-3.1,0-3c-22.3,1.4-45,4.3-67.3,3.3
				c-10.6-0.4-21.4-2.4-30.8-7.4c-8.1-4.3-13.4-12.7-22-15.9C7057,7109.5,7056.2,7112.4,7058,7113L7058,7113z"/>
		</g>
	</g>
	<g>
		<g>
			<path class="st2" d="M7058.6,7114.7c4.5,11.8,9.5,23.3,20,31c9.5,6.9,21.3,10.1,32.9,11.1c29.9,2.4,61.8-9.8,90.1,4.6
				c1.7,0.9,3.2-1.7,1.5-2.6c-24.7-12.6-52.2-5.6-78.5-4.8c-13.2,0.4-26.9-1-38.7-7.3c-13.3-7.1-19.3-19.3-24.4-32.8
				C7060.8,7112.2,7057.9,7112.9,7058.6,7114.7L7058.6,7114.7z"/>
		</g>
	</g>
	<g>
		<g>
			<path class="st2" d="M7197,7157c-8.3-1.2-16.6,1.5-22.1,8.1c-3.4,4.1-5.5,9.1-9.1,13.1c-4.2,4.5-9.6,7.9-14.7,11.4
				c-9.9,6.6-20.5,12.7-32.6,14c-11.9,1.3-23.9-1.6-34-7.9c-1.6-1-3.2,1.6-1.5,2.6c18.5,11.5,40.3,10.7,59,0.4
				c9.1-5,19.5-11.2,26.5-19c3.7-4.2,5.8-9.5,9.6-13.6c4.6-5,11.5-7.1,18.1-6.1C7198.1,7160.2,7198.9,7157.3,7197,7157L7197,7157z"
				/>
		</g>
	</g>
	<g>
		<g>
			<path class="st2" d="M7484.3,7248.8c9.9-8.3,15.6-21,14.4-34c-0.7-7.7-3.5-15-6-22.3c-2.9-8.5-5.9-17.1-8.8-25.6
				c-0.6-1.8-3.5-1-2.9,0.8c4.8,13.8,10.9,27.9,13.9,42.2c2.9,13.8-1.9,27.7-12.8,36.8C7480.7,7247.9,7482.8,7250,7484.3,7248.8
				L7484.3,7248.8z"/>
		</g>
	</g>
	<g>
		<g>
			<path class="st2" d="M7385,7263.4c20.5-10.6,37.5-26.8,49-46.9c1-1.7-1.6-3.2-2.6-1.5c-11.2,19.6-27.8,35.5-47.9,45.8
				C7381.8,7261.7,7383.3,7264.2,7385,7263.4L7385,7263.4z"/>
		</g>
	</g>
	<g>
		<g>
			<path class="st2" d="M7301.9,7283.8c19.7-9.5,39.8-19.6,53.7-37.2c13.1-16.6,20-37,25.7-57.1c0.5-1.9-2.4-2.7-2.9-0.8
				c-5.7,20.1-12.6,40.7-26,57.1c-13.6,16.7-33.1,26.2-52.1,35.4C7298.6,7282.1,7300.1,7284.6,7301.9,7283.8L7301.9,7283.8z"/>
		</g>
	</g>
	<g>
		<g>
			<path class="st2" d="M7272,7246.7c8-0.6,14.8-4,21.1-8.8c6.9-5.2,13.8-11.5,18.9-18.5c5.3-7.4,7.2-16.2,8.4-25
				c1.5-11,2.7-22,4.1-33c0.2-1.9-2.8-1.9-3,0c-1.1,9.1-2.2,18.2-3.4,27.3c-1.1,9-2.1,18.5-6.9,26.5c-4.1,6.8-10.5,12.5-16.5,17.6
				c-6.6,5.6-13.9,10.3-22.8,11C7270.1,7243.8,7270.1,7246.8,7272,7246.7L7272,7246.7z"/>
		</g>
	</g>
	<g>
		<g>
			<path class="st2" d="M7265.8,7208.4c13.7-11.5,24.1-29.2,24.9-47.4c0.5-10.2-5.7-20.8-9.4-30.1c-4.3-11.1-8.6-22.2-13-33.3
				c-0.7-1.8-3.6-1-2.9,0.8c3.7,9.6,7.5,19.2,11.2,28.8c1.9,4.8,3.7,9.6,5.6,14.4c1.9,4.9,4.5,10,5.2,15.2c1.3,9.3-2.6,20-6.7,28.1
				c-4.2,8.2-10,15.3-17.1,21.3C7262.2,7207.6,7264.3,7209.7,7265.8,7208.4L7265.8,7208.4z"/>
		</g>
	</g>
	<g>
		<g>
			<path class="st2" d="M7262.1,7207.4c16.7-4.2,35.2-9.6,44.5-25.4c1-1.7-1.6-3.2-2.6-1.5c-8.9,15-26.9,20-42.7,24
				C7259.4,7205,7260.2,7207.9,7262.1,7207.4L7262.1,7207.4z"/>
		</g>
	</g>
	<g>
		<g>
			<path class="st2" d="M7320.3,6984.9c0.2-6.7-4.3-12-10.3-14.6c-8-3.5-16.7-1.2-24.7,1.3c-20.9,6.4-42.1,6.1-61.9-3.9
				c-1.7-0.9-3.2,1.7-1.5,2.6c14.7,7.4,31.2,10.4,47.5,8.2c8.7-1.2,16.7-4.6,25.2-6.3c9-1.8,23,0.8,22.7,12.7
				C7317.2,6986.8,7320.2,6986.8,7320.3,6984.9L7320.3,6984.9z"/>
		</g>
	</g>
	<g>
		<g>
			<path class="st2" d="M7371,6970c0.4-6.3,0.7-23.9-9.7-20.9c-4.8,1.4-8,5.6-11,9.3c-2.1,2.6-4.4,5.5-7.4,7.1
				c-3.6,1.9-9,1.1-10.1-3.4c-0.4-1.9-3.3-1.1-2.9,0.8c1.9,8.1,11.8,7.7,17.2,3.4c4.5-3.6,7-9,11.6-12.4c1.9-1.3,5.1-2.9,7.2-0.5
				c0.7,0.9,1.2,3.9,1.4,5c0.8,3.9,1,7.7,0.7,11.6C7367.9,6971.9,7370.9,6971.9,7371,6970L7371,6970z"/>
		</g>
	</g>
	<g>
		<g>
			<path class="st2" d="M7299.8,7026.1c-21.5-6.6-42.2,4-60.7,14.1c-1.7,0.9-0.2,3.5,1.5,2.6c17.8-9.8,37.6-20.2,58.4-13.8
				C7300.8,7029.6,7301.6,7026.7,7299.8,7026.1L7299.8,7026.1z"/>
		</g>
	</g>
	<g>
		<g>
			<path class="st3" d="M7128.1,7040.4c9.3,16.9,27.6,25.3,45.4,30.3c11,3.1,22.2,5.2,33,8.7c8.9,2.9,30.9,10,26.8,23.1
				c-0.6,1.8,2.3,2.6,2.9,0.8c2.8-9-5.3-16.1-12.5-20c-10.6-5.7-22.5-8.8-34.1-11.6c-21.9-5.4-47.2-11.5-58.9-32.8
				C7129.8,7037.2,7127.2,7038.7,7128.1,7040.4L7128.1,7040.4z"/>
		</g>
	</g>
	<g>
		<g>
			<path class="st3" d="M7129,7102c19,6,38.4,8.8,58.3,9.1c10,0.1,19.3,1,27.4,7.5c5.5,4.4,10.3,9.5,17.4,11
				c1.9,0.4,2.7-2.5,0.8-2.9c-7.9-1.6-12.9-8.2-19.2-12.6c-6.8-4.7-15-5.7-23.1-6c-20.9-0.6-40.9-2.7-60.9-9
				C7128,7098.5,7127.2,7101.4,7129,7102L7129,7102z"/>
		</g>
	</g>
	<g>
		<g>
			<path class="st3" d="M7060.6,7112.2c18.5,29.4,57,27.3,87.2,28.8c10.6,0.5,20.9,1.9,31.1,4.7c9,2.5,17.8,5.5,27,6.9
				c13.8,2.1,29.4-0.1,38.9-11.4c1.2-1.5-0.9-3.6-2.1-2.1c-10.6,12.7-28.4,12.7-43.2,9.2c-8.5-2-16.7-4.9-25.1-6.9
				c-8.1-1.9-16.3-2.9-24.6-3.3c-29.5-1.7-68.3,1.5-86.5-27.4C7062.1,7109,7059.5,7110.5,7060.6,7112.2L7060.6,7112.2z"/>
		</g>
	</g>
	<g>
		<g>
			<path class="st3" d="M7095.6,7207.4c12.3,5.1,25.5,8.1,38.8,6.5c10.1-1.3,19.7-5.1,28.6-9.9c20-10.7,37.7-26.2,60.2-31.6
				c1.9-0.5,1.1-3.3-0.8-2.9c-20.8,5-37.6,18.5-55.8,29.1c-9.3,5.4-19.1,10.1-29.7,11.9c-13.8,2.4-27.7-0.6-40.5-6
				C7094.6,7203.7,7093.8,7206.6,7095.6,7207.4L7095.6,7207.4z"/>
		</g>
	</g>
	<g>
		<g>
			<path class="st3" d="M7369.1,6954.1c5.6,7.5,12,14.3,19.4,20.1c7,5.5,14.9,9.7,22.1,15c8.7,6.5,14.4,15,14.8,26.1
				c0.4,10.4-2.9,20.7-6.2,30.4c-0.6,1.8,2.3,2.6,2.9,0.8c5.9-17.7,11.4-38.8-3.1-54c-6.3-6.6-14.5-10.9-22-15.9
				c-9.8-6.5-18.3-14.7-25.3-24.1C7370.5,6951,7367.9,6952.5,7369.1,6954.1L7369.1,6954.1z"/>
		</g>
	</g>
	<g>
		<g>
			<path class="st3" d="M7313.2,6972.2c13.3,9,26.3,18.6,30.3,35.1c4.2,17.2,6,35.2,8.8,52.7c0.3,1.9,3.2,1.1,2.9-0.8
				c-1.6-9.8-3.2-19.6-4.8-29.4c-1.5-9.4-2.3-19.3-5.5-28.3c-5.1-14.5-18-23.5-30.2-31.8C7313.1,6968.5,7311.6,6971.1,7313.2,6972.2
				L7313.2,6972.2z"/>
		</g>
	</g>
	<g>
		<g>
			<path class="st3" d="M7295.8,7023.5c11.6,0.4,18.9,11.4,21.5,21.6c3,11.3,2.5,23.1,6.2,34.2c0.6,1.8,3.5,1,2.9-0.8
				c-4.4-13-2.8-27.3-8.2-40c-4-9.4-11.7-17.7-22.5-18.1C7293.8,7020.5,7293.8,7023.5,7295.8,7023.5L7295.8,7023.5z"/>
		</g>
	</g>
	<g>
		<g>
			<path class="st3" d="M7327.9,7275.8c35.9-15.1,66.6-40.4,88.2-72.8c1.1-1.6-1.5-3.1-2.6-1.5c-21.1,31.7-51.3,56.7-86.4,71.4
				C7325.3,7273.6,7326.1,7276.5,7327.9,7275.8L7327.9,7275.8z"/>
		</g>
	</g>
	<g>
		<g>
			<path class="st3" d="M7294.6,7243.1c10.9-6.4,21.9-12.5,32.6-19.2c8.5-5.3,16.7-11.3,22.8-19.3c10.1-13.2,13-34.3-0.6-46.3
				c-1.4-1.3-3.6,0.8-2.1,2.1c14.6,12.9,8,34.9-3.8,47c-6.4,6.6-14.2,11.6-22,16.3c-9.4,5.7-19,11.2-28.5,16.7
				C7291.4,7241.5,7292.9,7244.1,7294.6,7243.1L7294.6,7243.1z"/>
		</g>
	</g>
	<g>
		<g>
			<path class="st3" d="M7278.8,7203.6c14.2-3.7,30.5-8.5,37.6-22.8c5.2-10.7,1.8-24.7-10-29.1c-1.8-0.7-2.6,2.2-0.8,2.9
				c13.2,4.9,12.1,21.5,4.3,30.5c-8,9.3-20.4,12.6-31.9,15.6C7276.1,7201.2,7276.9,7204.1,7278.8,7203.6L7278.8,7203.6z"/>
		</g>
	</g>
	<g>
		<g>
			<path class="st4" d="M7485.6,7158.7c-27.4-4.3-46.2-29.2-42.8-56.8c0.2-1.9-2.8-1.9-3,0c-3.6,28.8,16.3,55.2,45,59.7
				C7486.7,7161.9,7487.5,7159,7485.6,7158.7L7485.6,7158.7z"/>
		</g>
	</g>
	<g>
		<g>
			<path class="st4" d="M7480.3,7160c-29.8,1.5-54.8-21.9-55.2-51.8c0-1.9-3-1.9-3,0c0.4,31.5,26.7,56.4,58.2,54.8
				C7482.2,7162.9,7482.2,7159.9,7480.3,7160L7480.3,7160z"/>
		</g>
	</g>
	<g>
		<g>
			<path class="st4" d="M7463.4,7158.4c-6.5-1.5-13-3-19.5-4.5c-5.8-1.3-12.1-2.4-17.2-5.5c-10.2-6.2-10.7-19.6-10.8-30.2
				c0-1.9-3-1.9-3,0c0.1,10.6,0.7,23.2,9.4,30.7c4.3,3.7,9.9,5.3,15.4,6.6c8.3,2,16.6,3.8,24.9,5.8
				C7464.5,7161.7,7465.3,7158.8,7463.4,7158.4L7463.4,7158.4z"/>
		</g>
	</g>
	<g>
		<g>
			<path class="st4" d="M7518.8,7114.2c-15.8-28.8-50.1-36.1-80.4-37.5c-36.8-1.7-73.8,1.2-110,8c-20.7,3.9-41,9.2-61,15.7
				c-1.8,0.6-1,3.5,0.8,2.9c33.6-11,68.3-18.4,103.5-21.8c17.2-1.7,34.4-2.4,51.7-2.3c17.5,0.2,35.4,0.8,52.3,6
				c16.6,5.1,31.9,15,40.4,30.5C7517.1,7117.4,7519.7,7115.9,7518.8,7114.2L7518.8,7114.2z"/>
		</g>
	</g>
	<g>
		<g>
			<path class="st4" d="M7516,7115.1c-5.4,16.1-14.7,32.5-29.9,41.2c-18.9,10.9-42.7,4.3-63,1.5c-21.6-3-43.3-5.9-64.9-8.9
				c-21.4-2.9-42.8-5.3-64.1-8.8c-5.2-0.8-10.5-2.2-14.2-6.2c-2.9-3.2-4.3-7.5-5.3-11.6c-1.9-7.7-2.7-15.7-7.6-22.2
				c-1.1-1.5-3.8,0-2.6,1.5c8.9,11.9,4.1,31.7,19.6,38.9c3.9,1.8,8.2,2.4,12.4,3c6.6,0.9,13.1,1.8,19.7,2.7
				c11.8,1.6,23.6,3.2,35.4,4.8c23.9,3.3,47.9,6.5,71.8,9.8c19.9,2.7,42.8,8.8,61.8-0.6c17.3-8.6,27.8-26.7,33.8-44.4
				C7519.5,7114.1,7516.6,7113.3,7516,7115.1L7516,7115.1z"/>
		</g>
	</g>
	<g>
		<g>
			<path class="st4" d="M7415.9,7075.8c-10.9,2.4-23,6.8-34.2,5c-9.4-1.5-18-1.9-27.3,0.5c-1.9,0.5-1.1,3.4,0.8,2.9
				c5.4-1.4,10.9-2.1,16.5-1.8c5,0.3,9.8,1.8,14.8,1.9c10,0.2,20.5-3.5,30.2-5.7C7418.6,7078.3,7417.8,7075.4,7415.9,7075.8
				L7415.9,7075.8z"/>
		</g>
	</g>
	<g>
		<g>
			<path class="st4" d="M7364.6,7085c10.3,0,20.4-1.5,30.2-4.5c1.8-0.6,1.1-3.5-0.8-2.9c-9.6,2.9-19.4,4.3-29.4,4.3
				C7362.7,7082,7362.7,7085,7364.6,7085L7364.6,7085z"/>
		</g>
	</g>
	<g>
		<path d="M7477.7,7111.1c5.5,1.2,7.8,9.4,3.7,13.4c-4,4-12,1.8-13.7-3.6c-1.7-5.4,3.5-11.6,9.1-11.1"/>
	</g>
	<g>
		<g>
			<path class="st5" d="M7473.5,7112.8c-0.4-1.7-0.8-3.3-1.2-5c-0.4-1.9-3.3-1.1-2.9,0.8c0.4,1.7,0.8,3.3,1.2,5
				C7471.1,7115.4,7474,7114.6,7473.5,7112.8L7473.5,7112.8z"/>
		</g>
	</g>
	<g>
		<g>
			<path class="st5" d="M7473.3,7123.3c1.9,0,1.9-3,0-3C7471.3,7120.3,7471.3,7123.3,7473.3,7123.3L7473.3,7123.3z"/>
		</g>
	</g>
	<g>
		<g>
			<path class="st4" d="M7505.6,7102.6c11.1,5.5,8.8,21.2-3.4,23.3c-1.1,0.2-1.4,1.8-0.7,2.5c4,3.8,3.2,9.9-0.1,13.9
				c-3.5,4.3-8.9,6.4-13.9,8.3c-1.8,0.7-1,3.6,0.8,2.9c6.6-2.6,14.1-5.5,17.4-12.3c2.4-5,2-11-2.1-14.9c-0.2,0.8-0.4,1.7-0.7,2.5
				c14.8-2.6,17.5-22.2,4.1-28.8C7505.4,7099.2,7503.9,7101.8,7505.6,7102.6L7505.6,7102.6z"/>
		</g>
	</g>
	<g>
		<g>
			<path class="st4" d="M7505.4,7129.5c1.6,0,3.3,0,4.9,0c1.9,0,1.9-3,0-3c-1.6,0-3.3,0-4.9,0
				C7503.4,7126.5,7503.4,7129.5,7505.4,7129.5L7505.4,7129.5z"/>
		</g>
	</g>
	<g>
		<g>
			<path class="st4" d="M7479,7160.3c2.5-1.2,4.9-2.5,7.4-3.7c1.7-0.9,0.2-3.5-1.5-2.6c-2.5,1.2-4.9,2.5-7.4,3.7
				C7475.8,7158.6,7477.3,7161.1,7479,7160.3L7479,7160.3z"/>
		</g>
	</g>
	<g>
		<g>
			<path class="st4" d="M7284.3,7136.8c-6.2-3.9-11.7-8.7-16.3-14.5c-4.3-5.4-7-11.6-10.3-17.6c-2.8-5-6.2-9.2-11.1-12.1
				c-7.1-4.2-15-7.3-22.4-10.8c-1.7-0.8-3.3,1.8-1.5,2.6c7.2,3.4,14.6,6.5,21.6,10.3c7,3.8,10.2,10.3,13.7,17.1
				c5.8,11.4,13.9,20.7,24.8,27.5C7284.4,7140.4,7285.9,7137.8,7284.3,7136.8L7284.3,7136.8z"/>
		</g>
	</g>
	<g>
		<g>
			<path class="st4" d="M7274.4,7115.8c-7.5-6.3-8.7-16.7-14.6-24.2c-6.2-8-16.7-14.1-25.7-18.4c-9.3-4.5-19.4-6.2-29.5-7.4
				c-12.4-1.4-24.9-2.5-37.4-3.8c-1.9-0.2-1.9,2.8,0,3c11.3,1.1,22.6,2.2,33.9,3.4c11.4,1.2,22.9,2.9,33.2,8.2
				c9.1,4.7,19.8,10.8,25.2,19.8c4.3,7.3,6.1,15.9,12.8,21.5C7273.7,7119.1,7275.8,7117,7274.4,7115.8L7274.4,7115.8z"/>
		</g>
	</g>
</g>
</svg>
