<?xml version="1.0" encoding="utf-8"?>
<!-- Generator: Adobe Illustrator 23.0.3, SVG Export Plug-In . SVG Version: 6.00 Build 0)  -->
<svg version="1.1" id="Layer_1" xmlns="http://www.w3.org/2000/svg" xmlns:xlink="http://www.w3.org/1999/xlink" x="0px" y="0px"
	 viewBox="0 0 462 335.2" style="enable-background:new 0 0 462 335.2;" xml:space="preserve" width="154" height="111.7">
<style type="text/css">
	.st0{fill:#CC82FF;}
	.st1{fill:#82BDFF;}
	.st2{fill:#616EFF;}
	.st3{fill:#FFD6F9;}
	.st4{fill:#B86FFF;}
	.st5{fill:#FFFFFF;}
</style>
<g>
	<g>
		<path class="st0" d="M263.5,157.9c-66.9-27.1-141-36.5-212.6-26.8c-17.7,2.4-37.6,7.7-45.6,23.6c-8.1,16.2,1,36.9,16,47.1
			s34,12.2,52.1,12.3c51.2,0.2,101.4-12.7,151-25.5c8.3-2.1,16.8-4.4,23.7-9.4c6.9-5,12-13.6,10.3-22"/>
	</g>
	<g>
		<path class="st1" d="M84.2,129.6c-10-23.1-4.1-50.8,9.8-71.9s34.7-36.4,56.1-49.8c-7.1,10.2-1.7,24.3,5.2,34.6
			c1.1,1.7,2.5,3.5,4.4,4c2,0.5,4-0.5,5.9-1.5c12.7-6.9,25.5-13.8,38.2-20.7c-9.3,16.4-18.7,36.7-9.4,53.1c0.9,1.6,2.1,3.2,3.9,3.7
			c1.5,0.4,3.1-0.1,4.6-0.5c5-1.6,10.1-3.2,15.1-4.8c-8.1,13.7-16.2,31-7.9,44.6c2.1,3.4,5.1,6.4,6,10.3c0.8,3.9-2.4,8.9-6.2,7.7"/>
	</g>
	<g>
		<path class="st1" d="M249.8,151.6c12-13.7,25.1-28.1,42.8-32.6c10.4-2.6,21.2-1.5,31.9-1.5c25.4-0.1,52.3-8.1,68.4-27.8
			c-2.3,17-13.3,32.5-28.5,40.4c-9.8,5.1-22.8,8.9-25,19.7c18.6,5.7,39.2,4.6,57.1-3.1c-5.6,10.5-16.2,18.2-28,20.2
			c-4.9,0.8-10.1,0.8-14.8,2.6c-4.7,1.9-8.8,6.6-7.7,11.5c23.5,5.5,47.8,7.4,71.9,5.6c4.9-0.4,9.9-0.9,14.3-3.1
			c10.8-5.3,16.5-19.3,28.3-21.4c-7.6,17.5-16.6,36.4-34,44.3c-29.8,13.6-68.5-12.6-96.2,5c6.2-2.1,13.1,1.2,17.5,6
			c4.5,4.8,7.3,10.8,11,16.2c9.1,13.1,24.3,21.7,40.2,22.9c15.9,1.2,32.2-5,43.2-16.5c-11.3,17.4-32.7,26.8-53.5,26.5
			c-20.8-0.3-40.7-9.3-57.2-21.9c-7.3-5.6-14.1-12.1-22.2-16.6c-13.2-7.4-28.8-9.2-42.2-16.2c-12-6.4-21.7-17-26.9-29.6"/>
	</g>
	<g>
		<path class="st1" d="M59.5,214.2c-4.4,22.3,5.9,45.5,21.5,62.1s35.8,27.8,55.8,38.8c-16.4-7.7-28-24.6-29.2-42.7
			c39.6,13.6,66.8,55.5,108.3,61.3c-17.2-11.6-33.1-25.2-47.1-40.6c-4.7-5.1-9.2-10.6-11.3-17.2s-1.1-14.6,4.1-19.2
			c24,20.6,53.1,35.3,84,42.5c-11.6-5.3-22.6-12-32.6-20c-6.2-5-12.1-10.6-15.4-17.8c-3.2-7.2-3.3-16.4,1.8-22.5
			c15.8,12.1,35.5,18.9,55.4,19.2c-9-8.7-18.4-17.9-21.7-30c-3.4-12.4,0.3-25.5,4-37.8"/>
	</g>
	<g>
		<g>
			<path class="st1" d="M241.6,192.4c1-2.1,0.9-4.3-0.1-6.4c-0.9-1.7-3.4-0.2-2.6,1.5c0.5,1.1,0.6,2.3,0.1,3.4
				c-0.3,0.7-0.2,1.6,0.5,2.1C240.2,193.3,241.3,193.1,241.6,192.4L241.6,192.4z"/>
		</g>
	</g>
	<g>
		<path class="st1" d="M30.5,211.6c-7.5,14.4-13,30.3-13.3,46.5s4.9,33.1,16.2,44.7c-6.1-14.6-6.8-31.4-2-46.5
			c2.2-6.9,5.6-13.5,8.5-20.2c1.8-4.2,3.6-8.7,3.1-13.2c-0.5-4.5-4-9.1-8.5-9.3"/>
	</g>
	<g>
		<g>
			<path class="st1" d="M40.1,215.2c-1.2-1.2-2.5-2.5-3.7-3.7c-1.4-1.4-3.5,0.8-2.1,2.1c1.2,1.2,2.5,2.5,3.7,3.7
				C39.3,218.7,41.5,216.6,40.1,215.2L40.1,215.2z"/>
		</g>
	</g>
	<g>
		<g>
			<path class="st1" d="M36.6,211.6c1.9,0,1.9-3,0-3C34.6,208.6,34.6,211.6,36.6,211.6L36.6,211.6z"/>
		</g>
	</g>
	<g>
		<g>
			<path class="st0" d="M32.9,211.7c7.9,0.1,13.6,5.4,21.7,3.1c9-2.5,17.9-6.5,26.7-9.7c1.8-0.7,1-3.6-0.8-2.9
				c-8.3,3.1-16.6,6.4-25.1,9.2c-4.8,1.6-8.5,1.2-13.2-0.5c-3.1-1.1-6-2.1-9.4-2.2C30.9,208.7,30.9,211.7,32.9,211.7L32.9,211.7z"/>
		</g>
	</g>
	<g>
		<g>
			<path class="st0" d="M40.3,208.4c-2.1,0-4-0.9-5.1-2.6c-1.1-1.6-3.7-0.1-2.6,1.5c1.7,2.6,4.6,4.2,7.7,4.1
				C42.2,211.4,42.2,208.4,40.3,208.4L40.3,208.4z"/>
		</g>
	</g>
	<g>
		<g>
			<path class="st0" d="M204.4,192.7c7.1-0.9,14.2-1.7,21.2-2.8c4.5-0.7,8.9-1.9,11.2-6.2c0.9-1.7-1.7-3.2-2.6-1.5
				c-2.6,4.8-9.5,4.9-14.3,5.5c-5.2,0.7-10.4,1.4-15.6,2C202.5,189.9,202.5,192.9,204.4,192.7L204.4,192.7z"/>
		</g>
	</g>
	<g>
		<g>
			<path class="st0" d="M235.6,175c4,5.3-0.4,11.9-5.9,13.9c-5,1.8-10.6,1.1-15.7,0.8c-11.4-0.7-22.8-1.4-34.2-2.2
				c-1.9-0.1-1.9,2.9,0,3c8.2,0.5,16.5,1,24.7,1.6c7,0.4,14.4,1.6,21.4,0.7c8.6-1.1,19.1-10.2,12.3-19.3
				C237,172,234.4,173.5,235.6,175L235.6,175z"/>
		</g>
	</g>
	<g>
		<g>
			<path class="st2" d="M144.9,5.8c-1.9,7.8,0.3,15.1,3,22.5c3.6,9.6,7,18.4,4.2,28.8c-2.4,8.8-6.9,17-7,26.4
				c0,9.8,4.1,18.9,8.2,27.6c0.8,1.8,3.4,0.2,2.6-1.5c-4.6-9.9-9.3-20.6-7.2-31.7c1.6-8.5,6.1-16.2,7.3-24.8
				c2.4-16.3-12.1-30.3-8.2-46.4C148.3,4.7,145.4,3.9,144.9,5.8L144.9,5.8z"/>
		</g>
	</g>
	<g>
		<g>
			<path class="st2" d="M205.3,21.5c-6.7,12.8-13.6,26.4-13.3,41.2c0.1,7.6,1.8,15.2,0.9,22.8c-1,8.5-4.4,16.4-9.6,23.2
				c-1.2,1.5,0.9,3.6,2.1,2.1c9-11.6,11.6-24.7,10.3-39.2c-0.8-8.4-0.8-16.2,1.5-24.3c2.5-8.5,6.6-16.5,10.7-24.3
				C208.8,21.4,206.2,19.8,205.3,21.5L205.3,21.5z"/>
		</g>
	</g>
	<g>
		<g>
			<path class="st2" d="M218.9,79c-6.9,2.7-13.8,7.4-15.8,15c-2.3,8.8,7.2,21.3-1.3,28c-1.5,1.2,0.6,3.3,2.1,2.1
				c5.2-4.1,4.8-10.9,3.4-16.8c-1.3-5.5-2.9-10.9,0.2-16.1c2.7-4.6,7.4-7.5,12.2-9.3C221.5,81.2,220.7,78.3,218.9,79L218.9,79z"/>
		</g>
	</g>
	<g>
		<g>
			<path class="st2" d="M390.4,89.1c-5.4,17.3-17,32.3-32.6,41.5c-13.7,8.1-31.9,9.5-42.5,22.4c-1.2,1.5,0.9,3.6,2.1,2.1
				c6.1-7.5,15.1-10.8,23.9-14c8.1-2.9,15.9-6.1,23-11.1c13.8-9.8,24-23.9,29-40C393.9,88,391,87.2,390.4,89.1L390.4,89.1z"/>
		</g>
	</g>
	<g>
		<g>
			<path class="st2" d="M318.1,157c24-7.4,49.5,0.4,73.8-5.1c1.9-0.4,1.1-3.3-0.8-2.9c-24.4,5.4-49.7-2.3-73.8,5.1
				C315.5,154.7,316.3,157.6,318.1,157L318.1,157z"/>
		</g>
	</g>
	<g>
		<g>
			<path class="st2" d="M395.3,146.6c-5.7,2.1-11.5,4.3-17.2,6.4c-1.8,0.7-1,3.6,0.8,2.9c5.7-2.1,11.5-4.3,17.2-6.4
				C397.9,148.9,397.1,146,395.3,146.6L395.3,146.6z"/>
		</g>
	</g>
	<g>
		<g>
			<path class="st2" d="M395.1,147.7c-6.1,7.5-14.5,11.8-23.6,14.7c-4.4,1.4-8.9,2.5-13.4,3.4c-3.5,0.7-7.8,0.9-10.5,3.4
				c-3.1,2.8-4.3,7.2-7.5,10.1c-3.8,3.5-8.7,5.8-13.7,6.9c-11.4,2.7-23.2-0.4-34.2-3.2c-1.9-0.5-2.7,2.4-0.8,2.9
				c17.7,4.5,42,9.1,54.4-8.7c2-2.9,2.9-5.7,6.5-7.2c2.1-0.9,5.1-1,7.4-1.5c5-1.1,10-2.3,14.8-4c8.7-3,16.8-7.6,22.7-14.8
				C398.5,148.3,396.4,146.2,395.1,147.7L395.1,147.7z"/>
		</g>
	</g>
	<g>
		<g>
			<path class="st2" d="M459.7,161.4c-8.3,3.1-13.5,11.2-21.3,15.5c-9.6,5.3-20.7,7.3-31.5,7.8c-22.3,0.9-45.1-1.9-67.3-3.3
				c-1.9-0.1-1.9,2.9,0,3c11.5,0.7,23.1,1.4,34.6,2.2c11.5,0.7,23.1,1.8,34.6,1.1c9.2-0.5,18.3-2.2,26.7-5.9c4.1-1.8,8-4.1,11.5-7
				c4.4-3.6,7.9-8.4,13.4-10.4C462.3,163.7,461.5,160.8,459.7,161.4L459.7,161.4z"/>
		</g>
	</g>
	<g>
		<g>
			<path class="st2" d="M457,165.2c-5,13.2-10.9,25.3-23.7,32.5c-12,6.6-25.9,8.1-39.4,7.7c-26.3-0.8-53.8-7.8-78.5,4.8
				c-1.7,0.9-0.2,3.5,1.5,2.6c28.3-14.4,60.2-2.2,90.1-4.6c11.6-0.9,23.4-4.1,32.9-11.1c10.6-7.7,15.5-19.2,20-31
				C460.5,164.2,457.6,163.4,457,165.2L457,165.2z"/>
		</g>
	</g>
	<g>
		<g>
			<path class="st2" d="M322.3,211.2c6.4-0.9,12.9,1,17.6,5.6c4,3.9,6,9.3,9.5,13.5c7,8.2,17.7,14.5,27,19.7
				c18.8,10.3,40.6,11.1,59-0.4c1.6-1,0.1-3.6-1.5-2.6c-9.9,6.2-21.5,9.1-33.2,8c-12.4-1.2-23.2-7.3-33.4-14.1
				c-4.9-3.3-10-6.6-14.1-10.8c-3.8-3.9-5.9-8.8-9.2-13c-5.4-7-13.9-10-22.6-8.7C319.6,208.5,320.4,211.4,322.3,211.2L322.3,211.2z"
				/>
		</g>
	</g>
	<g>
		<g>
			<path class="st2" d="M36.3,298c-10.9-9.1-15.7-22.9-12.8-36.8c3-14.3,9.2-28.4,13.9-42.2c0.6-1.8-2.3-2.6-2.9-0.8
				c-2.9,8.5-5.9,17.1-8.8,25.6c-2.5,7.3-5.3,14.6-6,22.3c-1.2,13,4.5,25.7,14.4,34C35.7,301.3,37.8,299.2,36.3,298L36.3,298z"/>
		</g>
	</g>
	<g>
		<g>
			<path class="st2" d="M135,312c-20.1-10.3-36.7-26.2-47.9-45.8c-1-1.7-3.6-0.2-2.6,1.5c11.5,20.1,28.5,36.3,49,46.9
				C135.2,315.5,136.7,312.9,135,312L135,312z"/>
		</g>
	</g>
	<g>
		<g>
			<path class="st2" d="M218.1,332.5c-19-9.1-38.5-18.7-52.1-35.4c-13.4-16.5-20.3-36.9-26-57.1c-0.5-1.9-3.4-1.1-2.9,0.8
				c5.7,20.1,12.6,40.5,25.7,57.1c13.8,17.6,34,27.6,53.7,37.2C218.3,335.9,219.9,333.3,218.1,332.5L218.1,332.5z"/>
		</g>
	</g>
	<g>
		<g>
			<path class="st2" d="M246.4,295c-8.8-0.6-16.2-5.4-22.8-11c-6-5.1-12.4-10.8-16.5-17.6c-4.8-8-5.8-17.4-6.9-26.5
				c-1.1-9.1-2.2-18.2-3.4-27.3c-0.2-1.9-3.2-1.9-3,0c1.3,10.9,2.6,21.9,4.1,32.8c1.2,9,3,17.8,8.4,25.2c4.9,6.8,11.6,12.8,18.3,18
				c6.4,5,13.5,8.7,21.8,9.3C248.4,298.1,248.4,295.1,246.4,295L246.4,295z"/>
		</g>
	</g>
	<g>
		<g>
			<path class="st2" d="M254.8,257.6c-6.8-5.8-12.5-12.6-16.7-20.6c-4.4-8.3-8.5-19.4-7.1-28.8c0.7-5,3-9.7,4.8-14.3
				c1.9-4.8,3.7-9.6,5.6-14.4c3.9-9.9,7.7-19.8,11.6-29.7c0.7-1.8-2.2-2.6-2.9-0.8c-4.2,10.8-8.4,21.6-12.6,32.4
				c-2.1,5.4-4.2,10.8-6.3,16.2c-1.9,4.9-3.6,9.5-3.4,14.8c0.8,18.2,11.2,35.8,24.9,47.4C254.2,261,256.3,258.8,254.8,257.6
				L254.8,257.6z"/>
		</g>
	</g>
	<g>
		<g>
			<path class="st2" d="M257.2,255.8c-15.9-4-33.8-9-42.7-24c-1-1.7-3.6-0.2-2.6,1.5c9.4,15.7,27.8,21.1,44.5,25.4
				C258.3,259.2,259.1,256.3,257.2,255.8L257.2,255.8z"/>
		</g>
	</g>
	<g>
		<g>
			<path class="st2" d="M201.2,36.2c-0.3-11.9,13.7-14.5,22.7-12.7c8.5,1.7,16.5,5.1,25.2,6.3c16.3,2.2,32.8-0.8,47.5-8.2
				c1.7-0.9,0.2-3.5-1.5-2.6c-19.8,10-41,10.3-61.9,3.9c-7.9-2.4-16.5-4.8-24.5-1.3c-6,2.6-10.6,7.9-10.5,14.7
				C198.2,38.1,201.2,38.1,201.2,36.2L201.2,36.2z"/>
		</g>
	</g>
	<g>
		<g>
			<path class="st2" d="M150.4,21.2c-0.3-4.7-0.5-22.1,8.2-16.9c5.3,3.2,7.9,9.4,12.7,13.1c5.4,4.2,15.2,4.7,17.2-3.4
				c0.4-1.9-2.4-2.7-2.9-0.8c-1.1,4.5-6.5,5.3-10.1,3.4c-2.9-1.4-5-4.1-7-6.5c-3.1-3.9-6.5-8.4-11.5-9.9c-10.3-3-10.1,14.6-9.7,20.9
				C147.5,23.1,150.5,23.2,150.4,21.2L150.4,21.2z"/>
		</g>
	</g>
	<g>
		<g>
			<path class="st2" d="M219.5,80.3c20.8-6.4,40.6,4,58.4,13.8c1.7,0.9,3.2-1.7,1.5-2.6c-18.5-10.2-39.1-20.8-60.7-14.1
				C216.8,78,217.6,80.9,219.5,80.3L219.5,80.3z"/>
		</g>
	</g>
	<g>
		<g>
			<path class="st3" d="M387.8,90.2c-11.8,21.4-37,27.5-58.9,32.8c-11.4,2.8-22.9,5.8-33.3,11.2c-7.4,3.9-16.2,11-13.2,20.4
				c0.6,1.8,3.5,1.1,2.9-0.8c-4.1-13.1,17.8-20.3,26.8-23.1c10.8-3.5,22.1-5.6,33-8.7c17.8-5,36.1-13.4,45.4-30.3
				C391.3,90,388.7,88.5,387.8,90.2L387.8,90.2z"/>
		</g>
	</g>
	<g>
		<g>
			<path class="st3" d="M388.6,150.3c-20,6.3-40,8.4-60.9,9c-7.8,0.2-15.8,1.1-22.5,5.6c-6.6,4.4-11.7,11.3-19.8,13
				c-1.9,0.4-1.1,3.3,0.8,2.9c6.9-1.4,11.6-6.2,16.9-10.5c8.3-6.8,17.6-7.8,28-8c19.9-0.3,39.3-3.1,58.3-9.1
				C391.3,152.6,390.5,149.7,388.6,150.3L388.6,150.3z"/>
		</g>
	</g>
	<g>
		<g>
			<path class="st3" d="M455.3,161.9c-18.2,28.9-57,25.7-86.5,27.4c-8.3,0.5-16.5,1.4-24.6,3.3c-8.4,2-16.6,5-25.1,6.9
				c-14.9,3.5-32.6,3.5-43.2-9.2c-1.2-1.5-3.4,0.7-2.1,2.1c9.5,11.3,25,13.5,38.9,11.4c9.2-1.4,18-4.5,27-6.9
				c10.2-2.8,20.5-4.2,31.1-4.7c30.2-1.5,68.7,0.6,87.2-28.8C458.9,161.8,456.3,160.3,455.3,161.9L455.3,161.9z"/>
		</g>
	</g>
	<g>
		<g>
			<path class="st3" d="M422.1,255.7c-12.8,5.3-26.7,8.4-40.5,6c-10.6-1.8-20.5-6.6-29.7-11.9c-18.1-10.5-35-24-55.8-29.1
				c-1.9-0.5-2.7,2.4-0.8,2.9c22.5,5.5,40.2,21,60.2,31.6c8.9,4.8,18.5,8.6,28.6,9.9c13.3,1.7,26.6-1.3,38.8-6.5
				C424.7,257.9,423.9,255,422.1,255.7L422.1,255.7z"/>
		</g>
	</g>
	<g>
		<g>
			<path class="st3" d="M146.8,3.8c-6.9,9.2-15.2,17.2-24.7,23.7c-7.7,5.2-16.2,9.5-22.7,16.3c-14.5,15.1-9,36.3-3.1,54
				c0.6,1.8,3.5,1,2.9-0.8c-3.2-9.5-6.4-19.5-6.2-29.6c0.2-11.4,5.9-20.3,14.9-27c6.9-5.1,14.6-9.2,21.4-14.5
				c7.6-5.9,14.3-12.9,20.1-20.6C150.5,3.8,147.9,2.3,146.8,3.8L146.8,3.8z"/>
		</g>
	</g>
	<g>
		<g>
			<path class="st3" d="M203.7,20.9c-12.2,8.3-25.1,17.3-30.2,31.8c-3.1,8.7-3.9,18.3-5.3,27.3c-1.6,10.1-3.3,20.3-4.9,30.4
				c-0.3,1.9,2.6,2.7,2.9,0.8c2.8-17.5,4.6-35.5,8.8-52.7c4-16.4,17-26.1,30.3-35.1C206.9,22.4,205.4,19.8,203.7,20.9L203.7,20.9z"
				/>
		</g>
	</g>
	<g>
		<g>
			<path class="st3" d="M222.7,71.8c-10.8,0.4-18.5,8.6-22.5,18.1c-5.4,12.7-3.8,27-8.2,40c-0.6,1.8,2.3,2.6,2.9,0.8
				c3.8-11.1,3.3-23,6.2-34.2c2.7-10.2,10-21.2,21.5-21.6C224.6,74.8,224.6,71.8,222.7,71.8L222.7,71.8z"/>
		</g>
	</g>
	<g>
		<g>
			<path class="st3" d="M191.4,324.2c-35.1-14.7-65.3-39.8-86.4-71.4c-1.1-1.6-3.7-0.1-2.6,1.5c21.6,32.4,52.3,57.7,88.2,72.8
				C192.4,327.8,193.1,324.9,191.4,324.2L191.4,324.2z"/>
		</g>
	</g>
	<g>
		<g>
			<path class="st3" d="M225.4,291.8c-9.3-5.4-18.6-10.8-27.8-16.3c-8.1-4.8-16.1-9.9-22.7-16.7c-11.8-12.2-18.4-34.2-3.8-47
				c1.5-1.3-0.7-3.4-2.1-2.1c-13.6,12-10.7,33.1-0.6,46.3c6,7.8,13.9,13.7,22.2,18.9c10.9,6.9,22.2,13.1,33.2,19.6
				C225.6,295.3,227.1,292.7,225.4,291.8L225.4,291.8z"/>
		</g>
	</g>
	<g>
		<g>
			<path class="st3" d="M240.5,252c-11.4-3-23.9-6.2-31.9-15.6c-7.7-9.1-9-25.6,4.3-30.5c1.8-0.7,1-3.6-0.8-2.9
				c-11.8,4.4-15.2,18.4-10,29.1c7,14.3,23.3,19.1,37.6,22.8C241.6,255.4,242.4,252.5,240.5,252L240.5,252z"/>
		</g>
	</g>
	<g>
		<g>
			<path class="st4" d="M33.6,212.8c28.6-4.5,48.6-30.9,45-59.7c-0.2-1.9-3.2-1.9-3,0c3.4,27.6-15.3,52.5-42.8,56.8
				C30.9,210.2,31.7,213.1,33.6,212.8L33.6,212.8z"/>
		</g>
	</g>
	<g>
		<g>
			<path class="st4" d="M38.2,214.3c31.5,1.5,57.8-23.4,58.2-54.8c0-1.9-3-1.9-3,0C93,189.3,68,212.7,38.2,211.3
				C36.2,211.2,36.2,214.2,38.2,214.3L38.2,214.3z"/>
		</g>
	</g>
	<g>
		<g>
			<path class="st4" d="M55.9,212.5c8.1-1.9,16.1-3.7,24.2-5.6c5.7-1.3,11.6-2.9,16.1-6.8c8.7-7.5,9.3-20.1,9.4-30.7
				c0-1.9-3-1.9-3,0c-0.1,10.6-0.6,24-10.8,30.2c-4.9,3-10.7,4-16.2,5.3c-6.8,1.6-13.6,3.1-20.5,4.7C53.2,210.1,54,213,55.9,212.5
				L55.9,212.5z"/>
		</g>
	</g>
	<g>
		<g>
			<path class="st4" d="M2.3,167c16.9-30.7,54.6-35.6,86.2-36.3c35-0.8,70.1,2.2,104.5,8.9c19.4,3.8,38.5,8.9,57.3,15
				c1.8,0.6,2.6-2.3,0.8-2.9c-34.7-11.4-70.7-18.9-107.1-22.2c-18.8-1.7-37.6-2.3-56.4-1.9c-17.6,0.5-35.6,1.8-52.1,8.2
				c-14.8,5.7-28,15.5-35.7,29.6C-1.3,167.1,1.3,168.7,2.3,167L2.3,167z"/>
		</g>
	</g>
	<g>
		<g>
			<path class="st4" d="M-0.4,167.2C5,183,13.7,198.7,27.8,208.3c17.6,12,38.7,7.7,58.5,5c23.9-3.3,47.9-6.5,71.8-9.8
				c11.8-1.6,23.6-3.2,35.4-4.8c11.5-1.6,23.4-2.4,34.8-4.9c8.3-1.8,14.1-6.5,17-14.5c3.2-8.8,3-18.6,8.8-26.3
				c1.2-1.5-1.4-3-2.6-1.5c-9,11.9-4,33.3-20.9,38.7c-9.5,3-20.2,3.3-30,4.6c-10.8,1.5-21.6,3-32.5,4.4c-21.6,3-43.3,5.9-64.9,8.9
				c-10.9,1.5-21.8,3.1-32.8,4.5c-10.6,1.3-21.7,2-31.9-1.9c-18.7-7.1-29.9-26.1-36-44.2C1.9,164.6-1,165.4-0.4,167.2L-0.4,167.2z"
				/>
		</g>
	</g>
	<g>
		<g>
			<path class="st4" d="M101.8,130c9.6,2.1,20.2,5.9,30.2,5.7c4.7-0.1,9.2-1.5,13.9-1.9c5.9-0.5,11.7,0.2,17.4,1.8
				c1.9,0.5,2.7-2.4,0.8-2.9c-9.3-2.5-17.9-2-27.3-0.5c-11.2,1.8-23.3-2.6-34.2-5C100.7,126.7,99.9,129.5,101.8,130L101.8,130z"/>
		</g>
	</g>
	<g>
		<g>
			<path class="st4" d="M153.8,133.3c-10,0-19.8-1.4-29.4-4.3c-1.9-0.6-2.6,2.3-0.8,2.9c9.8,3,19.9,4.5,30.2,4.5
				C155.8,136.3,155.8,133.3,153.8,133.3L153.8,133.3z"/>
		</g>
	</g>
	<g>
		<path d="M40.8,162.4c-5.5,1.2-7.8,9.4-3.7,13.4s12,1.8,13.7-3.6c1.7-5.4-3.5-11.6-9.1-11.1"/>
	</g>
	<g>
		<g>
			<path class="st5" d="M47.8,164.8c0.4-1.7,0.8-3.3,1.2-5c0.4-1.9-2.5-2.7-2.9-0.8c-0.4,1.7-0.8,3.3-1.2,5
				C44.5,165.9,47.4,166.7,47.8,164.8L47.8,164.8z"/>
		</g>
	</g>
	<g>
		<g>
			<path class="st5" d="M45.2,174.6c1.9,0,1.9-3,0-3C43.3,171.6,43.3,174.6,45.2,174.6L45.2,174.6z"/>
		</g>
	</g>
	<g>
		<g>
			<path class="st4" d="M11.3,151.3C-2,158,0.7,177.5,15.5,180.2c-0.2-0.8-0.4-1.7-0.7-2.5c-4.1,3.9-4.5,9.9-2.1,14.9
				c3.3,6.8,10.8,9.7,17.4,12.3c1.8,0.7,2.6-2.2,0.8-2.9c-5-1.9-10.5-4-13.9-8.3c-3.2-4-4.1-10.1-0.1-13.9c0.8-0.7,0.5-2.3-0.7-2.5
				c-12.2-2.2-14.5-17.8-3.4-23.3C14.6,153.1,13.1,150.5,11.3,151.3L11.3,151.3z"/>
		</g>
	</g>
	<g>
		<g>
			<path class="st4" d="M13.1,177.8c-1.6,0-3.3,0-4.9,0c-1.9,0-1.9,3,0,3c1.6,0,3.3,0,4.9,0C15,180.8,15,177.8,13.1,177.8
				L13.1,177.8z"/>
		</g>
	</g>
	<g>
		<g>
			<path class="st4" d="M41,209c-2.5-1.2-4.9-2.5-7.4-3.7c-1.7-0.9-3.2,1.7-1.5,2.6c2.5,1.2,4.9,2.5,7.4,3.7
				C41.2,212.4,42.7,209.8,41,209L41,209z"/>
		</g>
	</g>
	<g>
		<g>
			<path class="st4" d="M235.7,190.7c10.9-6.8,18.9-16.2,24.8-27.5c3.3-6.5,6.5-12.8,12.9-16.7c7-4.2,15-7.3,22.4-10.8
				c1.7-0.8,0.2-3.4-1.5-2.6c-7.2,3.4-14.6,6.5-21.6,10.3c-5.3,3-9,7.3-11.9,12.6c-3.1,5.6-5.6,11.3-9.5,16.5
				c-4.7,6.2-10.5,11.4-17.1,15.6C232.6,189.1,234.1,191.7,235.7,190.7L235.7,190.7z"/>
		</g>
	</g>
	<g>
		<g>
			<path class="st4" d="M246.2,169.2c6.5-5.5,8.4-13.8,12.5-20.9c5.3-9.3,16.2-15.6,25.5-20.4c10-5.2,21.2-6.9,32.3-8.1
				c11.6-1.2,23.2-2.3,34.8-3.5c1.9-0.2,1.9-3.2,0-3c-12.2,1.2-24.4,2.3-36.5,3.7c-10.4,1.2-20.9,2.9-30.4,7.5
				c-9,4.3-19.3,10.4-25.6,18.3c-6,7.5-7.2,18-14.7,24.4C242.6,168.3,244.8,170.4,246.2,169.2L246.2,169.2z"/>
		</g>
	</g>
</g>
</svg>
