<?xml version="1.0" encoding="utf-8"?>
<!-- Generator: Adobe Illustrator 23.0.3, SVG Export Plug-In . SVG Version: 6.00 Build 0)  -->
<svg version="1.1" id="Layer_1" xmlns="http://www.w3.org/2000/svg" xmlns:xlink="http://www.w3.org/1999/xlink" x="0px" y="0px"
	 viewBox="0 0 462 335.2" style="enable-background:new 0 0 462 335.2;" xml:space="preserve" width="154" height="111.7">
<style type="text/css">
	.st0{fill:#CC82FF;}
	.st1{fill:#82BDFF;}
	.st2{fill:#616EFF;}
	.st3{fill:#FFD6F9;}
	.st4{fill:#B86FFF;}
	.st5{fill:#FFFFFF;}
</style>
<g>
	<g>
		<path class="st0" d="M198,157.9c66.9-27.1,141-36.5,212.6-26.8c17.7,2.4,37.6,7.7,45.6,23.6c8.1,16.2-1,36.9-16,47.1
			s-34,12.2-52.1,12.3c-51.2,0.2-101.4-12.7-151-25.5c-8.3-2.1-16.8-4.4-23.7-9.4s-12-13.6-10.3-22"/>
	</g>
	<g>
		<path class="st1" d="M377.3,129.6c10-23.1,4.1-50.8-9.8-71.9c-13.9-21-34.7-36.4-56.1-49.8c7.1,10.2,1.7,24.3-5.2,34.6
			c-1.1,1.7-2.5,3.5-4.4,4c-2,0.5-4-0.5-5.9-1.5c-12.7-6.9-25.5-13.8-38.2-20.7c9.3,16.4,18.7,36.7,9.4,53.1
			c-0.9,1.6-2.1,3.2-3.9,3.7c-1.5,0.4-3.1-0.1-4.6-0.5c-5-1.6-10.1-3.2-15.1-4.8c8.1,13.7,16.2,31,7.9,44.6c-2.1,3.4-5.1,6.4-6,10.3
			c-0.8,3.9,2.4,8.9,6.2,7.7"/>
	</g>
	<g>
		<path class="st1" d="M211.7,151.6c-12-13.7-25.1-28.1-42.8-32.6c-10.4-2.6-21.2-1.5-31.9-1.5c-25.4-0.1-52.3-8.1-68.4-27.8
			c2.3,17,13.3,32.5,28.5,40.4c9.8,5.1,22.8,8.9,25,19.7c-18.6,5.7-39.2,4.6-57.1-3.1c5.6,10.5,16.2,18.2,28,20.2
			c4.9,0.8,10.1,0.8,14.8,2.6c4.7,1.9,8.8,6.6,7.7,11.5c-23.5,5.5-47.8,7.4-71.9,5.6c-4.9-0.4-9.9-0.9-14.3-3.1
			c-10.8-5.3-16.5-19.3-28.3-21.4c7.6,17.5,16.6,36.4,34,44.3c29.8,13.6,68.5-12.6,96.2,5c-6.2-2.1-13.1,1.2-17.5,6
			s-7.3,10.8-11,16.2c-9.1,13.1-24.3,21.7-40.2,22.9c-15.9,1.2-32.2-5-43.2-16.5c11.3,17.4,32.7,26.8,53.5,26.5
			c20.8-0.3,40.7-9.3,57.2-21.9c7.3-5.6,14.1-12.1,22.2-16.6c13.2-7.4,28.8-9.2,42.2-16.2c12-6.4,21.7-17,26.9-29.6"/>
	</g>
	<g>
		<path class="st1" d="M402,214.2c4.4,22.3-5.9,45.5-21.5,62.1s-35.8,27.8-55.8,38.8c16.4-7.7,28-24.6,29.2-42.7
			c-39.6,13.6-66.8,55.5-108.3,61.3c17.2-11.6,33.1-25.2,47.1-40.6c4.7-5.1,9.2-10.6,11.3-17.2s1.1-14.6-4.1-19.2
			c-24,20.6-53.1,35.3-84,42.5c11.6-5.3,22.6-12,32.6-20c6.2-5,12.1-10.6,15.4-17.8c3.2-7.2,3.3-16.4-1.8-22.5
			c-15.8,12.1-35.5,18.9-55.4,19.2c9-8.7,18.4-17.9,21.7-30c3.4-12.4-0.3-25.5-4-37.8"/>
	</g>
	<g>
		<g>
			<path class="st1" d="M222.5,190.9c-0.5-1.1-0.4-2.4,0.1-3.4c0.9-1.7-1.7-3.2-2.6-1.5c-1,2.1-1,4.3-0.1,6.4
				c0.3,0.7,1.4,0.9,2.1,0.5C222.7,192.5,222.8,191.6,222.5,190.9L222.5,190.9z"/>
		</g>
	</g>
	<g>
		<path class="st1" d="M431,211.6c7.5,14.4,13,30.3,13.3,46.5s-4.9,33.1-16.2,44.7c6.1-14.6,6.8-31.4,2-46.5
			c-2.2-6.9-5.6-13.5-8.5-20.2c-1.8-4.2-3.6-8.7-3.1-13.2c0.5-4.5,4-9.1,8.5-9.3"/>
	</g>
	<g>
		<g>
			<path class="st1" d="M423.5,217.4c1.2-1.2,2.5-2.5,3.7-3.7c1.4-1.4-0.8-3.5-2.1-2.1c-1.2,1.2-2.5,2.5-3.7,3.7
				C420,216.6,422.1,218.7,423.5,217.4L423.5,217.4z"/>
		</g>
	</g>
	<g>
		<g>
			<path class="st1" d="M424.9,211.6c1.9,0,1.9-3,0-3C423,208.6,423,211.6,424.9,211.6L424.9,211.6z"/>
		</g>
	</g>
	<g>
		<g>
			<path class="st0" d="M428.6,208.7c-3.4,0-6.3,1-9.4,2.2c-4.7,1.7-8.3,2.1-13.2,0.5c-8.4-2.8-16.7-6.1-25.1-9.2
				c-1.8-0.7-2.6,2.2-0.8,2.9c8.8,3.2,17.6,7.2,26.7,9.7c8.1,2.3,13.9-3,21.7-3.1C430.5,211.7,430.5,208.7,428.6,208.7L428.6,208.7z
				"/>
		</g>
	</g>
	<g>
		<g>
			<path class="st0" d="M421.2,211.4c3.1,0.1,6-1.5,7.7-4.1c1.1-1.6-1.5-3.1-2.6-1.5c-1.2,1.7-3.1,2.7-5.1,2.6
				C419.3,208.4,419.3,211.4,421.2,211.4L421.2,211.4z"/>
		</g>
	</g>
	<g>
		<g>
			<path class="st0" d="M257,189.7c-5.2-0.7-10.4-1.4-15.6-2c-4.8-0.6-11.6-0.6-14.3-5.5c-0.9-1.7-3.5-0.2-2.6,1.5
				c2.3,4.3,6.7,5.5,11.2,6.2c7,1.1,14.1,1.9,21.2,2.8C258.9,192.9,258.9,189.9,257,189.7L257,189.7z"/>
		</g>
	</g>
	<g>
		<g>
			<path class="st0" d="M223.3,173.5c-6.9,9.1,3.6,18.2,12.3,19.3c7,0.9,14.4-0.2,21.4-0.7c8.2-0.5,16.5-1,24.7-1.6
				c1.9-0.1,1.9-3.1,0-3c-11.4,0.7-22.8,1.5-34.2,2.2c-4.9,0.3-10.2,0.9-15-0.6c-5.7-1.8-10.9-8.4-6.6-14.1
				C227.1,173.5,224.4,172,223.3,173.5L223.3,173.5z"/>
		</g>
	</g>
	<g>
		<g>
			<path class="st2" d="M313.6,6.6c3.9,16.1-10.6,30.1-8.2,46.4c1.2,8.6,5.8,16.3,7.3,24.8c2.1,11.2-2.6,21.8-7.2,31.7
				c-0.8,1.7,1.8,3.3,2.6,1.5c3.9-8.5,7.9-17.3,8.2-26.7c0.2-9.7-4.5-18.2-7-27.3c-2.7-10.1,0.3-18.7,3.9-28.1
				c2.9-7.6,5.3-15.1,3.3-23.2C316.1,3.9,313.2,4.7,313.6,6.6L313.6,6.6z"/>
		</g>
	</g>
	<g>
		<g>
			<path class="st2" d="M253.5,23.1c4.1,7.9,8.2,15.8,10.7,24.3c2.4,8.2,2.3,16,1.5,24.3c-1.3,14.5,1.2,27.5,10.3,39.2
				c1.2,1.5,3.3-0.6,2.1-2.1c-5.2-6.7-8.6-14.7-9.6-23.2c-0.9-7.7,0.8-15.2,0.9-22.8c0.2-14.9-6.6-28.4-13.3-41.2
				C255.2,19.8,252.7,21.4,253.5,23.1L253.5,23.1z"/>
		</g>
	</g>
	<g>
		<g>
			<path class="st2" d="M241.8,81.9c4.6,1.8,9.2,4.5,11.9,8.7c3.4,5.4,1.9,10.9,0.5,16.7c-1.4,5.9-1.8,12.7,3.4,16.8
				c1.5,1.2,3.6-0.9,2.1-2.1c-8.5-6.7,0.9-19.3-1.3-28c-2-7.6-8.9-12.3-15.8-15C240.8,78.3,240,81.2,241.8,81.9L241.8,81.9z"/>
		</g>
	</g>
	<g>
		<g>
			<path class="st2" d="M68.2,89.8c5,16.1,15.2,30.3,29,40c6.9,4.9,14.4,8.1,22.3,10.9c9.1,3.3,18.3,6.6,24.6,14.3
				c1.2,1.5,3.3-0.6,2.1-2.1c-10.6-12.9-28.8-14.3-42.5-22.4c-15.6-9.2-27.3-24.2-32.6-41.5C70.5,87.2,67.6,88,68.2,89.8L68.2,89.8z
				"/>
		</g>
	</g>
	<g>
		<g>
			<path class="st2" d="M144.1,154.1c-24.1-7.4-49.5,0.4-73.8-5.1c-1.9-0.4-2.7,2.5-0.8,2.9c24.4,5.4,49.8-2.3,73.8,5.1
				C145.2,157.6,146,154.7,144.1,154.1L144.1,154.1z"/>
		</g>
	</g>
	<g>
		<g>
			<path class="st2" d="M65.4,149.5c5.7,2.1,11.5,4.3,17.2,6.4c1.8,0.7,2.6-2.2,0.8-2.9c-5.7-2.1-11.5-4.3-17.2-6.4
				C64.4,146,63.6,148.9,65.4,149.5L65.4,149.5z"/>
		</g>
	</g>
	<g>
		<g>
			<path class="st2" d="M64.2,149.8c5.9,7.2,14,11.8,22.7,14.8c4.6,1.6,9.3,2.8,14,3.8c2.4,0.5,5.1,0.7,7.4,1.5
				c3.9,1.3,5,4.3,7.2,7.4c12.3,17.8,36.7,13.1,54.4,8.7c1.9-0.5,1.1-3.4-0.8-2.9c-10.8,2.7-22.3,5.7-33.5,3.3
				c-5-1.1-9.9-3.2-13.9-6.6c-3.5-3-4.7-7.6-8-10.6c-2.6-2.4-6.5-2.5-9.8-3.2c-4.5-0.9-9-2-13.4-3.3c-9.4-2.9-18-7.3-24.3-15
				C65.1,146.2,63,148.3,64.2,149.8L64.2,149.8z"/>
		</g>
	</g>
	<g>
		<g>
			<path class="st2" d="M1,164.3c5.2,1.9,8.6,6.4,12.8,9.9c3.5,2.9,7.3,5.3,11.4,7.1c8.6,3.9,18,5.7,27.5,6.3
				c11.2,0.7,22.5-0.3,33.7-1c11.9-0.7,23.7-1.5,35.6-2.2c1.9-0.1,1.9-3.1,0-3c-22.3,1.4-45,4.3-67.3,3.3
				c-10.6-0.4-21.4-2.4-30.8-7.4c-8.1-4.3-13.4-12.7-22-15.9C0,160.8-0.8,163.7,1,164.3L1,164.3z"/>
		</g>
	</g>
	<g>
		<g>
			<path class="st2" d="M1.6,166c4.5,11.8,9.5,23.3,20,31c9.5,6.9,21.3,10.1,32.9,11.1c29.9,2.4,61.8-9.8,90.1,4.6
				c1.7,0.9,3.2-1.7,1.5-2.6c-24.7-12.6-52.2-5.6-78.5-4.8c-13.2,0.4-26.9-1-38.7-7.3c-13.3-7.1-19.3-19.3-24.4-32.8
				C3.8,163.4,0.9,164.2,1.6,166L1.6,166z"/>
		</g>
	</g>
	<g>
		<g>
			<path class="st2" d="M140,208.3c-8.3-1.2-16.6,1.5-22.1,8.1c-3.4,4.1-5.5,9.1-9.1,13.1c-4.2,4.5-9.6,7.9-14.7,11.4
				c-9.9,6.6-20.5,12.7-32.6,14c-11.9,1.3-23.9-1.6-34-7.9c-1.6-1-3.2,1.6-1.5,2.6c18.5,11.5,40.3,10.7,59,0.4
				c9.1-5,19.5-11.2,26.5-19c3.7-4.2,5.8-9.5,9.6-13.6c4.6-5,11.5-7.1,18.1-6.1C141.1,211.4,141.9,208.5,140,208.3L140,208.3z"/>
		</g>
	</g>
	<g>
		<g>
			<path class="st2" d="M427.3,300.1c9.9-8.3,15.6-21,14.4-34c-0.7-7.7-3.5-15-6-22.3c-2.9-8.5-5.9-17.1-8.8-25.6
				c-0.6-1.8-3.5-1-2.9,0.8c4.8,13.8,10.9,27.9,13.9,42.2c2.9,13.8-1.9,27.7-12.8,36.8C423.7,299.2,425.8,301.3,427.3,300.1
				L427.3,300.1z"/>
		</g>
	</g>
	<g>
		<g>
			<path class="st2" d="M328,314.6c20.5-10.6,37.5-26.8,49-46.9c1-1.7-1.6-3.2-2.6-1.5c-11.2,19.6-27.8,35.5-47.9,45.8
				C324.8,312.9,326.3,315.5,328,314.6L328,314.6z"/>
		</g>
	</g>
	<g>
		<g>
			<path class="st2" d="M244.9,335.1c19.7-9.5,39.8-19.6,53.7-37.2c13.1-16.6,20-37,25.7-57.1c0.5-1.9-2.4-2.7-2.9-0.8
				c-5.7,20.1-12.6,40.7-26,57.1c-13.6,16.7-33.1,26.2-52.1,35.4C241.6,333.3,243.1,335.9,244.9,335.1L244.9,335.1z"/>
		</g>
	</g>
	<g>
		<g>
			<path class="st2" d="M215,298c8-0.5,14.8-4,21.1-8.8c6.9-5.2,13.8-11.5,18.9-18.5c5.3-7.4,7.2-16.2,8.4-25c1.5-11,2.7-22,4.1-33
				c0.2-1.9-2.8-1.9-3,0c-1.1,9.1-2.2,18.2-3.4,27.3c-1.1,9-2.1,18.5-6.9,26.5c-4.1,6.8-10.5,12.5-16.5,17.6
				c-6.6,5.6-13.9,10.3-22.8,11C213.1,295.1,213.1,298.1,215,298L215,298z"/>
		</g>
	</g>
	<g>
		<g>
			<path class="st2" d="M208.8,259.7c13.7-11.5,24.1-29.2,24.9-47.4c0.5-10.2-5.7-20.8-9.4-30.1c-4.3-11.1-8.6-22.2-13-33.3
				c-0.7-1.8-3.6-1-2.9,0.8c3.7,9.6,7.5,19.2,11.2,28.8c1.9,4.8,3.7,9.6,5.6,14.4c1.9,4.9,4.5,10,5.2,15.2c1.3,9.3-2.6,20-6.7,28.1
				c-4.2,8.2-10,15.3-17.1,21.3C205.2,258.8,207.3,261,208.8,259.7L208.8,259.7z"/>
		</g>
	</g>
	<g>
		<g>
			<path class="st2" d="M205.1,258.7c16.7-4.2,35.2-9.6,44.5-25.4c1-1.7-1.6-3.2-2.6-1.5c-8.9,15-26.9,20-42.7,24
				C202.4,256.3,203.2,259.2,205.1,258.7L205.1,258.7z"/>
		</g>
	</g>
	<g>
		<g>
			<path class="st2" d="M263.3,36.2c0.2-6.7-4.3-12-10.3-14.6c-8-3.5-16.7-1.2-24.7,1.3c-20.9,6.4-42.1,6.1-61.9-3.9
				c-1.7-0.9-3.2,1.7-1.5,2.6c14.7,7.4,31.2,10.4,47.5,8.2c8.7-1.2,16.7-4.6,25.2-6.3c9-1.8,23,0.8,22.7,12.7
				C260.2,38.1,263.2,38.1,263.3,36.2L263.3,36.2z"/>
		</g>
	</g>
	<g>
		<g>
			<path class="st2" d="M314.1,21.2c0.4-6.3,0.7-23.9-9.7-20.9c-4.8,1.4-8,5.6-11,9.3c-2.1,2.6-4.4,5.5-7.4,7.1
				c-3.6,1.9-9,1.1-10.1-3.4c-0.4-1.9-3.3-1.1-2.9,0.8c1.9,8.1,11.8,7.7,17.2,3.4c4.5-3.6,7-9,11.6-12.4c1.9-1.3,5.1-2.9,7.2-0.5
				c0.7,0.9,1.2,3.9,1.4,5c0.8,3.9,1,7.7,0.7,11.6C310.9,23.2,313.9,23.1,314.1,21.2L314.1,21.2z"/>
		</g>
	</g>
	<g>
		<g>
			<path class="st2" d="M242.8,77.4c-21.5-6.6-42.2,4-60.7,14.1c-1.7,0.9-0.2,3.5,1.5,2.6c17.8-9.8,37.6-20.2,58.4-13.8
				C243.8,80.9,244.6,78,242.8,77.4L242.8,77.4z"/>
		</g>
	</g>
	<g>
		<g>
			<path class="st3" d="M71.1,91.7c9.3,16.9,27.6,25.3,45.4,30.3c11,3.1,22.2,5.2,33,8.7c8.9,2.9,30.9,10,26.8,23.1
				c-0.6,1.8,2.3,2.6,2.9,0.8c2.8-9-5.3-16.1-12.5-20c-10.6-5.7-22.5-8.8-34.1-11.6c-21.9-5.4-47.2-11.5-58.9-32.8
				C72.8,88.5,70.2,90,71.1,91.7L71.1,91.7z"/>
		</g>
	</g>
	<g>
		<g>
			<path class="st3" d="M72,153.2c19,6,38.4,8.8,58.3,9.1c10,0.2,19.3,1,27.4,7.5c5.5,4.4,10.3,9.5,17.4,11c1.9,0.4,2.7-2.5,0.8-2.9
				c-7.9-1.6-12.9-8.2-19.2-12.6c-6.8-4.7-15-5.7-23.1-6c-20.9-0.6-40.9-2.7-60.9-9C71,149.7,70.2,152.6,72,153.2L72,153.2z"/>
		</g>
	</g>
	<g>
		<g>
			<path class="st3" d="M3.6,163.5c18.5,29.4,57,27.3,87.2,28.8c10.6,0.5,20.9,1.9,31.1,4.7c9,2.5,17.8,5.5,27,6.9
				c13.8,2.1,29.4-0.1,38.9-11.4c1.2-1.5-0.9-3.6-2.1-2.1c-10.6,12.7-28.4,12.7-43.2,9.2c-8.5-2-16.7-4.9-25.1-6.9
				c-8.1-1.9-16.3-2.9-24.6-3.3c-29.5-1.7-68.3,1.5-86.5-27.4C5.2,160.3,2.6,161.8,3.6,163.5L3.6,163.5z"/>
		</g>
	</g>
	<g>
		<g>
			<path class="st3" d="M38.6,258.6c12.3,5.1,25.5,8.1,38.8,6.5c10.1-1.3,19.7-5.1,28.6-9.9c20-10.7,37.7-26.2,60.2-31.6
				c1.9-0.5,1.1-3.3-0.8-2.9c-20.8,5-37.6,18.5-55.8,29.1c-9.3,5.4-19.1,10.1-29.7,11.9c-13.8,2.4-27.7-0.6-40.5-6
				C37.6,255,36.8,257.9,38.6,258.6L38.6,258.6z"/>
		</g>
	</g>
	<g>
		<g>
			<path class="st3" d="M312.1,5.3c5.6,7.5,12,14.3,19.4,20.1c7,5.5,14.9,9.7,22.1,15c8.7,6.5,14.4,15,14.8,26.1
				c0.4,10.4-2.9,20.7-6.2,30.4c-0.6,1.8,2.3,2.6,2.9,0.8c5.9-17.7,11.4-38.8-3.1-54c-6.3-6.6-14.5-10.9-22-15.9
				c-9.8-6.5-18.3-14.7-25.3-24.1C313.5,2.3,310.9,3.8,312.1,5.3L312.1,5.3z"/>
		</g>
	</g>
	<g>
		<g>
			<path class="st3" d="M256.2,23.5c13.3,9,26.3,18.6,30.3,35.1c4.2,17.2,6,35.2,8.8,52.7c0.3,1.9,3.2,1.1,2.9-0.8
				c-1.6-9.8-3.2-19.6-4.8-29.4c-1.5-9.4-2.3-19.3-5.5-28.3c-5.1-14.5-18-23.5-30.2-31.8C256.1,19.8,254.6,22.4,256.2,23.5
				L256.2,23.5z"/>
		</g>
	</g>
	<g>
		<g>
			<path class="st3" d="M238.8,74.8c11.6,0.4,18.9,11.4,21.5,21.6c3,11.3,2.5,23.1,6.2,34.2c0.6,1.8,3.5,1,2.9-0.8
				c-4.4-13-2.8-27.3-8.2-40c-4-9.4-11.7-17.7-22.5-18.1C236.9,71.8,236.9,74.8,238.8,74.8L238.8,74.8z"/>
		</g>
	</g>
	<g>
		<g>
			<path class="st3" d="M270.9,327c35.9-15.1,66.6-40.4,88.2-72.8c1.1-1.6-1.5-3.1-2.6-1.5c-21.1,31.7-51.3,56.7-86.4,71.4
				C268.3,324.9,269.1,327.8,270.9,327L270.9,327z"/>
		</g>
	</g>
	<g>
		<g>
			<path class="st3" d="M237.6,294.4c10.9-6.4,21.9-12.5,32.6-19.2c8.5-5.3,16.7-11.3,22.8-19.3c10.1-13.2,13-34.3-0.6-46.3
				c-1.4-1.3-3.6,0.8-2.1,2.1c14.6,12.9,8,34.9-3.8,47c-6.4,6.6-14.2,11.6-22,16.3c-9.4,5.7-19,11.2-28.5,16.7
				C234.4,292.7,235.9,295.3,237.6,294.4L237.6,294.4z"/>
		</g>
	</g>
	<g>
		<g>
			<path class="st3" d="M221.8,254.9c14.2-3.7,30.5-8.5,37.6-22.8c5.2-10.7,1.8-24.7-10-29.1c-1.8-0.7-2.6,2.2-0.8,2.9
				c13.2,4.9,12.1,21.5,4.3,30.5c-8,9.3-20.4,12.6-31.9,15.6C219.1,252.5,219.9,255.4,221.8,254.9L221.8,254.9z"/>
		</g>
	</g>
	<g>
		<g>
			<path class="st4" d="M428.7,209.9c-27.4-4.3-46.2-29.2-42.8-56.8c0.2-1.9-2.8-1.9-3,0c-3.6,28.8,16.3,55.2,45,59.7
				C429.7,213.1,430.6,210.2,428.7,209.9L428.7,209.9z"/>
		</g>
	</g>
	<g>
		<g>
			<path class="st4" d="M423.3,211.3c-29.8,1.5-54.8-21.9-55.2-51.8c0-1.9-3-1.9-3,0c0.4,31.5,26.7,56.4,58.2,54.8
				C425.2,214.2,425.2,211.2,423.3,211.3L423.3,211.3z"/>
		</g>
	</g>
	<g>
		<g>
			<path class="st4" d="M406.4,209.7c-6.5-1.5-13-3-19.5-4.5c-5.8-1.3-12.1-2.4-17.2-5.5c-10.2-6.2-10.7-19.6-10.8-30.2
				c0-1.9-3-1.9-3,0c0.1,10.6,0.7,23.2,9.4,30.7c4.3,3.7,9.9,5.3,15.4,6.6c8.3,2,16.6,3.8,24.9,5.8
				C407.5,213,408.3,210.1,406.4,209.7L406.4,209.7z"/>
		</g>
	</g>
	<g>
		<g>
			<path class="st4" d="M461.8,165.5c-15.8-28.8-50.1-36.1-80.4-37.5c-36.8-1.7-73.8,1.2-110,8c-20.7,3.9-41,9.2-61,15.7
				c-1.8,0.6-1,3.5,0.8,2.9c33.6-11,68.3-18.4,103.5-21.8c17.2-1.7,34.4-2.4,51.7-2.3c17.5,0.2,35.4,0.8,52.3,6
				c16.6,5.1,31.9,15,40.4,30.5C460.1,168.7,462.7,167.1,461.8,165.5L461.8,165.5z"/>
		</g>
	</g>
	<g>
		<g>
			<path class="st4" d="M459,166.4c-5.4,16.1-14.7,32.5-29.9,41.2c-18.9,10.9-42.7,4.3-63,1.5c-21.6-3-43.3-5.9-64.9-8.9
				c-21.4-2.9-42.8-5.3-64.1-8.8c-5.2-0.8-10.5-2.2-14.2-6.2c-2.9-3.2-4.3-7.5-5.3-11.6c-1.9-7.7-2.7-15.7-7.6-22.2
				c-1.1-1.5-3.8,0-2.6,1.5c8.9,11.9,4.1,31.7,19.6,38.9c3.9,1.8,8.2,2.4,12.4,3c6.6,0.9,13.1,1.8,19.7,2.7
				c11.8,1.6,23.6,3.2,35.4,4.8c23.9,3.3,47.9,6.5,71.8,9.8c19.9,2.7,42.8,8.8,61.8-0.6c17.3-8.6,27.8-26.7,33.8-44.4
				C462.5,165.4,459.6,164.6,459,166.4L459,166.4z"/>
		</g>
	</g>
	<g>
		<g>
			<path class="st4" d="M358.9,127.1c-10.9,2.4-23,6.8-34.2,5c-9.4-1.5-18-1.9-27.3,0.5c-1.9,0.5-1.1,3.4,0.8,2.9
				c5.4-1.4,10.9-2.1,16.5-1.8c5,0.3,9.8,1.8,14.8,1.9c10,0.2,20.5-3.5,30.2-5.7C361.6,129.5,360.8,126.7,358.9,127.1L358.9,127.1z"
				/>
		</g>
	</g>
	<g>
		<g>
			<path class="st4" d="M307.6,136.3c10.3,0,20.4-1.5,30.2-4.5c1.8-0.6,1.1-3.5-0.8-2.9c-9.6,2.9-19.4,4.3-29.4,4.3
				C305.7,133.3,305.7,136.3,307.6,136.3L307.6,136.3z"/>
		</g>
	</g>
	<g>
		<path d="M420.7,162.4c5.5,1.2,7.8,9.4,3.7,13.4s-12,1.8-13.7-3.6c-1.7-5.4,3.5-11.6,9.1-11.1"/>
	</g>
	<g>
		<g>
			<path class="st5" d="M416.5,164c-0.4-1.7-0.8-3.3-1.2-5c-0.4-1.9-3.3-1.1-2.9,0.8c0.4,1.7,0.8,3.3,1.2,5
				C414.1,166.7,417,165.9,416.5,164L416.5,164z"/>
		</g>
	</g>
	<g>
		<g>
			<path class="st5" d="M416.3,174.6c1.9,0,1.9-3,0-3C414.3,171.6,414.3,174.6,416.3,174.6L416.3,174.6z"/>
		</g>
	</g>
	<g>
		<g>
			<path class="st4" d="M448.6,153.9c11.1,5.5,8.8,21.2-3.4,23.3c-1.1,0.2-1.4,1.8-0.7,2.5c4,3.8,3.2,9.9-0.1,13.9
				c-3.5,4.3-8.9,6.4-13.9,8.3c-1.8,0.7-1,3.6,0.8,2.9c6.6-2.6,14.1-5.5,17.4-12.3c2.4-5,2-11-2.1-14.9c-0.2,0.8-0.4,1.7-0.7,2.5
				c14.8-2.6,17.5-22.2,4.1-28.8C448.4,150.5,446.9,153.1,448.6,153.9L448.6,153.9z"/>
		</g>
	</g>
	<g>
		<g>
			<path class="st4" d="M448.4,180.8c1.6,0,3.3,0,4.9,0c1.9,0,1.9-3,0-3c-1.6,0-3.3,0-4.9,0C446.4,177.8,446.4,180.8,448.4,180.8
				L448.4,180.8z"/>
		</g>
	</g>
	<g>
		<g>
			<path class="st4" d="M422,211.6c2.5-1.2,4.9-2.5,7.4-3.7c1.7-0.9,0.2-3.5-1.5-2.6c-2.5,1.2-4.9,2.5-7.4,3.7
				C418.8,209.8,420.3,212.4,422,211.6L422,211.6z"/>
		</g>
	</g>
	<g>
		<g>
			<path class="st4" d="M227.3,188.1c-6.2-3.9-11.7-8.7-16.3-14.5c-4.3-5.4-7-11.6-10.3-17.6c-2.8-5-6.2-9.2-11.1-12.1
				c-7.1-4.2-15-7.3-22.4-10.8c-1.7-0.8-3.3,1.8-1.5,2.6c7.2,3.4,14.6,6.5,21.6,10.3c7,3.8,10.2,10.3,13.7,17.1
				c5.8,11.4,13.9,20.7,24.8,27.5C227.4,191.7,228.9,189.1,227.3,188.1L227.3,188.1z"/>
		</g>
	</g>
	<g>
		<g>
			<path class="st4" d="M217.4,167.1c-7.5-6.3-8.7-16.7-14.6-24.2c-6.2-8-16.7-14.1-25.7-18.4c-9.3-4.5-19.4-6.2-29.5-7.4
				c-12.4-1.4-24.9-2.5-37.4-3.8c-1.9-0.2-1.9,2.8,0,3c11.3,1.1,22.6,2.2,33.9,3.4c11.4,1.2,22.9,2.9,33.2,8.2
				c9.1,4.7,19.8,10.8,25.2,19.8c4.3,7.3,6.1,15.9,12.8,21.5C216.7,170.4,218.8,168.3,217.4,167.1L217.4,167.1z"/>
		</g>
	</g>
</g>
</svg>
