<?xml version="1.0" encoding="utf-8"?>
<!-- Generator: Adobe Illustrator 23.0.3, SVG Export Plug-In . SVG Version: 6.00 Build 0)  -->
<svg version="1.1" id="Layer_1" xmlns="http://www.w3.org/2000/svg" xmlns:xlink="http://www.w3.org/1999/xlink" x="0px" y="0px"
	 viewBox="0 0 442.7 191.8" style="enable-background:new 0 0 442.7 191.8;" xml:space="preserve">
<style type="text/css">
	.st0{fill:url(#SVGID_1_);}
	.st1{fill:#1D2EFF;}
	.st2{fill:#FFFFFF;}
	.st3{fill:#0B007F;}
	.st4{fill:#FFB300;}
</style>
<g>
	<g>
		<linearGradient id="SVGID_1_" gradientUnits="userSpaceOnUse" x1="189.1549" y1="27.691" x2="189.1549" y2="170.1366">
			<stop  offset="0" style="stop-color:#FCEE21"/>
			<stop  offset="0.6771" style="stop-color:#FCDA21"/>
			<stop  offset="0.9619" style="stop-color:#FCD021"/>
		</linearGradient>
		<path class="st0" d="M369.3,55.3c-54,13.2-109.7-6.6-164-18.6c-34.2-7.6-69.7-12-104.4-6.5S32.4,52.3,11.5,80.5
			C4.3,90-1.3,102.9,4,113.6c2.6,5.3,7.5,9.1,12.4,12.4c39.6,26.8,88.6,34.6,136,41.1c13.9,1.9,27.9,3.8,41.9,2.8
			c20.3-1.3,39.8-8.5,58.5-16.6c33.9-14.7,66.2-32.7,98.4-50.7C359.4,98,368,93,373,85s4.8-20.1-3-25.5"/>
	</g>
	<g>
		<path class="st1" d="M108.3,153.1c-2.2-8.7,3.3-18.6,11.9-21.3"/>
	</g>
	<g>
		<path class="st1" d="M109.4,151.8c19.2,15.3,39.1,31,62.8,37.3c1.8,0.5,3.6,0.9,5.4,0.7c2.5-0.2,4.7-1.6,6.8-2.9
			c9.2-5.8,17.9-12.6,25.7-20.3c1.2-1.1,2.3-2.4,2.6-3.9c0.3-1.5-0.4-3.1-1.2-4.4c-5.3-8.7-16.3-11.5-26.2-13.5
			c-21.7-4.5-43.3-9-65-13.5"/>
	</g>
	<g>
		<path class="st1" d="M74.9,36.2C79.1,22.1,92,11.8,106,6.9s29.1-5.1,43.9-5.1c14.2,0,28.9,0.2,42,5.6c8.4,3.5,16,9,24.6,11.9
			c9.3,3.2,19.3,3.2,29.1,4.1c24.1,2.2,47.8,9.7,68.7,21.9c-1.9,8.9-13.8,10.4-22.8,9.2C272.9,52,255.1,45.9,237,41
			c-38.9-10.5-79.2-15.7-119.5-15.4c-15.2,0.1-31.1,1.2-44.4,8.7"/>
	</g>
	<g>
		<g>
			<path class="st1" d="M82.4,32c22.3-3.2,42.9-13.6,58.9-29.4c1.4-1.4-0.7-3.5-2.1-2.1c-15.7,15.5-35.8,25.4-57.6,28.6
				C79.7,29.3,80.5,32.2,82.4,32L82.4,32z"/>
		</g>
	</g>
	<g>
		<g>
			<path class="st1" d="M147.9,27.5c10.5-3.5,18.4-11.6,21.6-22.2c0.6-1.9-2.3-2.6-2.9-0.8c-2.9,9.5-10.1,17-19.5,20.1
				C145.3,25.2,146,28.1,147.9,27.5L147.9,27.5z"/>
		</g>
	</g>
	<g>
		<g>
			<path class="st1" d="M179.5,29.7c12.5-0.4,12.4-14.8,10.9-23.8c-0.3-1.9-3.2-1.1-2.9,0.8c1.2,6.9,2.3,19.7-8,20
				C177.6,26.8,177.6,29.8,179.5,29.7L179.5,29.7z"/>
		</g>
	</g>
	<g>
		<g>
			<path class="st1" d="M202.1,35.8c7-1.3,12.7-7.1,13.7-14.2c0.3-1.9-2.6-2.7-2.9-0.8c-0.9,6.2-5.5,11-11.6,12.1
				C199.4,33.2,200.2,36.1,202.1,35.8L202.1,35.8z"/>
		</g>
	</g>
	<g>
		<g>
			<path class="st1" d="M232.6,43c9.5-1.2,17.4-8.2,19.1-17.8c0.3-1.9-2.5-2.7-2.9-0.8c-1.5,8.1-8,14.5-16.2,15.6
				C230.7,40.2,230.7,43.2,232.6,43L232.6,43z"/>
		</g>
	</g>
	<g>
		<g>
			<path class="st1" d="M264.7,50.5c10.3-0.9,19.4-6.8,24-16.1c0.9-1.7-1.7-3.2-2.6-1.5c-4.1,8.3-12.1,13.9-21.4,14.7
				C262.8,47.7,262.8,50.7,264.7,50.5L264.7,50.5z"/>
		</g>
	</g>
	<g>
		<path class="st1" d="M363.4,56.7c22.4-14,42.9-31,60.8-50.3c1-1.1,2.2-2.3,3.8-2.4c2.2,0,3.6,2.3,4.5,4.2
			c4.4,10,8.2,20.5,8.9,31.4c0.7,10.9-2,22.4-9.1,30.7c-6.4,7.5-16,11.9-25.7,13.8c-9.7,2-19.7,1.7-29.6,1.5c-0.7,0-1.4,0-2-0.4
			c-2-1.1-1.2-4-0.6-6.2c2.1-6.9-0.3-14.9-5.8-19.6"/>
	</g>
	<g>
		<g>
			<path class="st1" d="M373.7,64.2c25.2-6.8,47.6-21.5,63.9-41.9c1.2-1.5-0.9-3.6-2.1-2.1c-16,20-37.8,34.4-62.6,41.1
				C371,61.8,371.8,64.7,373.7,64.2L373.7,64.2z"/>
		</g>
	</g>
	<g>
		<g>
			<path class="st1" d="M365.2,57.1c0.8,0.4,1.6,0.8,2.5,1.2c0.7,0.4,1.6,0.2,2.1-0.5c0.4-0.7,0.2-1.7-0.5-2.1
				c-0.8-0.4-1.6-0.8-2.5-1.2c-0.7-0.4-1.6-0.2-2.1,0.5C364.2,55.7,364.5,56.7,365.2,57.1L365.2,57.1z"/>
		</g>
	</g>
	<g>
		<g>
			<path class="st1" d="M377.3,75c23.6-3.7,49.4-8.5,65.1-28.3c1.2-1.5-0.9-3.6-2.1-2.1c-15.4,19.5-40.6,23.9-63.7,27.5
				C374.6,72.4,375.4,75.3,377.3,75L377.3,75z"/>
		</g>
	</g>
	<g>
		<g>
			<path class="st1" d="M156.8,183.4c14.9,2.3,33.5,1.9,42.3-12.7c6.5-10.7,1.2-26.3-12.1-27.8c-1.9-0.2-1.9,2.8,0,3
				c6,0.7,10.3,5.6,11.6,11.3c1.4,6-1.3,12-5.5,16.2c-9.4,9.3-23.4,8.9-35.5,7.1C155.7,180.2,154.9,183.1,156.8,183.4L156.8,183.4z"
				/>
		</g>
	</g>
	<g>
		<g>
			<path class="st1" d="M156.9,178.9c-0.8-0.4-1.6-0.8-2.5-1.2c-0.7-0.4-1.6-0.2-2.1,0.5c-0.4,0.7-0.2,1.7,0.5,2.1
				c0.8,0.4,1.6,0.8,2.5,1.2c0.7,0.4,1.6,0.2,2.1-0.5C157.9,180.3,157.7,179.3,156.9,178.9L156.9,178.9z"/>
		</g>
	</g>
	<g>
		<g>
			<path class="st1" d="M190.7,144.8c1.9,0,1.9-3,0-3C188.8,141.8,188.8,144.8,190.7,144.8L190.7,144.8z"/>
		</g>
	</g>
	<g>
		<path class="st1" d="M233.9,40.7c5.6,4,7.5,11.4,8,18.2c1.4,18.8-5.1,38-17.5,52.2c1.8,4.6,8,6.2,12.7,4.5s8.1-5.7,11-9.7
			c11.7-16.1,19-35.4,21-55.2"/>
	</g>
	<g>
		<path class="st1" d="M179.2,31.7c10.2,4.4,18.2,13.7,21.1,24.5c2.9,10.8,0.6,22.8-6.1,31.8c-0.7,0.9-1.5,2-1.3,3.2
			c0.5,2.8,4.9,1.5,6.9-0.5c7-6.9,12.8-15.2,15.4-24.6s1.4-20.2-4.4-28.1"/>
	</g>
	<g>
		<path class="st1" d="M131.8,26.6c15.2,6.8,25.5,23.4,24.9,40c-0.1,1.3,0,2.8,1.1,3.3c1.1,0.5,2.3-0.3,3.1-1.2
			c5.1-5.4,6.8-13.5,5.9-20.9s-4.1-14.4-7.5-21"/>
	</g>
	<g>
		<path class="st1" d="M107.8,65.4c1.9-1.3,2-4.2,0.7-6.1s-3.4-2.9-5.6-3.7c-9.9-3.4-21-2-30.8,1.7C62.3,61,53.5,67,44.9,72.8
			c-2.7,1.8-5.6,4-6,7.3c-0.5,3.8,3.1,7.2,6.9,8.1c3.8,0.9,7.7,0.2,11.6,0c8.1-0.4,16.3,1.7,23.2,6c1.6,1,3.3,2.1,5.1,2.1
			c1.6,0,3-0.8,4.4-1.6c11-6.7,20.4-19,17.7-31.5"/>
	</g>
	<g>
		<g>
			<path class="st1" d="M77.7,35.3c27.5-8.6,57.8-5.7,86.1-3c29.5,2.8,58.7,7.8,87.4,14.8c1.9,0.5,2.7-2.4,0.8-2.9
				c-29-7.1-58.5-12.1-88.2-14.9c-28.5-2.7-59.1-5.5-86.9,3.1C75,33,75.8,35.9,77.7,35.3L77.7,35.3z"/>
		</g>
	</g>
	<g>
		<g>
			<path class="st1" d="M105.5,27.4c9.3,0.7,18.6-1.3,28-1.6c10.1-0.3,20.2,0.4,30.2,2.2c1.9,0.3,2.7-2.6,0.8-2.9
				c-9.6-1.7-19.3-2.5-29.1-2.3c-10,0.2-19.9,2.4-29.9,1.6C103.6,24.3,103.6,27.3,105.5,27.4L105.5,27.4z"/>
		</g>
	</g>
	<g>
		<g>
			<path class="st1" d="M102.6,27.4c15,3,30.2,3.9,45.4,2.6c1.9-0.2,1.9-3.2,0-3c-15,1.3-29.9,0.4-44.6-2.5
				C101.5,24.1,100.7,27,102.6,27.4L102.6,27.4z"/>
		</g>
	</g>
	<g>
		<g>
			<path class="st1" d="M126.2,26.1c12.6-1.4,25.1-0.8,37.7,0.6c6.6,0.7,13.2,1.7,19.8,2.6c5.7,0.8,11.4,1.8,16.5,4.6
				c1.7,0.9,3.2-1.7,1.5-2.6c-10-5.5-22.8-5.8-34-7.1c-13.8-1.7-27.7-2.5-41.5-1C124.4,23.3,124.3,26.3,126.2,26.1L126.2,26.1z"/>
		</g>
	</g>
	<g>
		<g>
			<path class="st1" d="M223.7,35.7c-5.1-2.9-10.6-4.7-16.5-5.2c-2.6-0.2-5.3,0-7.9,0.3c-3.3,0.4-5.6,0.8-8.8-0.3
				c-1.4-0.5-2.7-1.2-4.1-1.7c-11.9-4.3-25.2,1.8-36.7-3.9c-1.7-0.8-3.2,1.7-1.5,2.6c11.1,5.4,23,0.7,34.5,3.3
				c3,0.7,5.6,2.4,8.5,3.2c2.8,0.8,5.4,0.2,8.2-0.2c8-1.2,15.9,0.4,22.9,4.4C223.9,39.3,225.4,36.7,223.7,35.7L223.7,35.7z"/>
		</g>
	</g>
	<g>
		<g>
			<path class="st1" d="M114.2,24.2c16.4,5.7,34.3,0.7,51.2,4.3c16.2,3.5,31.6,10.3,48.3,11.5c1.9,0.1,1.9-2.9,0-3
				c-17-1.2-32.6-8.5-49.2-11.8c-16.3-3.2-33.7,1.6-49.5-4C113.1,20.7,112.4,23.6,114.2,24.2L114.2,24.2z"/>
		</g>
	</g>
	<g>
		<g>
			<path class="st1" d="M209.1,36c19,2,37.5,6.6,55.3,13.6c1.8,0.7,2.6-2.2,0.8-2.9c-18-7.1-36.8-11.7-56.1-13.7
				C207.2,32.8,207.2,35.8,209.1,36L209.1,36z"/>
		</g>
	</g>
	<g>
		<g>
			<path class="st1" d="M273,51.1c7.7-0.1,15,1.6,21.8,5.1c1.7,0.9,3.2-1.7,1.5-2.6c-7.3-3.7-15.1-5.6-23.3-5.5
				C271.1,48.1,271.1,51.1,273,51.1L273,51.1z"/>
		</g>
	</g>
	<g>
		<g>
			<path class="st1" d="M297.1,53c-4.5,4.2-13.2-0.7-17.9-2.4c-6.2-2.2-12.3-4.5-18.5-6.7c-1.8-0.7-2.6,2.2-0.8,2.9
				c8.6,3.1,17.2,6.4,25.9,9.4c4.6,1.5,9.6,2.6,13.4-1C300.7,53.8,298.5,51.6,297.1,53L297.1,53z"/>
		</g>
	</g>
	<g>
		<g>
			<path class="st1" d="M256.3,46.6c-21.3-6.9-42.9-12.5-64.8-16.9c-1.9-0.4-2.7,2.5-0.8,2.9c21.9,4.4,43.5,10.1,64.8,16.9
				C257.3,50.1,258.1,47.2,256.3,46.6L256.3,46.6z"/>
		</g>
	</g>
	<g>
		<g>
			<path class="st1" d="M182.5,28.4c-7.8-1.3-15.6-2.6-23.3-3.9c-1.9-0.3-2.7,2.6-0.8,2.9c7.8,1.3,15.6,2.6,23.3,3.9
				C183.6,31.6,184.4,28.7,182.5,28.4L182.5,28.4z"/>
		</g>
	</g>
	<g>
		<path d="M75,75.7c-2.5-2.7-6.7-3-10.3-2.7c-4,0.3-8.5,1.6-10.3,5.2c-1.5,3-0.5,6.8,1.8,9.2s5.7,3.5,9.1,3.7
			c2.1,0.1,4.3-0.2,6.1-1.3c4.6-2.9,4.2-9.6,3.3-14.9"/>
	</g>
	<g>
		<g>
			<path class="st2" d="M55.8,87.9c2.2,0.8,4.6-1,4.6-3.3c0-0.5-0.3-1.1-0.7-1.3c-2.1-1-4.3-1.3-6.6-0.8c-1.9,0.3-1.1,3.2,0.8,2.9
				c1.4-0.3,3-0.1,4.3,0.5c-0.2-0.4-0.5-0.9-0.7-1.3c0,0.5-0.4,0.6-0.8,0.4C54.8,84.3,54,87.2,55.8,87.9L55.8,87.9z"/>
		</g>
	</g>
	<g>
		<g>
			<path class="st2" d="M67.2,78.7c1.5-1.5,3-3,4.5-4.5c1.4-1.4-0.8-3.5-2.1-2.1c-1.5,1.5-3,3-4.5,4.5
				C63.7,77.9,65.9,80.1,67.2,78.7L67.2,78.7z"/>
		</g>
	</g>
	<g>
		<path class="st3" d="M75,34.1c5.1-0.7,10.2-1.4,15.3-2.1c3.7-0.5,7.4-1,10.9-2.4c2.1-0.9,4-2,5.9-3.3c9.8-6.3,18.6-14,26.2-22.8
			c-11.7-2.4-24.2,0.2-34.7,5.9S79.5,23.8,72.5,33.6"/>
	</g>
	<g>
		<path class="st3" d="M138.7,29.4c6.1-7.2,12.3-14.4,18.4-21.6c1.4-1.7,3-3.4,5-4.3c2.1-0.9,4.4-0.7,6.6-0.5
			c5.1,0.6,10.2,1.7,15.1,3.4c0.7,0.2,1.5,0.5,1.9,1.2c0.5,0.9,0.2,2-0.1,2.9c-3.4,9.7-9.4,20.1-19.5,22c-9.4,1.8-18.6-4.4-28.1-3.6
			"/>
	</g>
	<g>
		<path class="st3" d="M185.8,34.4c6.8-4.3,12.4-10.5,16.1-17.7c0.4-0.8,0.9-1.7,1.8-2c0.6-0.2,1.2,0,1.8,0.1
			c2.2,0.6,4.5,1.2,6.7,1.8c0.9,0.2,1.9,0.5,2.6,1.2c0.9,0.9,1.2,2.2,1.5,3.4c1,5.5,1.3,12.6-3.7,15c-1.7,0.8-3.6,0.8-5.5,0.8
			c-6.8,0-13.5,0-20.3,0"/>
	</g>
	<g>
		<path class="st3" d="M231.1,42c4.4-4.5,8.9-8.9,13.3-13.4c1.4-1.4,2.8-2.8,4.6-3.7c3.7-1.8,8.2-0.8,12.2,0.2
			c2.3,0.6,4.9,1.6,5.3,3.9c0.1,1-0.2,1.9-0.6,2.9c-2,4.7-4.8,9.1-8.3,12.8c-1.1,1.1-2.3,2.3-3.8,2.7c-1.3,0.4-2.6,0.3-4,0.1
			c-7.2-0.9-14.4-2.8-21.1-5.6"/>
	</g>
	<g>
		<path class="st3" d="M270.6,49.8c4.2-3.9,8.3-7.8,12.5-11.8c2-1.9,4.1-3.8,6.8-4.4c2.8-0.6,5.6,0.3,8.2,1.3c0.6,0.2,1.2,0.5,1.6,1
			c0.9,1.2,0.1,2.8-0.8,4c-2.8,4.1-5.8,8.3-10.1,10.9c-4.3,2.6-10.3,3-14-0.3"/>
	</g>
	<g>
		<path class="st3" d="M364,55c24.7-11.2,46.5-28.6,62.9-50.2c5.2,6.9,10.5,14.4,11.1,23.1c0.2,2.6-0.1,5.2-1.4,7.4
			c-1.7,2.9-4.8,4.7-7.8,6.2c-13.1,6.7-27.1,11.5-41.1,16.3c-4,1.4-8.2,2.8-12.5,2.7c-4.3-0.1-8.8-2-10.8-5.7"/>
	</g>
	<g>
		<path class="st3" d="M374.7,75.6c14.8-5.1,29.7-10.1,44.5-15.2c5.3-1.8,10.7-3.7,15.1-7.1c1.3-1.1,2.8-2.3,4.5-2.2
			c0.3,10.3-5.2,20.7-14,26.2c-2.7,1.7-5.7,3-8.8,4.1c-11.5,4.2-23.9,5.9-36.2,5c-2-0.1-4.1-0.4-5.6-1.6c-1.6-1.2-2.3-3.7-1-5.2"/>
	</g>
	<g>
		<g>
			<path class="st3" d="M371.8,75.9c0.9,1.1,0.7,2.5-0.1,3.6c-1.1,1.6,1.5,3.1,2.6,1.5c1.6-2.2,1.3-5.1-0.4-7.2
				c-0.5-0.6-1.6-0.5-2.1,0C371.2,74.4,371.3,75.3,371.8,75.9L371.8,75.9z"/>
		</g>
	</g>
	<g>
		<path class="st3" d="M267.6,50.6c-3.3,0-6.6,0-9.9,0c0.2,3.3,1.2,6.4,1.7,9.6c1.8,11.6-3.8,22.9-9.1,33.3
			c-3.8,7.5-7.8,15.1-13.9,20.8c5.9-1.7,9.5-7.4,12.6-12.7c5.2-8.9,10.3-17.8,15.5-26.8c4.4-7.6,9-16,7.3-24.6"/>
	</g>
	<g>
		<path class="st3" d="M214.3,38.2c-1.1-1.2-3.3-0.7-4.3,0.5c-1,1.3-1.2,3.1-1.2,4.7c-0.1,8.6,2.2,17.2,2.1,25.8
			s-3.5,18.2-11.3,21.8c7.9-3.1,13.7-10.3,16.7-18.3s3.6-16.6,3.7-25.1c0-3.7,0-7.5-1.7-10.8"/>
	</g>
	<g>
		<path class="st3" d="M171.3,32.5c-2.7-0.2-5.5,0.1-8.1,0.8c-0.7,0.2-1.4,0.4-1.8,1c-0.6,0.8-0.2,2,0.1,3
			c2.6,8.2,1.1,17.6-3.9,24.6c-0.7,1-1.6,2.3-1,3.5c0.5,1,2.1,1.2,3.1,0.6c1-0.6,1.6-1.7,2.1-2.8c4.7-10,6.4-21.4,4.9-32.4"/>
	</g>
	<g>
		<path class="st3" d="M109.4,143.5c20.3,9.1,40.6,18.2,61,27.3c4,1.8,8,3.6,12.4,4c8,0.8,15.6-2.9,22.7-6.6
			c-8.6,8.4-18.4,15.5-29.1,21c-2.6,1.3-5.4,2.6-8.3,2.6c-3.4,0-6.5-1.6-9.4-3.3c-13-7.4-25.3-15.9-36.7-25.5
			c-6.2-5.2-12.3-11-14.9-18.6"/>
	</g>
	<g>
		<path class="st3" d="M107.8,60.8c-6.6-4.4-14.6-6.6-22.5-6.1c2.5,5.7,8.4,9.8,9.4,16c1.3,7.9-7.4,14.9-15.4,13.9
			c-0.8-0.1-1.6-0.3-2.4,0c-2.4,0.7-2.1,4.4-0.4,6.2c2.4,2.7,6.4,3.6,9.9,3.1s6.9-2,10.2-3.6c3.2-1.5,6.6-3.2,8.7-6.1
			c1.6-2.2,2.3-4.9,2.9-7.5c1.4-5.8,2.8-12.1,0.3-17.5"/>
	</g>
	<g>
		<g>
			<path class="st3" d="M120.9,4c17.2-0.1,34.5,0.3,51.7,1.5c9.1,0.6,17.4,2.1,25.6,6.1c6.7,3.3,13,6.8,20.3,8.8
				c15.3,4.3,31.5,3.9,47,7.1c16.6,3.4,32.2,10.4,47.3,17.9c1.7,0.9,3.2-1.7,1.5-2.6c-14.8-7.3-30-14.2-46.2-17.8
				c-16.1-3.6-32.9-3-48.8-7.5c-8.4-2.4-15.6-7-23.5-10.4c-6.8-2.9-14.1-4-21.4-4.6c-17.8-1.3-35.7-1.7-53.5-1.6
				C119,1,119,4,120.9,4L120.9,4z"/>
		</g>
	</g>
	<g>
		<g>
			<path class="st3" d="M313.1,44.2c-11.3,17.1-34.4,8.2-49.6,3.2c-1.8-0.6-2.6,2.3-0.8,2.9c16.8,5.5,40.8,13.9,53-4.5
				C316.8,44.1,314.2,42.6,313.1,44.2L313.1,44.2z"/>
		</g>
	</g>
	<g>
		<g>
			<path class="st3" d="M266.7,47.2c-17.5,0.2-34.3-4.7-51.1-9.1c-16.5-4.3-33.2-7.2-50.1-9.1c-16.6-1.8-33.3-3.2-50-3.8
				c-14.6-0.5-29.2,0.5-42.4,7.3c-1.7,0.9-0.2,3.5,1.5,2.6c14-7.2,29.7-7.5,45.1-6.7c16.5,0.9,33.1,2.1,49.6,4
				c17,2,33.5,5.4,50.1,9.7c15.5,4.1,31.2,8.2,47.4,8C268.7,50.2,268.7,47.2,266.7,47.2L266.7,47.2z"/>
		</g>
	</g>
	<g>
		<g>
			<path class="st3" d="M363.3,55.3c6.3,7.5,8.6,17,10.7,26.4c0.4,1.9,3.3,1.1,2.9-0.8c-2.3-9.9-4.8-19.7-11.5-27.7
				C364.2,51.7,362.1,53.9,363.3,55.3L363.3,55.3z"/>
		</g>
	</g>
	<g>
		<g>
			<path class="st3" d="M371.8,89.7c2.9-1.8,3.6-4.6,3.6-7.9c0.1-6.5-1-13.1-1.5-19.6c-0.2-1.9-3.2-1.9-3,0c0.3,4.3,0.7,8.5,1,12.8
				c0.3,3.3,1.8,9.8-1.7,12.1C368.7,88.2,370.2,90.8,371.8,89.7L371.8,89.7z"/>
		</g>
	</g>
	<g>
		<g>
			<path class="st3" d="M368,57.2c21.3-14.4,41.2-30.8,59.3-49c-0.7,0-1.4,0-2.1,0c8,7,10.7,17.1,11.2,27.4
				c0.5,9.7,1.2,21.8-3.4,30.6c-0.9,1.7,1.7,3.2,2.6,1.5c5.2-9.8,4.5-23.2,3.7-33.9c-0.8-10.4-4-20.6-12-27.6
				c-0.6-0.5-1.5-0.6-2.1,0c-18,18-37.6,34.3-58.7,48.6C364.9,55.7,366.4,58.3,368,57.2L368,57.2z"/>
		</g>
	</g>
	<g>
		<g>
			<path class="st3" d="M427.9,8.5c2.4-0.6,6.7,18.4,7.1,20.3c1.5,6.6,2.3,13.3,1.8,20c-1,13.4-7.9,25.1-19.8,31.6
				c-1.7,0.9-0.2,3.5,1.5,2.6c14-7.8,21.2-22,21.4-37.7c0.1-8.6-1.7-17.1-4.1-25.4c-1.1-3.8-2.6-16-8.8-14.3
				C425.2,6.1,426,9,427.9,8.5L427.9,8.5z"/>
		</g>
	</g>
	<g>
		<g>
			<path class="st3" d="M369.8,59.9c3.8,10.1,3.1,20.8-1.9,30.3c-0.9,1.7,1.7,3.2,2.6,1.5c5.4-10.2,6.2-21.8,2.2-32.6
				C372,57.3,369.1,58.1,369.8,59.9L369.8,59.9z"/>
		</g>
	</g>
	<g>
		<g>
			<path class="st3" d="M373.9,91.2c1-9.4,12.8-8.4,19.4-7.3c1.9,0.3,2.7-2.6,0.8-2.9c-8.9-1.4-21.9-1.5-23.2,10.2
				C370.7,93.1,373.7,93.1,373.9,91.2L373.9,91.2z"/>
		</g>
	</g>
	<g>
		<g>
			<path class="st3" d="M371.4,92.2c4.3-4.5,9.8-7.2,15.9-7.9c1.9-0.2,1.9-3.2,0-3c-7,0.7-13.2,3.7-18.1,8.7
				C367.9,91.4,370,93.6,371.4,92.2L371.4,92.2z"/>
		</g>
	</g>
	<g>
		<g>
			<path class="st3" d="M427.5,6.2c1.7,3,3.5,6.1,5.2,9.1c1,1.7,3.6,0.2,2.6-1.5c-1.7-3-3.5-6.1-5.2-9.1
				C429.1,3.1,426.5,4.6,427.5,6.2L427.5,6.2z"/>
		</g>
	</g>
	<g>
		<g>
			<path class="st3" d="M108.8,146.7c0.6,1.2,1.2,2.4,1.8,3.6c0.4,0.7,1.4,0.9,2.1,0.5c0.7-0.4,0.9-1.3,0.5-2.1
				c-0.6-1.2-1.2-2.4-1.8-3.6c-0.4-0.7-1.4-0.9-2.1-0.5C108.6,145.1,108.4,146,108.8,146.7L108.8,146.7z"/>
		</g>
	</g>
	<g>
		<g>
			<path class="st3" d="M111.1,147.6c0.1-7.2,6.1-11.8,12.5-13.6c6.6-1.9,13.5,0,19.9,2.1c6.3,2.1,12.5,4.5,19.1,5.7
				c7.1,1.3,14.4,1.8,21.6,3c6.3,1,12.5,2.7,18,5.9c2.4,1.4,5.7,3.5,7.3,5.9c3,4.6-1.5,8.1-4.6,11.1c-5,4.8-10.8,8.7-16.8,12.1
				c-3.7,2.1-15.6,10.8-19.4,6.3c-1.3-1.5-3.4,0.7-2.1,2.1c2.7,3.2,6.9,2.4,10.4,0.8c6.5-2.9,13-6.6,18.9-10.6
				c5.5-3.6,10.7-7.8,14.9-12.9c3-3.7,4.5-6.6,1.3-10.6c-8.3-10.2-22.4-12.7-34.7-14.3c-8.2-1-16.3-2-24.2-4.6
				c-6.6-2.2-13-4.9-20-5.8c-11-1.3-24.9,4.5-25.1,17.1C108.1,149.5,111.1,149.5,111.1,147.6L111.1,147.6z"/>
		</g>
	</g>
	<g>
		<g>
			<path class="st3" d="M107,60.3c-19.9-13.9-44.4-4.5-61.6,8.9c-3.6,2.8-8,6.2-8.4,11.2c-0.3,3.7,2.1,6.7,5.2,8.3
				c4.9,2.6,11,1.4,16.4,1.6c7.6,0.3,15.1,1.7,22.4,3.9c1.9,0.6,2.6-2.3,0.8-2.9c-9.1-2.7-18.3-4.1-27.8-4
				c-5.3,0-18.6-0.9-12.6-10.1c2.6-4,7.5-7,11.4-9.6c15.5-10.5,36.2-16.4,52.8-4.7C107.1,64,108.6,61.4,107,60.3L107,60.3z"/>
		</g>
	</g>
	<g>
		<g>
			<path class="st4" d="M72.4,35.8c-21.2,8.1-40.7,20.6-56.5,37C3.2,85.9-8.2,108.5,8,123.8c1.4,1.3,3.5-0.8,2.1-2.1
				c-17.2-16.3-0.4-39.2,12.6-51.5c14.6-13.8,31.8-24.4,50.5-31.6C75,38,74.2,35.1,72.4,35.8L72.4,35.8z"/>
		</g>
	</g>
	<g>
		<g>
			<path class="st4" d="M6.9,124.5c8.7,4.3,17.4,8.7,26.1,13c7.9,3.9,15.8,8.2,24.2,11c9,3,18.6,4.6,27.9,6.6
				c9.5,2,18.9,4.1,28.4,6.1c1.9,0.4,2.7-2.5,0.8-2.9c-18.1-3.9-36.8-6.7-54.5-12.2c-8.8-2.7-17-7.2-25.3-11.3
				c-8.7-4.3-17.4-8.7-26.1-13C6.7,121.1,5.2,123.7,6.9,124.5L6.9,124.5z"/>
		</g>
	</g>
	<g>
		<g>
			<path class="st4" d="M207.2,172.5c11.3-7.8,25.8-9.8,38.2-15.4c13.9-6.3,27.5-13.4,41.2-20.2c26.6-13.1,53.7-25.7,77.9-43
				c1.6-1.1,0.1-3.7-1.5-2.6c-24.2,17.3-51.3,29.9-77.9,43c-13.7,6.8-27.3,13.9-41.2,20.2c-12.4,5.6-26.9,7.6-38.2,15.4
				C204.1,171,205.6,173.6,207.2,172.5L207.2,172.5z"/>
		</g>
	</g>
	<g>
		<g>
			<path class="st4" d="M300,59.6c20,2.7,40,2.3,59.9-1.1c1.9-0.3,1.1-3.2-0.8-2.9c-19.6,3.3-39.4,3.6-59.1,1
				C298.1,56.3,298.1,59.3,300,59.6L300,59.6z"/>
		</g>
	</g>
	<g>
		<g>
			<path class="st4" d="M361.4,57c5.6,3.2,5.7,10.9,5.6,16.6c-0.1,6.2-1.3,12.2-3.3,18c-0.6,1.8,2.3,2.6,2.9,0.8
				c2.7-7.8,3.9-16,3.2-24.2c-0.5-5.5-1.9-10.9-6.9-13.8C361.3,53.4,359.8,56,361.4,57L361.4,57z"/>
		</g>
	</g>
	<g>
		<g>
			<path class="st4" d="M74.7,38.5c13.7-2.3,29.2-7.2,43-4.2c1.9,0.4,2.7-2.5,0.8-2.9c-14.5-3.2-30.3,1.7-44.6,4.2
				C72,36,72.8,38.9,74.7,38.5L74.7,38.5z"/>
		</g>
	</g>
	<g>
		<g>
			<path class="st3" d="M373.4,89.9c15.9-5.2,32.3-8.3,49-9.1c1.9-0.1,1.9-3.1,0-3c-17,0.9-33.7,3.9-49.8,9.2
				C370.8,87.6,371.5,90.5,373.4,89.9L373.4,89.9z"/>
		</g>
	</g>
	<g>
		<g>
			<path class="st3" d="M422,78.7c-15,6.5-31.5,8.5-47.7,5.8c-1.9-0.3-2.7,2.6-0.8,2.9c17.1,2.8,34.1,0.8,50-6.1
				C425.3,80.5,423.7,78,422,78.7L422,78.7z"/>
		</g>
	</g>
	<g>
		<g>
			<path class="st3" d="M382.9,83.3c-4,3-8.3,5.5-13,7.2c-1.8,0.7-1,3.6,0.8,2.9c4.9-1.9,9.5-4.3,13.7-7.5
				C385.9,84.7,384.4,82.1,382.9,83.3L382.9,83.3z"/>
		</g>
	</g>
	<g>
		<g>
			<path class="st3" d="M373.5,84c-3.1,5.1-7.2,9.4-12.2,12.8c-1.6,1.1-0.1,3.7,1.5,2.6c5.4-3.7,9.8-8.4,13.2-13.9
				C377.1,83.8,374.5,82.3,373.5,84L373.5,84z"/>
		</g>
	</g>
</g>
</svg>
