<?xml version="1.0" encoding="utf-8"?>
<!-- Generator: Adobe Illustrator 23.0.3, SVG Export Plug-In . SVG Version: 6.00 Build 0)  -->
<svg version="1.1" id="Layer_1" xmlns="http://www.w3.org/2000/svg" xmlns:xlink="http://www.w3.org/1999/xlink" x="0px" y="0px"
	 viewBox="0 0 442.7 191.8" style="enable-background:new 0 0 442.7 191.8;" xml:space="preserve" width="147.6" height="63.9">
<style type="text/css">
	.st0{fill:url(#SVGID_1_);}
	.st1{fill:#1D2EFF;}
	.st2{fill:#FFFFFF;}
	.st3{fill:#0B007F;}
	.st4{fill:#FFB300;}
</style>
<g>
	<g>

			<linearGradient id="SVGID_1_" gradientUnits="userSpaceOnUse" x1="189.1549" y1="27.691" x2="189.1549" y2="170.1366" gradientTransform="matrix(-1 0 0 1 442.9245 0)">
			<stop  offset="0" style="stop-color:#FCEE21"/>
			<stop  offset="0.6771" style="stop-color:#FCDA21"/>
			<stop  offset="0.9619" style="stop-color:#FCD021"/>
		</linearGradient>
		<path class="st0" d="M73.6,55.3c54,13.2,109.7-6.6,164-18.6c34.2-7.6,69.7-12,104.4-6.5s68.5,22.1,89.4,50.3
			c7.1,9.6,12.7,22.4,7.5,33.1c-2.6,5.3-7.5,9.1-12.4,12.4c-39.6,26.8-88.6,34.6-136,41.1c-13.9,1.9-27.9,3.8-41.9,2.8
			c-20.3-1.3-39.8-8.5-58.5-16.6c-33.9-14.7-66.2-32.7-98.4-50.7C83.5,98,74.9,93,69.9,85s-4.8-20.1,3-25.5"/>
	</g>
	<g>
		<path class="st1" d="M334.6,153.1c2.2-8.7-3.3-18.6-11.9-21.3"/>
	</g>
	<g>
		<path class="st1" d="M333.6,151.8c-19.2,15.3-39.1,31-62.8,37.3c-1.8,0.5-3.6,0.9-5.4,0.7c-2.5-0.2-4.7-1.6-6.8-2.9
			c-9.2-5.8-17.9-12.6-25.7-20.3c-1.2-1.1-2.3-2.4-2.6-3.9c-0.3-1.5,0.4-3.1,1.2-4.4c5.3-8.7,16.3-11.5,26.2-13.5
			c21.7-4.5,43.3-9,65-13.5"/>
	</g>
	<g>
		<path class="st1" d="M368.1,36.2c-4.2-14.2-17.1-24.5-31.1-29.3c-14-4.8-29.1-5.1-43.9-5.1c-14.2,0-28.9,0.2-42,5.6
			c-8.4,3.5-16,9-24.6,11.9c-9.3,3.2-19.3,3.2-29.1,4.1c-24.1,2.2-47.8,9.7-68.7,21.9c1.9,8.9,13.8,10.4,22.8,9.2
			C170,52,187.8,45.9,205.9,41c38.9-10.5,79.2-15.7,119.5-15.4c15.2,0.1,31.1,1.2,44.4,8.7"/>
	</g>
	<g>
		<g>
			<path class="st1" d="M361.3,29.1c-21.8-3.2-41.9-13.1-57.6-28.6c-1.4-1.4-3.5,0.8-2.1,2.1c16,15.8,36.6,26.1,58.9,29.4
				C362.4,32.2,363.3,29.3,361.3,29.1L361.3,29.1z"/>
		</g>
	</g>
	<g>
		<g>
			<path class="st1" d="M295.8,24.6c-9.4-3.1-16.6-10.6-19.5-20.1c-0.6-1.8-3.5-1.1-2.9,0.8c3.2,10.6,11.1,18.7,21.6,22.2
				C296.9,28.1,297.7,25.2,295.8,24.6L295.8,24.6z"/>
		</g>
	</g>
	<g>
		<g>
			<path class="st1" d="M263.4,26.7c-10.3-0.3-9.2-13.1-8-20c0.3-1.9-2.6-2.7-2.9-0.8c-1.6,9-1.7,23.4,10.9,23.8
				C265.4,29.8,265.4,26.8,263.4,26.7L263.4,26.7z"/>
		</g>
	</g>
	<g>
		<g>
			<path class="st1" d="M241.6,32.9c-6.1-1.2-10.7-6-11.6-12.1c-0.3-1.9-3.2-1.1-2.9,0.8c1.1,7.1,6.7,12.9,13.7,14.2
				C242.7,36.1,243.5,33.2,241.6,32.9L241.6,32.9z"/>
		</g>
	</g>
	<g>
		<g>
			<path class="st1" d="M210.3,40c-8.2-1-14.7-7.5-16.2-15.6c-0.3-1.9-3.2-1.1-2.9,0.8c1.7,9.5,9.6,16.6,19.1,17.8
				C212.2,43.2,212.2,40.2,210.3,40L210.3,40z"/>
		</g>
	</g>
	<g>
		<g>
			<path class="st1" d="M178.2,47.5c-9.3-0.8-17.3-6.3-21.4-14.7c-0.9-1.7-3.4-0.2-2.6,1.5c4.6,9.3,13.6,15.3,24,16.1
				C180.1,50.7,180.1,47.7,178.2,47.5L178.2,47.5z"/>
		</g>
	</g>
	<g>
		<path class="st1" d="M79.5,56.7c-22.4-14-42.9-31-60.8-50.3c-1-1.1-2.2-2.3-3.8-2.4c-2.2,0-3.6,2.3-4.5,4.2
			c-4.4,10-8.2,20.5-8.9,31.4s2,22.4,9.1,30.7c6.4,7.5,16,11.9,25.7,13.8s19.7,1.7,29.6,1.5c0.7,0,1.4,0,2-0.4c2-1.1,1.2-4,0.6-6.2
			c-2.1-6.9,0.3-14.9,5.8-19.6"/>
	</g>
	<g>
		<g>
			<path class="st1" d="M70,61.3C45.3,54.6,23.4,40.2,7.4,20.2c-1.2-1.5-3.3,0.6-2.1,2.1c16.3,20.4,38.7,35,63.9,41.9
				C71.1,64.7,71.9,61.8,70,61.3L70,61.3z"/>
		</g>
	</g>
	<g>
		<g>
			<path class="st1" d="M76.2,54.5c-0.8,0.4-1.6,0.8-2.5,1.2c-0.7,0.4-0.9,1.4-0.5,2.1c0.4,0.7,1.3,0.9,2.1,0.5
				c0.8-0.4,1.6-0.8,2.5-1.2c0.7-0.4,0.9-1.4,0.5-2.1C77.9,54.3,77,54.1,76.2,54.5L76.2,54.5z"/>
		</g>
	</g>
	<g>
		<g>
			<path class="st1" d="M66.4,72.1c-23.1-3.7-48.3-8.1-63.7-27.5c-1.2-1.5-3.3,0.6-2.1,2.1C16.3,66.6,42,71.3,65.6,75
				C67.5,75.3,68.3,72.4,66.4,72.1L66.4,72.1z"/>
		</g>
	</g>
	<g>
		<g>
			<path class="st1" d="M285.3,180.5c-12.1,1.8-26.2,2.2-35.5-7.1c-4-4-6.6-9.4-5.7-15.1c0.9-6.1,5.4-11.7,11.8-12.4
				c1.9-0.2,1.9-3.2,0-3c-13.2,1.5-18.5,17.1-12.1,27.8c8.8,14.6,27.3,14.9,42.3,12.7C288,183.1,287.2,180.2,285.3,180.5
				L285.3,180.5z"/>
		</g>
	</g>
	<g>
		<g>
			<path class="st1" d="M287.5,181.5c0.8-0.4,1.6-0.8,2.5-1.2c0.7-0.4,0.9-1.4,0.5-2.1c-0.4-0.7-1.3-0.9-2.1-0.5
				c-0.8,0.4-1.6,0.8-2.5,1.2c-0.7,0.4-0.9,1.4-0.5,2.1C285.9,181.7,286.8,181.9,287.5,181.5L287.5,181.5z"/>
		</g>
	</g>
	<g>
		<g>
			<path class="st1" d="M252.2,144.8c1.9,0,1.9-3,0-3C250.3,141.8,250.3,144.8,252.2,144.8L252.2,144.8z"/>
		</g>
	</g>
	<g>
		<path class="st1" d="M209,40.7c-5.6,4-7.5,11.4-8,18.2c-1.4,18.8,5.1,38,17.5,52.2c-1.8,4.6-8,6.2-12.7,4.5
			c-4.7-1.7-8.1-5.7-11-9.7c-11.7-16.1-19-35.4-21-55.2"/>
	</g>
	<g>
		<path class="st1" d="M263.7,31.7c-10.2,4.4-18.2,13.7-21.1,24.5c-2.9,10.8-0.6,22.8,6.1,31.8c0.7,0.9,1.5,2,1.3,3.2
			c-0.5,2.8-4.9,1.5-6.9-0.5c-7-6.9-12.8-15.2-15.4-24.6c-2.5-9.5-1.4-20.2,4.4-28.1"/>
	</g>
	<g>
		<path class="st1" d="M311.1,26.6c-15.2,6.8-25.5,23.4-24.9,40c0.1,1.3,0,2.8-1.1,3.3c-1.1,0.5-2.3-0.3-3.1-1.2
			c-5.1-5.4-6.8-13.5-5.9-20.9s4.1-14.4,7.5-21"/>
	</g>
	<g>
		<path class="st1" d="M335.2,65.4c-1.9-1.3-2-4.2-0.7-6.1s3.4-2.9,5.6-3.7c9.9-3.4,21-2,30.8,1.7c9.8,3.7,18.6,9.6,27.3,15.5
			c2.7,1.8,5.6,4,6,7.3c0.5,3.8-3.1,7.2-6.9,8.1c-3.8,0.9-7.7,0.2-11.6,0c-8.1-0.4-16.3,1.7-23.2,6c-1.6,1-3.3,2.1-5.1,2.1
			c-1.6,0-3-0.8-4.4-1.6c-11-6.7-20.4-19-17.7-31.5"/>
	</g>
	<g>
		<g>
			<path class="st1" d="M366.1,32.4c-27.8-8.7-58.3-5.8-86.9-3.1c-29.7,2.8-59.2,7.9-88.2,14.9c-1.9,0.5-1.1,3.4,0.8,2.9
				c28.7-7,57.9-12,87.4-14.8c28.3-2.7,58.6-5.6,86.1,3C367.1,35.9,367.9,33,366.1,32.4L366.1,32.4z"/>
		</g>
	</g>
	<g>
		<g>
			<path class="st1" d="M337.4,24.4c-10,0.8-19.9-1.4-29.9-1.6c-9.8-0.2-19.5,0.7-29.1,2.3c-1.9,0.3-1.1,3.2,0.8,2.9
				c10-1.7,20.1-2.5,30.2-2.2c9.3,0.3,18.6,2.3,28,1.6C339.3,27.3,339.3,24.3,337.4,24.4L337.4,24.4z"/>
		</g>
	</g>
	<g>
		<g>
			<path class="st1" d="M339.5,24.5c-14.7,2.9-29.6,3.7-44.6,2.5c-1.9-0.2-1.9,2.8,0,3c15.2,1.3,30.4,0.4,45.4-2.6
				C342.2,27,341.4,24.1,339.5,24.5L339.5,24.5z"/>
		</g>
	</g>
	<g>
		<g>
			<path class="st1" d="M316.7,23.1c-13.9-1.5-27.7-0.7-41.5,1c-11.1,1.4-24,1.7-34,7.1c-1.7,0.9-0.2,3.5,1.5,2.6
				c5.1-2.8,10.8-3.7,16.5-4.6c6.6-1,13.2-1.9,19.8-2.6c12.5-1.4,25.1-1.9,37.7-0.6C318.6,26.3,318.6,23.3,316.7,23.1L316.7,23.1z"
				/>
		</g>
	</g>
	<g>
		<g>
			<path class="st1" d="M220.7,38.3c7.1-4,14.9-5.6,22.9-4.4c2.5,0.4,4.8,0.9,7.3,0.4c3.3-0.7,6.1-2.6,9.4-3.4
				c11.5-2.6,23.4,2.1,34.5-3.3c1.7-0.9,0.2-3.4-1.5-2.6c-11.6,5.7-24.8-0.5-36.7,3.9c-0.9,0.3-1.8,0.8-2.7,1.1
				c-3.5,1.5-5.9,1.5-9.5,1c-2.9-0.4-5.8-0.6-8.7-0.4c-5.9,0.4-11.4,2.3-16.5,5.2C217.5,36.7,219,39.3,220.7,38.3L220.7,38.3z"/>
		</g>
	</g>
	<g>
		<g>
			<path class="st1" d="M328,21.3c-15.8,5.5-33.2,0.7-49.5,4c-16.6,3.3-32.2,10.5-49.2,11.8c-1.9,0.1-1.9,3.1,0,3
				c16.7-1.2,32-8,48.3-11.5c16.9-3.6,34.8,1.4,51.2-4.3C330.6,23.6,329.8,20.7,328,21.3L328,21.3z"/>
		</g>
	</g>
	<g>
		<g>
			<path class="st1" d="M233.8,33c-19.3,2.1-38,6.6-56.1,13.7c-1.8,0.7-1,3.6,0.8,2.9c17.8-7,36.3-11.6,55.3-13.6
				C235.7,35.8,235.7,32.8,233.8,33L233.8,33z"/>
		</g>
	</g>
	<g>
		<g>
			<path class="st1" d="M169.9,48.1c-8.2-0.1-16,1.8-23.3,5.5c-1.7,0.9-0.2,3.5,1.5,2.6c6.8-3.5,14.1-5.2,21.8-5.1
				C171.8,51.1,171.8,48.1,169.9,48.1L169.9,48.1z"/>
		</g>
	</g>
	<g>
		<g>
			<path class="st1" d="M143.7,55.1c3.8,3.7,8.8,2.6,13.4,1c8.7-2.9,17.2-6.3,25.9-9.4c1.8-0.7,1-3.6-0.8-2.9
				c-6.2,2.2-12.3,4.5-18.5,6.7c-4.6,1.7-13.5,6.6-17.9,2.4C144.4,51.6,142.3,53.8,143.7,55.1L143.7,55.1z"/>
		</g>
	</g>
	<g>
		<g>
			<path class="st1" d="M187.5,49.5c21.3-6.9,42.9-12.5,64.8-16.9c1.9-0.4,1.1-3.3-0.8-2.9c-21.9,4.4-43.5,10.1-64.8,16.9
				C184.8,47.2,185.6,50.1,187.5,49.5L187.5,49.5z"/>
		</g>
	</g>
	<g>
		<g>
			<path class="st1" d="M261.2,31.3c7.8-1.3,15.6-2.6,23.3-3.9c1.9-0.3,1.1-3.2-0.8-2.9c-7.8,1.3-15.6,2.6-23.3,3.9
				C258.5,28.7,259.3,31.6,261.2,31.3L261.2,31.3z"/>
		</g>
	</g>
	<g>
		<path d="M367.9,75.7c2.5-2.7,6.7-3,10.3-2.7c4,0.3,8.5,1.6,10.3,5.2c1.5,3,0.5,6.8-1.8,9.2c-2.3,2.4-5.7,3.5-9.1,3.7
			c-2.1,0.1-4.3-0.2-6.1-1.3c-4.6-2.9-4.2-9.6-3.3-14.9"/>
	</g>
	<g>
		<g>
			<path class="st2" d="M386.3,85c-0.4,0.1-0.8,0-0.8-0.4c-0.2,0.4-0.5,0.9-0.7,1.3c1.3-0.6,2.8-0.8,4.3-0.5
				c1.9,0.3,2.7-2.6,0.8-2.9c-2.3-0.4-4.5-0.1-6.6,0.8c-0.5,0.2-0.7,0.8-0.7,1.3c0,2.3,2.4,4.1,4.6,3.3
				C388.9,87.2,388.1,84.3,386.3,85L386.3,85z"/>
		</g>
	</g>
	<g>
		<g>
			<path class="st2" d="M377.8,76.6c-1.5-1.5-3-3-4.5-4.5c-1.4-1.4-3.5,0.7-2.1,2.1c1.5,1.5,3,3,4.5,4.5
				C377.1,80.1,379.2,77.9,377.8,76.6L377.8,76.6z"/>
		</g>
	</g>
	<g>
		<path class="st3" d="M367.9,34.1c-5.1-0.7-10.2-1.4-15.3-2.1c-3.7-0.5-7.4-1-10.9-2.4c-2.1-0.9-4-2-5.9-3.3
			c-9.8-6.3-18.6-14-26.2-22.8c11.7-2.4,24.2,0.2,34.7,5.9c10.5,5.7,19.2,14.4,26.2,24.1"/>
	</g>
	<g>
		<path class="st3" d="M304.3,29.4C298.1,22.2,292,15,285.8,7.8c-1.4-1.7-3-3.4-5-4.3c-2.1-0.9-4.4-0.7-6.6-0.5
			C269,3.6,264,4.7,259.1,6.4c-0.7,0.2-1.5,0.5-1.9,1.2c-0.5,0.9-0.2,2,0.1,2.9c3.4,9.7,9.4,20.1,19.5,22c9.4,1.8,18.6-4.4,28.1-3.6
			"/>
	</g>
	<g>
		<path class="st3" d="M257.2,34.4c-6.8-4.3-12.4-10.5-16.1-17.7c-0.4-0.8-0.9-1.7-1.8-2c-0.6-0.2-1.2,0-1.8,0.1
			c-2.2,0.6-4.5,1.2-6.7,1.8c-0.9,0.2-1.9,0.5-2.6,1.2c-0.9,0.9-1.2,2.2-1.5,3.4c-1,5.5-1.3,12.6,3.7,15c1.7,0.8,3.6,0.8,5.5,0.8
			c6.8,0,13.5,0,20.3,0"/>
	</g>
	<g>
		<path class="st3" d="M211.8,42c-4.4-4.5-8.9-8.9-13.3-13.4c-1.4-1.4-2.8-2.8-4.6-3.7c-3.7-1.8-8.2-0.8-12.2,0.2
			c-2.3,0.6-4.9,1.6-5.3,3.9c-0.1,1,0.2,1.9,0.6,2.9c2,4.7,4.8,9.1,8.3,12.8c1.1,1.1,2.3,2.3,3.8,2.7c1.3,0.4,2.6,0.3,4,0.1
			c7.2-0.9,14.4-2.8,21.1-5.6"/>
	</g>
	<g>
		<path class="st3" d="M172.3,49.8c-4.2-3.9-8.3-7.8-12.5-11.8c-2-1.9-4.1-3.8-6.8-4.4c-2.8-0.6-5.6,0.3-8.2,1.3
			c-0.6,0.2-1.2,0.5-1.6,1c-0.9,1.2-0.1,2.8,0.8,4c2.8,4.1,5.8,8.3,10.1,10.9c4.3,2.6,10.3,3,14-0.3"/>
	</g>
	<g>
		<path class="st3" d="M79,55C54.3,43.9,32.4,26.4,16.1,4.8C10.9,11.7,5.6,19.2,5,27.9c-0.2,2.6,0.1,5.2,1.4,7.4
			c1.7,2.9,4.8,4.7,7.8,6.2C27.3,48.2,41.4,53,55.3,57.8c4,1.4,8.2,2.8,12.5,2.7c4.3-0.1,8.8-2,10.8-5.7"/>
	</g>
	<g>
		<path class="st3" d="M68.2,75.6c-14.8-5.1-29.7-10.1-44.5-15.2c-5.3-1.8-10.7-3.7-15.1-7.1c-1.3-1.1-2.8-2.3-4.5-2.2
			c-0.3,10.3,5.2,20.7,14,26.2c2.7,1.7,5.7,3,8.8,4.1c11.5,4.2,23.9,5.9,36.2,5c2-0.1,4.1-0.4,5.6-1.6c1.6-1.2,2.3-3.7,1-5.2"/>
	</g>
	<g>
		<g>
			<path class="st3" d="M69,73.8c-1.7,2.1-2,5-0.4,7.2c1.1,1.6,3.7,0.1,2.6-1.5c-0.7-1-0.9-2.5-0.1-3.6c0.5-0.6,0.6-1.5,0-2.1
				C70.6,73.3,69.5,73.2,69,73.8L69,73.8z"/>
		</g>
	</g>
	<g>
		<path class="st3" d="M175.3,50.6c3.3,0,6.6,0,9.9,0c-0.2,3.3-1.2,6.4-1.7,9.6c-1.8,11.6,3.8,22.9,9.1,33.3
			c3.8,7.5,7.8,15.1,13.9,20.8c-5.9-1.7-9.5-7.4-12.6-12.7c-5.2-8.9-10.3-17.8-15.5-26.8c-4.4-7.6-9-16-7.3-24.6"/>
	</g>
	<g>
		<path class="st3" d="M228.6,38.2c1.1-1.2,3.3-0.7,4.3,0.5c1,1.3,1.2,3.1,1.2,4.7c0.1,8.6-2.2,17.2-2.1,25.8
			c0.1,8.6,3.5,18.2,11.3,21.8c-7.9-3.1-13.7-10.3-16.7-18.3s-3.6-16.6-3.7-25.1c0-3.7,0-7.5,1.7-10.8"/>
	</g>
	<g>
		<path class="st3" d="M271.6,32.5c2.7-0.2,5.5,0.1,8.1,0.8c0.7,0.2,1.4,0.4,1.8,1c0.6,0.8,0.2,2-0.1,3c-2.6,8.2-1.1,17.6,3.9,24.6
			c0.7,1,1.6,2.3,1,3.5c-0.5,1-2.1,1.2-3.1,0.6c-1-0.6-1.6-1.7-2.1-2.8c-4.7-10-6.4-21.4-4.9-32.4"/>
	</g>
	<g>
		<path class="st3" d="M333.5,143.5c-20.3,9.1-40.6,18.2-61,27.3c-4,1.8-8,3.6-12.4,4c-8,0.8-15.6-2.9-22.7-6.6
			c8.6,8.4,18.4,15.5,29.1,21c2.6,1.3,5.4,2.6,8.3,2.6c3.4,0,6.5-1.6,9.4-3.3c13-7.4,25.3-15.9,36.7-25.5c6.2-5.2,12.3-11,14.9-18.6
			"/>
	</g>
	<g>
		<path class="st3" d="M335.2,60.8c6.6-4.4,14.6-6.6,22.5-6.1c-2.5,5.7-8.4,9.8-9.4,16c-1.3,7.9,7.4,14.9,15.4,13.9
			c0.8-0.1,1.6-0.3,2.4,0c2.4,0.7,2.1,4.4,0.4,6.2c-2.4,2.7-6.4,3.6-9.9,3.1c-3.6-0.4-6.9-2-10.2-3.6c-3.2-1.5-6.6-3.2-8.7-6.1
			c-1.6-2.2-2.3-4.9-2.9-7.5c-1.4-5.8-2.8-12.1-0.3-17.5"/>
	</g>
	<g>
		<g>
			<path class="st3" d="M322,1c-17.8-0.1-35.7,0.2-53.5,1.6c-7.4,0.6-14.6,1.6-21.4,4.6c-7.9,3.4-15.1,8-23.5,10.4
				c-15.9,4.5-32.7,3.9-48.8,7.5c-16.2,3.6-31.4,10.5-46.2,17.8c-1.7,0.9-0.2,3.4,1.5,2.6c15.1-7.5,30.7-14.4,47.3-17.9
				c15.5-3.2,31.7-2.8,47-7.1c6.9-2,13.1-5.3,19.5-8.5c8.5-4.2,17-5.8,26.4-6.5C287.5,4.3,304.7,3.9,322,4C323.9,4,323.9,1,322,1
				L322,1z"/>
		</g>
	</g>
	<g>
		<g>
			<path class="st3" d="M127.2,45.7c12.2,18.5,36.2,10.1,53,4.5c1.8-0.6,1-3.5-0.8-2.9c-15.2,5-38.3,13.9-49.6-3.2
				C128.7,42.6,126.1,44.1,127.2,45.7L127.2,45.7z"/>
		</g>
	</g>
	<g>
		<g>
			<path class="st3" d="M176.2,50.2c15.9,0.2,31.2-3.7,46.4-7.7c16.8-4.5,33.7-8,51-10c16.2-1.9,32.5-3.1,48.7-4
				c15.6-0.9,31.7-0.7,46,6.7c1.7,0.9,3.2-1.7,1.5-2.6c-12.9-6.6-27.2-7.8-41.5-7.3c-16.9,0.5-34,2-50.8,3.8
				c-16.6,1.8-33,4.6-49.2,8.8c-17.1,4.5-34.2,9.5-52,9.3C174.3,47.2,174.3,50.2,176.2,50.2L176.2,50.2z"/>
		</g>
	</g>
	<g>
		<g>
			<path class="st3" d="M77.5,53.2c-6.7,8-9.2,17.8-11.5,27.7c-0.4,1.9,2.5,2.7,2.9,0.8c2.1-9.3,4.4-18.8,10.7-26.4
				C80.9,53.9,78.8,51.7,77.5,53.2L77.5,53.2z"/>
		</g>
	</g>
	<g>
		<g>
			<path class="st3" d="M72.6,87.1c-3.5-2.2-1.9-8.8-1.7-12.1c0.3-4.3,0.7-8.5,1-12.8c0.2-1.9-2.8-1.9-3,0
				c-0.5,6.4-1.6,13.1-1.5,19.6c0,3.3,0.8,6.1,3.6,7.9C72.7,90.8,74.2,88.2,72.6,87.1L72.6,87.1z"/>
		</g>
	</g>
	<g>
		<g>
			<path class="st3" d="M76.5,54.6C55.4,40.3,35.7,24,17.7,6c-0.6-0.6-1.5-0.5-2.1,0c-8,7-11.2,17.2-12,27.6
				C2.8,44.4,2.1,57.8,7.3,67.6c0.9,1.7,3.5,0.2,2.6-1.5C5.2,57.3,6,45.2,6.5,35.5C7,25.2,9.8,15.1,17.7,8.1c-0.7,0-1.4,0-2.1,0
				c18.2,18.2,38,34.6,59.3,49C76.5,58.3,78.1,55.7,76.5,54.6L76.5,54.6z"/>
		</g>
	</g>
	<g>
		<g>
			<path class="st3" d="M15.8,5.6C9.6,4,8.2,16.1,7.1,20C4.7,28.2,2.9,36.7,3,45.4c0.2,15.7,7.4,29.9,21.4,37.7
				c1.7,0.9,3.2-1.7,1.5-2.6C14,73.9,7.2,62.3,6.1,48.8C5.6,42.5,6.3,36,7.7,29.8C8.1,27.6,12.6,7.9,15,8.5
				C16.9,9,17.7,6.1,15.8,5.6L15.8,5.6z"/>
		</g>
	</g>
	<g>
		<g>
			<path class="st3" d="M70.2,59.1c-4,10.8-3.2,22.4,2.2,32.6c0.9,1.7,3.5,0.2,2.6-1.5c-5-9.5-5.6-20.2-1.9-30.3
				C73.8,58.1,70.9,57.3,70.2,59.1L70.2,59.1z"/>
		</g>
	</g>
	<g>
		<g>
			<path class="st3" d="M72,91.2C70.7,79.5,57.7,79.5,48.9,81c-1.9,0.3-1.1,3.2,0.8,2.9c6.6-1.1,18.3-2.1,19.4,7.3
				C69.2,93.1,72.2,93.1,72,91.2L72,91.2z"/>
		</g>
	</g>
	<g>
		<g>
			<path class="st3" d="M73.7,90c-4.9-5-11.1-8-18.1-8.7c-1.9-0.2-1.9,2.8,0,3c6.2,0.7,11.6,3.4,15.9,7.9C72.9,93.6,75,91.4,73.7,90
				L73.7,90z"/>
		</g>
	</g>
	<g>
		<g>
			<path class="st3" d="M12.8,4.7c-1.7,3-3.5,6.1-5.2,9.1c-1,1.7,1.6,3.2,2.6,1.5c1.7-3,3.5-6.1,5.2-9.1C16.4,4.6,13.8,3,12.8,4.7
				L12.8,4.7z"/>
		</g>
	</g>
	<g>
		<g>
			<path class="st3" d="M331.6,145.2c-0.6,1.2-1.2,2.4-1.8,3.6c-0.4,0.7-0.2,1.6,0.5,2.1c0.7,0.4,1.7,0.2,2.1-0.5
				c0.6-1.2,1.2-2.4,1.8-3.6c0.4-0.7,0.2-1.6-0.5-2.1C333,144.3,331.9,144.5,331.6,145.2L331.6,145.2z"/>
		</g>
	</g>
	<g>
		<g>
			<path class="st3" d="M334.8,147.6c-0.2-10.4-10.2-16.8-19.8-17.4c-6.7-0.4-13.4,1.9-19.7,4c-7.8,2.7-15.4,4.7-23.5,5.8
				c-12.9,1.6-26.9,2.6-37.3,11.3c-3.3,2.7-7.4,6.5-5,11.1c2.7,5.2,8.2,9.5,12.8,12.9c6.5,4.9,13.8,8.8,21,12.5c4,2,9.5,4.5,13,0.4
				c1.2-1.5-0.9-3.6-2.1-2.1c-3.9,4.5-15.7-4.2-19.4-6.3c-5.8-3.3-11.3-7-16.2-11.6c-1.2-1.1-2.3-2.3-3.4-3.5
				c-1.9-2.2-3.3-3.1-2.5-6.1c1.1-3.6,4.1-5.7,7.3-7.7c5.7-3.5,12.2-5.2,18.7-6.3c6.9-1.2,13.8-1.6,20.7-2.8
				c6.6-1.2,12.8-3.5,19.2-5.6c6.6-2.2,13.7-4.2,20.7-2.4c6.5,1.7,12.4,6.5,12.5,13.6C331.8,149.5,334.8,149.5,334.8,147.6
				L334.8,147.6z"/>
		</g>
	</g>
	<g>
		<g>
			<path class="st3" d="M337.4,62.9c16.6-11.7,37.3-5.8,52.8,4.7c3.9,2.6,8.8,5.6,11.4,9.6c6,9.2-7.3,10.1-12.6,10.1
				c-9.5,0-18.7,1.3-27.8,4c-1.8,0.6-1.1,3.5,0.8,2.9c7-2.1,14.1-3.5,21.4-3.8c5.4-0.3,11.6,0.9,16.7-1.4c3.3-1.5,6-4.6,5.8-8.4
				c-0.2-5-4.8-8.6-8.4-11.4c-17.3-13.4-41.8-22.9-61.6-8.9C334.3,61.4,335.8,64,337.4,62.9L337.4,62.9z"/>
		</g>
	</g>
	<g>
		<g>
			<path class="st4" d="M369.7,38.6c18.7,7.1,35.9,17.8,50.5,31.6c13,12.3,29.8,35.3,12.6,51.5c-1.4,1.3,0.7,3.4,2.1,2.1
				c16.2-15.3,4.7-38-7.9-51.1c-15.8-16.4-35.3-28.9-56.5-37C368.7,35.1,368,38,369.7,38.6L369.7,38.6z"/>
		</g>
	</g>
	<g>
		<g>
			<path class="st4" d="M434.5,121.9c-8.7,4.3-17.4,8.7-26.1,13c-8.3,4.1-16.4,8.6-25.3,11.3c-17.7,5.5-36.4,8.3-54.5,12.2
				c-1.9,0.4-1.1,3.3,0.8,2.9c9.5-2,18.9-4.1,28.4-6.1c9.3-2,18.8-3.6,27.9-6.6c8.4-2.8,16.3-7.1,24.2-11c8.7-4.3,17.4-8.7,26.1-13
				C437.8,123.7,436.2,121.1,434.5,121.9L434.5,121.9z"/>
		</g>
	</g>
	<g>
		<g>
			<path class="st4" d="M237.2,169.9c-11.3-7.8-25.8-9.8-38.2-15.4c-13.9-6.3-27.5-13.4-41.2-20.2c-26.6-13.1-53.7-25.7-77.9-43
				c-1.6-1.1-3.1,1.5-1.5,2.6c24.2,17.3,51.3,29.9,77.9,43c13.7,6.8,27.3,13.9,41.2,20.2c12.4,5.6,26.9,7.7,38.2,15.4
				C237.3,173.6,238.8,171,237.2,169.9L237.2,169.9z"/>
		</g>
	</g>
	<g>
		<g>
			<path class="st4" d="M142.9,56.6c-19.7,2.6-39.5,2.4-59.1-1c-1.9-0.3-2.7,2.6-0.8,2.9c19.8,3.4,39.9,3.7,59.9,1.1
				C144.8,59.3,144.8,56.3,142.9,56.6L142.9,56.6z"/>
		</g>
	</g>
	<g>
		<g>
			<path class="st4" d="M80,54.4c-5.1,2.9-6.4,8.3-6.9,13.8c-0.7,8.2,0.5,16.4,3.2,24.2c0.6,1.8,3.5,1,2.9-0.8
				c-2-5.8-3.2-11.8-3.3-18c-0.1-5.7,0-13.4,5.6-16.6C83.2,56,81.6,53.4,80,54.4L80,54.4z"/>
		</g>
	</g>
	<g>
		<g>
			<path class="st4" d="M369,35.6c-14.3-2.4-30.1-7.3-44.6-4.2c-1.9,0.4-1.1,3.3,0.8,2.9c13.9-3,29.3,1.8,43,4.2
				C370.1,38.9,370.9,36,369,35.6L369,35.6z"/>
		</g>
	</g>
	<g>
		<g>
			<path class="st3" d="M70.3,87c-16.2-5.3-32.9-8.4-49.8-9.2c-1.9-0.1-1.9,2.9,0,3c16.7,0.8,33.1,3.9,49,9.1
				C71.4,90.5,72.2,87.6,70.3,87L70.3,87z"/>
		</g>
	</g>
	<g>
		<g>
			<path class="st3" d="M19.4,81.3c15.9,6.9,32.9,8.9,50,6.1c1.9-0.3,1.1-3.2-0.8-2.9c-16.2,2.7-32.6,0.7-47.7-5.8
				C19.2,78,17.7,80.5,19.4,81.3L19.4,81.3z"/>
		</g>
	</g>
	<g>
		<g>
			<path class="st3" d="M58.5,85.9c4.2,3.2,8.8,5.7,13.7,7.5c1.8,0.7,2.6-2.2,0.8-2.9c-4.7-1.8-9-4.2-13-7.2
				C58.5,82.1,57,84.7,58.5,85.9L58.5,85.9z"/>
		</g>
	</g>
	<g>
		<g>
			<path class="st3" d="M66.9,85.5c3.4,5.6,7.9,10.2,13.2,13.9c1.6,1.1,3.1-1.5,1.5-2.6c-4.9-3.4-9-7.7-12.2-12.8
				C68.5,82.3,65.9,83.8,66.9,85.5L66.9,85.5z"/>
		</g>
	</g>
</g>
</svg>
