<svg xmlns="http://www.w3.org/2000/svg" xmlns:xlink="http://www.w3.org/1999/xlink" viewBox="0 0 1921.75 1080"><defs><style>.cls-1{fill:url(#linear-gradient);}.cls-2{fill:#2b7f00;}.cls-3{fill:#f2be72;}.cls-4{fill:#d8a661;}</style><linearGradient id="linear-gradient" x1="961.75" y1="1080" x2="961.75" gradientUnits="userSpaceOnUse"><stop offset="0" stop-color="#005b97"/><stop offset="0.52" stop-color="#0378c0"/><stop offset="0.65" stop-color="#0075be"/><stop offset="0.76" stop-color="#057cc3"/><stop offset="0.91" stop-color="#1e9cd7"/><stop offset="1" stop-color="#c3dcf2"/><stop offset="1" stop-color="#cce0f4"/></linearGradient></defs><title>Artboard 1</title><g id="Water"><rect class="cls-1" x="1.75" width="1920" height="1080"/><path class="cls-2" d="M283.79,941.71l12.46-10s1.26-11.2-3.61-13.81-5.77-2.47-6.22-4.31c-.89-3.73,2.28-11.09-5.07-14.49s-13,1.12-14.37-5.22,2.39-12.11-4.29-12.34-7.66-4.24-9-6.69c-.63-1.11-7.81-4-7.81-4s1.76,6.37,1.12,8.38c-.7,2.21-4.53,8.26,0,9.28s7.25-.22,5.88,7.36,3.19,10.94,6.44,11.55c3.53.67,12-1.19,14.26,1.6,1.37,1.7-.63,6.11-.46,8.72.15,2.42,1.29,5.71,2.93,6,6.47,1.13,3.95,10.75,3.95,10.75s-1.25,6.57,3.84,7.14"/><path class="cls-2" d="M1416.8,956.57l20.31,3.08s11.69-8.6,9.91-15.49-2.72-7.62-1.37-9.65c2.75-4.11,12.48-7.54,9.27-17.48s-12.44-11.33-7.62-18.15,13.54-8.33,7.92-14.85-2.7-11-1.59-14.41c.51-1.57-3.07-10.86-3.07-10.86s-4.47,7.23-6.94,8.39c-2.7,1.27-11.78,2.93-8.79,8.11s6.55,6.66-1.82,12-7.56,12.58-5.3,16.19c2.46,3.92,11.63,10.32,11,14.89-.41,2.78-6.33,4.74-8.65,7.18-2.16,2.27-4.28,6.22-3.11,8,4.58,7.11-6.72,13.14-6.72,13.14s-7.3,4.56-3.39,9.88"/><path class="cls-2" d="M1381.43,975l33.39.33s16.86-16.53,12.41-27.2-6.11-11.65-4.4-15.22c3.48-7.25,18.37-15,10.93-30.25s-22.62-15.41-16.42-27.49,19.9-16.5,9.36-25.71-6.84-17-5.84-22.83c.46-2.64-7.42-16.77-7.42-16.77s-5.56,12.66-9.26,15.09c-4.07,2.66-18.29,7.4-12.3,15s12.06,9.23-.19,19.73-9.3,22-4.83,27.28c4.85,5.74,21.08,14,21,21.46,0,4.57-9.11,9.08-12.28,13.54-3,4.15-5.46,11-3.17,13.63,9,10.39-7.82,22.69-7.82,22.69s-10.72,9-3.2,16.67"/><path class="cls-2" d="M1442.57,957.21l-19.9,13.94s-16.92-3-18.65-11.21-1.12-9.51-3.62-11c-5.07-2.92-17.19-1.44-19-13.66s7.24-18.55-1.45-23.26-18.74-1.71-16.21-11.57-2.89-13-5.88-16.11c-1.37-1.4-2.45-13.12-2.45-13.12s8.54,5.31,11.76,5.24c3.54-.07,14-3.08,13.58,4s-3.44,10.5,8.24,11.76,14.63,9.37,14.12,14.39c-.55,5.44-6.91,17-3.79,21.54,1.89,2.73,9.2,1.7,12.94,3.07,3.48,1.27,7.8,4.34,7.51,6.87-1.12,9.94,14,10.4,14,10.4s10.14,1,8.78,8.69"/><path class="cls-2" d="M1790.83,896.83l27.41-2.8s12.31-15.11,7.68-23.45-6.09-9-5-12.07c2.19-6.27,13.68-14,6.18-25.82s-20-10.54-16-21,14.8-15.36,5.31-21.95-7.18-13.32-6.89-18.18c.13-2.21-7.63-13.07-7.63-13.07s-3.39,10.9-6.21,13.23c-3.08,2.56-14.31,7.76-8.69,13.48s10.73,6.45,1.66,16.19-5.6,18.89-1.45,22.81c4.5,4.26,18.57,9.5,19.23,15.66.4,3.75-6.63,8.29-8.82,12.24-2,3.67-3.47,9.51-1.35,11.46,8.33,7.7-4.32,19.33-4.32,19.33s-8,8.37-1.09,14"/><path class="cls-2" d="M1813.65,900.79l-17.59-13s-2.29-15.32,4.26-19.14,7.81-3.67,8.32-6.22c1-5.16-3.67-15.1,6.25-20.14s17.92.89,19.46-7.88-3.88-16.49,5.27-17.15,10.31-6.19,12.08-9.62c.81-1.57,10.52-5.84,10.52-5.84s-2.11,8.82-1.13,11.55c1.07,3,6.64,11.11.48,12.74s-10,.06-7.7,10.39-3.84,15.18-8.27,16.18c-4.8,1.08-16.54-1-19.48,2.9-1.8,2.4,1.16,8.35,1.06,11.94-.09,3.33-1.49,7.9-3.73,8.38-8.81,1.87-4.88,14.95-4.88,14.95s2,9-4.92,10"/><path class="cls-2" d="M1811.42,919l22.2-14.26s4-18.23-3.6-23.35-9.09-5-9.5-8.14c-.85-6.3,5.62-17.87-5.91-24.72s-21.61-.37-22.76-11,6-19.53-5-21-11.9-8.27-13.76-12.54c-.85-1.94-12.18-7.86-12.18-7.86s1.82,10.78.43,14c-1.53,3.52-8.87,12.83-1.59,15.28s12,.87,8.43,13.12,3.4,18.55,8.64,20.1c5.69,1.69,20,.07,23.2,5.05,2,3-2.07,9.95-2.23,14.27-.16,4,1.15,9.63,3.81,10.38,10.45,3,4.68,18.38,4.68,18.38s-3.17,10.59,5.11,12.39"/><path class="cls-2" d="M1010.66,969.54l29.3-4.18s12.56-16.74,7.24-25.49-6.92-9.4-5.89-12.75c2.08-6.82,14.08-15.6,5.52-28s-21.87-10.47-18.07-21.89,15.23-17.11,4.77-23.78-8.28-14-8.18-19.22c.05-2.37-8.75-13.7-8.75-13.7s-3.17,11.84-6.09,14.46c-3.2,2.88-15,8.94-8.75,14.84s11.79,6.47,2.46,17.31-5.2,20.51-.57,24.55c5,4.38,20.33,9.4,21.3,16,.59,4-6.76,9.17-9,13.5-2,4-3.31,10.36-1,12.37,9.27,7.9-3.81,20.92-3.81,20.92s-8.19,9.33-.58,15"/><path class="cls-2" d="M1071,941.61,1052.79,959s-17.84-.41-20.89-8.59-2.65-9.58-5.44-10.67c-5.66-2.19-17.87,1.22-21.65-11s4.52-20.17-5.14-23.64-19.49,1.18-18.44-9.34-5-12.92-8.56-15.6c-1.62-1.22-4.57-13.08-4.57-13.08s9.6,4.11,12.89,3.54c3.62-.64,13.91-5.37,14.56,2s-1.88,11.31,10.3,10.78,16.47,7.32,16.74,12.54c.29,5.67-4.42,18.58-.51,22.7,2.37,2.5,9.71.31,13.76,1.12,3.77.76,8.68,3.24,8.79,5.88.4,10.37,16,8.47,16,8.47s10.56-.57,10.38,7.54"/><path class="cls-2" d="M1058.37,971.48l-27.63-3.94s-11.84-15.79-6.82-24,6.52-8.86,5.56-12c-2-6.43-13.29-14.71-5.22-26.37s20.63-9.88,17-20.64-14.36-16.14-4.49-22.43,7.8-13.2,7.71-18.12c0-2.24,8.25-12.92,8.25-12.92s3,11.16,5.74,13.63c3,2.72,14.18,8.43,8.26,14s-11.12,6.11-2.33,16.33,4.91,19.34.55,23.15c-4.73,4.13-19.18,8.86-20.09,15.07-.56,3.78,6.37,8.66,8.44,12.74,1.91,3.8,3.12,9.76.9,11.66-8.75,7.45,3.59,19.73,3.59,19.73s7.72,8.79.54,14.18"/><path class="cls-2" d="M1012.93,924.44l11.63,16.66s14.14,2.52,17.85-3.45,3.61-7.14,6-7.55c4.82-.84,13.91,3.8,18.84-5.27s-.35-16.64,7.82-17.83,15.19,4,16-4.44,6-9.4,9.25-10.95c1.47-.71,5.68-9.6,5.68-9.6s-8.23,1.72-10.74.74c-2.75-1.07-10.12-6.45-11.8-.78s-.31,9.23-9.84,6.87-14.17,3.16-15.21,7.24c-1.13,4.42.53,15.36-3.21,18-2.27,1.6-7.71-1.3-11-1.3-3.1,0-7.37,1.17-7.87,3.24-2,8.12-14,4.14-14,4.14s-8.24-2.14-9.39,4.29"/></g><g id="Layer_3" data-name="Layer 3"><path class="cls-2" d="M269.28,926.19l21.61-4.13s8.74-12.87,4.48-19.19-5.47-6.73-4.83-9.26c1.31-5.13,9.91-12.07,3.12-21s-16.61-7-14.18-15.62,10.7-13.24,2.7-17.82-6.63-10.11-6.74-14c-.05-1.76-7-9.86-7-9.86s-1.94,8.9-4,11c-2.28,2.25-10.85,7.16-6,11.32s9,4.39,2.45,12.77-3.15,15.41.43,18.24c3.88,3.08,15.43,6.27,16.38,11.13.58,3-4.7,7.05-6.17,10.34-1.37,3.06-2.1,7.8-.27,9.21,7.16,5.54-2.1,15.68-2.1,15.68s-5.75,7.2.1,11.18"/><path class="cls-2" d="M270.63,934.69,294,944.07s16.4-7,16.19-15.75-1.11-9.88,1.07-11.92c4.44-4.15,17-5.53,16-18.31s-11.7-17-4-23.85,18.53-6.16,13.63-15.53S336.73,844.85,339,841c1.05-1.74-.63-13.85-.63-13.85s-7.38,7.4-10.65,8.09c-3.59.76-14.9.21-12.78,7.23s6,9.8-5.54,13.84-12.57,12.93-10.87,17.88c1.84,5.37,11,15.6,8.93,20.87-1.27,3.21-8.89,3.9-12.35,6.17-3.22,2.11-6.85,6.24-6,8.73,3.49,9.78-11.72,13.83-11.72,13.83s-10,3.4-6.81,10.86"/><path class="cls-2" d="M706.63,944.69,730,954.07s16.4-7,16.19-15.75-1.11-9.88,1.07-11.92c4.44-4.15,17-5.53,16-18.31s-11.7-17-4-23.85,18.53-6.16,13.63-15.53S772.73,854.85,775,851c1.05-1.74-.63-13.85-.63-13.85s-7.38,7.4-10.65,8.09c-3.59.76-14.9.21-12.78,7.23s6,9.8-5.54,13.84-12.57,12.93-10.87,17.88c1.84,5.37,11,15.6,8.93,20.87-1.27,3.21-8.89,3.9-12.35,6.17-3.22,2.11-6.85,6.24-6,8.73,3.49,9.78-11.72,13.83-11.72,13.83s-10,3.4-6.81,10.86"/><path class="cls-2" d="M748.74,944.69l-23.42,9.38s-16.4-7-16.19-15.75,1.12-9.88-1.07-11.92c-4.44-4.15-17-5.53-16-18.31s11.7-17,4-23.85-18.52-6.16-13.63-15.53.16-13.86-2.14-17.67c-1-1.74.63-13.85.63-13.85s7.38,7.4,10.65,8.09c3.59.76,14.91.21,12.78,7.23s-5.95,9.8,5.55,13.84,12.56,12.93,10.86,17.88c-1.84,5.37-11,15.6-8.93,20.87,1.27,3.21,8.9,3.9,12.35,6.17,3.22,2.11,6.86,6.24,6,8.73-3.49,9.78,11.72,13.83,11.72,13.83s10,3.4,6.82,10.86"/><path class="cls-2" d="M744.22,921.48l-18.69-.34s-9.17-9.51-6.51-15.41,3.6-6.42,2.7-8.45c-1.83-4.11-10-8.68-5.64-17.1s12.9-8.26,9.63-15.12-10.87-9.54-4.84-14.53,4.1-9.41,3.63-12.68c-.21-1.49,4.42-9.27,4.42-9.27s2.91,7.18,4.94,8.59c2.24,1.56,10.12,4.44,6.64,8.62s-6.88,5-.2,11,4.86,12.45,2.27,15.34c-2.8,3.13-12,7.47-12.11,11.68-.06,2.55,4.95,5.22,6.66,7.76,1.59,2.37,2.88,6.24,1.56,7.68-5.2,5.67,4,12.82,4,12.82s5.86,5.2,1.53,9.37"/></g><g id="Layer_1" data-name="Layer 1"><path class="cls-3" d="M1921.25,944.5l-1,135H.25l1-87c77,0,248-25,331-28,94-3.41,284.13,21.88,378,28,89.15,5.81,219-16,340-12,37.33,1.23,181.68,30.55,219,32,54.46,2.11,118.53-54.24,173-56,12.41-.4,28.21.65,45.52,2.42,44.72,4.57,99.46,14,131.48,15.58,51.93,2.63,156.62,8,208,0C1851.62,970.7,1921.25,944.5,1921.25,944.5Z"/><path class="cls-4" d="M1921.25,901.5v43s-69.63,26.2-94,30c-51.38,8-156.07,2.63-208,0-32-1.62-86.76-11-131.48-15.58-17.31-1.77-33.11-2.82-45.52-2.42-54.47,1.76-118.54,58.11-173,56-37.32-1.45-181.67-30.77-219-32-121-4-250.85,17.81-340,12-93.87-6.12-284-31.41-378-28-83,3-254,28-331,28v-40s104.16-31.29,110-33c32.59-9.53,48.5,20.87,60,25,28.66,10.31,86.66-31.34,117-34,48.6-4.26,145.22,20.52,194,21,59.73.59,178.45-25.68,238-21,21.58,1.7,62.52,18.36,84,21,39,4.8,117.77,1.2,157,0,32.8-1,98.26-10.17,131-8,25.73,1.71,88.6,19.14,118,20,34,1,95.49-14.79,133-20,49.63-6.9,151.27-39.27,199-24,25,8,52.13,24.94,71,26,52.67,3,152.25-50.21,205-50C1844.81,875.61,1921.25,901.5,1921.25,901.5Z"/></g></svg>