<?xml version="1.0" encoding="utf-8"?>
<!-- Generator: Adobe Illustrator 23.0.3, SVG Export Plug-In . SVG Version: 6.00 Build 0)  -->
<svg version="1.1" id="Layer_1" xmlns="http://www.w3.org/2000/svg" xmlns:xlink="http://www.w3.org/1999/xlink" x="0px" y="0px"
	 viewBox="0 0 532.6 281.5" style="enable-background:new 0 0 532.6 281.5;" xml:space="preserve" width="177.5" height="93.8">
<style type="text/css">
	.st0{fill:#8AAED7;}
	.st1{fill:#FFFFFF;}
	.st2{fill:#608DA2;}
	.st3{fill:#C6E1FF;}
</style>
<g>
	<g>
		<path class="st0" d="M217.2,157.8c-51.5,6.3-105,11.7-154.1-4.9c-18.2-6.2-37.7-15.3-55.6-8.3c-1.7,0.7-3.5,1.6-4.6,3.1
			c-2.5,3.4-0.6,8.3,2.5,11.1s7.2,4.3,10.6,6.7c6.7,4.7,10.3,12.6,14.1,19.8c14.9,28.2,37.6,51.3,60,74c5.3,5.3,10.7,10.8,17.6,13.8
			c9.1,4,19.5,3.2,29.3,1.7c10.3-1.5,21.4-4.2,27.6-12.5s3.1-23.4-7.2-24.7c15.5-1.8,31,1.9,46.6,3.4c24.2,2.4,48.5-0.7,72.6-3.7
			c43.8-5.5,88.9-11.5,127.2-33.4c23.9-13.7,44.4-33.2,69.5-44.7c2.6-1.2,5.6-2.4,8.4-1.7c2.9,0.7,4.9,3.1,6.8,5.4
			c13.4,16.4,26.8,32.7,40.1,49.1c4-9.5,2.2-20.6-2.1-30s-10.8-17.6-16.4-26.3C481.1,110.8,476,54.9,472,1.5
			c-11.4,7.5-17,21.4-18.6,35s0.1,27.3-0.1,40.9c-0.1,7.3-0.9,15.1-5.1,21.1c-3.4,4.9-8.7,8.2-14.2,10.6c-16.8,7.6-35.6,9.1-54,10.6
			c-12.5,1-25,1.9-37.5,2.9c-6.7,0.5-13.5,1-20-0.6c-17.4-4.2-28.3-22.7-29.6-40.6c-1.3-17.9,4.9-35.3,11.1-52.2
			c-27-4.9-53.3,14.6-66.8,38.5s-17.5,51.7-24.5,78.2"/>
	</g>
	<g>
		<g>
			<path class="st0" d="M203.7,162.3c6.2-7.2,10.7-15.4,13.3-24.5c0.5-1.9-2.4-2.7-2.9-0.8c-2.5,8.6-6.6,16.4-12.5,23.2
				C200.3,161.6,202.4,163.7,203.7,162.3L203.7,162.3z"/>
		</g>
	</g>
	<g>
		<path class="st0" d="M214.3,229.3c32.4,23.6,70.8,37.4,108.6,50.8c0.9,0.3,2,0.7,2.9,0.2c1.8-0.9,1.2-3.6,0.1-5.4
			c-14.9-25.9-43.3-43.1-54.3-70.9"/>
	</g>
	<g>
		<path class="st0" d="M419.4,186.3c11.1,3,22.4,5.1,33.8,6.4c2.1,0.2,4.7,0.1,5.4-1.9c0.4-1.1,0-2.2-0.4-3.3
			c-3.8-10-7.6-19.9-11.4-29.9"/>
	</g>
	<g>
		<g>
			<path class="st0" d="M217.4,150.1c-7,7.4-13.9,14.9-20.9,22.3c-1.3,1.4,0.8,3.5,2.1,2.1c7-7.4,13.9-14.9,20.9-22.3
				C220.8,150.8,218.7,148.6,217.4,150.1L217.4,150.1z"/>
		</g>
	</g>
	<g>
		<g>
			<path class="st0" d="M209.6,161.6c1.7-3.7,3.4-7.4,5.1-11c0.8-1.7-1.8-3.3-2.6-1.5c-1.7,3.7-3.4,7.4-5.1,11
				C206.2,161.8,208.8,163.4,209.6,161.6L209.6,161.6z"/>
		</g>
	</g>
	<g>
		<g>
			<path class="st0" d="M218.2,167.1c-0.5-7.4-1-14.8-1.5-22.2c-0.1-1.9-3.1-1.9-3,0c0.5,7.4,1,14.8,1.5,22.2
				C215.3,169.1,218.3,169.1,218.2,167.1L218.2,167.1z"/>
		</g>
	</g>
	<g>
		<g>
			<path class="st0" d="M161.2,257.2c-1.5-6-7.1-9.9-13.2-9.9c-7.5,0-13.3,5.5-17.1,11.4c-1.1,1.6,1.5,3.1,2.6,1.5
				c3-4.5,7.1-8.8,12.7-9.7c5.3-0.8,10.8,2,12.2,7.5C158.8,259.9,161.7,259.1,161.2,257.2L161.2,257.2z"/>
		</g>
	</g>
	<g>
		<path d="M152.9,254.8c-2.7-2.7-7.1-2.9-10.6-1.4c-3.5,1.5-6.2,4.4-8.6,7.3c-3.3,4-6.3,9.6-3.7,14.1c2.4,4.1,8.1,4.6,12.7,3.6
			c5.2-1.2,10.3-4,13-8.6c2.8-4.6,2.7-11.1-1.1-14.9c-3.8-3.8-11.2-3.5-13.8,1.1"/>
	</g>
	<g>
		<g>
			<path d="M4.7,148.6c4.2-3.5,9.3-5.3,14.8-5.4c1.9,0,1.9-3,0-3c-6.3,0-12.1,2.2-17,6.3C1.1,147.7,3.3,149.8,4.7,148.6L4.7,148.6z"
				/>
		</g>
	</g>
	<g>
		<g>
			<path class="st1" d="M148.3,258.5c-0.1-1.7,0.6-3.1,1.9-4.2c-0.6,0.1-1.2,0.2-1.8,0.2c0.3,0.2,0.7,0.3,1,0.6
				c0.1,0.1,0.4,0.4,0.4,0.4c0,0,0.2-0.4,0.2-0.5c0.4-0.3,0.8,2.3,0.8,0.8c-0.1-1.9-3.1-1.9-3,0c0.1,2.3,2.9,2.8,4.3,1.3
				c2-2-0.4-4.4-2.2-5.3c-0.6-0.3-1.3-0.2-1.8,0.2c-1.8,1.6-2.8,3.9-2.8,6.3C145.4,260.4,148.4,260.4,148.3,258.5L148.3,258.5z"/>
		</g>
	</g>
	<g>
		<g>
			<path class="st1" d="M142,275.3c0.4-0.8,0.8-1.6,1.2-2.5c0.4-0.7,0.2-1.6-0.5-2.1c-0.7-0.4-1.7-0.2-2.1,0.5
				c-0.4,0.8-0.8,1.6-1.2,2.5c-0.4,0.7-0.2,1.6,0.5,2.1C140.6,276.3,141.6,276.1,142,275.3L142,275.3z"/>
		</g>
	</g>
	<g>
		<g>
			<path class="st1" d="M8.5,145.2c1.9,0,1.9-3,0-3C6.5,142.2,6.5,145.2,8.5,145.2L8.5,145.2z"/>
		</g>
	</g>
	<g>
		<g>
			<path class="st2" d="M21.4,143.7c31.4,2.9,60.5,16.3,91.4,21.6c31.5,5.4,63.5,1.1,94.5-5.3c1.9-0.4,1.1-3.3-0.8-2.9
				c-32.3,6.7-65.5,10.9-98.2,4.3c-29.2-5.9-57-18-86.9-20.8C19.5,140.5,19.5,143.6,21.4,143.7L21.4,143.7z"/>
		</g>
	</g>
	<g>
		<g>
			<path class="st2" d="M206.3,158.1c12.8-28,15.7-59.5,29.6-87c12.7-25,39.5-48,69.3-38c1.8,0.6,2.6-2.3,0.8-2.9
				c-27.6-9.2-54.7,9.2-68.6,32.1c-17.6,28.9-19.8,63.9-33.7,94.3C202.9,158.3,205.5,159.9,206.3,158.1L206.3,158.1z"/>
		</g>
	</g>
	<g>
		<g>
			<path class="st2" d="M306.3,30.1C294.9,46,289,66.2,291.9,85.7c2.7,18,13.9,34.3,31.6,40.2c1.8,0.6,2.6-2.3,0.8-2.9
				c-17.8-5.9-28.2-23.1-29.9-41.2c-1.6-17.9,4.1-35.7,14.4-50.2C310,30.1,307.4,28.6,306.3,30.1L306.3,30.1z"/>
		</g>
	</g>
	<g>
		<g>
			<path class="st2" d="M323,127.3c25.4-2.3,50.6-5.4,75.8-9.4c11.6-1.8,23.7-3.2,35-6.3c6.8-1.9,14.1-5.4,15.3-13.1
				c0.3-1.9-2.6-2.7-2.9-0.8c-1.4,9.2-12.8,11.1-20.4,12.5c-11.2,2.1-22.4,4-33.6,5.7c-23,3.5-46.1,6.3-69.2,8.4
				C321.1,124.5,321.1,127.5,323,127.3L323,127.3z"/>
		</g>
	</g>
	<g>
		<g>
			<path class="st2" d="M450.9,96.6c4.3-14.6,4.9-30.5,6.9-45.5c0.2-1.9-2.8-1.9-3,0c-1.9,14.7-2.6,30.4-6.8,44.8
				C447.5,97.6,450.4,98.4,450.9,96.6L450.9,96.6z"/>
		</g>
	</g>
	<g>
		<g>
			<path class="st2" d="M456.6,57.2c-2.5-4.8-4.5-9.6-4.1-15.1c0.4-5.6,2.7-11,4.7-16.2c3.4-8.7,7.3-17.4,15.1-23.1
				c1.5-1.1,0-3.7-1.5-2.6c-8.4,6.1-12.7,15.4-16.4,24.9c-2.2,5.7-4.6,11.7-4.9,17.9c-0.2,5.7,2,10.7,4.6,15.7
				C454.9,60.5,457.5,59,456.6,57.2L456.6,57.2z"/>
		</g>
	</g>
	<g>
		<g>
			<path class="st2" d="M472.3,1.6c-1.5,37.6,3,75.4,13.6,111.5c4.7,16.3,10.5,32.7,20.6,46.5c10.6,14.3,27.8,29.7,22,49.5
				c-0.5,1.9,2.3,2.6,2.9,0.8c4.8-16.5-5.5-31-15.4-43.1c-5.9-7.2-11.3-14.5-15.5-22.8c-4.2-8.4-7.4-17.3-10.1-26.3
				c-11.6-37.5-16.6-76.9-15.1-116.1C475.4-0.3,472.4-0.3,472.3,1.6L472.3,1.6z"/>
		</g>
	</g>
	<g>
		<g>
			<path class="st2" d="M450.7,171.3c15,0.4,27.8-17.5,41.5-3.9c6.2,6.1,11.5,13.4,17.1,20.1c6.5,7.7,13,15.5,19.5,23.2
				c1.2,1.5,3.4-0.7,2.1-2.1c-6.9-8.2-13.8-16.4-20.7-24.7c-6-7.1-11.7-16.1-19.3-21.6c-13.9-10.1-26.2,6.3-40.2,6
				C448.8,168.2,448.8,171.2,450.7,171.3L450.7,171.3z"/>
		</g>
	</g>
	<g>
		<g>
			<path class="st2" d="M449.5,171.8c2.7,4.4,4.9,9,6.2,13.9c0.4,1.5,0.8,2-0.2,3.2c-1.1,1.3-2.8,1.2-4.4,1.1c-3-0.1-6-0.9-8.9-1.4
				c-8.9-1.6-20.1-2-26.5-9.2c-1.3-1.4-3.4,0.7-2.1,2.1c4.2,4.8,10,6.7,16.1,7.9c6.7,1.3,13.8,3,20.6,3.5c3.4,0.3,8.7-0.2,9.1-4.4
				c0.3-2.7-1.7-6.8-2.6-9.2c-1.3-3.2-2.9-6.2-4.7-9.2C451.1,168.7,448.5,170.2,449.5,171.8L449.5,171.8z"/>
		</g>
	</g>
	<g>
		<g>
			<path class="st2" d="M0.1,148.8c5.7,14.8,20.9,23.2,30.3,35.6c10.1,13.4,17,29,26.7,42.7c17.8,25.2,44.1,43.6,73.7,52.1
				c1.9,0.5,2.7-2.4,0.8-2.9c-29.9-8.6-56.3-27.6-73.7-53.4c-8.8-13-15.4-27.4-24.8-40c-4.3-5.7-9.3-10.7-14.5-15.5
				C12.3,161.6,6.1,155.9,3,148C2.3,146.2-0.6,147,0.1,148.8L0.1,148.8z"/>
		</g>
	</g>
	<g>
		<g>
			<path class="st2" d="M157,272.5c12.5-9.3,13.5-27.2,1.6-37.5c-1.5-1.3-3.6,0.9-2.1,2.1c10.3,9,10.1,24.6-1,32.8
				C154,271.1,155.4,273.7,157,272.5L157,272.5z"/>
		</g>
	</g>
	<g>
		<g>
			<path class="st2" d="M156.4,237.1c12.2,0.2,23.2,6.5,35.4,7c13.3,0.5,26.9-1.5,40.1-2.5c1.9-0.1,1.9-3.1,0-3
				c-13.2,1-26.9,3-40.1,2.5c-12.2-0.5-23.2-6.8-35.4-7C154.5,234.1,154.5,237.1,156.4,237.1L156.4,237.1z"/>
		</g>
	</g>
	<g>
		<g>
			<path class="st2" d="M232.9,243.5c28.4,13.5,57.9,24.8,86.9,36.8c3,1.2,7,2.7,7.4-1.9c0.4-4.7-5-10.2-7.6-13.6
				c-4-5.2-8.7-9.5-13.3-14.2c-5.6-5.7-10.1-12.2-13.2-19.6c-0.7-1.8-3.6-1-2.9,0.8c4.4,10.5,11.1,18.1,19.1,26
				c4.5,4.5,8.5,9.3,12,14.6c0.6,1,2,2.4,2.2,3.5c0.6,3.2-1,2.3-3,1.4c-3.3-1.4-6.7-2.7-10-4.1c-25.5-10.5-51.3-20.5-76.2-32.4
				C232.7,240.1,231.1,242.6,232.9,243.5L232.9,243.5z"/>
		</g>
	</g>
	<g>
		<g>
			<path class="st2" d="M294.1,236c12.3-1.1,24.7-2.3,36.7-5.7c12.3-3.5,23.8-8.9,36.4-11.5c11.4-2.4,22.6-4.5,33.1-9.9
				c10.3-5.3,19.4-12.4,28.5-19.5c1.5-1.2-0.6-3.3-2.1-2.1c-8.9,6.9-17.8,13.9-27.9,19c-10.8,5.6-22.4,7.4-34.1,10
				c-11.6,2.5-22.4,7.5-33.7,10.9c-12,3.5-24.4,4.7-36.8,5.9C292.2,233.1,292.2,236.1,294.1,236L294.1,236z"/>
		</g>
	</g>
	<g>
		<path class="st3" d="M297.7,234.5c-5-1.9-9.5-5.4-12.6-9.8c-0.8-1.1-1.5-2.5-1.1-3.8c0.4-1.1,1.5-1.8,2.5-2.3
			c24.6-12.8,54.7-8.9,80.6-18.8c14.7-5.6,28.5-15.7,44.2-15.4c5.4,0.1,10.7,1.5,15.2,4.4c-11.6,6.7-23.2,13.5-35.7,18.3
			c-8.8,3.4-18,5.9-27.2,8.4c-22.9,6.1-45.8,12.3-68.6,18.4"/>
	</g>
	<g>
		<g>
			<path class="st3" d="M454.7,171.1c-1.5-0.6-3-1.2-4.5-1.8c-0.8-0.3-1.6,0.3-1.8,1c-0.2,0.9,0.3,1.5,1,1.8c1.5,0.6,3,1.2,4.5,1.8
				c0.8,0.3,1.6-0.3,1.8-1C456,172.1,455.4,171.4,454.7,171.1L454.7,171.1z"/>
		</g>
	</g>
	<g>
		<path class="st3" d="M449.8,170.9c-2.7-0.9-2.8-5-0.8-7c2-2,5-2.4,7.8-2.6c8.3-0.7,16.5-0.8,24.8-0.4c-9.4,3.5-18.9,7-28.3,10.5"
			/>
	</g>
	<g>
		<path class="st3" d="M233,238.9c-2.3,0-2.6-3.4-3.9-5.3c-1.6-2.2-4.7-2.3-7.4-2.1c-8.5,0.5-17.1,1-25.6,1.5
			c-10.7,0.6-21.5,1.3-32.2,1.9c9.9,6.9,22.6,8.7,34.7,8.3s24.1-2.6,36.2-2.6"/>
	</g>
	<g>
		<g>
			<path class="st2" d="M162,238.4c11.1,4.4,22.9,6.4,34.8,6.7c5.9,0.2,11.8-0.1,17.7-0.7c6.3-0.6,13.4-2.6,19.4,0.4
				c1.7,0.9,3.2-1.7,1.5-2.6c-4.6-2.3-9.2-2.1-14.1-1.6c-6.4,0.7-12.8,1.4-19.2,1.5c-13.5,0.2-26.8-1.7-39.3-6.6
				C161,234.8,160.3,237.7,162,238.4L162,238.4z"/>
		</g>
	</g>
	<g>
		<g>
			<path class="st2" d="M294.5,238.2c10-6.6,22.5-7.2,33.9-9.4c12.2-2.4,24.2-5.3,36.1-8.9c23-6.9,45.4-16.1,66.7-27.2
				c1.7-0.9,0.2-3.5-1.5-2.6c-22.2,11.6-45.4,21-69.4,27.9c-11.6,3.4-23.4,6.2-35.3,8.4c-10.9,2-22.4,2.9-31.9,9.2
				C291.4,236.7,292.9,239.3,294.5,238.2L294.5,238.2z"/>
		</g>
	</g>
	<g>
		<g>
			<path class="st2" d="M454.9,176.7c7.2-7.9,16.7-12.8,27.4-14c1.9-0.2,1.9-3.2,0-3c-11.5,1.3-21.7,6.4-29.5,14.9
				C451.4,176,453.6,178.1,454.9,176.7L454.9,176.7z"/>
		</g>
	</g>
</g>
</svg>
