<?xml version="1.0" encoding="utf-8"?>
<!-- Generator: Adobe Illustrator 23.0.3, SVG Export Plug-In . SVG Version: 6.00 Build 0)  -->
<svg version="1.1" id="Layer_1" xmlns="http://www.w3.org/2000/svg" xmlns:xlink="http://www.w3.org/1999/xlink" x="0px" y="0px"
	 viewBox="0 0 532.6 281.5" style="enable-background:new 0 0 532.6 281.5;" xml:space="preserve" width="177.5" height="93.8">
<style type="text/css">
	.st0{fill:#8AAED7;}
	.st1{fill:#FFFFFF;}
	.st2{fill:#608DA2;}
	.st3{fill:#C6E1FF;}
</style>
<g>
	<g>
		<path class="st0" d="M315.6,157.8c51.5,6.3,105,11.7,154.1-4.9c18.2-6.2,37.7-15.3,55.6-8.3c1.7,0.7,3.5,1.6,4.6,3.1
			c2.5,3.4,0.6,8.3-2.5,11.1s-7.2,4.3-10.6,6.7c-6.7,4.7-10.3,12.6-14.1,19.8c-14.9,28.2-37.6,51.3-60,74
			c-5.3,5.3-10.7,10.8-17.6,13.8c-9.1,4-19.5,3.2-29.3,1.7c-10.3-1.5-21.4-4.2-27.6-12.5s-3.1-23.4,7.2-24.7
			c-15.5-1.8-31,1.9-46.6,3.4c-24.2,2.4-48.5-0.7-72.6-3.7c-43.8-5.5-88.9-11.5-127.2-33.4c-23.9-13.7-44.4-33.2-69.5-44.7
			c-2.6-1.2-5.6-2.4-8.4-1.7c-2.9,0.7-4.9,3.1-6.8,5.4c-13.4,16.4-26.8,32.7-40.1,49.1c-4-9.5-2.2-20.6,2.1-30s10.8-17.6,16.4-26.3
			c29.1-45,34.2-100.9,38.2-154.3c11.4,7.5,17,21.4,18.6,35C81,50,79.3,63.7,79.5,77.4c0.1,7.3,0.9,15.1,5.1,21.1
			c3.4,4.9,8.7,8.2,14.2,10.6c16.8,7.6,35.6,9.1,54,10.6c12.5,1,25,1.9,37.5,2.9c6.7,0.5,13.5,1,20-0.6
			c17.4-4.2,28.3-22.7,29.6-40.6c1.3-17.9-4.9-35.3-11.1-52.2c27-4.9,53.3,14.6,66.8,38.5s17.5,51.7,24.5,78.2"/>
	</g>
	<g>
		<g>
			<path class="st0" d="M331.2,160.2c-5.9-6.8-10-14.5-12.5-23.2c-0.5-1.9-3.4-1.1-2.9,0.8c2.6,9.1,7.1,17.3,13.3,24.5
				C330.4,163.7,332.5,161.6,331.2,160.2L331.2,160.2z"/>
		</g>
	</g>
	<g>
		<path class="st0" d="M318.4,229.3c-32.4,23.6-70.8,37.4-108.6,50.8c-0.9,0.3-2,0.7-2.9,0.2c-1.8-0.9-1.2-3.6-0.1-5.4
			c14.9-25.9,43.3-43.1,54.3-70.9"/>
	</g>
	<g>
		<path class="st0" d="M113.3,186.3c-11.1,3-22.4,5.1-33.8,6.4c-2.1,0.2-4.7,0.1-5.4-1.9c-0.4-1.1,0-2.2,0.4-3.3
			c3.8-10,7.6-19.9,11.4-29.9"/>
	</g>
	<g>
		<g>
			<path class="st0" d="M313.3,152.2c7,7.4,13.9,14.9,20.9,22.3c1.3,1.4,3.4-0.7,2.1-2.1c-7-7.4-13.9-14.9-20.9-22.3
				C314.1,148.6,312,150.8,313.3,152.2L313.3,152.2z"/>
		</g>
	</g>
	<g>
		<g>
			<path class="st0" d="M325.8,160.1c-1.7-3.7-3.4-7.4-5.1-11c-0.8-1.8-3.4-0.2-2.6,1.5c1.7,3.7,3.4,7.4,5.1,11
				C324,163.4,326.6,161.8,325.8,160.1L325.8,160.1z"/>
		</g>
	</g>
	<g>
		<g>
			<path class="st0" d="M317.6,167.1c0.5-7.4,1-14.8,1.5-22.2c0.1-1.9-2.9-1.9-3,0c-0.5,7.4-1,14.8-1.5,22.2
				C314.5,169.1,317.5,169.1,317.6,167.1L317.6,167.1z"/>
		</g>
	</g>
	<g>
		<g>
			<path class="st0" d="M374.5,258c1.3-5.4,6.8-8.3,12.2-7.5c5.6,0.9,9.8,5.2,12.7,9.7c1.1,1.6,3.7,0.1,2.6-1.5
				c-3.8-5.9-9.7-11.4-17.1-11.4c-6.1,0-11.8,3.8-13.2,9.9C371.1,259.1,374,259.9,374.5,258L374.5,258z"/>
		</g>
	</g>
	<g>
		<path d="M379.9,254.8c2.7-2.7,7.1-2.9,10.6-1.4c3.5,1.5,6.2,4.4,8.6,7.3c3.3,4,6.3,9.6,3.7,14.1c-2.4,4.1-8.1,4.6-12.7,3.6
			c-5.2-1.2-10.3-4-13-8.6c-2.8-4.6-2.7-11.1,1.1-14.9c3.8-3.8,11.2-3.5,13.8,1.1"/>
	</g>
	<g>
		<g>
			<path d="M530.1,146.5c-4.9-4-10.6-6.2-17-6.3c-1.9,0-1.9,3,0,3c5.5,0,10.6,1.8,14.8,5.4C529.5,149.8,531.6,147.7,530.1,146.5
				L530.1,146.5z"/>
		</g>
	</g>
	<g>
		<g>
			<path class="st1" d="M387.4,258.5c0.1-2.4-0.9-4.7-2.8-6.3c-0.5-0.5-1.2-0.6-1.8-0.2c-1.8,0.9-4.1,3.3-2.2,5.3
				c1.4,1.5,4.2,1,4.3-1.3c0.1-1.9-2.9-1.9-3,0c0,1.5,0.4-1.1,0.8-0.8c0.1,0.1,0.4,0.5,0.2,0.5c0,0,0.4-0.4,0.4-0.4
				c0.3-0.2,0.7-0.4,1-0.6c-0.6-0.1-1.2-0.2-1.8-0.2c1.3,1.1,1.9,2.5,1.9,4.2C384.4,260.4,387.4,260.4,387.4,258.5L387.4,258.5z"/>
		</g>
	</g>
	<g>
		<g>
			<path class="st1" d="M393.4,273.8c-0.4-0.8-0.8-1.6-1.2-2.5c-0.4-0.7-1.4-0.9-2.1-0.5c-0.7,0.4-0.9,1.3-0.5,2.1
				c0.4,0.8,0.8,1.6,1.2,2.5c0.4,0.7,1.4,0.9,2.1,0.5C393.6,275.4,393.7,274.5,393.4,273.8L393.4,273.8z"/>
		</g>
	</g>
	<g>
		<g>
			<path class="st1" d="M524.3,145.2c1.9,0,1.9-3,0-3C522.4,142.2,522.4,145.2,524.3,145.2L524.3,145.2z"/>
		</g>
	</g>
	<g>
		<g>
			<path class="st2" d="M511.4,140.7c-29.9,2.8-57.6,14.8-86.9,20.8c-32.7,6.6-65.9,2.3-98.2-4.3c-1.9-0.4-2.7,2.5-0.8,2.9
				c31,6.4,63,10.8,94.5,5.3c30.9-5.3,60-18.7,91.4-21.6C513.3,143.6,513.3,140.5,511.4,140.7L511.4,140.7z"/>
		</g>
	</g>
	<g>
		<g>
			<path class="st2" d="M329.1,156.6c-13.9-30.5-16.1-65.4-33.7-94.3c-13.9-23-41-41.4-68.6-32.1c-1.8,0.6-1,3.5,0.8,2.9
				c29.8-9.9,56.6,13,69.3,38c13.9,27.5,16.8,59,29.6,87C327.3,159.9,329.9,158.3,329.1,156.6L329.1,156.6z"/>
		</g>
	</g>
	<g>
		<g>
			<path class="st2" d="M223.9,31.7c10.4,14.5,16.1,32.3,14.4,50.2c-1.6,18.1-12,35.3-29.9,41.2c-1.8,0.6-1,3.5,0.8,2.9
				c17.7-5.8,28.9-22.1,31.6-40.2c2.9-19.5-3-39.7-14.4-55.6C225.4,28.6,222.8,30.1,223.9,31.7L223.9,31.7z"/>
		</g>
	</g>
	<g>
		<g>
			<path class="st2" d="M209.8,124.3c-23.2-2.1-46.2-4.9-69.2-8.4c-10.9-1.7-21.8-3.5-32.7-5.5c-7.8-1.4-19.8-3.1-21.3-12.7
				c-0.3-1.9-3.2-1.1-2.9,0.8c1.1,7.4,8.1,11,14.7,12.9c11.5,3.3,23.9,4.6,35.6,6.5c25.2,4,50.4,7.1,75.8,9.4
				C211.7,127.5,211.7,124.5,209.8,124.3L209.8,124.3z"/>
		</g>
	</g>
	<g>
		<g>
			<path class="st2" d="M84.8,95.8c-4.2-14.3-4.9-30-6.8-44.8c-0.2-1.9-3.3-1.9-3,0c2,15,2.6,31,6.9,45.5
				C82.4,98.4,85.3,97.6,84.8,95.8L84.8,95.8z"/>
		</g>
	</g>
	<g>
		<g>
			<path class="st2" d="M78.8,58.8c2.4-4.7,4.6-9.4,4.6-14.8c0-6.5-2.6-12.8-4.9-18.8c-3.7-9.5-8-18.7-16.4-24.9
				c-1.6-1.1-3.1,1.5-1.5,2.6c7.7,5.6,11.7,14.4,15.1,23.1c1.8,4.7,3.8,9.5,4.5,14.5c0.9,6.2-1.1,11.3-3.9,16.8
				C75.3,59,77.9,60.5,78.8,58.8L78.8,58.8z"/>
		</g>
	</g>
	<g>
		<g>
			<path class="st2" d="M57.4,1.6C59,40.9,54,80.2,42.4,117.8c-2.8,9-5.9,17.9-10.1,26.3c-4.2,8.3-9.6,15.6-15.5,22.8
				C6.8,179-3.5,193.5,1.4,210c0.5,1.8,3.4,1.1,2.9-0.8c-5.7-19.5,11-34.8,21.5-48.8c10.5-14,16.3-30.6,21.2-47.2
				C57.4,77,61.9,39.2,60.4,1.6C60.4-0.3,57.4-0.3,57.4,1.6L57.4,1.6z"/>
		</g>
	</g>
	<g>
		<g>
			<path class="st2" d="M82,168.3c-14.1,0.3-26.3-16.1-40.2-6c-7.4,5.4-12.9,14-18.7,20.9c-7.1,8.5-14.2,16.9-21.3,25.4
				c-1.2,1.5,0.9,3.6,2.1,2.1c6.5-7.7,13-15.5,19.5-23.2c5.6-6.7,10.9-14,17.1-20.1c13.7-13.6,26.5,4.3,41.5,3.9
				C84,171.2,84,168.2,82,168.3L82,168.3z"/>
		</g>
	</g>
	<g>
		<g>
			<path class="st2" d="M80.7,170.3c-1.8,2.9-3.4,6-4.7,9.2c-1,2.5-2.9,6.5-2.6,9.2c0.4,4.3,5.6,4.7,9.1,4.4
				c6.8-0.5,13.9-2.2,20.6-3.5c6.1-1.2,11.9-3.1,16.1-7.9c1.3-1.4-0.8-3.6-2.1-2.1c-6.4,7.2-17.6,7.6-26.5,9.2
				c-2.7,0.5-5.4,1.2-8.1,1.3c-1.2,0.1-3.3,0.3-4.4-0.3c-1.7-0.9-1.3-1.8-1.2-3.2c0.4-5,3.8-10.5,6.5-14.7
				C84.3,170.2,81.7,168.7,80.7,170.3L80.7,170.3z"/>
		</g>
	</g>
	<g>
		<g>
			<path class="st2" d="M529.8,148c-3,7.7-8.9,13.3-14.9,18.8c-5.5,5-10.6,10.1-15.1,16.1c-9.4,12.6-16,27-24.8,40
				c-17.4,25.8-43.9,44.8-73.7,53.4c-1.9,0.5-1.1,3.4,0.8,2.9c29.6-8.5,55.9-27,73.7-52.1c9.7-13.7,16.5-29.2,26.7-42.7
				c9.3-12.4,24.5-20.7,30.3-35.6C533.4,147,530.5,146.2,529.8,148L529.8,148z"/>
		</g>
	</g>
	<g>
		<g>
			<path class="st2" d="M377.3,269.9c-11.1-8.2-11.3-23.8-1-32.8c1.5-1.3-0.7-3.4-2.1-2.1c-11.9,10.4-10.9,28.2,1.6,37.5
				C377.3,273.7,378.8,271.1,377.3,269.9L377.3,269.9z"/>
		</g>
	</g>
	<g>
		<g>
			<path class="st2" d="M376.3,234.1c-12.2,0.2-23.2,6.5-35.4,7c-13.2,0.6-26.9-1.6-40.1-2.5c-1.9-0.1-1.9,2.9,0,3
				c13.2,1,26.9,3,40.1,2.5c12.2-0.4,23.2-6.8,35.4-7C378.3,237.1,378.3,234.1,376.3,234.1L376.3,234.1z"/>
		</g>
	</g>
	<g>
		<g>
			<path class="st2" d="M298.4,240.9c-24.9,11.8-50.7,21.9-76.2,32.4c-3,1.2-6.1,2.5-9.1,3.7c-0.9,0.4-1.8,0.7-2.7,1.1
				c-1,0.7-1.3,0.4-1-0.9c-0.4-1.6,0.8-2.8,1.6-4.1c3.4-5.3,7.4-10.2,11.8-14.7c8.2-8.2,15.2-15.8,19.8-26.6
				c0.7-1.8-2.2-2.6-2.9-0.8c-3,7.1-7.2,13.5-12.5,19c-4.8,4.9-9.7,9.4-13.9,14.8c-2.6,3.3-8.1,8.9-7.6,13.6
				c0.5,4.6,4.3,3.2,7.4,1.9c29.1-11.9,58.5-23.3,86.9-36.8C301.6,242.6,300.1,240.1,298.4,240.9L298.4,240.9z"/>
		</g>
	</g>
	<g>
		<g>
			<path class="st2" d="M238.7,233c-12.1-1.1-24.2-2.3-35.9-5.6c-11.7-3.3-22.7-8.5-34.6-11.1c-11.4-2.5-22.8-4.3-33.3-9.6
				c-10.3-5.2-19.5-12.3-28.6-19.4c-1.5-1.2-3.6,0.9-2.1,2.1c9.1,7.1,18.2,14.2,28.5,19.5c10.5,5.4,21.6,7.5,33.1,9.9
				c12.6,2.6,24.1,8,36.4,11.5c11.9,3.4,24.4,4.6,36.7,5.7C240.6,236.1,240.6,233.1,238.7,233L238.7,233z"/>
		</g>
	</g>
	<g>
		<path class="st3" d="M235,234.5c5-1.9,9.5-5.4,12.6-9.8c0.8-1.1,1.5-2.5,1.1-3.8c-0.4-1.1-1.5-1.8-2.5-2.3
			c-24.6-12.8-54.7-8.9-80.6-18.8c-14.7-5.6-28.5-15.7-44.2-15.4c-5.4,0.1-10.7,1.5-15.2,4.4c11.6,6.7,23.2,13.5,35.7,18.3
			c8.8,3.4,18,5.9,27.2,8.4c22.9,6.1,45.8,12.3,68.6,18.4"/>
	</g>
	<g>
		<g>
			<path class="st3" d="M78.9,174c1.5-0.6,3-1.2,4.5-1.8c0.8-0.3,1.3-1,1-1.8c-0.2-0.7-1.1-1.4-1.8-1c-1.5,0.6-3,1.2-4.5,1.8
				c-0.8,0.3-1.3,1-1,1.8C77.2,173.7,78.1,174.3,78.9,174L78.9,174z"/>
		</g>
	</g>
	<g>
		<path class="st3" d="M83,170.9c2.7-0.9,2.8-5,0.8-7c-2-2-5-2.4-7.8-2.6c-8.3-0.7-16.5-0.8-24.8-0.4c9.4,3.5,18.9,7,28.3,10.5"/>
	</g>
	<g>
		<path class="st3" d="M299.8,238.9c2.3,0,2.6-3.4,3.9-5.3c1.6-2.2,4.7-2.3,7.4-2.1c8.5,0.5,17.1,1,25.6,1.5
			c10.7,0.6,21.5,1.3,32.2,1.9c-9.9,6.9-22.6,8.7-34.7,8.3c-12.1-0.4-24.1-2.6-36.2-2.6"/>
	</g>
	<g>
		<g>
			<path class="st2" d="M369.9,235.6c-12.6,4.9-25.9,6.8-39.3,6.6c-6.4-0.1-12.8-0.8-19.2-1.5c-5-0.6-9.6-0.7-14.1,1.6
				c-1.7,0.9-0.2,3.4,1.5,2.6c5.8-2.9,12.4-1.1,18.5-0.5c6.2,0.6,12.4,0.9,18.6,0.8c11.9-0.3,23.7-2.3,34.8-6.7
				C372.5,237.7,371.7,234.8,369.9,235.6L369.9,235.6z"/>
		</g>
	</g>
	<g>
		<g>
			<path class="st2" d="M239.8,235.6c-9.2-6.1-20.4-7.1-31-9.1c-12.2-2.2-24.3-5.1-36.2-8.6c-24-7-47.3-16.3-69.4-27.9
				c-1.7-0.9-3.2,1.7-1.5,2.6c21.3,11.1,43.6,20.3,66.7,27.2c11.6,3.5,23.4,6.4,35.2,8.7c11.7,2.3,24.6,2.9,34.8,9.6
				C239.9,239.3,241.4,236.7,239.8,235.6L239.8,235.6z"/>
		</g>
	</g>
	<g>
		<g>
			<path class="st2" d="M80,174.6c-7.8-8.5-18.1-13.6-29.5-14.9c-1.9-0.2-1.9,2.8,0,3c10.7,1.2,20.2,6.1,27.4,14
				C79.2,178.1,81.3,176,80,174.6L80,174.6z"/>
		</g>
	</g>
</g>
</svg>
