<?xml version="1.0" encoding="utf-8"?>
<!-- Generator: Adobe Illustrator 23.0.3, SVG Export Plug-In . SVG Version: 6.00 Build 0)  -->
<svg version="1.1" id="Layer_1" xmlns="http://www.w3.org/2000/svg" xmlns:xlink="http://www.w3.org/1999/xlink" x="0px" y="0px"
	 viewBox="0 0 246.8 562.5" style="enable-background:new 0 0 246.8 562.5;" xml:space="preserve">
<style type="text/css">
	.st0{clip-path:url(#SVGID_7_);}
	.st1{clip-path:url(#SVGID_8_);}
	.st2{clip-path:url(#SVGID_9_);}
	.st3{clip-path:url(#SVGID_10_);}
	.st4{clip-path:url(#SVGID_11_);}
	.st5{clip-path:url(#SVGID_12_);}
	.st6{fill:#A24092;}
	.st7{fill:#F795FF;}
	.st8{clip-path:url(#SVGID_15_);fill:#F795FF;}
	.st9{fill:url(#SVGID_16_);}
	.st10{fill:url(#SVGID_17_);}
	.st11{fill:url(#SVGID_18_);}
	.st12{fill:none;stroke:#A24092;stroke-miterlimit:10;}
</style>
<g>
	<g>
		<defs>
			<path id="SVGID_1_" d="M176.6,2.4"/>
		</defs>
		<defs>
			<path id="SVGID_2_" d="M235.2,77.5"/>
		</defs>
		<defs>
			<path id="SVGID_3_" d="M29.9,143.6c20.1,12.3,44,16.3,67.3,20.2c22.4,3.7,44.9,7.4,67.6,6.6c22.7-0.8,45.7-6.3,64.1-19.5
				c5.7-4.1,11-9,14.1-15.3"/>
		</defs>
		<defs>
			<path id="SVGID_4_" d="M5,102.9"/>
		</defs>
		<defs>
			<path id="SVGID_5_" d="M160.2,0"/>
		</defs>
		<defs>
			<path id="SVGID_6_" d="M179.4,5.5"/>
		</defs>
		<use xlink:href="#SVGID_1_"  style="overflow:visible;fill:#F795FF;"/>
		<use xlink:href="#SVGID_2_"  style="overflow:visible;fill:#F795FF;"/>
		<use xlink:href="#SVGID_3_"  style="overflow:visible;fill:#F795FF;"/>
		<use xlink:href="#SVGID_4_"  style="overflow:visible;fill:#F795FF;"/>
		<use xlink:href="#SVGID_5_"  style="overflow:visible;fill:#F795FF;"/>
		<use xlink:href="#SVGID_6_"  style="overflow:visible;fill:#F795FF;"/>
		<clipPath id="SVGID_7_">
			<use xlink:href="#SVGID_1_"  style="overflow:visible;"/>
		</clipPath>
		<clipPath id="SVGID_8_" class="st0">
			<use xlink:href="#SVGID_2_"  style="overflow:visible;"/>
		</clipPath>
		<clipPath id="SVGID_9_" class="st1">
			<use xlink:href="#SVGID_3_"  style="overflow:visible;"/>
		</clipPath>
		<clipPath id="SVGID_10_" class="st2">
			<use xlink:href="#SVGID_4_"  style="overflow:visible;"/>
		</clipPath>
		<clipPath id="SVGID_11_" class="st3">
			<use xlink:href="#SVGID_5_"  style="overflow:visible;"/>
		</clipPath>
		<clipPath id="SVGID_12_" class="st4">
			<use xlink:href="#SVGID_6_"  style="overflow:visible;"/>
		</clipPath>
		<g class="st5">
			<g>
				<path class="st6" d="M122.1,0.3c1.9,0,1.9-3,0-3C120.2-2.7,120.2,0.3,122.1,0.3L122.1,0.3z"/>
			</g>
		</g>
		<g class="st5">
			<g>
				<path class="st6" d="M39.7,146.2c9.9-1.8,20.1-3.8,28.3-9.9c7.2-5.4,12.1-13,16.6-20.7c1-1.7-1.6-3.2-2.6-1.5
					c-4.5,7.6-9.4,15.4-16.8,20.5c-7.7,5.4-17.2,7.1-26.3,8.7C37.1,143.7,37.9,146.6,39.7,146.2L39.7,146.2z"/>
			</g>
		</g>
		<g class="st5">
			<g>
				<path class="st6" d="M120.2-5.4c1.9,0,1.9-3,0-3C118.2-8.4,118.2-5.4,120.2-5.4L120.2-5.4z"/>
			</g>
		</g>
		<g class="st5">
			<g>
				<path class="st6" d="M40.3,141.4c-2.1,1-4.4-0.3-5.5-2.1c-1.2-2-1.4-4.4-1.6-6.6c-0.2-1.9-3.2-1.9-3,0c0.3,3.4,0.8,7.2,3.3,9.8
					c2.2,2.2,5.5,3,8.3,1.5C43.5,143.1,42,140.5,40.3,141.4L40.3,141.4z"/>
			</g>
		</g>
		<g class="st5">
			<g>
				<path class="st6" d="M115.6-9.7c1.9,0,1.9-3,0-3C113.7-12.7,113.7-9.7,115.6-9.7L115.6-9.7z"/>
			</g>
		</g>
		<g class="st5">
			<g>
				<path class="st6" d="M37.2,141c-18.3-15.2-25.6-39.9-21.9-63c0.3-1.9-2.6-2.7-2.9-0.8c-3.9,24.1,3.5,50,22.7,65.9
					C36.5,144.4,38.7,142.3,37.2,141L37.2,141z"/>
			</g>
		</g>
		<g class="st5">
			<g>
				<path class="st6" d="M88.2,156.1c-6.4-13.2-7.2-28.1-2.4-42c0.6-1.8-2.3-2.6-2.9-0.8c-5,14.6-4,30.4,2.7,44.3
					C86.4,159.4,89,157.8,88.2,156.1L88.2,156.1z"/>
			</g>
		</g>
		<g class="st5">
			<g>
				<path class="st6" d="M141.6-4c1.9,0,1.9-3,0-3C139.7-7,139.7-4,141.6-4L141.6-4z"/>
			</g>
		</g>
		<g class="st5">
			<g>
				<path class="st6" d="M89.6,158.1c20.8-4.1,39.6-15.9,52.7-32.5c6.2-7.9,11.1-16.8,14.3-26.4c4.3-13.1,5.1-27,5.6-40.6
					c0.1-1.9-2.9-1.9-3,0c-1,24-4.4,46.8-20,66c-12.7,15.7-30.6,26.7-50.5,30.6C86.9,155.6,87.7,158.5,89.6,158.1L89.6,158.1z"/>
			</g>
		</g>
		<g class="st5">
			<g>
				<path class="st6" d="M154.1-2.5c1.9,0,1.9-3,0-3C152.2-5.5,152.2-2.5,154.1-2.5L154.1-2.5z"/>
			</g>
		</g>
		<g class="st5">
			<g>
				<path class="st6" d="M94,157c12.3,0.3,24.8,1.2,37.1,0.6c9.2-0.4,18.9-2.1,26.3-7.9c7.7-6,10.9-15.4,12.9-24.6
					c2.9-13.1,5.5-26.3,8.2-39.5c0.4-1.9-2.5-2.7-2.9-0.8c-2.4,11.5-4.8,23.1-7.1,34.6c-2.2,10.4-4.5,21.9-13.7,28.5
					c-7.6,5.5-17.5,6.6-26.7,6.8c-11.4,0.2-22.8-0.4-34.2-0.7C92,154,92,157,94,157L94,157z"/>
			</g>
		</g>
		<g class="st5">
			<g>
				<path class="st6" d="M210.4,153.2c-25.9-8.1-30.4-38.3-32.8-61.4c-0.2-1.9-3.2-1.9-3,0c2.6,24.6,7.6,55.7,35,64.3
					C211.5,156.7,212.3,153.8,210.4,153.2L210.4,153.2z"/>
			</g>
		</g>
		<g class="st5">
			<g>
				<path class="st6" d="M171.1,7.3c1.9,0,1.9-3,0-3C169.2,4.3,169.2,7.3,171.1,7.3L171.1,7.3z"/>
			</g>
		</g>
		<g class="st5">
			<g>
				<path class="st6" d="M215.3,155c5.6-15.7,4.3-33.2,4.1-49.7c-0.3-17.1-1.6-34.1-6.4-50.6c-0.5-1.8-3.4-1.1-2.9,0.8
					c4.8,16.2,6,33,6.3,49.8c0.3,16.1,1.5,33.4-4,48.9C211.8,156,214.7,156.8,215.3,155L215.3,155z"/>
			</g>
		</g>
		<g class="st5">
			<g>
				<path class="st6" d="M213.7,153.8c12-14.2,27.2-29.2,33.1-47.3c5.9-17.8-3.3-31.7-14.6-44.7c-1.3-1.5-3.4,0.7-2.1,2.1
					c5.4,6.1,11,12.5,13.9,20.3c3.2,8.5,1.9,17.6-1.7,25.8c-6.9,15.6-19.8,28.8-30.7,41.7C210.4,153.1,212.5,155.2,213.7,153.8
					L213.7,153.8z"/>
			</g>
		</g>
	</g>
	<g>
		<g>
			<path class="st7" d="M154.9,171.2c1.9,0,1.9-3,0-3C153,168.2,153,171.2,154.9,171.2L154.9,171.2z"/>
		</g>
	</g>
	<g>
		<g>
			<path class="st7" d="M159.8,169.6c1.9,0,1.9-3,0-3C157.9,166.6,157.9,169.6,159.8,169.6L159.8,169.6z"/>
		</g>
	</g>
	<g>
		<defs>
			<path id="SVGID_13_" d="M82.2,156.9c-11.2,16-9.5,39.7,3.9,53.9c4.5,4.8,10.2,8.6,13.3,14.5c4.6,8.8,1.8,19.8-2.8,28.6
				s-11,16.9-13.9,26.4c-2.9,9.5-1,21.6,7.6,26.6c3.5,2,8,2.9,10.1,6.3c1.4,2.3,1.3,5.1,1.1,7.8c-1.2,12.3-5.3,24.4-12,34.8
				c-3.9,6.1-8.8,13.3-5.7,19.8c0.9,1.8,2.3,3.4,2.6,5.4c0.5,3.2-2.1,5.9-3.9,8.6c-1.8,2.7-2.4,7.1,0.5,8.4
				c-2.4-3.7-2.3-8.8,0.3-12.4c1.4-2,3.4-3.4,4.5-5.6c3.8-8.1-8.4-14.8-10.1-23.6c-2.4-12.6,16.6-19.4,18.8-32
				c0.8-4.5-0.7-9-2.1-13.4c-3.9-12.5-6.8-25.3-8.6-38.3c-0.8-5.5-1.3-11.4,1.4-16.3c2.8-5.1,8.5-8.1,10.9-13.3
				c2.4-5.1,1-11.1-0.9-16.4c-3-7.9-7.3-15.4-12.9-21.8c-2.1-2.5-4.5-5-4.9-8.2c-0.3-2.3,0.4-4.6,1.1-6.8c2.8-8.8,5.6-17.5,8.4-26.3
				"/>
		</defs>
		<linearGradient id="SVGID_14_" gradientUnits="userSpaceOnUse" x1="88.2723" y1="397.934" x2="88.2723" y2="145.1817">
			<stop  offset="0" style="stop-color:#AF4298"/>
			<stop  offset="0.3163" style="stop-color:#CE66C4"/>
			<stop  offset="0.6002" style="stop-color:#E480E4"/>
			<stop  offset="0.8377" style="stop-color:#F28FF8"/>
			<stop  offset="1" style="stop-color:#F795FF"/>
		</linearGradient>
		<use xlink:href="#SVGID_13_"  style="overflow:visible;fill:url(#SVGID_14_);"/>
		<clipPath id="SVGID_15_">
			<use xlink:href="#SVGID_13_"  style="overflow:visible;"/>
		</clipPath>
		<path class="st8" d="M52.7,153.3c-6.1,12-0.5,24.9,0.1,37.4c0.2,3.2,0,6.5-1,9.6c-1.3,4.2-4.3,7.4-6.3,11.4
			c-2.2,4.5-2.5,9.4-1.1,14.1c3.3,11.3,12.9,19.6,15.9,31c3.4,13.2-7.2,22.9-14.5,32.4c-7.4,9.7-10.6,19.8-5.8,31.5
			c5.3,12.9,16.6,24,14.2,39c-1.3,8.1-5.6,15.4-9.2,22.7c-3.4,6.8-6.3,13.8-7.6,21.4c-2.9,16.7,2,31.1,7.7,46.6
			c3.3,9.1,6,18.4,4.2,28.1c-1.6,8.8-5.9,16.8-9.4,24.9c-3.2,7.4-5.6,15-5.8,23.2c-0.2,9.9,2.4,19.7,5,29.2c0.5,1.9,3.4,1.1,2.9-0.8
			c-2.4-9-4.9-18.1-4.9-27.4c0-8.8,2.9-16.9,6.4-24.8c5.6-12.9,11.3-25.2,8.5-39.6c-3.1-16.3-12.5-30.4-12.7-47.4
			c-0.1-9.5,2-18.8,6-27.5c3-6.6,6.7-12.8,9.3-19.5c5-13.1,2-24.1-4.8-35.8c-3.3-5.8-7.2-11.6-8.8-18.1c-1.7-6.9-0.1-13.2,3.6-19.1
			c5.8-9.4,15.4-16.9,18.4-27.9c2.9-10.9-3.3-20.6-8.9-29.4c-3.5-5.5-7.7-11.7-7.8-18.5c0-7.9,7-13.3,8.6-20.8
			c3.1-14.7-7.1-30.4,0.1-44.4C56.2,153.1,53.6,151.6,52.7,153.3L52.7,153.3z"/>
	</g>
	<g>
		<linearGradient id="SVGID_16_" gradientUnits="userSpaceOnUse" x1="85.9969" y1="321.2243" x2="125.218" y2="321.2243">
			<stop  offset="0" style="stop-color:#AF4298"/>
			<stop  offset="0.3163" style="stop-color:#CE66C4"/>
			<stop  offset="0.6002" style="stop-color:#E480E4"/>
			<stop  offset="0.8377" style="stop-color:#F28FF8"/>
			<stop  offset="1" style="stop-color:#F795FF"/>
		</linearGradient>
		<path class="st9" d="M114.5,164.6c4.5,9.6,3.7,21.6-2.1,30.5c-2.2,3.3-5,6.3-6.4,10c-5.9,16,17.7,32,11.9,48.1
			c-3,8.2-12.8,12.6-15.5,20.9c-3.6,11.1,6.9,23.9,1.4,34.1c-1.5,2.8-4.1,4.9-5.7,7.7c-7.5,12.9,9.4,29.5,3.7,43.3
			c-1.3,3.1-3.6,5.6-4.7,8.7c-2.8,7.7,2.1,15.8,3,23.9c1.5,12.3-6,23.6-10,35.4c-5.9,17-4.5,36.5,3.8,52.4c-6.7-3.1-9-11.9-7.5-19.2
			c1.4-7.3,5.6-13.7,8.5-20.5c10.9-25.8,3.8-56.8,15.7-82.2c1.6-3.3,3.5-6.7,3.3-10.3c-0.4-8.5-11.5-12.9-13.2-21.2
			c-2.4-11.3,13-18.5,15.6-29.7c2-8.6-3.9-17.8-1.2-26.2c2-6.2,8.5-10.5,9.6-17c1.7-9.3-8.3-16.7-10.2-26
			c-2.6-12.4,9.3-23.5,9.7-36.2c0.3-9.8-5.9-21.5,1.1-28.3"/>
	</g>
	<g>
		<g>
			<path class="st6" d="M24.2,138.5c9.5,7.7,20.4,13.5,32.7,15.2c3.6,0.5,7.1,0.4,10.4,2.3c2.3,1.3,4,3,6.7,3.5
				c4.1,0.8,8-0.7,10.9-3.6c-0.7,0-1.4,0-2.1,0c10.9,8.6,25.5,10.1,37.9,3.8c-0.8-0.4-1.5-0.9-2.3-1.3c-0.1,7.2,6.2,13.2,13.4,13.1
				c4.7-0.1,7.2-3.4,11-5.6c5.6-3.2,12.9-1.1,16.4,4.2c0.4,0.6,1.4,1,2.1,0.5c4.5-3.3,9-6.7,13.5-10c-0.6-0.1-1.2-0.2-1.8-0.2
				c4.3,5,10,7.8,16.5,8.4c1.9,0.2,1.9-2.8,0-3c-5.8-0.5-10.6-3.1-14.4-7.5c-0.4-0.5-1.3-0.6-1.8-0.2c-4.5,3.3-9,6.7-13.5,10
				c0.7,0.2,1.4,0.4,2.1,0.5c-3.7-5.6-10.7-8.5-17.3-6.6c-4.3,1.2-7,5.6-11.3,6.4c-6,1.2-11.8-4.1-11.7-9.9c0-1.2-1.3-1.8-2.3-1.3
				c-11.1,5.6-24.5,4.3-34.3-3.4c-0.6-0.5-1.5-0.6-2.1,0c-2.2,2.2-5,3.3-8.1,2.7c-2.8-0.6-4.7-2.7-7.2-3.8c-4-1.9-8.7-1.5-13-2.3
				c-10.4-2-19.9-7.3-28.1-13.9C24.8,135.2,22.7,137.3,24.2,138.5L24.2,138.5z"/>
		</g>
	</g>
	<g>
		<g>
			<path class="st6" d="M194.2,164.3c0.8-1.1,1.5-2.3,2.3-3.4c1.1-1.6-1.5-3.1-2.6-1.5c-0.8,1.1-1.5,2.3-2.3,3.4
				C190.5,164.4,193.1,165.9,194.2,164.3L194.2,164.3z"/>
		</g>
	</g>
	<g>
		<g>
			<path class="st6" d="M191.7,167.3c1.9,0,1.9-3,0-3C189.8,164.3,189.8,167.3,191.7,167.3L191.7,167.3z"/>
		</g>
	</g>
	<g>
		<g>
			<path class="st6" d="M194,166.2c1.9,0,1.9-3,0-3C192,163.2,192,166.2,194,166.2L194,166.2z"/>
		</g>
	</g>
	<g>
		<g>
			<path class="st6" d="M199,158.6c1.3-2.3,6,0.9,8.1,0.8c1.8-0.1,3.2-1.1,4.5-2.2c3-2.5,4.8-4.3,8.5-5.7c2.4-0.9,4.6-1.7,6.8-3.1
				c1.6-1,0.1-3.6-1.5-2.6c-2.8,1.8-6.1,2.6-9.1,3.9c-2.7,1.2-4.1,3.1-6.3,4.8c-4.1,3.1-10.6-2.9-13.6,2.5
				C195.5,158.8,198.1,160.3,199,158.6L199,158.6z"/>
		</g>
	</g>
	<g>
		<g>
			<path class="st6" d="M67,155.5c14.5,25.1-5.3,52.7-12.3,76.7c-3.8,12.9-3.3,24.9-0.1,37.9c3.6,14.6,6.7,27.5,2.2,42.3
				c-4,13.2-10.4,25.4-13,39.1c-2.5,13.2-2.3,26.6,0.4,39.8c2.9,14.5,7.5,28.2,6.6,43.1c-0.8,14-4.7,27.5-6.7,41.3
				c-2,14.3-0.6,27.3,3.7,41c4.3,13.9,10.4,29.4,3.4,43.4c-0.9,1.7,1.7,3.2,2.6,1.5c5.3-10.6,3.8-21.9,0.7-33
				c-3.7-13.5-8.9-26.2-8.6-40.5c0.3-14.6,4.5-28.7,6.6-43c2.1-13.8,1.1-26.6-2.1-40.2c-3.6-15.3-6.6-30-4.8-45.8
				c1.6-14.6,7.5-27.4,12.3-41.1c4.6-13,5.3-25.1,2.1-38.5c-1.6-6.9-3.8-13.7-4.8-20.8c-1.2-7.9-0.5-15.7,1.5-23.4
				c6.8-26,28.3-54.5,12.7-81.5C68.6,152.4,66,153.9,67,155.5L67,155.5z"/>
		</g>
	</g>
	<g>
		<g>
			<path class="st6" d="M39.5,146.1c9.9,7,12.3,19.5,11.3,30.9c-1.2,13-7.3,24.8-11.3,37c-1.9,5.6-3.3,11.4-3.9,17.3
				c-0.6,6.7,0.4,13.4,0.9,20.1c0.6,6.9,0.5,13.7-1.5,20.4c-2,6.6-5.3,12.7-8.2,19c-5.1,11.2-7.3,22.2-6,34.5
				c1.3,12.5,4.9,24.6,5.4,37.2c0.6,13.6-4.3,25-10.5,36.8C10.7,409,5.3,419,4.4,430c-1.2,15.1,6.1,29.8,9.5,44.2
				c4,16.6,6,33.6,6.2,50.7c0,1.9,3,1.9,3,0c-0.2-14.8-1.7-29.5-4.7-44c-1.4-6.9-3.1-13.7-5.1-20.4c-2.3-7.7-5.1-15.3-5.9-23.4
				c-2.3-25.4,20.9-44.4,21.8-69.5c0.5-13.7-3.6-27-5.2-40.5c-0.8-6.5-1-13.2,0.2-19.7c1.3-6.9,4.3-13.2,7.3-19.4
				c2.4-5,4.8-10,6.4-15.3c2.1-7,2.2-14,1.6-21.2c-0.5-6.7-1.5-13.3-0.9-20.1c0.6-7.4,3-14.6,5.5-21.5c4.6-12.5,10.1-24.8,9.9-38.4
				c-0.2-10.9-3.8-21.5-13-27.9C39.4,142.4,37.9,145,39.5,146.1L39.5,146.1z"/>
		</g>
	</g>
	<g>
		<g>
			<path class="st6" d="M26.9,136.3c-4.8,23-9.6,46.5-6.4,70.1c1.5,11.4,4.3,22.6,2,34.1c-2.1,10.2-6.8,19.7-10.8,29.3
				C7.7,279,4.9,288.3,4,298.3c-1,10.8,0,21.7,1.3,32.5c2.7,22.4,6.4,44,1.8,66.4c-4.6,22.3-12.9,46.4-1,67.9
				c0.9,1.7,3.5,0.2,2.6-1.5c-11.4-20.7-3-44.2,1.3-65.5c4.3-20.8,1.7-41.1-1-61.9c-2.8-21.4-3.9-42,4.2-62.4
				c3.8-9.4,8.5-18.5,11.2-28.3c2.5-9.2,2.3-18.3,0.9-27.7c-2-13.3-3.4-26-2.3-39.4c1.1-13.9,4-27.6,6.8-41.2
				C30.2,135.2,27.3,134.4,26.9,136.3L26.9,136.3z"/>
		</g>
	</g>
	<g>
		<g>
			<path class="st6" d="M54.7,153.2c8.5,21.1-0.6,43.4-2,65c-0.7,11.2,1.7,20.3,5.2,30.8c3.8,11.7-0.6,20.8-6.7,30.7
				c-4.8,7.9-9.9,16-10.2,25.5c-0.3,11,5.1,21,8.4,31.1c3.9,12.3,2.1,23.8,0.1,36.3c-1.8,11.3-2,22,2.3,32.8
				c4.9,12.2,12.5,22.9,15.9,35.7c3.9,14.3,3.7,29.3-0.2,43.6c-0.5,1.9,2.4,2.7,2.9,0.8c6.3-23.2,2.2-45.8-8.8-66.8
				c-6.3-12-11.4-23.1-10.3-37c1-12.1,4.9-24.1,3.2-36.4c-1.5-10.9-7.2-20.6-9.6-31.2c-2.8-12.1,1.9-21.6,8.1-31.7
				c4.6-7.5,9.7-15.6,9.6-24.7c-0.1-5.4-2.2-10.4-4-15.4c-2-5.9-3.1-11.8-3.2-18c-0.3-23.9,11.6-48.5,2.1-71.9
				C56.9,150.7,54,151.4,54.7,153.2L54.7,153.2z"/>
		</g>
	</g>
	<g>
		<g>
			<path class="st6" d="M195.4,160.1c6.4,14-3.4,28-8.9,40.5c-4.8,11-5.3,21.5-1.9,32.9c3.6,12.2,10.2,24,10.2,37
				c0,14.1-7.3,26.9-13.7,39c-12.5,23.5-20.5,48.7-21.8,75.5c-0.7,13,1.1,25.6,1.6,38.5c0.3,6.6,0.1,13.2-1.8,19.6
				c-2.1,7-6.5,12.4-10.5,18.2c-16,23.1-15.9,52.5-15.5,79.4c0,1.9,3,1.9,3,0c-0.4-25.9-0.7-54.1,14.1-76.6
				c3.3-5.1,7.4-9.7,9.9-15.3c2.4-5.3,3.5-11.1,3.8-16.9c0.7-13.3-1.9-26.6-1.8-39.9c0.2-29.4,8.7-56.8,22.4-82.6
				c5.7-10.7,11.6-21.7,13-34c1.4-12.4-3.3-23.7-7.4-35.2c-2.5-6.8-4.9-13.9-5-21.3c-0.1-8.4,3.3-15.9,6.9-23.2
				c5.7-11.6,11.9-24.5,6-37.3C197.2,156.8,194.6,158.3,195.4,160.1L195.4,160.1z"/>
		</g>
	</g>
	<g>
		<g>
			<path class="st6" d="M138.8,164.6c4.9,9.2,6.2,20.5,4.9,30.8c-1.4,10.7-7.7,19.4-13.3,28.4c-5.8,9.1-10.1,18.4-10.5,29.4
				c-0.4,12,2.9,23.7,4.7,35.5c3.9,25.1,2.1,51.1-6.1,75.2c-3.7,10.9-8.7,21.5-9,33.3c-0.4,11.8,3.2,23.2,5.4,34.6
				c2.9,14.8,1.2,28.7-0.9,43.4c-1.7,12.3-2.9,24.7,0.5,36.9c0.5,1.9,3.4,1.1,2.9-0.8c-6.9-24,4.8-48.4,1.6-72.7
				c-1.6-12.1-5.8-23.8-6.5-36c-0.8-13.6,4.5-25.4,8.8-37.9c7.8-22.7,9.8-47.2,6.9-70.9c-1.6-12.9-5.5-25.6-5.4-38.7
				c0-12.7,5.6-22.7,12.2-33.1c5.8-9.1,10.9-18.1,11.8-29.1c0.8-10.1-0.8-20.8-5.5-29.7C140.5,161.3,137.9,162.9,138.8,164.6
				L138.8,164.6z"/>
		</g>
	</g>
	<g>
		<g>
			<path class="st6" d="M236.3,136.7c-8.8,7-18.2,14.9-22.5,25.6c-4.9,12.1,1.6,24.5-2.1,36.8c-3.2,10.6-10.7,19.2-15.7,29
				c-5.3,10.5-5.7,20.6-3.2,32c3.2,14.6,5.4,28.7,3.7,43.7c-1.6,14.3-6.8,27.3-11.7,40.6c-4.8,13.1-7.4,25.6-6.3,39.6
				c1.2,15.5,3.3,29.6-0.8,44.9c-2,7.5-4.4,14.8-5.5,22.5c-1,7.6-0.5,15.3-0.8,23c-0.6,15.9-6,30.9-15.6,43.6
				c-1.2,1.5,1.4,3,2.6,1.5c7.6-10.1,12.8-21.8,14.9-34.2c2.3-13.9,0.1-28,3.5-41.9c3.3-13.4,7.3-25.5,6.5-39.5
				c-0.9-14.8-3.8-29.1-0.3-43.9c3.1-13,9.1-25,12.9-37.8c3.8-13.1,5.1-27,3.9-40.6c-1.2-13.8-8.2-28.3-5-42.2
				c2.6-10.8,10-19.6,15.2-29.2c2.7-4.9,4.9-10.1,5.7-15.6c1-7.2-1.3-14.2-1.2-21.4c0.3-15.1,13-25.7,23.8-34.4
				C239.9,137.7,237.8,135.6,236.3,136.7L236.3,136.7z"/>
		</g>
	</g>
	<g>
		<linearGradient id="SVGID_17_" gradientUnits="userSpaceOnUse" x1="142.2683" y1="503.6177" x2="142.2683" y2="168.0997">
			<stop  offset="0" style="stop-color:#B74BA3"/>
			<stop  offset="2.909771e-02" style="stop-color:#B4489F"/>
			<stop  offset="0.1117" style="stop-color:#AF4298"/>
			<stop  offset="1" style="stop-color:#F795FF"/>
		</linearGradient>
		<path class="st10" d="M155.1,168.1c3.5,11.6,6.9,23.9,4.1,35.7c-3.2,13.5-14.3,24.3-16.3,38.1c-1.9,12.8,4.5,25.6,3.7,38.5
			c-0.6,9.7-5.3,18.8-5.8,28.5c-0.6,11.7,4.8,23.4,3.1,35c-1.2,8.2-5.9,15.5-8.1,23.5c-4.1,14.8,0.6,31-3.6,45.7
			c-1.6,5.5-4.3,10.9-3.5,16.5c0.7,4.5,3.6,8.5,4.1,13.1c1.3,12.9-16.9,20.7-17.2,33.6c-0.2,9.5,9.6,18.9,5,27.3
			c4.2-2.9,5.8-8.9,3.7-13.5c-2-4.4-7.1-8.3-5.7-12.9c0.5-1.7,1.9-3,3.2-4.3c6.1-6.1,11.2-13,15.3-20.6c1.7-3.1,3.2-6.6,2.8-10.1
			c-1-9.9-15.5-15.2-14.3-25.1c0.8-7,9.1-10.5,12.4-16.7c6.6-12.2-8.3-26.8-4.5-40.1c2.8-9.8,15.1-16.2,14.1-26.4
			c-0.8-8-10-14.1-8.4-22c0.5-2.3,1.8-4.4,3.1-6.4c3.6-5.6,6.8-11.7,7.8-18.3c0.8-5.4,0.2-11-0.1-16.5c-0.7-15.3,1.7-30.8,7.1-45.1
			c2-5.4,4.5-10.7,4.7-16.4c0.1-3.4-0.5-6.7-0.7-10.1c-0.7-10,2.1-20.2,7.8-28.4"/>
	</g>
	<g>
		<linearGradient id="SVGID_18_" gradientUnits="userSpaceOnUse" x1="125.6827" y1="174.7371" x2="125.6827" y2="27.4482">
			<stop  offset="0" style="stop-color:#B74BA3"/>
			<stop  offset="5.936865e-02" style="stop-color:#C359B4"/>
			<stop  offset="0.1756" style="stop-color:#D66FCF"/>
			<stop  offset="0.3022" style="stop-color:#E580E4"/>
			<stop  offset="0.4425" style="stop-color:#EF8CF3"/>
			<stop  offset="0.6073" style="stop-color:#F593FC"/>
			<stop  offset="0.8567" style="stop-color:#F795FF"/>
		</linearGradient>
		<path class="st11" d="M174.1,168.4c-41.5,2.5-83.4-2.3-123.3-13.8c-15.6-4.5-32.5-11.6-38.6-26.7C6,112.4,13.9,94.9,24,81.8
			c30.4-39.7,83.5-60.7,132.8-52.6c9,1.5,17.9,3.8,25.9,8.1c7.5,4,14,9.6,20.4,15.2c6.2,5.5,12.4,11,17.8,17.4
			c11.2,13.4,18.3,30.1,20.1,47.5c0.5,4.8,0.6,9.6-0.4,14.3c-1.1,5.3-3.7,10.3-6.9,14.7c-12.6,17.6-34.7,26.4-56.3,28
			s-43-3.1-64.2-7.8c-13.4-3-26.8-5.9-40.2-8.9"/>
	</g>
	<g>
		<g>
			<path class="st6" d="M72.1,157.1c-5.7,4.5-11.4-2.1-14.5-6.2c-0.8-1-2.4-1-2.7,0.4c-0.3,1.1-3.3,2.1-4.2,2.1
				c-0.9,0-1.9-0.4-2.7-0.9c-1.7-0.9-3.2-2.6-4.7-3.7c-2-1.5-3.8-2.4-6.2-2.8c-7.1-1.2-13.3-5-18.3-10.4c-10.8-11.5-6.1-31.4,0.2-44
				c12.6-25.3,38.6-43.1,64.4-53.1c26.6-10.3,56.5-13,84.1-4.9c7.8,2.3,15.4,5.3,22.1,9.9c6.8,4.7,13,10.4,19.1,15.9
				c12.3,11,21.8,23.5,28.6,38.5c4,8.8,7.2,18.6,6.4,28.4c-0.7,9.2-4.8,17.7-10.8,24.6c-5.8,6.8-13.3,11.9-21.3,15.9
				c-7.4,3.7-25.3,12.2-28.8-0.5c-0.3-1-1.8-1.5-2.5-0.7c-7.1,8.4-21.6,13.9-28.8,2.2c-0.6-0.9-2.1-1-2.6,0c-2.1,4-6.7,6.1-11.2,5
				c-3.7-1-4.9-4.4-8-6.2c-3.1-1.7-5.5,0.1-8.6,1c-5,1.4-10.4-0.1-14-3.9c-2.1-2.2-3.3-4.2-6.6-4c-4.4,0.2-8.8,1.9-13.3,2
				c-10.2,0.4-20.1-2.2-29-7.3c-1.7-1-3.2,1.6-1.5,2.6c8.8,5.1,18.7,7.8,28.8,7.8c5,0,11-2.3,15.7-1.2c4,1,6.8,5.5,11.2,6.8
				c3.9,1.2,6.9,0.3,10.7-0.4c1.7-0.3,5.1-0.4,6.5,0.5c0.8,0.5,1.4,1.6,2.1,2.3c1,1,2.2,1.7,3.4,2.3c6,2.5,13.2-0.1,16.2-5.8
				c-0.9,0-1.7,0-2.6,0c8.2,13.3,25,8.4,33.5-1.6c-0.8-0.2-1.7-0.4-2.5-0.7c4.8,17.5,29.8,4.6,39.2-1c13.8-8.3,25.5-21.6,27.4-38.1
				c2.1-18.4-8.3-38.8-19-53.1c-5.6-7.5-12.4-14-19.4-20.1c-6.8-6-13.7-12.5-21.7-17C156.9,21.5,118,23.1,87,34
				C57.3,44.4,26.2,65,14,95.2c-3.4,8.3-5.1,17.4-4.3,26.4c0.8,8.8,4.8,15,11.7,20.3c3.2,2.4,6.7,5.2,10.6,6.3
				c2.2,0.6,4.5,0.4,6.6,1.2c2.5,1,4.2,3,6.3,4.6c4,2.9,11.1,4,12.8-2c-0.9,0.1-1.8,0.2-2.7,0.4c4.6,5.9,11.8,12.7,19.2,6.8
				C75.8,158.1,73.6,156,72.1,157.1L72.1,157.1z"/>
		</g>
	</g>
	<g>
		<g>
			<path class="st6" d="M189.2,172.7c17.7-1,33.1-10.9,45.7-22.8c13.7-13,13.5-34.4,7.7-51.3c-0.6-1.8-3.5-1-2.9,0.8
				c2.9,8.5,4.1,17.5,3.2,26.5c-1,9.5-4.3,16.5-11.3,23c-11.8,10.8-26,19.9-42.4,20.8C187.3,169.8,187.3,172.8,189.2,172.7
				L189.2,172.7z"/>
		</g>
	</g>
	<g>
		<g>
			<path class="st6" d="M215.6,64.7c15.2,17.4,28.3,42.5,23.9,66.3c-2.2,12.2-9.9,21.4-20,28.1c-10.6,7.1-23,12.5-35.9,11.1
				c-1.9-0.2-1.9,2.8,0,3c13.7,1.5,27-4.3,38.1-11.9c10-6.8,17.7-15.9,20.4-27.9c5.6-25.3-8.2-52.2-24.4-70.7
				C216.5,61.2,214.4,63.3,215.6,64.7L215.6,64.7z"/>
		</g>
	</g>
	<g>
		<g>
			<path class="st6" d="M58.2,152c-6.7-24.6-1.3-50.8,11.7-72.4c12.6-20.8,31.4-37,51.9-49.8c1.6-1,0.1-3.6-1.5-2.6
				c-21.4,13.3-41,30.3-53.8,52.2c-12.8,21.9-18,48.5-11.2,73.3C55.8,154.6,58.7,153.8,58.2,152L58.2,152z"/>
		</g>
	</g>
	<g>
		<g>
			<path class="st6" d="M103.7,159.5c-1.6-22.1-3.2-44.6,1.2-66.5c4.6-22.6,17.5-42,28.8-61.7c1-1.7-1.6-3.2-2.6-1.5
				c-11.5,20-24.5,39.5-29.1,62.4c-4.5,22.1-2.9,44.9-1.3,67.3C100.9,161.5,103.9,161.5,103.7,159.5L103.7,159.5z"/>
		</g>
	</g>
	<g>
		<g>
			<path class="st6" d="M130,167.6c12.1-22.3,16-47.5,17.6-72.5c1.4-22.6,3.6-48.4-10-68c-1.1-1.6-3.7-0.1-2.6,1.5
				c13.2,19.1,11,44.5,9.6,66.5c-1.5,24.5-5.4,49.2-17.2,71C126.5,167.8,129.1,169.3,130,167.6L130,167.6z"/>
		</g>
	</g>
	<g>
		<g>
			<path class="st6" d="M133.9,30.3c1.9,0,1.9-3,0-3C132,27.3,132,30.3,133.9,30.3L133.9,30.3z"/>
		</g>
	</g>
	<g>
		<g>
			<path class="st6" d="M151,167.8c10.6-25.6,21.6-52.3,20.1-80.5c-0.6-11.7-3.3-23.5-8.8-33.9c-5.9-11.2-15.1-19.5-25.2-26.9
				c-1.6-1.1-3.1,1.5-1.5,2.6c10.4,7.6,19.5,16.2,25.2,27.9c5.2,10.9,7.4,23,7.5,35c0.2,26.3-10.2,51.1-20.1,75
				C147.4,168.7,150.3,169.5,151,167.8L151,167.8z"/>
		</g>
	</g>
	<g>
		<g>
			<path class="st6" d="M180.2,168.7c23.8-20.8,34.5-53.9,25-84.4c-5-16.2-15.3-29-28-39.9c-11.3-9.6-25.8-21.7-41.7-17.2
				c-1.9,0.5-1.1,3.4,0.8,2.9c16.1-4.5,31.8,9.9,42.8,20c11.5,10.5,20.2,23.1,24.2,38.2c7.6,28.8-3,59-25.2,78.3
				C176.7,167.8,178.8,169.9,180.2,168.7L180.2,168.7z"/>
		</g>
	</g>
	<g>
		<g>
			<path class="st6" d="M136.8,172.9c2.9,1.2,5.9,1.2,8.7-0.1c1.7-0.8,0.2-3.4-1.5-2.6c-1.8,0.8-3.9,0.9-5.7,0.1
				C136.5,169.6,135,172.1,136.8,172.9L136.8,172.9z"/>
		</g>
	</g>
	<g>
		<g>
			<path class="st6" d="M140.2,170.3c-1.7,0.3-3.4-0.4-4.5-1.7c-1.3-1.4-3.4,0.7-2.1,2.1c1.9,2.1,4.7,2.9,7.4,2.5
				C142.9,172.9,142.1,170,140.2,170.3L140.2,170.3z"/>
		</g>
	</g>
	<g>
		<g>
			<path class="st6" d="M146.1,171.7c1.6-1.2,3.2-2.4,4.8-3.5c0.7-0.5,1-1.3,0.5-2.1c-0.4-0.6-1.4-1-2.1-0.5
				c-1.6,1.2-3.2,2.4-4.8,3.5c-0.7,0.5-1,1.3-0.5,2.1C144.5,171.8,145.5,172.2,146.1,171.7L146.1,171.7z"/>
		</g>
	</g>
	<g>
		<g>
			<path class="st6" d="M132.6,168.1c-0.2-0.2-0.4-0.4-0.6-0.6c-0.6-0.6-1.5-0.6-2.1,0c-0.6,0.6-0.6,1.5,0,2.1
				c0.2,0.2,0.4,0.4,0.6,0.6c0.6,0.6,1.5,0.6,2.1,0C133.2,169.6,133.2,168.7,132.6,168.1L132.6,168.1z"/>
		</g>
	</g>
	<g>
		<g>
			<path class="st6" d="M128.8,165.5c-6.9,1.5-13.7,0.5-19.9-3.1c-1.7-1-3.2,1.6-1.5,2.6c6.8,3.9,14.5,5.1,22.2,3.4
				C131.5,167.9,130.7,165,128.8,165.5L128.8,165.5z"/>
		</g>
	</g>
	<g>
		<g>
			<path class="st6" d="M107.7,161.2c-1.2-0.8-2.4-1.6-3.6-2.4c-0.7-0.4-1.7-0.1-2.1,0.5c-0.4,0.7-0.1,1.6,0.5,2.1
				c1.2,0.8,2.4,1.6,3.6,2.4c0.7,0.4,1.7,0.1,2.1-0.5C108.7,162.5,108.4,161.7,107.7,161.2L107.7,161.2z"/>
		</g>
	</g>
	<g>
		<g>
			<path class="st6" d="M102.4,158.4c-11.6,3.2-23.4,2.7-34.8-1.3c-1.8-0.6-2.6,2.2-0.8,2.9c11.8,4.2,24.3,4.6,36.3,1.3
				C105.1,160.8,104.3,157.9,102.4,158.4L102.4,158.4z"/>
		</g>
	</g>
	<g>
		<g>
			<path class="st6" d="M81.1,159.6c-7.9-3.1-15.7-6.1-23.6-9.2c-1.8-0.7-2.6,2.2-0.8,2.9c7.9,3.1,15.7,6.1,23.6,9.2
				C82.1,163.2,82.9,160.3,81.1,159.6L81.1,159.6z"/>
		</g>
	</g>
	<g>
		<g>
			<path class="st6" d="M65.4,154.5c-0.8-0.2-1.6-0.4-2.4-0.6c-0.8-0.2-1.7,0.2-1.8,1c-0.2,0.8,0.2,1.6,1,1.8
				c0.8,0.2,1.6,0.4,2.4,0.6c0.8,0.2,1.7-0.2,1.8-1C66.6,155.5,66.2,154.7,65.4,154.5L65.4,154.5z"/>
		</g>
	</g>
	<g>
		<g>
			<path class="st6" d="M66.2,154.9c-3.3-1.4-6-3.8-7.8-6.9c-1-1.7-3.5-0.2-2.6,1.5c2,3.6,5.1,6.4,8.8,8
				C66.4,158.3,68,155.7,66.2,154.9L66.2,154.9z"/>
		</g>
	</g>
	<g>
		<g>
			<path class="st6" d="M181.2,167.3c-1.6,1-3.2,2-4.8,2.9c-1.6,1-0.1,3.6,1.5,2.6c1.6-1,3.2-2,4.8-2.9
				C184.4,168.9,182.9,166.3,181.2,167.3L181.2,167.3z"/>
		</g>
	</g>
	<g>
		<g>
			<path class="st6" d="M185.8,170.3c-1.4,0.2-2.7,0.1-4-0.3c-1.9-0.6-2.6,2.3-0.8,2.9c1.8,0.6,3.7,0.6,5.6,0.3
				C188.5,172.9,187.7,170,185.8,170.3L185.8,170.3z"/>
		</g>
	</g>
	<g>
		<g>
			<path class="st6" d="M184.7,172.6c-2-0.4-3.8-1.3-5.3-2.7c-1.4-1.3-3.5,0.8-2.1,2.1c1.9,1.7,4.1,2.9,6.6,3.4
				C185.8,175.8,186.6,172.9,184.7,172.6L184.7,172.6z"/>
		</g>
	</g>
	<g>
		<g>
			<path class="st6" d="M178.5,169.5c-3.3,1.3-6.4,3-9.3,5c-1.6,1.1-0.1,3.7,1.5,2.6c2.7-1.9,5.5-3.5,8.6-4.7
				C181.1,171.7,180.3,168.8,178.5,169.5L178.5,169.5z"/>
		</g>
	</g>
	<path class="st12" d="M78,164.7"/>
</g>
</svg>
