<?xml version="1.0" encoding="utf-8"?>
<!-- Generator: Adobe Illustrator 23.0.3, SVG Export Plug-In . SVG Version: 6.00 Build 0)  -->
<svg version="1.1" id="Layer_1" xmlns="http://www.w3.org/2000/svg" xmlns:xlink="http://www.w3.org/1999/xlink" x="0px" y="0px"
	 viewBox="0 0 246.8 562.5" style="enable-background:new 0 0 246.8 562.5;" xml:space="preserve">
<style type="text/css">
	.st0{clip-path:url(#SVGID_7_);}
	.st1{clip-path:url(#SVGID_8_);}
	.st2{clip-path:url(#SVGID_9_);}
	.st3{clip-path:url(#SVGID_10_);}
	.st4{clip-path:url(#SVGID_11_);}
	.st5{clip-path:url(#SVGID_12_);}
	.st6{fill:#A24092;}
	.st7{fill:#F795FF;}
	.st8{clip-path:url(#SVGID_15_);fill:#F795FF;}
	.st9{fill:url(#SVGID_16_);}
	.st10{fill:url(#SVGID_17_);}
	.st11{fill:url(#SVGID_18_);}
	.st12{fill:none;stroke:#A24092;stroke-miterlimit:10;}
</style>
<g>
	<g>
		<defs>
			<path id="SVGID_1_" d="M70,2.4"/>
		</defs>
		<defs>
			<path id="SVGID_2_" d="M11.5,77.5"/>
		</defs>
		<defs>
			<path id="SVGID_3_" d="M216.8,143.6c-20.1,12.3-44,16.3-67.3,20.2c-22.4,3.7-44.9,7.4-67.6,6.6c-22.7-0.8-45.7-6.3-64.1-19.5
				c-5.7-4.1-11-9-14.1-15.3"/>
		</defs>
		<defs>
			<path id="SVGID_4_" d="M241.7,102.9"/>
		</defs>
		<defs>
			<path id="SVGID_5_" d="M86.5,0"/>
		</defs>
		<defs>
			<path id="SVGID_6_" d="M67.3,5.5"/>
		</defs>
		<use xlink:href="#SVGID_1_"  style="overflow:visible;fill:#F795FF;"/>
		<use xlink:href="#SVGID_2_"  style="overflow:visible;fill:#F795FF;"/>
		<use xlink:href="#SVGID_3_"  style="overflow:visible;fill:#F795FF;"/>
		<use xlink:href="#SVGID_4_"  style="overflow:visible;fill:#F795FF;"/>
		<use xlink:href="#SVGID_5_"  style="overflow:visible;fill:#F795FF;"/>
		<use xlink:href="#SVGID_6_"  style="overflow:visible;fill:#F795FF;"/>
		<clipPath id="SVGID_7_">
			<use xlink:href="#SVGID_1_"  style="overflow:visible;"/>
		</clipPath>
		<clipPath id="SVGID_8_" class="st0">
			<use xlink:href="#SVGID_2_"  style="overflow:visible;"/>
		</clipPath>
		<clipPath id="SVGID_9_" class="st1">
			<use xlink:href="#SVGID_3_"  style="overflow:visible;"/>
		</clipPath>
		<clipPath id="SVGID_10_" class="st2">
			<use xlink:href="#SVGID_4_"  style="overflow:visible;"/>
		</clipPath>
		<clipPath id="SVGID_11_" class="st3">
			<use xlink:href="#SVGID_5_"  style="overflow:visible;"/>
		</clipPath>
		<clipPath id="SVGID_12_" class="st4">
			<use xlink:href="#SVGID_6_"  style="overflow:visible;"/>
		</clipPath>
		<g class="st5">
			<g>
				<path class="st6" d="M124.6,0.3c1.9,0,1.9-3,0-3C122.6-2.7,122.6,0.3,124.6,0.3L124.6,0.3z"/>
			</g>
		</g>
		<g class="st5">
			<g>
				<path class="st6" d="M207.7,143.3c-9.1-1.7-18.6-3.4-26.3-8.7c-7.4-5.1-12.3-12.9-16.8-20.5c-1-1.7-3.6-0.2-2.6,1.5
					c4.5,7.6,9.5,15.3,16.6,20.7c8.2,6.2,18.4,8.1,28.3,9.9C208.8,146.5,209.6,143.7,207.7,143.3L207.7,143.3z"/>
			</g>
		</g>
		<g class="st5">
			<g>
				<path class="st6" d="M126.5-5.4c1.9,0,1.9-3,0-3C124.6-8.4,124.6-5.4,126.5-5.4L126.5-5.4z"/>
			</g>
		</g>
		<g class="st5">
			<g>
				<path class="st6" d="M204.9,144c2.8,1.4,6.1,0.7,8.3-1.5c2.6-2.6,3-6.4,3.3-9.8c0.2-1.9-2.8-1.9-3,0c-0.2,2.2-0.4,4.6-1.6,6.6
					c-1.1,1.8-3.5,3.2-5.5,2.1C204.7,140.5,203.2,143.1,204.9,144L204.9,144z"/>
			</g>
		</g>
		<g class="st5">
			<g>
				<path class="st6" d="M131.1-9.7c1.9,0,1.9-3,0-3C129.1-12.7,129.1-9.7,131.1-9.7L131.1-9.7z"/>
			</g>
		</g>
		<g class="st5">
			<g>
				<path class="st6" d="M211.6,143.2c19.1-15.9,26.5-41.8,22.7-65.9c-0.3-1.9-3.2-1.1-2.9,0.8c3.7,23.1-3.6,47.8-21.9,63
					C208,142.3,210.2,144.4,211.6,143.2L211.6,143.2z"/>
			</g>
		</g>
		<g class="st5">
			<g>
				<path class="st6" d="M161.1,157.6c6.8-13.9,7.8-29.6,2.7-44.3c-0.6-1.8-3.5-1-2.9,0.8c4.8,13.9,4,28.8-2.4,42
					C157.7,157.8,160.3,159.4,161.1,157.6L161.1,157.6z"/>
			</g>
		</g>
		<g class="st5">
			<g>
				<path class="st6" d="M105-4c1.9,0,1.9-3,0-3C103.1-7,103.1-4,105-4L105-4z"/>
			</g>
		</g>
		<g class="st5">
			<g>
				<path class="st6" d="M157.9,155.2c-19.9-3.9-37.7-14.9-50.5-30.6c-15.6-19.2-19-41.9-20-66c-0.1-1.9-3.1-1.9-3,0
					c0.6,13.6,1.3,27.5,5.6,40.6c3.2,9.6,8.1,18.5,14.3,26.4c13.1,16.6,31.9,28.4,52.7,32.5C159,158.5,159.8,155.6,157.9,155.2
					L157.9,155.2z"/>
			</g>
		</g>
		<g class="st5">
			<g>
				<path class="st6" d="M92.5-2.5c1.9,0,1.9-3,0-3C90.6-5.5,90.6-2.5,92.5-2.5L92.5-2.5z"/>
			</g>
		</g>
		<g class="st5">
			<g>
				<path class="st6" d="M152.7,154c-11.1,0.3-22.3,0.9-33.4,0.8c-9.4-0.1-19.6-1.1-27.4-6.8c-8.9-6.4-11.4-17.5-13.5-27.6
					c-2.5-11.8-4.9-23.7-7.3-35.5c-0.4-1.9-3.3-1.1-2.9,0.8c2.7,12.9,5.2,25.8,8,38.7c2.1,9.5,5.1,19.2,13.1,25.4
					c7.2,5.7,16.6,7.4,25.6,7.9c12.6,0.7,25.3-0.3,37.9-0.6C154.6,157,154.7,154,152.7,154L152.7,154z"/>
			</g>
		</g>
		<g class="st5">
			<g>
				<path class="st6" d="M37.1,156.1c27.4-8.6,32.4-39.7,35-64.3c0.2-1.9-2.8-1.9-3,0c-2.4,23.1-6.9,53.3-32.8,61.4
					C34.4,153.8,35.2,156.7,37.1,156.1L37.1,156.1z"/>
			</g>
		</g>
		<g class="st5">
			<g>
				<path class="st6" d="M75.6,7.3c1.9,0,1.9-3,0-3C73.6,4.3,73.6,7.3,75.6,7.3L75.6,7.3z"/>
			</g>
		</g>
		<g class="st5">
			<g>
				<path class="st6" d="M34.3,154.2c-5.5-15.4-4.2-32.7-4-48.9c0.3-16.8,1.5-33.6,6.3-49.8c0.5-1.9-2.3-2.6-2.9-0.8
					c-4.8,16.4-6.1,33.5-6.4,50.6c-0.3,16.4-1.5,33.9,4.1,49.7C32,156.8,34.9,156,34.3,154.2L34.3,154.2z"/>
			</g>
		</g>
		<g class="st5">
			<g>
				<path class="st6" d="M35.1,151.6c-10.9-12.9-23.8-26-30.7-41.7c-3.6-8.2-4.9-17.2-1.7-25.8c2.9-7.8,8.5-14.2,13.9-20.3
					c1.3-1.4-0.8-3.6-2.1-2.1C3.1,74.8-6,88.7-0.2,106.5c5.9,18.1,21.1,33.1,33.1,47.3C34.2,155.2,36.3,153.1,35.1,151.6L35.1,151.6
					z"/>
			</g>
		</g>
	</g>
	<g>
		<g>
			<path class="st7" d="M91.8,171.2c1.9,0,1.9-3,0-3C89.8,168.2,89.8,171.2,91.8,171.2L91.8,171.2z"/>
		</g>
	</g>
	<g>
		<g>
			<path class="st7" d="M86.9,169.6c1.9,0,1.9-3,0-3C84.9,166.6,84.9,169.6,86.9,169.6L86.9,169.6z"/>
		</g>
	</g>
	<g>
		<defs>
			<path id="SVGID_13_" d="M164.5,156.9c11.2,16,9.5,39.7-3.9,53.9c-4.5,4.8-10.2,8.6-13.3,14.5c-4.6,8.8-1.8,19.8,2.8,28.6
				s11,16.9,13.9,26.4c2.9,9.5,1,21.6-7.6,26.6c-3.5,2-8,2.9-10.1,6.3c-1.4,2.3-1.3,5.1-1.1,7.8c1.2,12.3,5.3,24.4,12,34.8
				c3.9,6.1,8.8,13.3,5.7,19.8c-0.9,1.8-2.3,3.4-2.6,5.4c-0.5,3.2,2.1,5.9,3.9,8.6c1.8,2.7,2.4,7.1-0.5,8.4
				c2.4-3.7,2.3-8.8-0.3-12.4c-1.4-2-3.4-3.4-4.5-5.6c-3.8-8.1,8.4-14.8,10.1-23.6c2.4-12.6-16.6-19.4-18.8-32
				c-0.8-4.5,0.7-9,2.1-13.4c3.9-12.5,6.8-25.3,8.6-38.3c0.8-5.5,1.3-11.4-1.4-16.3c-2.8-5.1-8.5-8.1-10.9-13.3
				c-2.4-5.1-1-11.1,0.9-16.4c3-7.9,7.3-15.4,12.9-21.8c2.1-2.5,4.5-5,4.9-8.2c0.3-2.3-0.4-4.6-1.1-6.8c-2.8-8.8-5.6-17.5-8.4-26.3"
				/>
		</defs>
		
			<linearGradient id="SVGID_14_" gradientUnits="userSpaceOnUse" x1="88.2723" y1="397.934" x2="88.2723" y2="145.1817" gradientTransform="matrix(-1 0 0 1 246.6806 0)">
			<stop  offset="0" style="stop-color:#AF4298"/>
			<stop  offset="0.3163" style="stop-color:#CE66C4"/>
			<stop  offset="0.6002" style="stop-color:#E480E4"/>
			<stop  offset="0.8377" style="stop-color:#F28FF8"/>
			<stop  offset="1" style="stop-color:#F795FF"/>
		</linearGradient>
		<use xlink:href="#SVGID_13_"  style="overflow:visible;fill:url(#SVGID_14_);"/>
		<clipPath id="SVGID_15_">
			<use xlink:href="#SVGID_13_"  style="overflow:visible;"/>
		</clipPath>
		<path class="st8" d="M193.9,153.3c6.1,12,0.5,24.9-0.1,37.4c-0.2,3.2,0,6.5,1,9.6c1.3,4.2,4.3,7.4,6.3,11.4
			c2.2,4.5,2.5,9.4,1.1,14.1c-3.3,11.3-12.9,19.6-15.9,31c-3.4,13.2,7.2,22.9,14.5,32.4c7.4,9.7,10.6,19.8,5.8,31.5
			c-5.3,12.9-16.6,24-14.2,39c1.3,8.1,5.6,15.4,9.2,22.7c3.4,6.8,6.3,13.8,7.6,21.4c2.9,16.7-2,31.1-7.7,46.6
			c-3.3,9.1-6,18.4-4.2,28.1c1.6,8.8,5.9,16.8,9.4,24.9c3.2,7.4,5.6,15,5.8,23.2c0.2,9.9-2.4,19.7-5,29.2c-0.5,1.9-3.4,1.1-2.9-0.8
			c2.4-9,4.9-18.1,4.9-27.4c0-8.8-2.9-16.9-6.4-24.8c-5.6-12.9-11.3-25.2-8.5-39.6c3.1-16.3,12.5-30.4,12.7-47.4
			c0.1-9.5-2-18.8-6-27.5c-3-6.6-6.7-12.8-9.3-19.5c-5-13.1-2-24.1,4.8-35.8c3.3-5.8,7.2-11.6,8.8-18.1c1.7-6.9,0.1-13.2-3.6-19.1
			c-5.8-9.4-15.4-16.9-18.4-27.9c-2.9-10.9,3.3-20.6,8.9-29.4c3.5-5.5,7.7-11.7,7.8-18.5c0-7.9-7-13.3-8.6-20.8
			c-3.1-14.7,7.1-30.4-0.1-44.4C190.5,153.1,193.1,151.6,193.9,153.3L193.9,153.3z"/>
	</g>
	<g>
		
			<linearGradient id="SVGID_16_" gradientUnits="userSpaceOnUse" x1="85.9969" y1="321.2243" x2="125.218" y2="321.2243" gradientTransform="matrix(-1 0 0 1 246.6806 0)">
			<stop  offset="0" style="stop-color:#AF4298"/>
			<stop  offset="0.3163" style="stop-color:#CE66C4"/>
			<stop  offset="0.6002" style="stop-color:#E480E4"/>
			<stop  offset="0.8377" style="stop-color:#F28FF8"/>
			<stop  offset="1" style="stop-color:#F795FF"/>
		</linearGradient>
		<path class="st9" d="M132.1,164.6c-4.5,9.6-3.7,21.6,2.1,30.5c2.2,3.3,5,6.3,6.4,10c5.9,16-17.7,32-11.9,48.1
			c3,8.2,12.8,12.6,15.5,20.9c3.6,11.1-6.9,23.9-1.4,34.1c1.5,2.8,4.1,4.9,5.7,7.7c7.5,12.9-9.4,29.5-3.7,43.3
			c1.3,3.1,3.6,5.6,4.7,8.7c2.8,7.7-2.1,15.8-3,23.9c-1.5,12.3,6,23.6,10,35.4c5.9,17,4.5,36.5-3.8,52.4c6.7-3.1,9-11.9,7.5-19.2
			c-1.4-7.3-5.6-13.7-8.5-20.5c-10.9-25.8-3.8-56.8-15.7-82.2c-1.6-3.3-3.5-6.7-3.3-10.3c0.4-8.5,11.5-12.9,13.2-21.2
			c2.4-11.3-13-18.5-15.6-29.7c-2-8.6,3.9-17.8,1.2-26.2c-2-6.2-8.5-10.5-9.6-17c-1.7-9.3,8.3-16.7,10.2-26
			c2.6-12.4-9.3-23.5-9.7-36.2c-0.3-9.8,5.9-21.5-1.1-28.3"/>
	</g>
	<g>
		<g>
			<path class="st6" d="M220.4,136.4c-8.2,6.6-17.7,11.9-28.1,13.9c-4.2,0.8-8.9,0.4-12.8,2.2c-2.2,1-4,2.9-6.3,3.7
				c-3.4,1.1-6.8-0.1-9.2-2.5c-0.6-0.6-1.5-0.5-2.1,0c-9.8,7.7-23.2,9-34.3,3.4c-1-0.5-2.3,0.1-2.3,1.3c0.1,5.9-5.8,11.1-11.7,9.9
				c-4.3-0.9-7-5.2-11.3-6.4c-6.6-1.9-13.6,1-17.3,6.6c0.7-0.2,1.4-0.4,2.1-0.5c-4.5-3.3-9-6.7-13.5-10c-0.5-0.4-1.4-0.2-1.8,0.2
				c-3.8,4.4-8.7,7-14.4,7.5c-1.9,0.2-1.9,3.2,0,3c6.6-0.6,12.2-3.4,16.5-8.4c-0.6,0.1-1.2,0.2-1.8,0.2c4.5,3.3,9,6.7,13.5,10
				c0.7,0.5,1.6,0.1,2.1-0.5c3.5-5.3,10.7-7.4,16.4-4.2c3.8,2.2,6.3,5.5,11,5.6c7.2,0.2,13.5-5.9,13.4-13.1
				c-0.8,0.4-1.5,0.9-2.3,1.3c12.4,6.3,27,4.8,37.9-3.8c-0.7,0-1.4,0-2.1,0c2.9,2.9,6.8,4.4,10.9,3.6c2.6-0.5,4.5-2.2,6.7-3.5
				c3.3-1.9,6.8-1.8,10.4-2.3c12.2-1.7,23.2-7.5,32.7-15.2C224,137.3,221.9,135.2,220.4,136.4L220.4,136.4z"/>
		</g>
	</g>
	<g>
		<g>
			<path class="st6" d="M55.1,162.8c-0.8-1.1-1.5-2.3-2.3-3.4c-1.1-1.6-3.7-0.1-2.6,1.5c0.8,1.1,1.5,2.3,2.3,3.4
				C53.6,165.9,56.2,164.4,55.1,162.8L55.1,162.8z"/>
		</g>
	</g>
	<g>
		<g>
			<path class="st6" d="M55,167.3c1.9,0,1.9-3,0-3C53,164.3,53,167.3,55,167.3L55,167.3z"/>
		</g>
	</g>
	<g>
		<g>
			<path class="st6" d="M52.7,166.2c1.9,0,1.9-3,0-3C50.8,163.2,50.8,166.2,52.7,166.2L52.7,166.2z"/>
		</g>
	</g>
	<g>
		<g>
			<path class="st6" d="M50.2,157.1c-3-5.4-9.4,0.7-13.6-2.5c-2.3-1.8-3.6-3.6-6.3-4.8c-3-1.4-6.3-2.1-9.1-3.9
				c-1.6-1-3.1,1.6-1.5,2.6c2.2,1.4,4.4,2.2,6.8,3.1c3.6,1.3,5.7,3.3,8.5,5.7c1.3,1.1,2.7,2.1,4.5,2.2c2.1,0.1,6.8-3.1,8.1-0.8
				C48.6,160.3,51.2,158.8,50.2,157.1L50.2,157.1z"/>
		</g>
	</g>
	<g>
		<g>
			<path class="st6" d="M177.1,154c-13.5,23.4,1.3,49.1,9.5,71.5c2.5,6.9,4.7,14.1,5.2,21.5c0.6,7.6-0.9,14.9-2.7,22.3
				c-3.3,13.1-6.6,25.4-3.5,38.9c3.2,13.9,10.4,26.5,13.6,40.4c3.4,15.1,3,30.5-0.4,45.5c-3.2,14-7,27.5-5.8,42
				c1.1,14.1,5.1,27.7,6.8,41.7c1,7.9,1.3,15.9-0.1,23.7c-1.4,7.6-4,15-6.2,22.4c-3.8,12.5-6.7,25.5-0.7,37.8
				c0.9,1.7,3.4,0.2,2.6-1.5c-6.3-12.8-1.8-26.7,2.2-39.4c3.8-12.2,6.7-23.9,5.8-36.8c-1-13.3-4.5-26.3-6.5-39.5
				c-2.3-15.3-0.2-29.1,3.5-44c3.3-13.6,5.2-27.1,3.6-41.1c-1.5-13.7-6.4-25.8-11.2-38.6c-2.4-6.4-4.6-12.9-5.3-19.7
				c-0.8-7.5,0.6-14.9,2.4-22.2c3.1-12.4,6.4-24.3,4.3-37.2c-4.5-27.6-30.8-57.7-14.5-86C180.7,153.9,178.1,152.4,177.1,154
				L177.1,154z"/>
		</g>
	</g>
	<g>
		<g>
			<path class="st6" d="M205.7,143.5c-18.5,13-13.5,38.4-6.8,56.4c5.2,14,10.2,27.1,9.1,42.3c-0.9,13-2,24.5,3.1,36.8
				c5.5,13.2,12.5,24.7,12.1,39.6c-0.3,13.1-4.2,25.8-5.5,38.8c-1.3,12.5,1,23.7,6.3,35.1c5.2,10.9,12.2,21.3,14.5,33.3
				c3.2,16.7-5.6,33.4-9.3,49.4c-3.8,16.3-5.7,32.9-5.9,49.6c0,1.9,3,1.9,3,0c0.2-15.2,1.8-30.3,5-45.1c2.9-13.7,8.8-26.9,10.5-40.8
				c3.1-24.6-17.3-42-21-65.1c-4-25.3,11.2-50,2.2-75.1c-4.4-12.2-12.3-23.1-13.2-36.4c-0.9-13.5,2.9-26.5-0.3-40
				c-3.2-13.8-10.5-26.3-13-40.3c-2.3-12.7-0.8-28,10.6-36C208.8,145,207.3,142.4,205.7,143.5L205.7,143.5z"/>
		</g>
	</g>
	<g>
		<g>
			<path class="st6" d="M216.9,137.1c5,23.9,9.6,48,5.8,72.5c-1.5,9.5-3.3,18.8-1.9,28.4c1.4,9.6,5.4,18.6,9.2,27.4
				c4.4,10.1,8.3,20.1,9.5,31.1c1.2,10.5,0.4,21.1-0.8,31.5c-2.4,20.5-6.5,41-3.5,61.7c3.5,24.1,15.7,50.3,2.8,73.7
				c-0.9,1.7,1.7,3.2,2.6,1.5c10.2-18.4,5.5-39.5,1-58.8c-2.7-11.5-4.7-22.8-4.5-34.6c0.2-11,1.8-21.9,3.2-32.8
				c2.8-20.8,4.9-41.7-2.5-61.9c-3.6-9.8-8.6-19.1-11.7-29.1c-3.6-11.4-3-22.1-1.1-33.8c4.3-26.5,0.2-51.7-5.2-77.7
				C219.4,134.4,216.5,135.2,216.9,137.1L216.9,137.1z"/>
		</g>
	</g>
	<g>
		<g>
			<path class="st6" d="M189,152.4c-8.4,20.6-0.1,42.4,1.7,63.4c0.5,5.7,0.6,11.5-0.3,17.1c-1,6.2-3.8,11.7-5.3,17.7
				c-2.5,9.2,0.3,17.6,4.8,25.6c5.2,9.1,12.4,18,12.7,28.9c0.4,11.7-6.2,22.4-9.2,33.4c-3,11.1-1.3,22,0.5,33.1
				c1,6.2,1.9,12.4,1.5,18.7c-0.5,7.1-3,13.7-6.1,20c-5.9,12.1-12.4,23.2-14.8,36.7c-2.3,12.8-1.7,25.9,1.7,38.4
				c0.5,1.9,3.4,1.1,2.9-0.8c-3.4-12.6-4-25.8-1.4-38.5c2.5-12.5,8.7-23,14.2-34.2c4.9-10,7.4-19.9,6.3-31.1
				c-1.1-12.2-5.1-24.4-3-36.7c1.9-11.2,8.1-21.1,9.9-32.3c1.5-9.5-1.3-17.9-6.1-26c-4.8-8.3-11.7-16.8-12.1-26.8
				c-0.3-6.2,2.5-11.8,4.4-17.6c1.6-5.1,2.5-10.3,2.6-15.6c0.8-24.2-11.7-49-2.2-72.6C192.7,151.4,189.8,150.7,189,152.4L189,152.4z
				"/>
		</g>
	</g>
	<g>
		<g>
			<path class="st6" d="M48.7,158.5c-5,11-1.3,22.4,3.7,32.7c2.9,6.1,6.2,12,8,18.5c1.9,7.2,1.2,14.3-0.7,21.4
				c-3.2,11.6-9.1,22.4-10.5,34.4c-1.4,12.2,2.9,23.9,8.2,34.7c6.5,13.1,13.7,25.6,18.4,39.5c4.5,13.4,7.4,27.5,8.4,41.6
				c1,13.6-0.6,26.9-1.3,40.4c-0.7,12.3,0.8,23.9,7.9,34.3c4,5.9,8.2,11.4,11.2,18c3,6.7,5,13.9,6.4,21.1c2.7,15,2.6,30.4,2.3,45.6
				c0,1.9,3,1.9,3,0c0.4-23.8,0.6-49.3-10.5-71.1c-2.8-5.4-6.4-10.1-9.8-15.1c-4.4-6.4-6.8-13.2-7.4-20.9
				c-1.1-13.2,1.6-26.5,1.7-39.7c0.1-26.6-6.1-53-18-76.8c-5.8-11.6-13.1-22.8-16.2-35.5c-3.5-13.8,0.9-26.1,5.6-39
				c4.7-12.9,7.8-25.3,2.7-38.6c-5.3-13.8-17.4-28.7-10.4-44C52.1,158.3,49.5,156.8,48.7,158.5L48.7,158.5z"/>
		</g>
	</g>
	<g>
		<g>
			<path class="st6" d="M105.3,163.1c-8.7,16.4-7.2,36.4,2,52c5.6,9.5,12.8,18.4,15.4,29.4c3.2,13.8-0.9,27.9-3.2,41.5
				c-3.8,23.2-3.1,47.1,3.1,69.8c3.4,12.5,10,24.5,11.4,37.6c1.4,12.7-2.7,25.1-5.1,37.4c-2.5,12.8-2,25.1-0.1,38
				c2,14.1,4.5,28.3,0.5,42.3c-0.5,1.9,2.4,2.7,2.9,0.8c6.6-22.9-3.7-45.8-2-68.9c0.9-12.5,5.3-24.5,6.7-37
				c1.4-11.9-1.4-22.7-5.5-33.8c-8.7-23.7-12.8-47.9-10.5-73.1c2.1-23,11.6-45.9,0-67.8c-5.6-10.6-14.4-20.1-17.1-32.1
				c-2.5-11.2-1.2-24.4,4.2-34.6C108.8,162.9,106.2,161.3,105.3,163.1L105.3,163.1z"/>
		</g>
	</g>
	<g>
		<g>
			<path class="st6" d="M8.2,138.9c9.4,7.5,20.2,16.2,23.1,28.5c1.7,6.9-0.3,13.6-0.7,20.5c-0.3,5.5,0.7,10.8,2.8,15.9
				c3.9,9.7,10.7,17.8,15.2,27.1c2.7,5.6,4.2,11.5,3.9,17.8c-0.4,8-3.1,15.6-4.5,23.4c-2.3,13-2.2,26.4,0.1,39.4
				c2.4,13.5,8.1,25.8,12.5,38.6c2.2,6.4,4,13,4.6,19.7c0.7,7.6-0.1,15.2-0.9,22.7c-0.7,6.9-1.5,13.8-1.1,20.8
				c0.4,6.8,2,13.3,3.8,19.8c2.2,8,4.5,15.9,5,24.3c0.4,8-0.2,16.1,0.8,24.1c1.7,13.8,7.1,26.9,15.5,38c1.1,1.5,3.8,0,2.6-1.5
				c-8.8-11.6-14.3-25.3-15.4-39.9c-0.5-6.9-0.1-13.8-0.5-20.8c-0.4-6.8-1.8-13.4-3.6-19.9c-1.9-6.7-4-13.4-4.8-20.4
				c-0.9-7.5-0.2-15.2,0.6-22.7c1.4-13.8,2-26.8-2-40.2c-3.8-12.9-9.8-25-12.9-38.2c-3.5-14.7-3.8-30.2-0.9-45
				c2.4-12.5,6.7-24.4,2-36.9c-3.7-10-10.7-18.3-15.4-27.8c-3.2-6.5-4.7-13-4.1-20.3c0.6-7.1,2.1-13.9,0-20.9
				c-3.6-12.1-14-20.8-23.5-28.4C8.9,135.6,6.7,137.7,8.2,138.9L8.2,138.9z"/>
		</g>
	</g>
	<g>
		
			<linearGradient id="SVGID_17_" gradientUnits="userSpaceOnUse" x1="142.2683" y1="503.6177" x2="142.2683" y2="168.0997" gradientTransform="matrix(-1 0 0 1 246.6806 0)">
			<stop  offset="0" style="stop-color:#B74BA3"/>
			<stop  offset="2.909771e-02" style="stop-color:#B4489F"/>
			<stop  offset="0.1117" style="stop-color:#AF4298"/>
			<stop  offset="1" style="stop-color:#F795FF"/>
		</linearGradient>
		<path class="st10" d="M91.5,168.1c-3.5,11.6-6.9,23.9-4.1,35.7c3.2,13.5,14.3,24.3,16.3,38.1c1.9,12.8-4.5,25.6-3.7,38.5
			c0.6,9.7,5.3,18.8,5.8,28.5c0.6,11.7-4.8,23.4-3.1,35c1.2,8.2,5.9,15.5,8.1,23.5c4.1,14.8-0.6,31,3.6,45.7
			c1.6,5.5,4.3,10.9,3.5,16.5c-0.7,4.5-3.6,8.5-4.1,13.1c-1.3,12.9,16.9,20.7,17.2,33.6c0.2,9.5-9.6,18.9-5,27.3
			c-4.2-2.9-5.8-8.9-3.7-13.5c2-4.4,7.1-8.3,5.7-12.9c-0.5-1.7-1.9-3-3.2-4.3c-6.1-6.1-11.2-13-15.3-20.6c-1.7-3.1-3.2-6.6-2.8-10.1
			c1-9.9,15.5-15.2,14.3-25.1c-0.8-7-9.1-10.5-12.4-16.7c-6.6-12.2,8.3-26.8,4.5-40.1c-2.8-9.8-15.1-16.2-14.1-26.4
			c0.8-8,10-14.1,8.4-22c-0.5-2.3-1.8-4.4-3.1-6.4c-3.6-5.6-6.8-11.7-7.8-18.3c-0.8-5.4-0.2-11,0.1-16.5c0.7-15.3-1.7-30.8-7.1-45.1
			c-2-5.4-4.5-10.7-4.7-16.4c-0.1-3.4,0.5-6.7,0.7-10.1c0.7-10-2.1-20.2-7.8-28.4"/>
	</g>
	<g>
		
			<linearGradient id="SVGID_18_" gradientUnits="userSpaceOnUse" x1="125.6827" y1="174.7371" x2="125.6827" y2="27.4482" gradientTransform="matrix(-1 0 0 1 246.6806 0)">
			<stop  offset="0" style="stop-color:#B74BA3"/>
			<stop  offset="5.936865e-02" style="stop-color:#C359B4"/>
			<stop  offset="0.1756" style="stop-color:#D66FCF"/>
			<stop  offset="0.3022" style="stop-color:#E580E4"/>
			<stop  offset="0.4425" style="stop-color:#EF8CF3"/>
			<stop  offset="0.6073" style="stop-color:#F593FC"/>
			<stop  offset="0.8567" style="stop-color:#F795FF"/>
		</linearGradient>
		<path class="st11" d="M72.5,168.4c41.5,2.5,83.4-2.3,123.3-13.8c15.6-4.5,32.5-11.6,38.6-26.7c6.2-15.4-1.7-32.9-11.8-46.1
			c-30.4-39.7-83.5-60.7-132.8-52.6c-9,1.5-17.9,3.8-25.9,8.1c-7.5,4-14,9.6-20.4,15.2C37.3,58,31.1,63.6,25.7,70
			C14.5,83.3,7.5,100.1,5.7,117.4c-0.5,4.8-0.6,9.6,0.4,14.3c1.1,5.3,3.7,10.3,6.9,14.7c12.6,17.6,34.7,26.4,56.3,28
			s43-3.1,64.2-7.8c13.4-3,26.8-5.9,40.2-8.9"/>
	</g>
	<g>
		<g>
			<path class="st6" d="M172.4,159.3c7.4,5.9,14.6-0.9,19.2-6.8c-0.9-0.1-1.8-0.2-2.7-0.4c1.3,4.7,6.9,5.3,10.8,3.3
				c3.8-2,6-5.6,10.5-6.5c3.8-0.7,6.7-1.3,10.1-3.5c5.8-3.7,11.7-8.2,14.5-14.7c3.1-7.2,2.8-15.7,1.5-23.3
				c-5.8-32.5-36.6-56.3-65.1-68.9c-30.6-13.5-66.1-17.2-98-6.1c-17.8,6.2-32.7,19.6-45.6,33C15,78.4,4.3,96.3,0.8,114.3
				c-3.7,19.3,5.6,36.9,21,48.2c9.2,6.8,39.5,24.4,44.9,4.8c-0.8,0.2-1.7,0.4-2.5,0.7c8.5,10,25.4,14.9,33.5,1.6c-0.9,0-1.7,0-2.6,0
				c3,5.7,10.2,8.4,16.2,5.8c5.1-2.2,4.8-6.8,11.9-5.2c3.8,0.9,6.9,1.6,10.9,0.5c1.6-0.5,3.2-1.2,4.6-2.1c1.7-1.1,2.7-3,4.2-4.1
				c3.2-2.3,7.7-0.3,11.1,0.1c2.3,0.3,4.6,0.5,6.9,0.5c10.2,0.1,20.1-2.7,28.8-7.8c1.7-1,0.2-3.6-1.5-2.6
				c-8.6,4.9-18.2,7.6-28.1,7.3c-4.6-0.1-8.9-1.5-13.4-2c-3.7-0.4-4.9,1.4-7.3,3.9c-3.4,3.6-8.5,5.2-13.3,4c-3-0.7-5.6-2.8-8.7-1.4
				c-3.2,1.4-4.5,5.1-7.9,6.3c-4.5,1.5-9.6-0.7-11.7-4.9c-0.5-1-2-0.9-2.6,0c-7.2,11.7-21.7,6.2-28.8-2.2c-0.7-0.9-2.2-0.4-2.5,0.7
				c-4.9,17.9-38.2-4-45.5-10.7C5.5,144,0.1,127.6,4.8,110.6c4.4-15.9,13.5-31.3,24.9-43.1C35.1,62,41,56.9,46.9,51.9
				c6.6-5.7,13.3-10.9,21.4-14.4c26.8-11.4,57.8-10.9,85.3-2.4c26.7,8.2,53.4,24.4,69.2,47.9c8.3,12.4,15.2,30.5,9.7,45.4
				c-2.9,7.8-12.9,16.2-21.1,17.3c-2.7,0.4-4.8,0.7-7.1,2.3c-2.1,1.5-10.6,9.8-12.5,3.2c-0.4-1.4-2-1.3-2.7-0.4
				c-3.1,4.1-8.8,10.7-14.5,6.2C173,156,170.9,158.1,172.4,159.3L172.4,159.3z"/>
		</g>
	</g>
	<g>
		<g>
			<path class="st6" d="M57.5,169.7c-16.4-0.9-30.6-10-42.4-20.8c-7-6.4-10.3-13.5-11.3-23c-0.9-9,0.3-18,3.2-26.5
				c0.6-1.8-2.3-2.6-2.9-0.8c-5.8,16.9-6,38.2,7.7,51.3c12.6,11.9,28,21.8,45.7,22.8C59.4,172.8,59.4,169.8,57.5,169.7L57.5,169.7z"
				/>
		</g>
	</g>
	<g>
		<g>
			<path class="st6" d="M28.9,62.6c-16.2,18.5-30,45.5-24.4,70.7c2.7,12,10.4,21.1,20.4,27.9c11.1,7.6,24.4,13.4,38.1,11.9
				c1.9-0.2,1.9-3.2,0-3c-12.7,1.4-24.8-3.8-35.3-10.6C17.4,152.8,9.4,143.5,7.1,131C2.9,107.2,15.8,82.2,31,64.7
				C32.3,63.3,30.2,61.2,28.9,62.6L28.9,62.6z"/>
		</g>
	</g>
	<g>
		<g>
			<path class="st6" d="M191.3,152.8c6.8-24.8,1.6-51.3-11.2-73.3c-12.8-21.9-32.4-39-53.8-52.2c-1.6-1-3.2,1.6-1.5,2.6
				c20.5,12.7,39.3,28.9,51.9,49.8c13,21.5,18.4,47.8,11.7,72.4C187.9,153.8,190.8,154.6,191.3,152.8L191.3,152.8z"/>
		</g>
	</g>
	<g>
		<g>
			<path class="st6" d="M145.9,159.5c1.6-22.4,3.2-45.1-1.3-67.3C140,69.3,127,49.8,115.5,29.8c-1-1.7-3.6-0.2-2.6,1.5
				c11.3,19.7,24.3,39.1,28.8,61.7c4.4,21.9,2.8,44.4,1.2,66.5C142.8,161.5,145.8,161.5,145.9,159.5L145.9,159.5z"/>
		</g>
	</g>
	<g>
		<g>
			<path class="st6" d="M119.3,166.1c-11.8-21.8-15.6-46.5-17.2-71c-1.4-22.1-3.7-47.4,9.6-66.5c1.1-1.6-1.5-3.1-2.6-1.5
				c-13.6,19.6-11.4,45.5-10,68c1.6,25,5.5,50.2,17.6,72.5C117.6,169.3,120.2,167.8,119.3,166.1L119.3,166.1z"/>
		</g>
	</g>
	<g>
		<g>
			<path class="st6" d="M112.7,30.3c1.9,0,1.9-3,0-3C110.8,27.3,110.8,30.3,112.7,30.3L112.7,30.3z"/>
		</g>
	</g>
	<g>
		<g>
			<path class="st6" d="M98.6,167c-9.9-23.9-20.2-48.7-20.1-75c0.1-11.7,2.2-23.7,7.2-34.3c5.7-12.1,14.9-20.8,25.5-28.6
				c1.5-1.1,0-3.7-1.5-2.6c-10.1,7.4-19.3,15.7-25.2,26.9c-5.5,10.4-8.2,22.2-8.8,33.9c-1.5,28.2,9.5,55,20.1,80.5
				C96.4,169.5,99.3,168.7,98.6,167L98.6,167z"/>
		</g>
	</g>
	<g>
		<g>
			<path class="st6" d="M68.6,166.5C46.4,147.2,35.8,117,43.4,88.3c4-15.1,12.7-27.7,24.2-38.2c11-10,26.6-24.5,42.8-20
				c1.9,0.5,2.7-2.4,0.8-2.9c-15.9-4.5-30.4,7.6-41.7,17.2c-12.7,10.9-23,23.7-28,39.9c-9.5,30.5,1.2,63.6,25,84.4
				C67.9,169.9,70,167.8,68.6,166.5L68.6,166.5z"/>
		</g>
	</g>
	<g>
		<g>
			<path class="st6" d="M108.4,170.3c-1.8,0.8-3.9,0.7-5.7-0.1c-1.7-0.8-3.3,1.8-1.5,2.6c2.9,1.3,5.8,1.4,8.7,0.1
				C111.7,172.1,110.2,169.6,108.4,170.3L108.4,170.3z"/>
		</g>
	</g>
	<g>
		<g>
			<path class="st6" d="M105.7,173.2c2.8,0.5,5.5-0.3,7.4-2.5c1.3-1.4-0.8-3.6-2.1-2.1c-1.1,1.3-2.8,2-4.5,1.7
				C104.6,170,103.8,172.9,105.7,173.2L105.7,173.2z"/>
		</g>
	</g>
	<g>
		<g>
			<path class="st6" d="M102.1,169.1c-1.6-1.2-3.2-2.4-4.8-3.5c-0.7-0.5-1.7-0.1-2.1,0.5c-0.5,0.8-0.1,1.6,0.5,2.1
				c1.6,1.2,3.2,2.4,4.8,3.5c0.7,0.5,1.7,0.1,2.1-0.5C103.1,170.4,102.7,169.6,102.1,169.1L102.1,169.1z"/>
		</g>
	</g>
	<g>
		<g>
			<path class="st6" d="M116.2,170.2c0.2-0.2,0.4-0.4,0.6-0.6c0.6-0.6,0.6-1.5,0-2.1c-0.6-0.6-1.5-0.6-2.1,0
				c-0.2,0.2-0.4,0.4-0.6,0.6c-0.6,0.6-0.6,1.5,0,2.1C114.6,170.8,115.6,170.8,116.2,170.2L116.2,170.2z"/>
		</g>
	</g>
	<g>
		<g>
			<path class="st6" d="M117.1,168.4c7.7,1.7,15.3,0.6,22.2-3.4c1.7-1,0.2-3.6-1.5-2.6c-6.1,3.5-12.9,4.6-19.9,3.1
				C116,165,115.2,167.9,117.1,168.4L117.1,168.4z"/>
		</g>
	</g>
	<g>
		<g>
			<path class="st6" d="M140.5,163.8c1.2-0.8,2.4-1.6,3.6-2.4c0.7-0.4,1-1.3,0.5-2.1c-0.4-0.7-1.4-1-2.1-0.5
				c-1.2,0.8-2.4,1.6-3.6,2.4c-0.7,0.4-1,1.3-0.5,2.1C138.8,164,139.8,164.3,140.5,163.8L140.5,163.8z"/>
		</g>
	</g>
	<g>
		<g>
			<path class="st6" d="M143.5,161.3c12.1,3.3,24.5,2.9,36.3-1.3c1.8-0.6,1-3.5-0.8-2.9c-11.3,4-23.2,4.5-34.8,1.3
				C142.4,157.9,141.6,160.8,143.5,161.3L143.5,161.3z"/>
		</g>
	</g>
	<g>
		<g>
			<path class="st6" d="M166.4,162.5c7.9-3.1,15.7-6.1,23.6-9.2c1.8-0.7,1-3.6-0.8-2.9c-7.9,3.1-15.7,6.1-23.6,9.2
				C163.8,160.3,164.6,163.2,166.4,162.5L166.4,162.5z"/>
		</g>
	</g>
	<g>
		<g>
			<path class="st6" d="M182.1,157.4c0.8-0.2,1.6-0.4,2.4-0.6c0.8-0.2,1.3-1.1,1-1.8c-0.2-0.8-1.1-1.2-1.8-1
				c-0.8,0.2-1.6,0.4-2.4,0.6c-0.8,0.2-1.3,1.1-1,1.8C180.5,157.1,181.3,157.6,182.1,157.4L182.1,157.4z"/>
		</g>
	</g>
	<g>
		<g>
			<path class="st6" d="M182,157.5c3.8-1.6,6.8-4.4,8.8-8c1-1.7-1.6-3.2-2.6-1.5c-1.8,3.2-4.4,5.5-7.8,6.9
				C178.7,155.7,180.2,158.3,182,157.5L182,157.5z"/>
		</g>
	</g>
	<g>
		<g>
			<path class="st6" d="M64,169.9c1.6,1,3.2,2,4.8,2.9c1.7,1,3.2-1.6,1.5-2.6c-1.6-1-3.2-2-4.8-2.9C63.8,166.3,62.3,168.9,64,169.9
				L64,169.9z"/>
		</g>
	</g>
	<g>
		<g>
			<path class="st6" d="M60.1,173.2c1.9,0.3,3.8,0.3,5.6-0.3c1.8-0.6,1.1-3.5-0.8-2.9c-1.3,0.4-2.6,0.5-4,0.3
				C59,170,58.2,172.9,60.1,173.2L60.1,173.2z"/>
		</g>
	</g>
	<g>
		<g>
			<path class="st6" d="M62.7,175.4c2.5-0.5,4.8-1.7,6.6-3.4c1.4-1.3-0.7-3.4-2.1-2.1c-1.5,1.4-3.3,2.3-5.3,2.7
				C60.1,172.9,60.9,175.8,62.7,175.4L62.7,175.4z"/>
		</g>
	</g>
	<g>
		<g>
			<path class="st6" d="M67.3,172.4c3.1,1.2,5.9,2.8,8.6,4.7c1.6,1.1,3.1-1.5,1.5-2.6c-2.9-2.1-6-3.7-9.3-5
				C66.3,168.8,65.6,171.7,67.3,172.4L67.3,172.4z"/>
		</g>
	</g>
	<path class="st12" d="M168.7,164.7"/>
</g>
</svg>
