<?xml version="1.0" encoding="utf-8"?>
<!-- Generator: Adobe Illustrator 23.0.3, SVG Export Plug-In . SVG Version: 6.00 Build 0)  -->
<svg version="1.1" id="Layer_1" xmlns="http://www.w3.org/2000/svg" xmlns:xlink="http://www.w3.org/1999/xlink" x="0px" y="0px"
	 viewBox="0 0 493.7 211.1" style="enable-background:new 0 0 493.7 211.1;" xml:space="preserve" width="164.57" height="70.37">
<style type="text/css">
	.st0{fill:#F43D00;}
	.st1{fill:#020100;}
	.st2{fill:#FFFFFF;}
	.st3{fill:#C21D00;}
	.st4{fill:#FFB8C4;}
</style>
<g>
	<g>
		<path class="st0" d="M203.5,158.8c35.1,10.6,73.4,10.6,108.5,0.1c9.1-2.7,18.2-6.3,25.5-12.3c10.4-8.7,16.2-21.6,20.9-34.4
			c5.7-15.6,10.1-33,4.1-48.4c-5.2-13.1-17.4-22.6-30.6-27.5c-13.2-4.9-27.6-5.8-41.7-6.4c-31.6-1.2-63.3-0.4-94.8,2.2
			c-5,0.4-10.1,0.9-14.4,3.5c-8.3,5-10.7,15.9-11.3,25.6c-1.9,34.2,9.6,68.9,31.4,95.3"/>
	</g>
	<g>
		<path class="st0" d="M362.8,64.2c28.2,12.9,58.7,20.1,88.9,27.1c2.1,0.5,4.5,1.2,5.6,3.1c1.1,2,0.2,4.6-1.4,6.2
			c-1.7,1.6-3.9,2.3-6.1,3c-11.6,3.6-23.6,6.3-35.6,8c-8.2,1.2-16.7,1.9-24.7-0.3c-9.6-2.7-17.9-9.8-22.1-18.9"/>
	</g>
	<g>
		<g>
			<path class="st0" d="M366.5,89.5c-0.4-0.8-0.8-1.6-1.2-2.5c-0.4-0.7-1.4-0.9-2.1-0.5c-0.7,0.4-0.9,1.3-0.5,2.1
				c0.4,0.8,0.8,1.6,1.2,2.5c0.4,0.7,1.4,0.9,2.1,0.5C366.7,91.1,366.8,90.2,366.5,89.5L366.5,89.5z"/>
		</g>
	</g>
	<g>
		<path class="st0" d="M456.5,98.9c1.2,14.2-3.1,28.2-8.1,41.5c-5.5,14.6-12.2,29.1-23.4,40.1c-7.2,7.1-15.9,12.3-24.6,17.5
			c8-10,8-24.1,7.6-36.9c-11.9,8.5-22.5,18.7-31.4,30.3c-3.5-9-3-19.1-0.7-28.5c6.9-28.2,30.3-51.7,58.5-58.5"/>
	</g>
	<g>
		<path class="st0" d="M173,99.3c-7.8,4.2-13.5,11.7-21.5,15.4c-6.1,2.8-12.9,3.3-19.6,3.7c-10.7,0.6-21.5,1.3-32.2,1.9
			c-2.7,0.2-5.5,0.3-8-0.7c-4.6-1.9-6.7-7-8.3-11.7c-0.5-1.7-1.1-3.5-0.7-5.2c0.5-2.7,2.9-4.5,5.1-6.1
			c24.1-16.5,53.1-25.6,82.3-25.9"/>
	</g>
	<g>
		<path class="st0" d="M93.7,119.8c26.3,18.8,42.1,51.4,40.6,83.7c-4.7-9.1-11.1-17.3-18.8-24.1c-0.7-0.7-1.6-1.3-2.6-1.3
			c-1.2,0.1-2.1,1.2-2.8,2.3c-5.6,9.1-8.5,19.9-8.1,30.6c-13-10.2-18.6-27.6-19.1-44.2s3.3-32.9,5.5-49.4"/>
	</g>
	<g>
		<path class="st0" d="M171.7,61.5C131,48.8,88.6,41.8,46,41c-14.2-0.3-30.9,1.4-38.6,13.3"/>
	</g>
	<g>
		<g>
			<path class="st0" d="M166.5,67.5c-27.6,0.6-55.1-1.9-82.1-7.6c-12.2-2.6-24.3-5.8-36.8-6.7c-13.1-1-26.2,0.1-39.1,2.9
				c-1.9,0.4-1.1,3.3,0.8,2.9c13.5-3,27.3-3.9,41.1-2.5c13.1,1.3,25.9,5,38.8,7.5c25.4,5,51.4,7.1,77.3,6.6
				C168.4,70.5,168.4,67.5,166.5,67.5L166.5,67.5z"/>
		</g>
	</g>
	<g>
		<path class="st0" d="M14.6,58.1c-5.5,30.1-5.2,61.2,1,91.1c-13.4-9.9-16.8-28.7-15.2-45.3S7.3,71,6.9,54.4"/>
	</g>
	<g>
		<path class="st0" d="M124.2,80.1c-27.4-11.4-58.6-13.7-87.4-6.5"/>
	</g>
	<g>
		<path class="st0" d="M118.2,85.1c-21.7-2.9-43.8-5.9-65.2-1.4c-4.2,0.9-8.5,2-12.6,0.7s-7.3-6.2-5.1-9.8"/>
	</g>
	<g>
		<path class="st0" d="M38.9,82.7c-4.2,21.3-4.8,43.2-1.7,64.7c-7.2-4.4-11.3-12.6-12.6-20.8c-1.3-8.3-0.1-16.7,1.2-25
			c1.6-10.1,3.5-20.6,9.5-29"/>
	</g>
	<g>
		<path class="st0" d="M343.1,40.9c16.5-9.8,35.9-13.6,55.1-13.9c19.1-0.3,38.2,2.7,57.1,5.7c8.1,1.3,16.9,2.9,22.3,9.1
			c-1,2.8-4.7,3.2-7.6,3c-19.1-1-38-4.5-57.2-4.7c-19.1-0.2-39.1,3.4-54.2,15.1"/>
	</g>
	<g>
		<path class="st0" d="M480.2,43.2c11.3,15.7,13.4,36.1,13.6,55.4c0.2,22.2-1.7,44.5-5.7,66.3c6.7-41.2-2.8-84.8-26.2-119.4"/>
	</g>
	<g>
		<g>
			<path class="st0" d="M364.1,62.1c1.9,0,1.9-3,0-3C362.1,59.1,362.1,62.1,364.1,62.1L364.1,62.1z"/>
		</g>
	</g>
	<g>
		<path class="st0" d="M360.5,55.2c29.4-5.5,60.3-3.1,88.5,6.8c0.6,0.2,1.2,0.4,1.6,0.9c1.8,2-1.7,4.4-4.4,4.7
			c-27,2.7-54.7-9-81-2.3"/>
	</g>
	<g>
		<g>
			<path class="st0" d="M451.5,66.4c3.3,6,1.8,13.3-3.4,17.8c-1.5,1.3,0.7,3.4,2.1,2.1c6.2-5.3,7.8-14.3,3.9-21.4
				C453.2,63.1,450.6,64.7,451.5,66.4L451.5,66.4z"/>
		</g>
	</g>
	<g>
		<path class="st0" d="M438.2,86.7c6-2.4,8.5-10.9,4.7-16.1"/>
	</g>
	<g>
		<g>
			<path class="st0" d="M443.6,68.7c-0.4-1.2-0.8-2.5-1.2-3.7c-0.6-1.8-3.5-1-2.9,0.8c0.4,1.2,0.8,2.5,1.2,3.7
				C441.3,71.4,444.2,70.6,443.6,68.7L443.6,68.7z"/>
		</g>
	</g>
	<g>
		<path class="st0" d="M353.1,125.7c8.6,9.8,8.2,26.3-1,35.6c0.5-8-1.3-16-5.3-23"/>
	</g>
	<g>
		<path class="st0" d="M351.8,159.4c-2.1,10.5-4.9,20.8-8.4,30.9c-4-12.5-2.2-26.7,4.9-37.7"/>
	</g>
	<g>
		<path class="st0" d="M195.7,150.5c-3.1,6.3-6.2,12.6-9.4,19c-5.5-9.7-5.7-22.1-0.6-32"/>
	</g>
	<g>
		<path class="st0" d="M187.7,166.7c1.9,11.5,3.8,23,5.7,34.5c-9.7-9.6-12.8-25.3-7.5-37.8"/>
	</g>
	<g>
		<path class="st0" d="M330.2,154.6c3.6,11.5-3.5,25.2-14.9,28.9c5.3-6.7,6.7-16.3,3.6-24.3"/>
	</g>
	<g>
		<path class="st0" d="M211.2,161.8c-0.4,8.6,2.2,17.3,7.2,24.2c-6.2,1.1-12.2-4.1-14.2-10.2c-2-6-1-12.6-0.1-18.8"/>
	</g>
	<g>
		<g>
			<path class="st0" d="M172.6,62.5c-18.7-1.5-37.3-0.9-55.8,1.7c-1.9,0.3-1.1,3.2,0.8,2.9c18.3-2.5,36.7-3.1,55.1-1.6
				C174.5,65.7,174.5,62.7,172.6,62.5L172.6,62.5z"/>
		</g>
	</g>
	<g>
		<g>
			<path class="st0" d="M366.4,65.6c-3.3-2.6-5.2-6.6-4.6-10.8c0.3-1.9-2.6-2.7-2.9-0.8c-0.7,5.3,1.1,10.4,5.3,13.8
				C365.8,68.9,367.9,66.8,366.4,65.6L366.4,65.6z"/>
		</g>
	</g>
	<g>
		<g>
			<path class="st0" d="M363,86.3c0.4,0.4,0.8,0.8,1.2,1.2c0.6,0.6,1.5,0.6,2.1,0c0.6-0.6,0.6-1.5,0-2.1c-0.4-0.4-0.8-0.8-1.2-1.2
				c-0.6-0.6-1.5-0.6-2.1,0C362.4,84.8,362.4,85.8,363,86.3L363,86.3z"/>
		</g>
	</g>
	<g>
		<g>
			<path class="st0" d="M450,65.6c1.4,10.8-2.2,21.2-10.2,28.6c0.7,0.7,1.4,1.4,2.1,2.1c5.8-7,7.9-15.7,5.8-24.6
				c-0.3-1.3-2.1-1.4-2.7-0.4c-3.3,5.7-5.8,11.6-7.5,17.9c-0.4,1.4,1.5,2.6,2.5,1.5c3.2-3.4,5.1-7.2,5.8-11.9
				c0.2-1.3-1.4-2.7-2.5-1.5c-2.9,3.3-4.8,6.9-5.5,11.3c-0.3,1.5,1.3,2.5,2.5,1.5c6.5-6,9.3-14.2,8.1-22.9c-0.2-1.4-2.7-1.4-2.9,0
				c-0.9,6-1.7,11.9-2.6,17.9c-0.1,1,0.6,2.3,1.8,1.8c3.7-1.4,6-4.2,6.8-8.1c0.7-3.3,0.6-11-2.1-13.6c-2.2-2.1-5-0.7-6.5,1.3
				c-2.9,3.8,0.5,9-2.3,12.5c-1.2,1.5,0.9,3.6,2.1,2.1c2-2.4,2-4.9,1.8-8c-0.2-2-0.6-1.9,1.7-3c2.7-1.4,2.1,0.2,2.4,2.7
				c0.5,4.3,0.2,9.4-4.6,11.2c0.6,0.6,1.2,1.2,1.8,1.8c0.9-6,1.7-11.9,2.6-17.9c-1,0-1.9,0-2.9,0c1.1,7.6-1.7,14.8-7.3,20
				c0.8,0.5,1.7,1,2.5,1.5c0.7-3.9,2.1-7,4.8-10c-0.8-0.5-1.7-1-2.5-1.5c-0.6,4.1-2.1,7.5-5,10.5c0.8,0.5,1.7,1,2.5,1.5
				c1.7-6.1,4.1-11.8,7.2-17.2c-0.9-0.1-1.8-0.2-2.7-0.4c1.8,7.7,0.1,15.5-5,21.6c-1.2,1.5,0.7,3.5,2.1,2.1
				c8.5-7.9,12.6-19.2,11-30.7C452.7,63.7,449.7,63.7,450,65.6L450,65.6z"/>
		</g>
	</g>
	<g>
		<g>
			<path class="st0" d="M327.3,159.1c5.7-1.9,5.7-10.8-0.1-12.6c-0.6-0.2-1.4,0.1-1.7,0.7c-1.4,3.2-1.7,6.4-0.8,9.8
				c0.4,1.4,2.5,1.4,2.9,0c1.1-3.9,2.1-7.9,3.2-11.8c0.4-1.4-1.5-2.6-2.5-1.5c-3.6,4.1-6.6,8.7-8.7,13.7c0.7-0.2,1.4-0.4,2.1-0.5
				c-2.2-1.7-3.5-3.9-4.1-6.6c-0.4-1.9-3.3-1.1-2.9,0.8c0.8,3.5,2.7,6.2,5.5,8.4c0.6,0.5,1.8,0.1,2.1-0.5c2.1-4.8,4.8-9.2,8.3-13.1
				c-0.8-0.5-1.7-1-2.5-1.5c-1.1,3.9-2.1,7.9-3.2,11.8c1,0,1.9,0,2.9,0c-0.7-2.6-0.6-5,0.5-7.5c-0.6,0.2-1.1,0.5-1.7,0.7
				c2.8,0.9,2.9,5.9,0.1,6.8C324.7,156.8,325.5,159.7,327.3,159.1L327.3,159.1z"/>
		</g>
	</g>
	<g>
		<g>
			<path class="st0" d="M191.9,145.7c3.9-3,6-7,5.9-11.9c0-1.1-1.3-2-2.3-1.3c-4.5,3.1-7.8,7-10,12c0.9,0.4,1.8,0.8,2.7,1.2
				c1.3-5.5,1.9-10.9,1.6-16.6c-0.1-2-2.8-1.9-3,0c-1.1,8.3-1.2,16.6-0.5,25c0.1,1.3,1.6,2,2.6,1.1c3.3-3.2,5.4-7,6.4-11.5
				c0.4-1.9-2.5-2.7-2.9-0.8c-0.8,4.1-2.6,7.3-5.6,10.2c0.9,0.4,1.7,0.7,2.6,1.1c-0.7-8.4-0.5-16.7,0.5-25c-1,0-2,0-3,0
				c0.2,5.4-0.2,10.5-1.5,15.8c-0.4,1.6,2,2.8,2.7,1.2c2-4.5,4.9-8.2,9-11c-0.8-0.4-1.5-0.9-2.3-1.3c0.1,3.8-1.3,7-4.4,9.3
				C188.9,144.3,190.4,146.9,191.9,145.7L191.9,145.7z"/>
		</g>
	</g>
	<g>
		<g>
			<path class="st0" d="M40.7,80.9c7.8,0.2,15.3-1.1,22.5-4c1.2-0.5,1.5-2,0.4-2.7c-5.2-3.8-11.8-3.9-17.2-0.3
				c-1.3,0.9-0.5,3.4,1.2,2.7c1.3-0.6,2.7-1.1,4-1.7c-0.4-0.9-0.8-1.8-1.2-2.7c-2.5,1.5-4.9,2.3-7.8,2.6c0.1,1,0.3,2,0.4,2.9
				c4.1-1,8.2-1.9,12.4-2.9c1.9-0.4,1.1-3.2-0.8-2.9c-7.2,1-14.3,2.1-21.5,3.1c0.3,1,0.5,1.9,0.8,2.9c15.2-2.8,30.5-3.9,45.9-3.3
				c-0.1-1-0.3-2-0.4-2.9c-4.7,1.9-9.5,3.8-14.2,5.7c-1.3,0.5-1.5,2.5,0,2.9c6.7,1.8,13.3,1.7,20-0.4c1.3-0.4,1.4-2,0.4-2.7
				c-7.7-5.9-17.6-6.8-26.4-2.9c-1.5,0.7-0.6,2.7,0.8,2.8c7.7,0.5,15.5,1,23.2,1.5c-0.1-1-0.3-2-0.4-2.9c-3.6,0.6-7.2,1.2-10.9,1.9
				c-1.7,0.3-1.3,3,0.4,2.9c12.8-0.1,25.6-0.8,38.3-2.2c1.9-0.2,2-3.1,0-3c-9.9,0.4-19.9,0.9-29.8,1.3c-1.6,0.1-2.1,2.6-0.4,2.9
				c9.6,2,19.3,3.9,28.9,5.9c1.5,0.3,2.5-1.4,1.5-2.5c-4.5-4.8-9.2-9.4-14.2-13.7c-0.5,0.8-1,1.7-1.5,2.5c6,1.9,11.6,4.3,17.1,7.3
				c0-0.9,0-1.7,0-2.6c-1.6,1-3.4,1.5-5.3,1.5c-1.7,0.1-2.1,2.5-0.4,2.9c3.4,1,6.5,1.3,10,0.9c-0.1-1-0.3-2-0.4-2.9
				c-4.7,1.4-9.4,2.7-14.1,4.1c0.5,0.8,1,1.7,1.5,2.5c2.8-2.8,6-4.3,10-4.9c1.7-0.2,1.3-3-0.4-2.9c-6.5,0.4-12.9,0.2-19.3-0.7
				c-1.9-0.2-1.9,2.8,0,3c6.4,0.8,12.8,1.1,19.3,0.7c-0.1-1-0.3-2-0.4-2.9c-4.5,0.6-8.1,2.5-11.3,5.7c-1.1,1,0,2.9,1.5,2.5
				c4.7-1.4,9.4-2.7,14.1-4.1c1.6-0.4,1.3-3.2-0.4-2.9c-3.2,0.4-6.1,0.2-9.2-0.8c-0.1,1-0.3,2-0.4,2.9c2.5-0.1,4.6-0.7,6.9-1.9
				c1-0.5,1-2.1,0-2.6c-5.7-3.1-11.6-5.7-17.8-7.6c-1.4-0.4-2.6,1.5-1.5,2.5c5,4.3,9.8,8.9,14.2,13.7c0.5-0.8,1-1.7,1.5-2.5
				c-9.6-2-19.3-3.9-28.9-5.9c-0.1,1-0.3,2-0.4,2.9c9.9-0.4,19.9-0.9,29.8-1.3c0-1,0-2,0-3c-12.7,1.4-25.5,2.1-38.3,2.2
				c0.1,1,0.3,2,0.4,2.9c3.6-0.6,7.2-1.2,10.9-1.9c1.8-0.3,1.2-2.8-0.4-2.9c-7.7-0.5-15.5-1-23.2-1.5c0.3,0.9,0.5,1.9,0.8,2.8
				c7.9-3.5,16.6-2.3,23.4,2.9c0.1-0.9,0.2-1.8,0.4-2.7c-6.1,2-12.2,2.1-18.4,0.4c0,1,0,1.9,0,2.9c4.7-1.9,9.5-3.8,14.2-5.7
				c1.5-0.6,1.4-2.9-0.4-2.9c-15.7-0.6-31.3,0.6-46.7,3.4c-1.9,0.4-1.1,3.2,0.8,2.9c7.2-1,14.3-2.1,21.5-3.1c-0.3-1-0.5-1.9-0.8-2.9
				c-4.1,1-8.2,1.9-12.4,2.9c-1.6,0.4-1.3,3.1,0.4,2.9c3.4-0.4,6.4-1.3,9.3-3.1c1.4-0.8,0.5-3.4-1.2-2.7c-1.3,0.6-2.7,1.1-4,1.7
				c0.4,0.9,0.8,1.8,1.2,2.7c4.6-3,9.7-2.8,14.1,0.3c0.1-0.9,0.2-1.8,0.4-2.7c-7,2.8-14.2,4.1-21.7,3.9
				C38.7,77.8,38.7,80.8,40.7,80.9L40.7,80.9z"/>
		</g>
	</g>
	<g>
		<g>
			<path class="st0" d="M54.7,76.7c2.1,1.5,4.2,2.2,6.7,2.5c0-1,0-2,0-3C56,75.9,50.8,74.6,46,72.3c-1.7-0.8-3.3,1.8-1.5,2.6
				c5.4,2.6,11,4,16.9,4.3c2,0.1,1.9-2.8,0-3c-2-0.2-3.6-0.9-5.2-2.1C54.6,73,53.1,75.6,54.7,76.7L54.7,76.7z"/>
		</g>
	</g>
	<g>
		<g>
			<path class="st0" d="M80.9,59.7c21.6,8,44.1,12.9,67.1,14.7c1.9,0.2,1.9-2.8,0-3c-22.7-1.8-44.9-6.7-66.3-14.6
				C79.9,56.1,79.1,59,80.9,59.7L80.9,59.7z"/>
		</g>
	</g>
	<g>
		<g>
			<path class="st0" d="M101,56.8c16.9,1.9,33.6,4.6,50.3,7.9c0.1-1,0.3-2,0.4-2.9c-8.1,0.7-16.1,1.4-24.2,2.1
				c-1.7,0.1-2,2.3-0.4,2.9c5.5,2.1,11,3.1,16.8,3.2c1.1,0,2-1.3,1.3-2.3c-1.9-2.7-3.8-5.4-5.7-8.1c-0.7,0.7-1.4,1.4-2.1,2.1
				c6.7,4.4,13.7,8,21.1,10.9c1.6,0.6,2.3-1.5,1.5-2.5c-5.4-6.9-10.9-13.9-16.3-20.8c-0.7,0.7-1.4,1.4-2.1,2.1
				c6.1,5.8,12.5,11.2,19.2,16.3c0.8,0.6,2,0,2.2-0.9c1-4.1-0.6-7.8-4.4-9.7c-1.2-0.6-2.5,0.4-2.2,1.7c0.6,2.8,2.2,5.1,4.8,6.6
				c1.2,0.6,2.5,1.1,3.8,1.2c0.6,0.1,3.7-0.4,2.8-0.5c-1.9-0.2-1.9,2.8,0,3c2.4,0.2,4.4-2.4,3.1-4.7c-0.5-0.9-1.3-1.1-2.2-1.4
				c-1.4-0.3-3.3,0.8-5.1,0.1c-2.4-0.9-3.8-2.7-4.3-5.1c-0.7,0.6-1.5,1.1-2.2,1.7c2.5,1.2,3.7,3.5,3,6.3c0.7-0.3,1.5-0.6,2.2-0.9
				c-6.5-4.9-12.7-10.2-18.6-15.8c-1.4-1.4-3.3,0.6-2.1,2.1c5.4,6.9,10.9,13.9,16.3,20.8c0.5-0.8,1-1.7,1.5-2.5
				c-7.2-2.8-13.9-6.4-20.4-10.6c-1.2-0.8-2.9,0.8-2.1,2.1c1.9,2.7,3.8,5.4,5.7,8.1c0.4-0.8,0.9-1.5,1.3-2.3
				c-5.6-0.1-10.8-1.1-16-3.1c-0.1,1-0.3,2-0.4,2.9c8.1-0.7,16.1-1.4,24.2-2.1c1.6-0.1,2.2-2.6,0.4-2.9c-16.9-3.4-33.9-6.1-51.1-8
				C99.1,53.5,99.1,56.5,101,56.8L101,56.8z"/>
		</g>
	</g>
	<g>
		<g>
			<path class="st0" d="M173,71.8c-22.4-5.4-45.2-8.2-68.2-8.3c-1.9,0-1.9,3,0,3c22.7,0.2,45.3,2.9,67.4,8.2
				C174.1,75.2,174.9,72.3,173,71.8L173,71.8z"/>
		</g>
	</g>
	<g>
		<g>
			<path class="st0" d="M175,71.1c-4.4-6.5-11.7-10.1-19.6-9.6c-1.9,0.1-1.9,3.1,0,3c6.8-0.4,13.1,2.5,17,8.1
				C173.5,74.2,176.1,72.7,175,71.1L175,71.1z"/>
		</g>
	</g>
	<g>
		<g>
			<path class="st0" d="M168.9,69.4c-5.1-4.5-11.5-6.9-18.4-6.6c-1.9,0.1-1.9,3.1,0,3c6.1-0.2,11.7,1.7,16.3,5.7
				C168.2,72.7,170.3,70.6,168.9,69.4L168.9,69.4z"/>
		</g>
	</g>
	<g>
		<g>
			<path class="st0" d="M164.8,74.1c-5-2.4-10-4.7-15-7.1c-1.7-0.8-3.3,1.8-1.5,2.6c5,2.4,10,4.7,15,7.1
				C165.1,77.5,166.6,74.9,164.8,74.1L164.8,74.1z"/>
		</g>
	</g>
	<g>
		<g>
			<path class="st0" d="M149.6,69.2c-2.9-0.8-5.8-1.6-8.7-2.4c-1.9-0.5-2.7,2.4-0.8,2.9c2.9,0.8,5.8,1.6,8.7,2.4
				C150.7,72.6,151.4,69.8,149.6,69.2L149.6,69.2z"/>
		</g>
	</g>
	<g>
		<g>
			<path class="st0" d="M164.1,69.7c-15.2,0.4-29.9-2.8-43.5-9.7c-1.7-0.9-3.2,1.7-1.5,2.6c14,7.1,29.3,10.5,45,10.1
				C166,72.7,166,69.7,164.1,69.7L164.1,69.7z"/>
		</g>
	</g>
	<g>
		<g>
			<path class="st0" d="M179.5,78c-22.8-14.4-49-22.1-75.9-22.5c-1.9,0-1.9,3,0,3c26.4,0.4,52.1,8,74.4,22.1
				C179.6,81.6,181.1,79,179.5,78L179.5,78z"/>
		</g>
	</g>
	<g>
		<g>
			<path class="st0" d="M137.3,63.9c-15.4-4.5-31.3-7-47.4-7.3c-1.9,0-1.9,3,0,3c15.8,0.3,31.4,2.7,46.6,7.2
				C138.4,67.4,139.2,64.5,137.3,63.9L137.3,63.9z"/>
		</g>
	</g>
	<g>
		<g>
			<path class="st0" d="M120.9,62.7c-11.7-0.4-23.1-2.4-34.2-6c-1.8-0.6-2.6,2.3-0.8,2.9c11.4,3.6,23.1,5.6,35,6.1
				C122.8,65.7,122.8,62.7,120.9,62.7L120.9,62.7z"/>
		</g>
	</g>
	<g>
		<g>
			<path class="st0" d="M102.4,57.1c-17.7,1.2-35.5,0.8-53.2-1.2c-1.9-0.2-1.9,2.8,0,3c17.7,2,35.4,2.4,53.2,1.2
				C104.3,60,104.3,57,102.4,57.1L102.4,57.1z"/>
		</g>
	</g>
	<g>
		<path class="st1" d="M324.3,69.1c9.5-18.8,9.2-42.3-0.7-60.9c-1.7-3.2-4-6.5-7.4-7.8S308,1,307.6,4.6c-0.3,2.5,1.5,4.8,3,6.9
			c5.4,7.9,6.8,18.4,3.8,27.4c-2.6,7.6-8.1,16-4,23c2.2,3.7,6.5,5.4,10.5,6.9"/>
	</g>
	<g>
		<path class="st1" d="M225.5,61.8c-1.3-16.4-2.6-33.5,3.3-48.8c1.1-2.9,2.5-6.1,1.4-9c-1.5-3.7-6.7-4.8-10.3-3
			c-3.6,1.8-5.9,5.5-7.6,9.1c-8.9,18.9-8.2,42,1.9,60.3c4.8-1.2,9-4.3,11.6-8.5"/>
	</g>
	<g>
		<g>
			<path class="st1" d="M325.2,69.4c-1.2-0.8-2.4-1.7-3.7-2.5c-0.7-0.5-1.7-0.1-2.1,0.5c-0.4,0.7-0.1,1.6,0.5,2.1
				c1.2,0.8,2.4,1.7,3.7,2.5c0.7,0.5,1.7,0.1,2.1-0.5C326.1,70.7,325.8,69.9,325.2,69.4L325.2,69.4z"/>
		</g>
	</g>
	<g>
		<g>
			<path class="st2" d="M312.6,8.1c0.4,1.6,1.2,3,2.2,4.2c0.5,0.6,1.6,0.5,2.1,0c0.6-0.6,0.5-1.5,0-2.1c-0.7-0.9-1.2-1.9-1.5-2.9
				C314.9,5.4,312,6.2,312.6,8.1L312.6,8.1z"/>
		</g>
	</g>
	<g>
		<g>
			<path class="st2" d="M224.2,4.6c-1.1,3.3-2.3,6.7-3.4,10c-0.6,1.8,2.3,2.6,2.9,0.8c1.1-3.3,2.3-6.7,3.4-10
				C227.7,3.5,224.8,2.8,224.2,4.6L224.2,4.6z"/>
		</g>
	</g>
	<g>
		<g>
			<path class="st3" d="M309.2,83.9c2.8-1.9,7.3-6.4,10.3-3.3c1.4,1.5,1.6,2.9,3.6,3.9c4.4,2.1,9.4-0.3,13.9,0
				c7.4,0.4,21.2,11.6,26.2,0c0.8-1.8-1.8-3.3-2.6-1.5c-3.1,7.2-12.1,2.1-16.9,0.2c-4.2-1.7-7.8-1.8-12.3-1.2c-3.5,0.4-6.7,1-9-2.3
				c-1.1-1.5-1.4-3.2-3.4-3.9c-3.7-1.2-8.5,3.7-11.3,5.5C306.1,82.4,307.6,85,309.2,83.9L309.2,83.9z"/>
		</g>
	</g>
	<g>
		<g>
			<path class="st3" d="M242.7,76.4c-4.4-3-8.8-6.2-13.4-9c-2.6-1.6-5.9-3.2-8.9-1.6c-1.9,1-2.9,2.9-3.5,4.8
				c-1.2,3.5-1.4,10-6.8,6.8c-3.5-2.1-7.5-7.4-11.5-2.8c-1.5,1.7-1.2,3.1-3.3,4.1c-2.7,1.2-6.3,0-9.1-0.7c-5.2-1.4-10-3.8-14.3-7
				c-1.6-1.1-3.1,1.5-1.5,2.6c6.6,4.8,15.2,8.7,23.5,8.7c3.1,0,4-0.9,5.7-3.2c0.9-1.2,2.1-3.2,4.1-2.8c0.7,0.1,1.6,1.1,2.1,1.5
				c1.1,0.8,2.1,1.8,3.2,2.5c4,2.4,7.8,1,9.3-3.4c0.5-1.3,0.7-2.7,1-4c1-3.8,4.2-5.4,7.8-3.4c4.9,2.7,9.4,6.3,14,9.4
				C242.8,80,244.3,77.4,242.7,76.4L242.7,76.4z"/>
		</g>
	</g>
	<g>
		<g>
			<path class="st3" d="M423.7,138.2c-3.5-0.9-6.7,0.8-8.4,4c-2.2,4.4-0.1,9.2,1.8,13.3c0.4-0.8,0.9-1.5,1.3-2.3
				c-8-0.8-14.9,5.5-15,13.5c0,1.9,3,1.9,3,0c0.1-6.5,5.7-11.1,12-10.5c1.2,0.1,1.7-1.3,1.3-2.3c-0.9-1.9-1.9-3.8-2.1-6
				c-0.3-2.8,0.2-8.2,5.3-6.9C424.8,141.6,425.6,138.7,423.7,138.2L423.7,138.2z"/>
		</g>
	</g>
	<g>
		<g>
			<path class="st3" d="M113.3,179c0.3-2.5-0.7-4.5-2.1-6.4c-0.8-1.1-1.7-2.1-2.6-3.1c-2-2.6-2.3-3.5-1-6.9c0.9-2.3,1.7-4,0.1-6.2
				c-0.9-1.2-2.2-2-3.5-2.6c-1.1-0.5-9.8-2.5-6.2-5.6c1.4-1.3-0.7-3.4-2.1-2.1c-2,1.7-2.2,4.4-0.6,6.6c3.3,4.8,11.2,1.3,9.1,9.8
				c-0.7,2.7-1.1,4.2,0.5,6.9c1.9,3.2,6,5.7,5.6,9.8C110.1,180.9,113.1,180.9,113.3,179L113.3,179z"/>
		</g>
	</g>
	<g>
		<path class="st4" d="M338.4,63.4c-2.8,2.3-2.1,7.5,1.2,9c3.3,1.5,7.7-1.5,7.5-5.1c-0.1-3.6-4.7-6.2-7.9-4.5"/>
	</g>
	<g>
		<path class="st4" d="M190.6,63c0.9-2.7,2-5.7,4.7-6.7c4.4-1.7,8.4,5.1,5.5,8.8c-2.9,3.7-9.3,2.8-12.2-0.9"/>
	</g>
</g>
</svg>
