<?xml version="1.0" encoding="utf-8"?>
<!-- Generator: Adobe Illustrator 23.0.3, SVG Export Plug-In . SVG Version: 6.00 Build 0)  -->
<svg version="1.1" id="Layer_1" xmlns="http://www.w3.org/2000/svg" xmlns:xlink="http://www.w3.org/1999/xlink" x="0px" y="0px"
	 viewBox="0 0 493.7 211.1" style="enable-background:new 0 0 493.7 211.1;" xml:space="preserve" width="164.57" height="70.37">
<style type="text/css">
	.st0{fill:#F43D00;}
	.st1{fill:#020100;}
	.st2{fill:#FFFFFF;}
	.st3{fill:#C21D00;}
	.st4{fill:#FFB8C4;}
</style>
<g>
	<g>
		<path class="st0" d="M290.3,158.8c-35.1,10.6-73.4,10.6-108.5,0.1c-9.1-2.7-18.2-6.3-25.5-12.3c-10.4-8.7-16.2-21.6-20.9-34.4
			c-5.7-15.6-10.1-33-4.1-48.4c5.2-13.1,17.4-22.6,30.6-27.5s27.6-5.8,41.7-6.4c31.6-1.2,63.3-0.4,94.8,2.2c5,0.4,10.1,0.9,14.4,3.5
			c8.3,5,10.7,15.9,11.3,25.6c1.9,34.2-9.6,68.9-31.4,95.3"/>
	</g>
	<g>
		<path class="st0" d="M130.9,64.2C102.7,77.1,72.2,84.3,42,91.3c-2.1,0.5-4.5,1.2-5.6,3.1c-1.1,2-0.2,4.6,1.4,6.2
			c1.7,1.6,3.9,2.3,6.1,3c11.6,3.6,23.6,6.3,35.6,8c8.2,1.2,16.7,1.9,24.7-0.3c9.6-2.7,17.9-9.8,22.1-18.9"/>
	</g>
	<g>
		<g>
			<path class="st0" d="M129.9,91c0.4-0.8,0.8-1.6,1.2-2.5c0.4-0.7,0.2-1.6-0.5-2.1c-0.7-0.4-1.7-0.2-2.1,0.5
				c-0.4,0.8-0.8,1.6-1.2,2.5c-0.4,0.7-0.2,1.6,0.5,2.1C128.5,92,129.5,91.8,129.9,91L129.9,91z"/>
		</g>
	</g>
	<g>
		<path class="st0" d="M37.3,98.9c-1.2,14.2,3.1,28.2,8.1,41.5c5.5,14.6,12.2,29.1,23.4,40.1c7.2,7.1,15.9,12.3,24.6,17.5
			c-8-10-8-24.1-7.6-36.9c11.9,8.5,22.5,18.7,31.4,30.3c3.5-9,3-19.1,0.7-28.5c-6.9-28.2-30.3-51.7-58.5-58.5"/>
	</g>
	<g>
		<path class="st0" d="M320.7,99.3c7.8,4.2,13.5,11.7,21.5,15.4c6.1,2.8,12.9,3.3,19.6,3.7c10.7,0.6,21.5,1.3,32.2,1.9
			c2.7,0.2,5.5,0.3,8-0.7c4.6-1.9,6.7-7,8.3-11.7c0.5-1.7,1.1-3.5,0.7-5.2c-0.5-2.7-2.9-4.5-5.1-6.1c-24.1-16.5-53.1-25.6-82.3-25.9
			"/>
	</g>
	<g>
		<path class="st0" d="M400,119.8c-26.3,18.8-42.1,51.4-40.6,83.7c4.7-9.1,11.1-17.3,18.8-24.1c0.7-0.7,1.6-1.3,2.6-1.3
			c1.2,0.1,2.1,1.2,2.8,2.3c5.6,9.1,8.5,19.9,8.1,30.6c13-10.2,18.6-27.6,19.1-44.2c0.5-16.6-3.3-32.9-5.5-49.4"/>
	</g>
	<g>
		<path class="st0" d="M322.1,61.5c40.7-12.7,83.1-19.7,125.7-20.5c14.2-0.3,30.9,1.4,38.6,13.3"/>
	</g>
	<g>
		<g>
			<path class="st0" d="M327.3,70.5c25.9,0.5,51.8-1.6,77.3-6.6c12.9-2.5,25.7-6.2,38.8-7.5c13.8-1.4,27.6-0.4,41.1,2.5
				c1.9,0.4,2.7-2.5,0.8-2.9c-12.5-2.8-25.3-3.9-38.1-3c-12.8,0.9-25.2,4.1-37.8,6.8c-27,5.7-54.5,8.2-82.1,7.6
				C325.4,67.5,325.4,70.5,327.3,70.5L327.3,70.5z"/>
		</g>
	</g>
	<g>
		<path class="st0" d="M479.2,58.1c5.5,30.1,5.2,61.2-1,91.1c13.4-9.9,16.8-28.7,15.2-45.3c-1.6-16.6-6.9-32.8-6.6-49.5"/>
	</g>
	<g>
		<path class="st0" d="M369.6,80.1c27.4-11.4,58.6-13.7,87.4-6.5"/>
	</g>
	<g>
		<path class="st0" d="M375.6,85.1c21.7-2.9,43.8-5.9,65.2-1.4c4.2,0.9,8.5,2,12.6,0.7s7.3-6.2,5.1-9.8"/>
	</g>
	<g>
		<path class="st0" d="M454.9,82.7c4.2,21.3,4.8,43.2,1.7,64.7c7.2-4.4,11.3-12.6,12.6-20.8s0.1-16.7-1.2-25
			c-1.6-10.1-3.5-20.6-9.5-29"/>
	</g>
	<g>
		<path class="st0" d="M150.6,40.9c-16.5-9.8-35.9-13.6-55.1-13.9c-19.1-0.3-38.2,2.7-57.1,5.7c-8.1,1.3-16.9,2.9-22.3,9.1
			c1,2.8,4.7,3.2,7.6,3c19.1-1,38-4.5,57.2-4.7c19.1-0.2,39.1,3.4,54.2,15.1"/>
	</g>
	<g>
		<path class="st0" d="M13.6,43.2C2.3,58.9,0.2,79.3,0,98.7c-0.2,22.2,1.7,44.5,5.7,66.3C-1,123.8,8.5,80.2,31.8,45.6"/>
	</g>
	<g>
		<g>
			<path class="st0" d="M129.7,62.1c1.9,0,1.9-3,0-3C127.7,59.1,127.7,62.1,129.7,62.1L129.7,62.1z"/>
		</g>
	</g>
	<g>
		<path class="st0" d="M133.2,55.2c-29.4-5.5-60.3-3.1-88.5,6.8c-0.6,0.2-1.2,0.4-1.6,0.9c-1.8,2,1.7,4.4,4.4,4.7
			c27,2.7,54.7-9,81-2.3"/>
	</g>
	<g>
		<g>
			<path class="st0" d="M39.6,64.8c-3.9,7.1-2.3,16.1,3.9,21.4c1.5,1.2,3.6-0.9,2.1-2.1c-5.2-4.4-6.7-11.7-3.4-17.8
				C43.1,64.7,40.5,63.1,39.6,64.8L39.6,64.8z"/>
		</g>
	</g>
	<g>
		<path class="st0" d="M55.5,86.7c-6-2.4-8.5-10.9-4.7-16.1"/>
	</g>
	<g>
		<g>
			<path class="st0" d="M53.1,69.5c0.4-1.2,0.8-2.5,1.2-3.7c0.6-1.8-2.3-2.6-2.9-0.8c-0.4,1.2-0.8,2.5-1.2,3.7
				C49.6,70.6,52.5,71.4,53.1,69.5L53.1,69.5z"/>
		</g>
	</g>
	<g>
		<path class="st0" d="M140.6,125.7c-8.6,9.8-8.2,26.3,1,35.6c-0.5-8,1.3-16,5.3-23"/>
	</g>
	<g>
		<path class="st0" d="M142,159.4c2.1,10.5,4.9,20.8,8.4,30.9c4-12.5,2.2-26.7-4.9-37.7"/>
	</g>
	<g>
		<path class="st0" d="M298.1,150.5c3.1,6.3,6.2,12.6,9.4,19c5.5-9.7,5.7-22.1,0.6-32"/>
	</g>
	<g>
		<path class="st0" d="M306.1,166.7c-1.9,11.5-3.8,23-5.7,34.5c9.7-9.6,12.8-25.3,7.5-37.8"/>
	</g>
	<g>
		<path class="st0" d="M163.6,154.6c-3.6,11.5,3.5,25.2,14.9,28.9c-5.3-6.7-6.7-16.3-3.6-24.3"/>
	</g>
	<g>
		<path class="st0" d="M282.5,161.8c0.4,8.6-2.2,17.3-7.2,24.2c6.2,1.1,12.2-4.1,14.2-10.2c2-6,1-12.6,0.1-18.8"/>
	</g>
	<g>
		<g>
			<path class="st0" d="M321.1,65.5c18.4-1.5,36.8-1,55.1,1.6c1.9,0.3,2.7-2.6,0.8-2.9c-18.5-2.6-37.2-3.2-55.8-1.7
				C319.2,62.7,319.2,65.7,321.1,65.5L321.1,65.5z"/>
		</g>
	</g>
	<g>
		<g>
			<path class="st0" d="M129.5,67.8c4.2-3.3,6.1-8.5,5.3-13.8c-0.3-1.9-3.2-1.1-2.9,0.8c0.6,4.2-1.2,8.2-4.6,10.8
				C125.8,66.8,128,68.9,129.5,67.8L129.5,67.8z"/>
		</g>
	</g>
	<g>
		<g>
			<path class="st0" d="M128.6,84.2c-0.4,0.4-0.8,0.8-1.2,1.2c-0.6,0.6-0.6,1.5,0,2.1c0.6,0.6,1.5,0.6,2.1,0
				c0.4-0.4,0.8-0.8,1.2-1.2c0.6-0.6,0.6-1.5,0-2.1C130.2,83.6,129.2,83.6,128.6,84.2L128.6,84.2z"/>
		</g>
	</g>
	<g>
		<g>
			<path class="st0" d="M40.8,65.6c-1.5,11.5,2.6,22.8,11,30.7c1.4,1.3,3.3-0.7,2.1-2.1c-5.1-6.1-6.9-13.9-5-21.6
				c-0.9,0.1-1.8,0.2-2.7,0.4c3.2,5.4,5.5,11.1,7.2,17.2c0.8-0.5,1.7-1,2.5-1.5c-2.9-3-4.4-6.4-5-10.5c-0.8,0.5-1.7,1-2.5,1.5
				c2.6,2.9,4.1,6.1,4.8,10c0.8-0.5,1.7-1,2.5-1.5c-5.6-5.2-8.4-12.4-7.3-20c-1,0-1.9,0-2.9,0c0.9,6,1.7,11.9,2.6,17.9
				c0.6-0.6,1.2-1.2,1.8-1.8c-4-1.5-5-5.7-4.9-9.5c0-0.4,0.4-5.2,0.8-5.3c1.2,0.6,2.4,1.2,3.6,1.9c0,0.7-0.1,1.4-0.2,2.1
				c-0.2,3.1-0.2,5.5,1.8,8c1.2,1.5,3.3-0.6,2.1-2.1c-2.8-3.4,0.6-8.7-2.3-12.5c-1.6-2.1-4.4-3.4-6.5-1.3
				c-2.7,2.6-2.8,10.2-2.1,13.6c0.8,3.9,3.1,6.7,6.8,8.1c1.2,0.5,2-0.8,1.8-1.8c-0.9-6-1.7-11.9-2.6-17.9c-0.2-1.4-2.7-1.4-2.9,0
				c-1.2,8.7,1.6,17,8.1,22.9c1.2,1.1,2.8,0,2.5-1.5c-0.8-4.4-2.6-8-5.5-11.3c-1.1-1.2-2.7,0.1-2.5,1.5c0.7,4.6,2.6,8.5,5.8,11.9
				c1,1.1,2.9,0,2.5-1.5c-1.7-6.3-4.2-12.3-7.5-17.9c-0.6-1.1-2.4-0.9-2.7,0.4c-2.1,8.8,0,17.6,5.8,24.6c0.7-0.7,1.4-1.4,2.1-2.1
				C46,86.7,42.4,76.3,43.8,65.6C44,63.7,41,63.7,40.8,65.6L40.8,65.6z"/>
		</g>
	</g>
	<g>
		<g>
			<path class="st0" d="M167.2,156.2c-2.9-0.9-2.8-5.9,0.1-6.8c-0.6-0.2-1.1-0.5-1.7-0.7c1.1,2.5,1.2,4.9,0.5,7.5c1,0,1.9,0,2.9,0
				c-1.1-3.9-2.1-7.9-3.2-11.8c-0.8,0.5-1.7,1-2.5,1.5c3.4,3.9,6.2,8.3,8.3,13.1c0.3,0.7,1.5,1,2.1,0.5c2.8-2.2,4.7-4.9,5.5-8.4
				c0.4-1.9-2.5-2.7-2.9-0.8c-0.6,2.7-1.9,4.9-4.1,6.6c0.7,0.2,1.4,0.4,2.1,0.5c-2.2-5-5.1-9.6-8.7-13.7c-1-1.2-2.9,0.1-2.5,1.5
				c1.1,3.9,2.1,7.9,3.2,11.8c0.4,1.4,2.5,1.4,2.9,0c1-3.4,0.6-6.6-0.8-9.8c-0.3-0.6-1.1-0.9-1.7-0.7c-5.7,1.8-5.8,10.7-0.1,12.6
				C168.3,159.7,169.1,156.8,167.2,156.2L167.2,156.2z"/>
		</g>
	</g>
	<g>
		<g>
			<path class="st0" d="M303.3,143.1c-3.1-2.3-4.5-5.6-4.4-9.3c-0.8,0.4-1.5,0.9-2.3,1.3c4.1,2.8,7,6.4,9,11
				c0.7,1.6,3.1,0.4,2.7-1.2c-1.3-5.2-1.8-10.4-1.5-15.8c-1,0-2,0-3,0c1.1,8.3,1.2,16.6,0.5,25c0.9-0.4,1.7-0.7,2.6-1.1
				c-3-2.9-4.7-6.1-5.6-10.2c-0.4-1.9-3.3-1.1-2.9,0.8c0.9,4.6,3,8.3,6.4,11.5c1,1,2.5,0.2,2.6-1.1c0.7-8.4,0.5-16.7-0.5-25
				c-0.2-1.9-2.9-2-3,0c-0.3,5.6,0.3,11.1,1.6,16.6c0.9-0.4,1.8-0.8,2.7-1.2c-2.2-5-5.5-8.9-10-12c-1-0.7-2.2,0.2-2.3,1.3
				c-0.1,5,1.9,9,5.9,11.9C303.4,146.9,304.9,144.3,303.3,143.1L303.3,143.1z"/>
		</g>
	</g>
	<g>
		<g>
			<path class="st0" d="M453.1,77.9c-7.6,0.2-14.7-1.1-21.7-3.9c0.1,0.9,0.2,1.8,0.4,2.7c4.4-3.2,9.6-3.3,14.1-0.3
				c0.4-0.9,0.8-1.8,1.2-2.7c-1.3-0.6-2.7-1.1-4-1.7c-1.6-0.7-2.6,1.9-1.2,2.7c3,1.7,5.9,2.7,9.3,3.1c1.7,0.2,2-2.6,0.4-2.9
				c-4.1-1-8.2-1.9-12.4-2.9c-0.3,1-0.5,1.9-0.8,2.9c7.2,1,14.3,2.1,21.5,3.1c1.9,0.3,2.7-2.5,0.8-2.9c-15.4-2.9-31-4-46.7-3.4
				c-1.8,0.1-1.9,2.3-0.4,2.9c4.7,1.9,9.5,3.8,14.2,5.7c0-1,0-1.9,0-2.9c-6.2,1.7-12.3,1.5-18.4-0.4c0.1,0.9,0.2,1.8,0.4,2.7
				c6.8-5.2,15.5-6.4,23.4-2.9c0.3-0.9,0.5-1.9,0.8-2.8c-7.7,0.5-15.5,1-23.2,1.5c-1.6,0.1-2.2,2.6-0.4,2.9
				c3.6,0.6,7.2,1.2,10.9,1.9c0.1-1,0.3-2,0.4-2.9c-12.8-0.1-25.6-0.8-38.3-2.2c0,1,0,2,0,3c9.9,0.4,19.9,0.9,29.8,1.3
				c-0.1-1-0.3-2-0.4-2.9c-9.6,2-19.3,3.9-28.9,5.9c0.5,0.8,1,1.7,1.5,2.5c4.5-4.8,9.2-9.4,14.2-13.7c1.1-1-0.1-2.9-1.5-2.5
				c-6.2,2-12.1,4.5-17.8,7.6c-1,0.5-1,2.1,0,2.6c2.2,1.2,4.3,1.7,6.9,1.9c-0.1-1-0.3-2-0.4-2.9c-3.1,0.9-6,1.1-9.2,0.8
				c-1.7-0.2-2,2.5-0.4,2.9c4.7,1.4,9.4,2.7,14.1,4.1c1.4,0.4,2.5-1.5,1.5-2.5c-3.2-3.2-6.9-5-11.3-5.7c-0.1,1-0.3,2-0.4,2.9
				c6.5,0.4,12.9,0.2,19.3-0.7c1.9-0.2,1.9-3.2,0-3c-6.4,0.8-12.8,1.1-19.3,0.7c-1.7-0.1-2.1,2.7-0.4,2.9c4,0.6,7.1,2.1,10,4.9
				c0.5-0.8,1-1.7,1.5-2.5c-4.7-1.4-9.4-2.7-14.1-4.1c-0.1,1-0.3,2-0.4,2.9c3.5,0.4,6.6,0.1,10-0.9c1.7-0.5,1.3-2.9-0.4-2.9
				c-1.9,0-3.7-0.4-5.3-1.5c0,0.9,0,1.7,0,2.6c5.5-3,11.1-5.4,17.1-7.3c-0.5-0.8-1-1.7-1.5-2.5c-5,4.3-9.8,8.9-14.2,13.7
				c-1,1.1,0,2.8,1.5,2.5c9.6-2,19.3-3.9,28.9-5.9c1.7-0.3,1.2-2.9-0.4-2.9c-9.9-0.4-19.9-0.9-29.8-1.3c-2-0.1-1.9,2.8,0,3
				c12.7,1.4,25.5,2.1,38.3,2.2c1.6,0,2.1-2.7,0.4-2.9c-3.6-0.6-7.2-1.2-10.9-1.9c-0.1,1-0.3,2-0.4,2.9c7.7-0.5,15.5-1,23.2-1.5
				c1.3-0.1,2.2-2.1,0.8-2.8c-8.8-3.9-18.7-3-26.4,2.9c-1,0.8-1,2.3,0.4,2.7c6.6,2.1,13.2,2.3,20,0.4c1.5-0.4,1.3-2.4,0-2.9
				c-4.7-1.9-9.5-3.8-14.2-5.7c-0.1,1-0.3,2-0.4,2.9c15.4-0.6,30.8,0.5,45.9,3.3c0.3-1,0.5-1.9,0.8-2.9c-7.2-1-14.3-2.1-21.5-3.1
				c-1.9-0.3-2.7,2.4-0.8,2.9c4.1,1,8.2,1.9,12.4,2.9c0.1-1,0.3-2,0.4-2.9c-2.9-0.3-5.3-1.2-7.8-2.6c-0.4,0.9-0.8,1.8-1.2,2.7
				c1.3,0.6,2.7,1.1,4,1.7c1.6,0.7,2.5-1.9,1.2-2.7c-5.4-3.5-11.9-3.4-17.2,0.3c-1.1,0.8-0.9,2.2,0.4,2.7c7.3,2.9,14.7,4.2,22.5,4
				C455,80.8,455,77.8,453.1,77.9L453.1,77.9z"/>
		</g>
	</g>
	<g>
		<g>
			<path class="st0" d="M437.6,74.1c-1.6,1.2-3.2,1.9-5.2,2.1c-1.9,0.2-2,3.1,0,3c5.9-0.3,11.6-1.7,16.9-4.3
				c1.7-0.8,0.2-3.4-1.5-2.6c-4.9,2.3-10,3.6-15.4,3.9c0,1,0,2,0,3c2.5-0.3,4.6-1,6.7-2.5C440.6,75.6,439.1,73,437.6,74.1
				L437.6,74.1z"/>
		</g>
	</g>
	<g>
		<g>
			<path class="st0" d="M412,56.8c-21.4,7.9-43.6,12.8-66.3,14.6c-1.9,0.2-1.9,3.2,0,3c23-1.8,45.5-6.8,67.1-14.7
				C414.6,59,413.9,56.1,412,56.8L412,56.8z"/>
		</g>
	</g>
	<g>
		<g>
			<path class="st0" d="M392.7,53.8c-17.1,1.9-34.2,4.6-51.1,8c-1.8,0.4-1.2,2.8,0.4,2.9c8.1,0.7,16.1,1.4,24.2,2.1
				c-0.1-1-0.3-2-0.4-2.9c-5.2,2-10.5,3-16,3.1c0.4,0.8,0.9,1.5,1.3,2.3c1.9-2.7,3.8-5.4,5.7-8.1c0.9-1.2-0.8-2.9-2.1-2.1
				c-6.4,4.2-13.2,7.8-20.4,10.6c0.5,0.8,1,1.7,1.5,2.5c5.4-6.9,10.9-13.9,16.3-20.8c1.2-1.5-0.7-3.5-2.1-2.1
				c-5.9,5.6-12.1,10.9-18.6,15.8c0.7,0.3,1.5,0.6,2.2,0.9c-0.7-2.8,0.6-5.1,3-6.3c-0.7-0.6-1.5-1.1-2.2-1.7c-0.4,2-1.5,3.8-3.4,4.8
				c-2.1,1.2-4-0.1-5.8,0.3c-1,0.2-1.8,0.2-2.4,1.3c-1.2,2.2,0.8,4.9,3.1,4.7c1.9-0.2,1.9-3.2,0-3c-1,0.1,2,0.6,2.6,0.5
				c1.4-0.1,2.8-0.5,4-1.2c2.6-1.4,4.2-3.7,4.8-6.6c0.3-1.3-1-2.3-2.2-1.7c-3.8,1.9-5.4,5.6-4.4,9.7c0.2,0.9,1.4,1.5,2.2,0.9
				c6.7-5.1,13.1-10.5,19.2-16.3c-0.7-0.7-1.4-1.4-2.1-2.1c-5.4,6.9-10.9,13.9-16.3,20.8c-0.8,1-0.1,3.1,1.5,2.5
				c7.4-2.9,14.4-6.5,21.1-10.9c-0.7-0.7-1.4-1.4-2.1-2.1c-1.9,2.7-3.8,5.4-5.7,8.1c-0.7,0.9,0.2,2.3,1.3,2.3
				c5.8-0.1,11.4-1.1,16.8-3.2c1.6-0.6,1.3-2.8-0.4-2.9c-8.1-0.7-16.1-1.4-24.2-2.1c0.1,1,0.3,2,0.4,2.9c16.6-3.3,33.4-6,50.3-7.9
				C394.6,56.5,394.7,53.5,392.7,53.8L392.7,53.8z"/>
		</g>
	</g>
	<g>
		<g>
			<path class="st0" d="M321.5,74.7c22.1-5.3,44.7-8.1,67.4-8.2c1.9,0,1.9-3,0-3c-23,0.2-45.8,3-68.2,8.3
				C318.8,72.3,319.6,75.2,321.5,74.7L321.5,74.7z"/>
		</g>
	</g>
	<g>
		<g>
			<path class="st0" d="M321.4,72.6c3.9-5.6,10.2-8.5,17-8.1c1.9,0.1,1.9-2.9,0-3c-7.9-0.5-15.1,3.1-19.6,9.6
				C317.7,72.7,320.3,74.2,321.4,72.6L321.4,72.6z"/>
		</g>
	</g>
	<g>
		<g>
			<path class="st0" d="M327,71.5c4.6-4,10.2-5.9,16.3-5.7c1.9,0.1,1.9-2.9,0-3c-6.9-0.3-13.2,2-18.4,6.6
				C323.4,70.6,325.5,72.7,327,71.5L327,71.5z"/>
		</g>
	</g>
	<g>
		<g>
			<path class="st0" d="M330.4,76.7c5-2.4,10-4.7,15-7.1c1.7-0.8,0.2-3.4-1.5-2.6c-5,2.4-10,4.7-15,7.1
				C327.2,74.9,328.7,77.5,330.4,76.7L330.4,76.7z"/>
		</g>
	</g>
	<g>
		<g>
			<path class="st0" d="M345,72.1c2.9-0.8,5.8-1.6,8.7-2.4c1.9-0.5,1.1-3.4-0.8-2.9c-2.9,0.8-5.8,1.6-8.7,2.4
				C342.3,69.8,343.1,72.6,345,72.1L345,72.1z"/>
		</g>
	</g>
	<g>
		<g>
			<path class="st0" d="M329.7,72.7c15.7,0.4,31-3,45-10.1c1.7-0.9,0.2-3.5-1.5-2.6c-13.5,6.8-28.3,10.1-43.5,9.7
				C327.7,69.7,327.7,72.7,329.7,72.7L329.7,72.7z"/>
		</g>
	</g>
	<g>
		<g>
			<path class="st0" d="M315.8,80.6c22.3-14.1,48-21.7,74.4-22.1c1.9,0,1.9-3,0-3c-26.9,0.4-53.2,8.1-75.9,22.5
				C312.6,79,314.1,81.6,315.8,80.6L315.8,80.6z"/>
		</g>
	</g>
	<g>
		<g>
			<path class="st0" d="M357.2,66.8c15.2-4.5,30.7-6.9,46.6-7.2c1.9,0,1.9-3,0-3c-16.1,0.3-31.9,2.7-47.4,7.3
				C354.6,64.5,355.3,67.4,357.2,66.8L357.2,66.8z"/>
		</g>
	</g>
	<g>
		<g>
			<path class="st0" d="M372.9,65.7c11.9-0.5,23.6-2.5,35-6.1c1.8-0.6,1.1-3.5-0.8-2.9c-11.1,3.5-22.5,5.5-34.2,6
				C371,62.7,371,65.7,372.9,65.7L372.9,65.7z"/>
		</g>
	</g>
	<g>
		<g>
			<path class="st0" d="M391.4,60.1c17.7,1.2,35.5,0.8,53.2-1.2c1.9-0.2,1.9-3.2,0-3c-17.7,2-35.4,2.4-53.2,1.2
				C389.4,57,389.5,60,391.4,60.1L391.4,60.1z"/>
		</g>
	</g>
	<g>
		<path class="st1" d="M169.4,69.1c-9.5-18.8-9.2-42.3,0.7-60.9c1.7-3.2,4-6.5,7.4-7.8c3.4-1.3,8.2,0.5,8.6,4.2
			c0.3,2.5-1.5,4.8-3,6.9c-5.4,7.9-6.8,18.4-3.8,27.4c2.6,7.6,8.1,16,4,23c-2.2,3.7-6.5,5.4-10.5,6.9"/>
	</g>
	<g>
		<path class="st1" d="M268.2,61.8c1.3-16.4,2.6-33.5-3.3-48.8c-1.1-2.9-2.5-6.1-1.4-9c1.5-3.7,6.7-4.8,10.3-3
			c3.6,1.8,5.9,5.5,7.6,9.1c8.9,18.9,8.2,42-1.9,60.3c-4.8-1.2-9-4.3-11.6-8.5"/>
	</g>
	<g>
		<g>
			<path class="st1" d="M170.1,72c1.2-0.8,2.4-1.7,3.7-2.5c0.7-0.5,1-1.3,0.5-2.1c-0.4-0.7-1.4-1-2.1-0.5c-1.2,0.8-2.4,1.7-3.7,2.5
				c-0.7,0.5-1,1.3-0.5,2.1C168.4,72.1,169.4,72.5,170.1,72L170.1,72z"/>
		</g>
	</g>
	<g>
		<g>
			<path class="st2" d="M178.3,7.3c-0.3,1.1-0.8,2.1-1.5,2.9c-0.5,0.6-0.6,1.5,0,2.1c0.5,0.5,1.6,0.6,2.1,0c1-1.3,1.8-2.7,2.2-4.2
				C181.7,6.2,178.8,5.4,178.3,7.3L178.3,7.3z"/>
		</g>
	</g>
	<g>
		<g>
			<path class="st2" d="M266.6,5.4c1.1,3.3,2.3,6.7,3.4,10c0.6,1.8,3.5,1,2.9-0.8c-1.1-3.3-2.3-6.7-3.4-10
				C268.9,2.8,266,3.5,266.6,5.4L266.6,5.4z"/>
		</g>
	</g>
	<g>
		<g>
			<path class="st3" d="M186.1,81.3c-2.9-1.9-7.5-6.7-11.3-5.5c-1.7,0.5-2.2,2-3.1,3.4c-2.5,3.7-5.3,3.3-9.3,2.8
				c-4.5-0.6-8-0.5-12.3,1.2c-4.8,1.9-13.8,7.1-16.9-0.2c-0.8-1.8-3.3-0.2-2.6,1.5c5,11.5,18.8,0.4,26.2,0c4.4-0.3,9.1,2,13.4,0.3
				c2.1-0.8,2.4-2.2,3.8-3.5c2.1-2,3.5-2,6-0.4c1.6,1,3.1,2.1,4.7,3.1C186.2,85,187.7,82.4,186.1,81.3L186.1,81.3z"/>
		</g>
	</g>
	<g>
		<g>
			<path class="st3" d="M252.6,79c4.4-3,8.8-6.3,13.4-9c3.5-2,7.1-1.7,8.3,2.4c0.4,1.3,0.6,2.7,1,4.1c1.5,4.6,5.2,6.3,9.5,3.8
				c3.4-2,5.5-6.3,9.2-1.8c1.8,2.2,2,3.6,5.3,3.7c8.4,0.3,17.5-3.9,24.2-8.7c1.5-1.1,0.1-3.7-1.5-2.6c-4.1,3-8.6,5.4-13.5,6.8
				c-2.4,0.7-5.9,1.9-8.5,1.5c-3.2-0.4-2.9-2.5-4.6-4.5c-4-4.7-8,0.5-11.6,2.7c-6.8,4.1-5.5-8.9-10.1-11.6c-2.8-1.6-5.9-0.3-8.5,1.1
				c-4.8,2.8-9.4,6.3-14,9.4C249.5,77.4,251,80,252.6,79L252.6,79z"/>
		</g>
	</g>
	<g>
		<g>
			<path class="st3" d="M70.9,141.1c1.6,0.7,3.1,1.4,4.7,2.1c0.9,1.6,1.1,3.2,0.6,4.9c-0.3,2.2-1.2,4-2.1,6
				c-0.4,0.9,0.1,2.4,1.3,2.3c6.3-0.7,11.9,4,12,10.5c0,1.9,3,1.9,3,0c-0.1-8-7-14.3-15-13.5c0.4,0.8,0.9,1.5,1.3,2.3
				c1.9-4.1,4-8.9,1.8-13.3c-1.7-3.3-4.8-4.9-8.4-4C68.2,138.7,69,141.6,70.9,141.1L70.9,141.1z"/>
		</g>
	</g>
	<g>
		<g>
			<path class="st3" d="M383.5,179c-0.4-3.9,3.4-6.4,5.3-9.4c1.8-2.8,1.4-4.3,0.7-7.3c-0.6-2.8-0.3-5.3,2.6-6.3
				c1.1-0.4,2.2-0.6,3.2-1c1.3-0.6,2.4-1.2,3.3-2.3c1.6-2.2,1.5-5-0.5-6.8c-1.4-1.3-3.6,0.8-2.1,2.1c0.8,0.7-2.4,4.3-3.3,4.7
				c-0.9,0.4-1.9,0.5-2.8,0.9c-1.2,0.5-2.4,1.2-3.3,2.2c-2.1,2.4-1.4,4.1-0.4,6.7c1.1,2.7,1.1,3.9-0.5,6.2c-0.8,1.2-1.9,2.2-2.8,3.4
				c-1.6,2.1-2.7,4.2-2.4,6.9C380.7,180.9,383.7,180.9,383.5,179L383.5,179z"/>
		</g>
	</g>
	<g>
		<path class="st4" d="M155.3,63.4c2.8,2.3,2.1,7.5-1.2,9c-3.3,1.5-7.7-1.5-7.5-5.1c0.1-3.6,4.7-6.2,7.9-4.5"/>
	</g>
	<g>
		<path class="st4" d="M303.2,63c-0.9-2.7-2-5.7-4.7-6.7c-4.4-1.7-8.4,5.1-5.5,8.8s9.3,2.8,12.2-0.9"/>
	</g>
</g>
</svg>
