<?xml version="1.0" encoding="utf-8"?>
<!-- Generator: Adobe Illustrator 23.0.3, SVG Export Plug-In . SVG Version: 6.00 Build 0)  -->
<svg version="1.1" id="Layer_1" xmlns="http://www.w3.org/2000/svg" xmlns:xlink="http://www.w3.org/1999/xlink" x="0px" y="0px"
	 viewBox="0 0 14400 14400" style="enable-background:new 0 0 14400 14400;" xml:space="preserve">
<style type="text/css">
	.st0{fill:#F43D00;}
	.st1{fill:#020100;}
	.st2{fill:#FFFFFF;}
	.st3{fill:#C21D00;}
	.st4{fill:#FFB8C4;}
</style>
<g>
	<g>
		<path class="st0" d="M7181.8,7244.4c35.1,10.6,73.4,10.6,108.5,0.1c9.1-2.7,18.2-6.3,25.5-12.3c10.4-8.7,16.2-21.6,20.9-34.4
			c5.7-15.6,10.1-33,4.1-48.4c-5.2-13.1-17.4-22.6-30.6-27.5c-13.2-4.9-27.6-5.8-41.7-6.4c-31.6-1.2-63.3-0.4-94.8,2.2
			c-5,0.4-10.1,0.9-14.4,3.5c-8.3,5-10.7,15.9-11.3,25.6c-1.9,34.2,9.6,68.9,31.4,95.3"/>
	</g>
	<g>
		<path class="st0" d="M7341.1,7149.8c28.2,12.9,58.7,20.1,88.9,27.1c2.1,0.5,4.5,1.2,5.6,3.1c1.1,2,0.2,4.6-1.4,6.2
			c-1.7,1.6-3.9,2.3-6.1,3c-11.6,3.6-23.6,6.3-35.6,8c-8.2,1.2-16.7,1.9-24.7-0.3c-9.6-2.7-17.9-9.8-22.1-18.9"/>
	</g>
	<g>
		<g>
			<path class="st0" d="M7344.8,7175.2c-0.4-0.8-0.8-1.6-1.2-2.5c-0.4-0.7-1.4-0.9-2.1-0.5c-0.7,0.4-0.9,1.3-0.5,2.1
				c0.4,0.8,0.8,1.6,1.2,2.5c0.4,0.7,1.4,0.9,2.1,0.5C7345,7176.8,7345.1,7175.9,7344.8,7175.2L7344.8,7175.2z"/>
		</g>
	</g>
	<g>
		<path class="st0" d="M7434.8,7184.5c1.2,14.2-3.1,28.2-8.1,41.5c-5.5,14.6-12.2,29.1-23.4,40.1c-7.2,7.1-15.9,12.3-24.6,17.5
			c8-10,8-24.1,7.6-36.9c-11.9,8.5-22.5,18.7-31.4,30.3c-3.5-9-3-19.1-0.7-28.5c6.9-28.2,30.3-51.7,58.5-58.5"/>
	</g>
	<g>
		<path class="st0" d="M7151.3,7184.9c-7.8,4.2-13.5,11.7-21.5,15.4c-6.1,2.8-12.9,3.3-19.6,3.7c-10.7,0.6-21.5,1.3-32.2,1.9
			c-2.7,0.2-5.5,0.3-8-0.7c-4.6-1.9-6.7-7-8.3-11.7c-0.5-1.7-1.1-3.5-0.7-5.2c0.5-2.7,2.9-4.5,5.1-6.1
			c24.1-16.5,53.1-25.6,82.3-25.9"/>
	</g>
	<g>
		<path class="st0" d="M7072,7205.5c26.3,18.8,42.1,51.4,40.6,83.7c-4.7-9.1-11.1-17.3-18.8-24.1c-0.7-0.7-1.6-1.3-2.6-1.3
			c-1.2,0.1-2.1,1.2-2.8,2.3c-5.6,9.1-8.5,19.9-8.1,30.6c-13-10.2-18.6-27.6-19.1-44.2c-0.5-16.6,3.3-32.9,5.5-49.4"/>
	</g>
	<g>
		<path class="st0" d="M7150,7147.2c-40.7-12.7-83.1-19.7-125.7-20.5c-14.2-0.3-30.9,1.4-38.6,13.3"/>
	</g>
	<g>
		<g>
			<path class="st0" d="M7144.8,7153.2c-27.6,0.6-55.1-1.9-82.1-7.6c-12.2-2.6-24.3-5.8-36.8-6.7c-13.1-1-26.2,0.1-39.1,2.9
				c-1.9,0.4-1.1,3.3,0.8,2.9c13.5-3,27.3-3.9,41.1-2.5c13.1,1.3,25.9,5,38.8,7.5c25.4,5,51.4,7.1,77.3,6.6
				C7146.7,7156.1,7146.7,7153.1,7144.8,7153.2L7144.8,7153.2z"/>
		</g>
	</g>
	<g>
		<path class="st0" d="M6992.9,7143.8c-5.5,30.1-5.2,61.2,1,91.1c-13.4-9.9-16.8-28.7-15.2-45.3c1.6-16.6,6.9-32.8,6.6-49.5"/>
	</g>
	<g>
		<path class="st0" d="M7102.5,7165.7c-27.4-11.4-58.6-13.7-87.4-6.5"/>
	</g>
	<g>
		<path class="st0" d="M7096.5,7170.7c-21.7-2.9-43.8-5.9-65.2-1.4c-4.2,0.9-8.5,2-12.6,0.7c-4-1.3-7.3-6.2-5.1-9.8"/>
	</g>
	<g>
		<path class="st0" d="M7017.2,7168.3c-4.2,21.3-4.8,43.2-1.7,64.7c-7.2-4.4-11.3-12.6-12.6-20.8s-0.1-16.7,1.2-25
			c1.6-10.1,3.5-20.6,9.5-29"/>
	</g>
	<g>
		<path class="st0" d="M7321.4,7126.6c16.5-9.8,35.9-13.6,55.1-13.9s38.2,2.7,57.1,5.7c8.1,1.3,16.9,2.9,22.3,9.1
			c-1,2.8-4.6,3.2-7.6,3c-19.1-1-38-4.5-57.2-4.7c-19.1-0.2-39.1,3.4-54.2,15.1"/>
	</g>
	<g>
		<path class="st0" d="M7458.5,7128.9c11.3,15.7,13.4,36.1,13.6,55.4c0.2,22.2-1.7,44.5-5.7,66.3c6.7-41.2-2.8-84.8-26.2-119.4"/>
	</g>
	<g>
		<g>
			<path class="st0" d="M7342.4,7147.7c1.9,0,1.9-3,0-3C7340.4,7144.7,7340.4,7147.7,7342.4,7147.7L7342.4,7147.7z"/>
		</g>
	</g>
	<g>
		<path class="st0" d="M7338.8,7140.9c29.4-5.5,60.3-3.1,88.5,6.8c0.6,0.2,1.2,0.4,1.6,0.9c1.8,2-1.7,4.4-4.4,4.7
			c-27,2.7-54.7-9-81-2.3"/>
	</g>
	<g>
		<g>
			<path class="st0" d="M7429.8,7152c3.3,6,1.8,13.3-3.4,17.8c-1.5,1.3,0.7,3.4,2.1,2.1c6.2-5.3,7.8-14.3,3.9-21.4
				C7431.5,7148.8,7428.9,7150.3,7429.8,7152L7429.8,7152z"/>
		</g>
	</g>
	<g>
		<path class="st0" d="M7416.5,7172.4c6-2.4,8.5-10.9,4.7-16.1"/>
	</g>
	<g>
		<g>
			<path class="st0" d="M7421.9,7154.4c-0.4-1.2-0.8-2.5-1.2-3.7c-0.6-1.8-3.5-1-2.9,0.8c0.4,1.2,0.8,2.5,1.2,3.7
				C7419.6,7157,7422.5,7156.2,7421.9,7154.4L7421.9,7154.4z"/>
		</g>
	</g>
	<g>
		<path class="st0" d="M7331.4,7211.4c8.6,9.8,8.2,26.3-1,35.6c0.5-8-1.3-16-5.3-23"/>
	</g>
	<g>
		<path class="st0" d="M7330.1,7245c-2.1,10.5-4.9,20.8-8.4,30.9c-4-12.5-2.2-26.7,4.9-37.7"/>
	</g>
	<g>
		<path class="st0" d="M7174,7236.1c-3.1,6.3-6.2,12.6-9.4,19c-5.5-9.7-5.7-22.1-0.6-32"/>
	</g>
	<g>
		<path class="st0" d="M7166,7252.4c1.9,11.5,3.8,23,5.7,34.5c-9.7-9.6-12.8-25.3-7.5-37.8"/>
	</g>
	<g>
		<path class="st0" d="M7308.5,7240.3c3.6,11.5-3.5,25.2-14.9,28.9c5.3-6.7,6.7-16.3,3.6-24.3"/>
	</g>
	<g>
		<path class="st0" d="M7189.5,7247.5c-0.4,8.6,2.2,17.3,7.2,24.2c-6.2,1.1-12.2-4.1-14.2-10.2c-2-6-1-12.6-0.1-18.8"/>
	</g>
	<g>
		<g>
			<path class="st0" d="M7150.9,7148.2c-18.7-1.5-37.3-0.9-55.8,1.7c-1.9,0.3-1.1,3.2,0.8,2.9c18.3-2.5,36.7-3,55.1-1.6
				C7152.8,7151.4,7152.8,7148.4,7150.9,7148.2L7150.9,7148.2z"/>
		</g>
	</g>
	<g>
		<g>
			<path class="st0" d="M7344.7,7151.3c-3.3-2.6-5.2-6.6-4.6-10.8c0.3-1.9-2.6-2.7-2.9-0.8c-0.7,5.3,1.1,10.4,5.3,13.8
				C7344.1,7154.6,7346.2,7152.5,7344.7,7151.3L7344.7,7151.3z"/>
		</g>
	</g>
	<g>
		<g>
			<path class="st0" d="M7341.3,7172c0.4,0.4,0.8,0.8,1.2,1.2c0.6,0.6,1.5,0.6,2.1,0c0.6-0.6,0.6-1.5,0-2.1
				c-0.4-0.4-0.8-0.8-1.2-1.2c-0.6-0.6-1.5-0.6-2.1,0C7340.7,7170.4,7340.7,7171.4,7341.3,7172L7341.3,7172z"/>
		</g>
	</g>
	<g>
		<g>
			<path class="st0" d="M7428.3,7151.2c1.4,10.8-2.2,21.2-10.2,28.6c0.7,0.7,1.4,1.4,2.1,2.1c5.8-7,7.9-15.7,5.8-24.6
				c-0.3-1.3-2.1-1.4-2.7-0.4c-3.3,5.7-5.8,11.6-7.5,17.9c-0.4,1.4,1.5,2.6,2.5,1.5c3.2-3.4,5.1-7.2,5.8-11.9
				c0.2-1.3-1.4-2.7-2.5-1.5c-2.9,3.3-4.8,6.9-5.5,11.3c-0.3,1.5,1.3,2.5,2.5,1.5c6.5-6,9.3-14.2,8.1-22.9c-0.2-1.4-2.7-1.4-2.9,0
				c-0.9,6-1.7,11.9-2.6,17.9c-0.1,1,0.6,2.3,1.8,1.8c3.7-1.4,6-4.2,6.8-8.1c0.7-3.3,0.6-11-2.1-13.6c-2.2-2.1-5-0.7-6.5,1.3
				c-2.9,3.8,0.5,9-2.3,12.5c-1.2,1.5,0.9,3.6,2.1,2.1c2-2.4,2-4.9,1.8-8c-0.2-2-0.6-1.9,1.7-3c2.7-1.4,2.1,0.2,2.4,2.7
				c0.5,4.3,0.2,9.4-4.6,11.2c0.6,0.6,1.2,1.2,1.8,1.8c0.9-6,1.7-11.9,2.6-17.9c-1,0-1.9,0-2.9,0c1.1,7.6-1.7,14.8-7.3,20
				c0.8,0.5,1.7,1,2.5,1.5c0.7-3.9,2.1-7,4.8-10c-0.8-0.5-1.7-1-2.5-1.5c-0.6,4.1-2.1,7.5-5,10.5c0.8,0.5,1.7,1,2.5,1.5
				c1.7-6.1,4.1-11.8,7.2-17.2c-0.9-0.1-1.8-0.2-2.7-0.4c1.8,7.7,0.1,15.5-5,21.6c-1.2,1.5,0.7,3.5,2.1,2.1
				c8.5-7.9,12.6-19.2,11-30.7C7431,7149.3,7428,7149.3,7428.3,7151.2L7428.3,7151.2z"/>
		</g>
	</g>
	<g>
		<g>
			<path class="st0" d="M7305.6,7244.8c5.7-1.9,5.7-10.8-0.1-12.6c-0.6-0.2-1.4,0.1-1.7,0.7c-1.4,3.2-1.7,6.4-0.8,9.8
				c0.4,1.4,2.5,1.4,2.9,0c1.1-3.9,2.1-7.9,3.2-11.8c0.4-1.4-1.5-2.6-2.5-1.5c-3.6,4.1-6.6,8.7-8.7,13.7c0.7-0.2,1.4-0.4,2.1-0.5
				c-2.2-1.7-3.5-3.9-4.1-6.6c-0.4-1.9-3.3-1.1-2.9,0.8c0.8,3.5,2.7,6.2,5.5,8.4c0.6,0.5,1.8,0.1,2.1-0.5c2.1-4.8,4.8-9.2,8.3-13.1
				c-0.8-0.5-1.7-1-2.5-1.5c-1.1,3.9-2.1,7.9-3.2,11.8c1,0,1.9,0,2.9,0c-0.7-2.6-0.6-5,0.5-7.5c-0.6,0.2-1.1,0.5-1.7,0.7
				c2.8,0.9,2.9,5.9,0.1,6.8C7303,7242.5,7303.8,7245.4,7305.6,7244.8L7305.6,7244.8z"/>
		</g>
	</g>
	<g>
		<g>
			<path class="st0" d="M7170.2,7231.4c3.9-3,6-7,5.9-11.9c0-1.1-1.3-2-2.3-1.3c-4.5,3.1-7.8,7-10,12c0.9,0.4,1.8,0.8,2.7,1.2
				c1.3-5.5,1.9-10.9,1.6-16.6c-0.1-2-2.8-1.9-3,0c-1.1,8.3-1.2,16.6-0.5,25c0.1,1.3,1.6,2,2.6,1.1c3.3-3.2,5.4-7,6.4-11.5
				c0.4-1.9-2.5-2.7-2.9-0.8c-0.8,4.1-2.6,7.3-5.6,10.2c0.9,0.4,1.7,0.7,2.6,1.1c-0.7-8.4-0.5-16.7,0.5-25c-1,0-2,0-3,0
				c0.2,5.4-0.2,10.5-1.5,15.8c-0.4,1.6,2,2.8,2.7,1.2c2-4.5,4.9-8.2,9-11c-0.8-0.4-1.5-0.9-2.3-1.3c0.1,3.8-1.3,7-4.4,9.3
				C7167.2,7229.9,7168.7,7232.5,7170.2,7231.4L7170.2,7231.4z"/>
		</g>
	</g>
	<g>
		<g>
			<path class="st0" d="M7019,7166.6c7.8,0.2,15.3-1.1,22.5-4c1.2-0.5,1.5-2,0.4-2.7c-5.2-3.8-11.8-3.9-17.2-0.3
				c-1.3,0.9-0.5,3.4,1.2,2.7c1.3-0.6,2.7-1.1,4-1.7c-0.4-0.9-0.8-1.8-1.2-2.7c-2.5,1.5-4.9,2.3-7.8,2.6c0.1,1,0.3,2,0.4,2.9
				c4.1-1,8.2-1.9,12.4-2.9c1.9-0.4,1.1-3.2-0.8-2.9c-7.2,1-14.3,2.1-21.5,3.1c0.3,1,0.5,1.9,0.8,2.9c15.2-2.8,30.5-3.9,45.9-3.3
				c-0.1-1-0.3-2-0.4-2.9c-4.7,1.9-9.5,3.8-14.2,5.7c-1.3,0.5-1.5,2.5,0,2.9c6.7,1.8,13.3,1.7,20-0.4c1.3-0.4,1.4-2,0.4-2.7
				c-7.7-5.9-17.6-6.8-26.4-2.9c-1.5,0.7-0.6,2.7,0.8,2.8c7.7,0.5,15.5,1,23.2,1.5c-0.1-1-0.3-2-0.4-2.9c-3.6,0.6-7.2,1.2-10.9,1.9
				c-1.7,0.3-1.3,3,0.4,2.9c12.8-0.1,25.6-0.8,38.3-2.2c1.9-0.2,2-3.1,0-3c-9.9,0.4-19.9,0.9-29.8,1.3c-1.6,0.1-2.1,2.6-0.4,2.9
				c9.6,2,19.3,3.9,28.9,5.9c1.5,0.3,2.5-1.4,1.5-2.5c-4.5-4.8-9.2-9.4-14.2-13.7c-0.5,0.8-1,1.7-1.5,2.5c6,1.9,11.6,4.3,17.1,7.3
				c0-0.9,0-1.7,0-2.6c-1.6,1-3.4,1.5-5.3,1.5c-1.7,0.1-2.1,2.5-0.4,2.9c3.4,1,6.5,1.3,10,0.9c-0.1-1-0.3-2-0.4-2.9
				c-4.7,1.4-9.4,2.7-14.1,4.1c0.5,0.8,1,1.7,1.5,2.5c2.8-2.8,6-4.3,10-4.9c1.7-0.2,1.3-3-0.4-2.9c-6.5,0.4-12.9,0.2-19.3-0.7
				c-1.9-0.2-1.9,2.8,0,3c6.4,0.8,12.8,1.1,19.3,0.7c-0.1-1-0.3-2-0.4-2.9c-4.5,0.6-8.1,2.5-11.3,5.7c-1.1,1,0,2.9,1.5,2.5
				c4.7-1.4,9.4-2.7,14.1-4.1c1.6-0.4,1.3-3.2-0.4-2.9c-3.2,0.4-6.1,0.2-9.2-0.8c-0.1,1-0.3,2-0.4,2.9c2.5-0.1,4.6-0.7,6.9-1.9
				c1-0.5,1-2.1,0-2.6c-5.7-3.1-11.6-5.7-17.8-7.6c-1.4-0.4-2.6,1.5-1.5,2.5c5,4.3,9.8,8.9,14.2,13.7c0.5-0.8,1-1.7,1.5-2.5
				c-9.6-2-19.3-3.9-28.9-5.9c-0.1,1-0.3,2-0.4,2.9c9.9-0.4,19.9-0.9,29.8-1.3c0-1,0-2,0-3c-12.7,1.4-25.5,2.1-38.3,2.2
				c0.1,1,0.3,2,0.4,2.9c3.6-0.6,7.2-1.2,10.9-1.9c1.8-0.3,1.2-2.8-0.4-2.9c-7.7-0.5-15.5-1-23.2-1.5c0.3,0.9,0.5,1.9,0.8,2.8
				c7.9-3.5,16.6-2.3,23.4,2.9c0.1-0.9,0.2-1.8,0.4-2.7c-6.1,2-12.2,2.1-18.4,0.4c0,1,0,1.9,0,2.9c4.7-1.9,9.5-3.8,14.2-5.7
				c1.5-0.6,1.4-2.9-0.4-2.9c-15.7-0.6-31.3,0.6-46.7,3.4c-1.9,0.4-1.1,3.2,0.8,2.9c7.2-1,14.3-2.1,21.5-3.1c-0.3-1-0.5-1.9-0.8-2.9
				c-4.1,1-8.2,1.9-12.4,2.9c-1.6,0.4-1.3,3.1,0.4,2.9c3.4-0.4,6.4-1.3,9.3-3.1c1.4-0.8,0.5-3.4-1.2-2.7c-1.3,0.6-2.7,1.1-4,1.7
				c0.4,0.9,0.8,1.8,1.2,2.7c4.6-3,9.7-2.8,14.1,0.3c0.1-0.9,0.2-1.8,0.4-2.7c-7,2.8-14.2,4.1-21.7,3.9
				C7017,7163.5,7017,7166.5,7019,7166.6L7019,7166.6z"/>
		</g>
	</g>
	<g>
		<g>
			<path class="st0" d="M7033,7162.4c2.1,1.5,4.2,2.2,6.7,2.5c0-1,0-2,0-3c-5.4-0.3-10.6-1.5-15.4-3.9c-1.7-0.8-3.3,1.8-1.5,2.6
				c5.4,2.6,11,4,16.9,4.3c2,0.1,1.9-2.8,0-3c-2-0.2-3.6-0.9-5.2-2.1C7032.9,7158.6,7031.4,7161.2,7033,7162.4L7033,7162.4z"/>
		</g>
	</g>
	<g>
		<g>
			<path class="st0" d="M7059.2,7145.3c21.6,8,44.1,12.9,67.1,14.7c1.9,0.2,1.9-2.8,0-3c-22.7-1.8-44.9-6.7-66.3-14.6
				C7058.2,7141.8,7057.4,7144.7,7059.2,7145.3L7059.2,7145.3z"/>
		</g>
	</g>
	<g>
		<g>
			<path class="st0" d="M7079.3,7142.4c16.9,1.9,33.6,4.6,50.3,7.9c0.1-1,0.3-2,0.4-2.9c-8.1,0.7-16.1,1.4-24.2,2.1
				c-1.7,0.1-2,2.3-0.4,2.9c5.5,2.1,11,3.1,16.8,3.2c1.1,0,2-1.3,1.3-2.3c-1.9-2.7-3.8-5.4-5.7-8.1c-0.7,0.7-1.4,1.4-2.1,2.1
				c6.7,4.4,13.7,8,21.1,10.9c1.6,0.6,2.3-1.5,1.5-2.5c-5.4-6.9-10.9-13.9-16.3-20.8c-0.7,0.7-1.4,1.4-2.1,2.1
				c6.1,5.8,12.5,11.2,19.2,16.3c0.8,0.6,2,0,2.2-0.9c1-4.1-0.6-7.8-4.4-9.7c-1.2-0.6-2.5,0.4-2.2,1.7c0.6,2.8,2.2,5.1,4.8,6.6
				c1.2,0.6,2.5,1.1,3.8,1.2c0.6,0.1,3.7-0.4,2.8-0.5c-1.9-0.2-1.9,2.8,0,3c2.4,0.2,4.4-2.4,3.1-4.7c-0.5-0.9-1.3-1.1-2.2-1.4
				c-1.4-0.3-3.3,0.8-5.1,0.1c-2.4-0.9-3.8-2.7-4.3-5.1c-0.7,0.6-1.5,1.1-2.2,1.7c2.5,1.2,3.7,3.5,3,6.3c0.7-0.3,1.5-0.6,2.2-0.9
				c-6.5-4.9-12.7-10.2-18.6-15.8c-1.4-1.4-3.3,0.6-2.1,2.1c5.4,6.9,10.9,13.9,16.3,20.8c0.5-0.8,1-1.7,1.5-2.5
				c-7.2-2.8-13.9-6.4-20.4-10.6c-1.2-0.8-2.9,0.8-2.1,2.1c1.9,2.7,3.8,5.4,5.7,8.1c0.4-0.8,0.9-1.5,1.3-2.3
				c-5.6-0.1-10.8-1.1-16-3.1c-0.1,1-0.3,2-0.4,2.9c8.1-0.7,16.1-1.4,24.2-2.1c1.6-0.1,2.2-2.6,0.4-2.9c-16.9-3.4-33.9-6.1-51.1-8
				C7077.4,7139.2,7077.4,7142.2,7079.3,7142.4L7079.3,7142.4z"/>
		</g>
	</g>
	<g>
		<g>
			<path class="st0" d="M7151.3,7157.5c-22.4-5.4-45.2-8.2-68.2-8.3c-1.9,0-1.9,3,0,3c22.7,0.2,45.3,2.9,67.4,8.2
				C7152.4,7160.8,7153.2,7157.9,7151.3,7157.5L7151.3,7157.5z"/>
		</g>
	</g>
	<g>
		<g>
			<path class="st0" d="M7153.3,7156.8c-4.4-6.5-11.7-10.1-19.6-9.6c-1.9,0.1-1.9,3.1,0,3c6.8-0.4,13.1,2.5,17,8.1
				C7151.8,7159.9,7154.4,7158.4,7153.3,7156.8L7153.3,7156.8z"/>
		</g>
	</g>
	<g>
		<g>
			<path class="st0" d="M7147.2,7155c-5.1-4.5-11.5-6.9-18.4-6.6c-1.9,0.1-1.9,3.1,0,3c6.1-0.2,11.7,1.7,16.3,5.7
				C7146.5,7158.4,7148.6,7156.3,7147.2,7155L7147.2,7155z"/>
		</g>
	</g>
	<g>
		<g>
			<path class="st0" d="M7143.1,7159.7c-5-2.4-10-4.7-15-7.1c-1.7-0.8-3.3,1.8-1.5,2.6c5,2.4,10,4.7,15,7.1
				C7143.4,7163.1,7144.9,7160.6,7143.1,7159.7L7143.1,7159.7z"/>
		</g>
	</g>
	<g>
		<g>
			<path class="st0" d="M7127.9,7154.9c-2.9-0.8-5.8-1.6-8.7-2.4c-1.9-0.5-2.7,2.4-0.8,2.9c2.9,0.8,5.8,1.6,8.7,2.4
				C7129,7158.3,7129.7,7155.4,7127.9,7154.9L7127.9,7154.9z"/>
		</g>
	</g>
	<g>
		<g>
			<path class="st0" d="M7142.4,7155.4c-15.2,0.4-29.9-2.8-43.5-9.7c-1.7-0.9-3.2,1.7-1.5,2.6c14,7.1,29.3,10.5,45,10.1
				C7144.3,7158.3,7144.3,7155.3,7142.4,7155.4L7142.4,7155.4z"/>
		</g>
	</g>
	<g>
		<g>
			<path class="st0" d="M7157.8,7163.7c-22.8-14.4-49-22.1-75.9-22.5c-1.9,0-1.9,3,0,3c26.4,0.4,52.1,8,74.4,22.1
				C7157.9,7167.3,7159.4,7164.7,7157.8,7163.7L7157.8,7163.7z"/>
		</g>
	</g>
	<g>
		<g>
			<path class="st0" d="M7115.6,7149.6c-15.4-4.5-31.3-7-47.4-7.3c-1.9,0-1.9,3,0,3c15.8,0.3,31.4,2.7,46.6,7.2
				C7116.7,7153,7117.5,7150.1,7115.6,7149.6L7115.6,7149.6z"/>
		</g>
	</g>
	<g>
		<g>
			<path class="st0" d="M7099.2,7148.3c-11.7-0.4-23.1-2.4-34.2-6c-1.8-0.6-2.6,2.3-0.8,2.9c11.4,3.6,23.1,5.6,35,6.1
				C7101.1,7151.4,7101.1,7148.4,7099.2,7148.3L7099.2,7148.3z"/>
		</g>
	</g>
	<g>
		<g>
			<path class="st0" d="M7080.7,7142.7c-17.7,1.2-35.5,0.8-53.2-1.2c-1.9-0.2-1.9,2.8,0,3c17.7,2,35.4,2.4,53.2,1.2
				C7082.6,7145.6,7082.6,7142.6,7080.7,7142.7L7080.7,7142.7z"/>
		</g>
	</g>
	<g>
		<path class="st1" d="M7302.6,7154.8c9.5-18.8,9.2-42.3-0.7-60.9c-1.7-3.2-4-6.5-7.4-7.8c-3.4-1.3-8.2,0.5-8.6,4.2
			c-0.3,2.5,1.5,4.8,3,6.9c5.4,7.9,6.8,18.4,3.8,27.4c-2.6,7.6-8.1,16-4,23c2.2,3.7,6.5,5.4,10.5,6.9"/>
	</g>
	<g>
		<path class="st1" d="M7203.8,7147.5c-1.3-16.4-2.6-33.5,3.3-48.8c1.1-2.9,2.5-6.1,1.4-9c-1.5-3.7-6.7-4.8-10.3-3s-5.9,5.5-7.6,9.1
			c-8.9,18.9-8.2,42,1.9,60.3c4.8-1.2,9-4.3,11.6-8.5"/>
	</g>
	<g>
		<g>
			<path class="st1" d="M7303.5,7155.1c-1.2-0.8-2.4-1.7-3.7-2.5c-0.7-0.5-1.7-0.1-2.1,0.5c-0.4,0.7-0.1,1.6,0.5,2.1
				c1.2,0.8,2.4,1.7,3.7,2.5c0.7,0.5,1.7,0.1,2.1-0.5C7304.4,7156.4,7304.1,7155.5,7303.5,7155.1L7303.5,7155.1z"/>
		</g>
	</g>
	<g>
		<g>
			<path class="st2" d="M7290.9,7093.7c0.4,1.6,1.2,3,2.2,4.2c0.5,0.6,1.6,0.5,2.1,0c0.6-0.6,0.5-1.5,0-2.1
				c-0.7-0.9-1.2-1.9-1.5-2.9C7293.2,7091.1,7290.3,7091.9,7290.9,7093.7L7290.9,7093.7z"/>
		</g>
	</g>
	<g>
		<g>
			<path class="st2" d="M7202.5,7090.2c-1.1,3.3-2.3,6.7-3.4,10c-0.6,1.8,2.3,2.6,2.9,0.8c1.1-3.3,2.3-6.7,3.4-10
				C7206,7089.2,7203.1,7088.4,7202.5,7090.2L7202.5,7090.2z"/>
		</g>
	</g>
	<g>
		<g>
			<path class="st3" d="M7287.5,7169.6c2.8-1.9,7.3-6.4,10.3-3.3c1.4,1.5,1.6,2.9,3.6,3.9c4.4,2.1,9.4-0.3,13.9,0
				c7.4,0.4,21.2,11.6,26.2,0c0.8-1.8-1.8-3.3-2.6-1.5c-3.1,7.2-12.1,2.1-16.9,0.2c-4.2-1.7-7.8-1.8-12.3-1.2c-3.5,0.4-6.7,1-9-2.3
				c-1.1-1.5-1.4-3.2-3.4-3.9c-3.7-1.2-8.5,3.7-11.3,5.5C7284.4,7168.1,7285.9,7170.7,7287.5,7169.6L7287.5,7169.6z"/>
		</g>
	</g>
	<g>
		<g>
			<path class="st3" d="M7221,7162c-4.4-3-8.8-6.2-13.4-9c-2.6-1.6-5.9-3.2-8.9-1.6c-1.9,1-2.9,2.9-3.5,4.8c-1.2,3.5-1.4,10-6.8,6.8
				c-3.5-2.1-7.5-7.4-11.5-2.8c-1.5,1.7-1.2,3.1-3.3,4.1c-2.7,1.2-6.3,0-9.1-0.7c-5.2-1.4-10-3.8-14.3-7c-1.6-1.1-3.1,1.5-1.5,2.6
				c6.6,4.8,15.2,8.7,23.5,8.7c3.1,0,4-0.9,5.7-3.2c0.9-1.2,2.1-3.2,4.1-2.8c0.7,0.1,1.6,1.1,2.1,1.5c1.1,0.8,2.1,1.8,3.2,2.5
				c4,2.4,7.8,1,9.3-3.4c0.5-1.3,0.7-2.7,1-4c1-3.8,4.2-5.4,7.8-3.4c4.9,2.7,9.4,6.3,14,9.4C7221.1,7165.7,7222.6,7163.1,7221,7162
				L7221,7162z"/>
		</g>
	</g>
	<g>
		<g>
			<path class="st3" d="M7402,7223.9c-3.5-0.9-6.7,0.8-8.4,4c-2.2,4.4-0.1,9.2,1.8,13.3c0.4-0.8,0.9-1.5,1.3-2.3
				c-8-0.8-14.9,5.5-15,13.5c0,1.9,3,1.9,3,0c0.1-6.5,5.7-11.1,12-10.5c1.2,0.1,1.7-1.3,1.3-2.3c-0.9-1.9-1.9-3.8-2.1-6
				c-0.3-2.8,0.2-8.2,5.3-6.9C7403.1,7227.3,7403.9,7224.4,7402,7223.9L7402,7223.9z"/>
		</g>
	</g>
	<g>
		<g>
			<path class="st3" d="M7091.6,7264.6c0.3-2.5-0.7-4.5-2.1-6.4c-0.8-1.1-1.7-2.1-2.6-3.1c-2-2.6-2.3-3.5-1-6.9
				c0.9-2.3,1.7-4,0.1-6.2c-0.9-1.2-2.2-2-3.5-2.6c-1.1-0.5-9.8-2.5-6.2-5.6c1.5-1.3-0.7-3.4-2.1-2.1c-2,1.7-2.2,4.4-0.6,6.6
				c3.3,4.8,11.2,1.3,9.1,9.8c-0.7,2.7-1.1,4.2,0.5,6.9c1.9,3.2,6,5.7,5.6,9.8C7088.4,7266.6,7091.4,7266.5,7091.6,7264.6
				L7091.6,7264.6z"/>
		</g>
	</g>
	<g>
		<path class="st4" d="M7316.7,7149.1c-2.8,2.3-2.1,7.5,1.2,9c3.3,1.5,7.7-1.5,7.5-5.1c-0.1-3.6-4.7-6.2-7.9-4.5"/>
	</g>
	<g>
		<path class="st4" d="M7168.9,7148.7c0.9-2.7,2-5.7,4.7-6.7c4.4-1.7,8.4,5.1,5.5,8.8c-2.9,3.7-9.3,2.8-12.2-0.9"/>
	</g>
</g>
</svg>
