<svg xmlns="http://www.w3.org/2000/svg" xmlns:xlink="http://www.w3.org/1999/xlink" viewBox="0 0 1911 1072"><defs><style>.cls-1,.cls-6{stroke:#000;stroke-miterlimit:10;}.cls-1{fill:url(#linear-gradient);}.cls-2{fill:#c39c75;}.cls-3{fill:#006837;}.cls-4{fill:#467d16;}.cls-5{fill:url(#radial-gradient);}.cls-6{fill:none;}</style><linearGradient id="linear-gradient" x1="956" y1="240.5" x2="956" y2="-0.5" gradientUnits="userSpaceOnUse"><stop offset="0" stop-color="#cce0f4"/><stop offset="0.01" stop-color="#c3dcf2"/><stop offset="0.03" stop-color="#a9d2ee"/><stop offset="0.05" stop-color="#80c2e7"/><stop offset="0.08" stop-color="#47acde"/><stop offset="0.1" stop-color="#1e9cd7"/><stop offset="0.87" stop-color="#0075be"/><stop offset="0.99" stop-color="#005b97"/></linearGradient><radialGradient id="radial-gradient" cx="955.5" cy="650.5" r="743.52" gradientUnits="userSpaceOnUse"><stop offset="0" stop-color="#1e9cd7"/><stop offset="0.14" stop-color="#0176bf"/><stop offset="0.37" stop-color="#0176bf"/><stop offset="0.46" stop-color="#0075be"/><stop offset="0.89" stop-color="#005b97"/></radialGradient></defs><title>Artboard 1</title><g id="Layer_4" data-name="Layer 4"><rect class="cls-1" x="-3.5" y="-0.5" width="1919" height="241"/></g><g id="Layer_3" data-name="Layer 3"><rect class="cls-2" x="1658.97" y="73.66" width="9" height="144" transform="translate(-6.36 146.78) rotate(-5.04)"/><polygon class="cls-3" points="1651.72 18.2 1615.18 96.71 1701.45 89.1 1651.72 18.2"/><polygon class="cls-3" points="1649.15 34.48 1612.6 113 1698.87 105.39 1649.15 34.48"/><polygon class="cls-3" points="1662.59 50.36 1626.05 128.88 1712.32 121.27 1662.59 50.36"/><polygon class="cls-3" points="1644.69 75.03 1608.15 153.55 1694.42 145.94 1644.69 75.03"/><polygon class="cls-3" points="1667.84 87.05 1631.3 165.56 1717.56 157.95 1667.84 87.05"/><polygon class="cls-3" points="1647.42 105.91 1610.88 184.43 1697.14 176.82 1647.42 105.91"/><polygon class="cls-3" points="1678.03 100.2 1641.49 178.72 1727.76 171.1 1678.03 100.2"/><polygon class="cls-3" points="1656.35 116.17 1619.81 194.68 1706.08 187.07 1656.35 116.17"/><rect class="cls-2" x="118.81" y="103.08" width="9" height="144" transform="translate(17.46 -11.08) rotate(5.53)"/><polygon class="cls-3" points="135.16 47.63 84.83 118.1 171.03 126.46 135.16 47.63"/><polygon class="cls-3" points="129.64 63.17 79.3 133.64 165.5 142 129.64 63.17"/><polygon class="cls-3" points="139.94 81.25 89.61 151.72 175.81 160.07 139.94 81.25"/><polygon class="cls-3" points="117.82 102.21 67.48 172.68 153.68 181.04 117.82 102.21"/><polygon class="cls-3" points="138.36 118.27 88.03 188.74 174.23 197.09 138.36 118.27"/><polygon class="cls-3" points="114.83 133.07 64.49 203.54 150.69 211.89 114.83 133.07"/><polygon class="cls-3" points="145.97 133.07 95.64 203.54 181.84 211.9 145.97 133.07"/><polygon class="cls-3" points="121.73 144.79 71.39 215.26 157.59 223.61 121.73 144.79"/><rect class="cls-2" x="214.5" y="92.5" width="9" height="144"/><polygon class="cls-3" points="218.5 36.5 175.2 111.5 261.8 111.5 218.5 36.5"/><polygon class="cls-3" points="214.5 52.5 171.2 127.5 257.8 127.5 214.5 52.5"/><polygon class="cls-3" points="226.5 69.5 183.2 144.5 269.8 144.5 226.5 69.5"/><polygon class="cls-3" points="206.5 92.5 163.2 167.5 249.8 167.5 206.5 92.5"/><polygon class="cls-3" points="228.5 106.5 185.2 181.5 271.8 181.5 228.5 106.5"/><polygon class="cls-3" points="206.5 123.5 163.2 198.5 249.8 198.5 206.5 123.5"/><polygon class="cls-3" points="237.5 120.5 194.2 195.5 280.8 195.5 237.5 120.5"/><polygon class="cls-3" points="214.5 134.5 171.2 209.5 257.8 209.5 214.5 134.5"/><rect class="cls-2" x="315.24" y="93.96" width="9" height="144" transform="translate(21.64 -36.31) rotate(6.73)"/><polygon class="cls-3" points="334.24 38.78 282.45 108.19 368.45 118.33 334.24 38.78"/><polygon class="cls-3" points="328.39 54.2 276.6 123.61 362.61 133.75 328.39 54.2"/><polygon class="cls-3" points="338.32 72.49 286.53 141.9 372.54 152.04 338.32 72.49"/><polygon class="cls-3" points="315.76 92.99 263.97 162.4 349.98 172.54 315.76 92.99"/><polygon class="cls-3" points="335.97 109.47 284.18 178.88 370.19 189.02 335.97 109.47"/><polygon class="cls-3" points="312.13 123.77 260.34 193.19 346.35 203.33 312.13 123.77"/><polygon class="cls-3" points="343.27 124.43 291.48 193.84 377.49 203.98 343.27 124.43"/><polygon class="cls-3" points="318.79 135.63 267 205.05 353 215.19 318.79 135.63"/><rect class="cls-2" x="414.02" y="91.44" width="9" height="144" transform="translate(2.84 -7.09) rotate(0.97)"/><polygon class="cls-3" points="420.2 35.45 375.63 109.71 462.22 111.18 420.2 35.45"/><polygon class="cls-3" points="415.93 51.38 371.36 125.64 457.95 127.11 415.93 51.38"/><polygon class="cls-3" points="427.64 68.59 383.07 142.84 469.66 144.31 427.64 68.59"/><polygon class="cls-3" points="407.25 91.24 362.68 165.5 449.27 166.97 407.25 91.24"/><polygon class="cls-3" points="429.01 105.61 384.44 179.87 471.03 181.34 429.01 105.61"/><polygon class="cls-3" points="406.72 122.24 362.15 196.49 448.74 197.96 406.72 122.24"/><polygon class="cls-3" points="437.77 119.77 393.2 194.02 479.79 195.49 437.77 119.77"/><polygon class="cls-3" points="414.54 133.37 369.96 207.63 456.56 209.1 414.54 133.37"/><rect class="cls-2" x="473.24" y="99.66" width="9" height="144" transform="translate(-14.45 47.37) rotate(-5.59)"/><polygon class="cls-3" points="464.77 44.32 428.99 123.18 515.18 114.74 464.77 44.32"/><polygon class="cls-3" points="462.35 60.63 426.56 139.49 512.75 131.05 462.35 60.63"/><polygon class="cls-3" points="475.95 76.38 440.16 155.24 526.35 146.8 475.95 76.38"/><polygon class="cls-3" points="458.29 101.22 422.5 180.08 508.69 171.64 458.29 101.22"/><polygon class="cls-3" points="481.55 113.01 445.76 191.87 531.95 183.43 481.55 113.01"/><polygon class="cls-3" points="461.31 132.07 425.52 210.93 511.71 202.5 461.31 132.07"/><polygon class="cls-3" points="491.87 126.07 456.08 204.93 542.27 196.49 491.87 126.07"/><polygon class="cls-3" points="470.34 142.24 434.55 221.1 520.74 212.66 470.34 142.24"/><rect class="cls-2" x="411.5" y="228.5" width="9" height="144"/><polygon class="cls-3" points="415.5 172.5 372.2 247.5 458.8 247.5 415.5 172.5"/><polygon class="cls-3" points="411.5 188.5 368.2 263.5 454.8 263.5 411.5 188.5"/><polygon class="cls-3" points="423.5 205.5 380.2 280.5 466.8 280.5 423.5 205.5"/><polygon class="cls-3" points="403.5 228.5 360.2 303.5 446.8 303.5 403.5 228.5"/><polygon class="cls-3" points="425.5 242.5 382.2 317.5 468.8 317.5 425.5 242.5"/><polygon class="cls-3" points="403.5 259.5 360.2 334.5 446.8 334.5 403.5 259.5"/><polygon class="cls-3" points="434.5 256.5 391.2 331.5 477.8 331.5 434.5 256.5"/><polygon class="cls-3" points="411.5 270.5 368.2 345.5 454.8 345.5 411.5 270.5"/><rect class="cls-2" x="542.69" y="128.25" width="9" height="144" transform="matrix(1, 0.07, -0.07, 1, 14.18, -35.15)"/><polygon class="cls-3" points="555.01 72.48 506.92 144.51 593.34 150.14 555.01 72.48"/><polygon class="cls-3" points="549.98 88.19 501.89 160.22 588.31 165.85 549.98 88.19"/><polygon class="cls-3" points="560.85 105.93 512.76 177.96 599.18 183.59 560.85 105.93"/><polygon class="cls-3" points="539.39 127.58 491.31 199.61 577.73 205.24 539.39 127.58"/><polygon class="cls-3" points="560.44 142.99 512.35 215.01 598.77 220.64 560.44 142.99"/><polygon class="cls-3" points="537.38 158.52 489.29 230.55 575.71 236.18 537.38 158.52"/><polygon class="cls-3" points="568.51 157.54 520.42 229.57 606.84 235.2 568.51 157.54"/><polygon class="cls-3" points="544.65 170.02 496.56 242.04 582.98 247.67 544.65 170.02"/><rect class="cls-2" x="613.41" y="103.51" width="9" height="144" transform="translate(-23.02 132.73) rotate(-12.04)"/><polygon class="cls-3" points="590.72 50.43 564.01 132.81 648.71 114.75 590.72 50.43"/><polygon class="cls-3" points="590.15 66.91 563.44 149.29 648.14 131.23 590.15 66.91"/><polygon class="cls-3" points="605.43 81.03 578.72 163.42 663.42 145.35 605.43 81.03"/><polygon class="cls-3" points="590.66 107.7 563.96 190.08 648.65 172.02 590.66 107.7"/><polygon class="cls-3" points="615.1 116.8 588.39 199.19 673.09 181.12 615.1 116.8"/><polygon class="cls-3" points="597.13 138.02 570.42 220.4 655.12 202.34 597.13 138.02"/><polygon class="cls-3" points="626.82 128.62 600.12 211 684.81 192.94 626.82 128.62"/><polygon class="cls-3" points="607.25 147.11 580.54 229.49 665.24 211.43 607.25 147.11"/><rect class="cls-2" x="679.33" y="125.18" width="9" height="144" transform="translate(17.39 -52.55) rotate(4.46)"/><polygon class="cls-3" points="693.28 69.53 644.28 140.94 730.62 147.67 693.28 69.53"/><polygon class="cls-3" points="688.05 85.17 639.05 156.58 725.39 163.31 688.05 85.17"/><polygon class="cls-3" points="698.69 103.05 649.69 174.46 736.03 181.19 698.69 103.05"/><polygon class="cls-3" points="676.97 124.43 627.97 195.84 714.31 202.57 676.97 124.43"/><polygon class="cls-3" points="697.81 140.1 648.81 211.5 735.15 218.23 697.81 140.1"/><polygon class="cls-3" points="674.56 155.34 625.56 226.74 711.9 233.47 674.56 155.34"/><polygon class="cls-3" points="705.7 154.75 656.7 226.16 743.04 232.89 705.7 154.75"/><polygon class="cls-3" points="681.68 166.92 632.68 238.33 719.02 245.06 681.68 166.92"/><rect class="cls-2" x="769.93" y="125.65" width="9" height="144" transform="translate(-14.2 67.76) rotate(-4.96)"/><polygon class="cls-3" points="762.86 70.18 726.21 148.64 812.49 141.15 762.86 70.18"/><polygon class="cls-3" points="760.26 86.46 723.61 164.93 809.89 157.44 760.26 86.46"/><polygon class="cls-3" points="773.68 102.36 737.04 180.83 823.31 173.33 773.68 102.36"/><polygon class="cls-3" points="755.75 127.01 719.1 205.47 805.38 197.98 755.75 127.01"/><polygon class="cls-3" points="778.88 139.05 742.23 217.52 828.51 210.02 778.88 139.05"/><polygon class="cls-3" points="758.43 157.89 721.78 236.36 808.06 228.86 758.43 157.89"/><polygon class="cls-3" points="789.06 152.22 752.41 230.69 838.69 223.19 789.06 152.22"/><polygon class="cls-3" points="767.36 168.16 730.71 246.62 816.98 239.13 767.36 168.16"/><rect class="cls-2" x="848.68" y="110.52" width="9" height="144" transform="translate(-1.15 5.44) rotate(-0.37)"/><polygon class="cls-3" points="851.86 54.52 809.04 129.8 895.64 129.25 851.86 54.52"/><polygon class="cls-3" points="847.97 70.55 805.14 145.82 891.74 145.27 847.97 70.55"/><polygon class="cls-3" points="860.07 87.47 817.25 162.75 903.85 162.19 860.07 87.47"/><polygon class="cls-3" points="840.22 110.6 797.4 185.87 884 185.32 840.22 110.6"/><polygon class="cls-3" points="862.31 124.46 819.49 199.73 906.09 199.18 862.31 124.46"/><polygon class="cls-3" points="840.42 141.6 797.6 216.87 884.2 216.32 840.42 141.6"/><polygon class="cls-3" points="871.4 138.4 828.58 213.68 915.18 213.12 871.4 138.4"/><polygon class="cls-3" points="848.49 152.55 805.66 227.82 892.27 227.27 848.49 152.55"/><rect class="cls-2" x="917.9" y="110.1" width="9" height="144" transform="translate(21.03 -85.32) rotate(5.36)"/><polygon class="cls-3" points="933.85 54.61 883.74 125.24 969.96 133.32 933.85 54.61"/><polygon class="cls-3" points="928.38 70.17 878.26 140.8 964.49 148.88 928.38 70.17"/><polygon class="cls-3" points="938.74 88.21 888.62 158.84 974.85 166.93 938.74 88.21"/><polygon class="cls-3" points="916.67 109.25 866.56 179.88 952.79 187.96 916.67 109.25"/><polygon class="cls-3" points="937.27 125.24 887.16 195.87 973.38 203.95 937.27 125.24"/><polygon class="cls-3" points="913.78 140.11 863.67 210.74 949.89 218.82 913.78 140.11"/><polygon class="cls-3" points="944.93 140.02 894.81 210.65 981.04 218.73 944.93 140.02"/><polygon class="cls-3" points="920.72 151.81 870.61 222.44 956.83 230.52 920.72 151.81"/><rect class="cls-2" x="971.5" y="121.5" width="9" height="144"/><polygon class="cls-3" points="975.5 65.5 932.2 140.5 1018.8 140.5 975.5 65.5"/><polygon class="cls-3" points="971.5 81.5 928.2 156.5 1014.8 156.5 971.5 81.5"/><polygon class="cls-3" points="983.5 98.5 940.2 173.5 1026.8 173.5 983.5 98.5"/><polygon class="cls-3" points="963.5 121.5 920.2 196.5 1006.8 196.5 963.5 121.5"/><polygon class="cls-3" points="985.5 135.5 942.2 210.5 1028.8 210.5 985.5 135.5"/><polygon class="cls-3" points="963.5 152.5 920.2 227.5 1006.8 227.5 963.5 152.5"/><polygon class="cls-3" points="994.5 149.5 951.2 224.5 1037.8 224.5 994.5 149.5"/><polygon class="cls-3" points="971.5 163.5 928.2 238.5 1014.8 238.5 971.5 163.5"/><rect class="cls-2" x="1053.69" y="100.4" width="9" height="144" transform="translate(5.43 -30.53) rotate(1.66)"/><polygon class="cls-3" points="1061.39 44.44 1015.94 118.16 1102.51 120.66 1061.39 44.44"/><polygon class="cls-3" points="1056.93 60.32 1011.48 134.03 1098.05 136.54 1056.93 60.32"/><polygon class="cls-3" points="1068.44 77.66 1022.98 151.37 1109.55 153.88 1068.44 77.66"/><polygon class="cls-3" points="1047.78 100.07 1002.33 173.79 1088.89 176.29 1047.78 100.07"/><polygon class="cls-3" points="1069.37 114.7 1023.91 188.42 1110.48 190.92 1069.37 114.7"/><polygon class="cls-3" points="1046.88 131.06 1001.43 204.77 1088 207.28 1046.88 131.06"/><polygon class="cls-3" points="1077.96 128.96 1032.5 202.67 1119.07 205.18 1077.96 128.96"/><polygon class="cls-3" points="1054.56 142.28 1009.11 216 1095.67 218.5 1054.56 142.28"/><rect class="cls-2" x="1132.9" y="101.61" width="9" height="144" transform="translate(-7.26 57.06) rotate(-2.86)"/><polygon class="cls-3" points="1130.51 45.8 1091.01 122.87 1177.5 118.54 1130.51 45.8"/><polygon class="cls-3" points="1127.31 61.98 1087.81 139.05 1174.31 134.72 1127.31 61.98"/><polygon class="cls-3" points="1140.15 78.36 1100.65 155.43 1187.14 151.1 1140.15 78.36"/><polygon class="cls-3" points="1121.32 102.33 1081.82 179.4 1168.32 175.07 1121.32 102.33"/><polygon class="cls-3" points="1143.99 115.21 1104.49 192.28 1190.99 187.96 1143.99 115.21"/><polygon class="cls-3" points="1122.87 133.29 1083.37 210.36 1169.87 206.03 1122.87 133.29"/><polygon class="cls-3" points="1153.68 128.75 1114.18 205.82 1200.68 201.49 1153.68 128.75"/><polygon class="cls-3" points="1131.41 143.88 1091.91 220.95 1178.4 216.62 1131.41 143.88"/><rect class="cls-2" x="1218.5" y="92.5" width="9" height="144"/><polygon class="cls-3" points="1222.5 36.5 1179.2 111.5 1265.8 111.5 1222.5 36.5"/><polygon class="cls-3" points="1218.5 52.5 1175.2 127.5 1261.8 127.5 1218.5 52.5"/><polygon class="cls-3" points="1230.5 69.5 1187.2 144.5 1273.8 144.5 1230.5 69.5"/><polygon class="cls-3" points="1210.5 92.5 1167.2 167.5 1253.8 167.5 1210.5 92.5"/><polygon class="cls-3" points="1232.5 106.5 1189.2 181.5 1275.8 181.5 1232.5 106.5"/><polygon class="cls-3" points="1210.5 123.5 1167.2 198.5 1253.8 198.5 1210.5 123.5"/><polygon class="cls-3" points="1241.5 120.5 1198.2 195.5 1284.8 195.5 1241.5 120.5"/><polygon class="cls-3" points="1218.5 134.5 1175.2 209.5 1261.8 209.5 1218.5 134.5"/><rect class="cls-2" x="1319.5" y="106.5" width="9" height="144"/><polygon class="cls-3" points="1323.5 50.5 1280.2 125.5 1366.8 125.5 1323.5 50.5"/><polygon class="cls-3" points="1319.5 66.5 1276.2 141.5 1362.8 141.5 1319.5 66.5"/><polygon class="cls-3" points="1331.5 83.5 1288.2 158.5 1374.8 158.5 1331.5 83.5"/><polygon class="cls-3" points="1311.5 106.5 1268.2 181.5 1354.8 181.5 1311.5 106.5"/><polygon class="cls-3" points="1333.5 120.5 1290.2 195.5 1376.8 195.5 1333.5 120.5"/><polygon class="cls-3" points="1311.5 137.5 1268.2 212.5 1354.8 212.5 1311.5 137.5"/><polygon class="cls-3" points="1342.5 134.5 1299.2 209.5 1385.8 209.5 1342.5 134.5"/><polygon class="cls-3" points="1319.5 148.5 1276.2 223.5 1362.8 223.5 1319.5 148.5"/><rect class="cls-2" x="1426.5" y="114.5" width="9" height="144"/><polygon class="cls-3" points="1430.5 58.5 1387.2 133.5 1473.8 133.5 1430.5 58.5"/><polygon class="cls-3" points="1426.5 74.5 1383.2 149.5 1469.8 149.5 1426.5 74.5"/><polygon class="cls-3" points="1438.5 91.5 1395.2 166.5 1481.8 166.5 1438.5 91.5"/><polygon class="cls-3" points="1418.5 114.5 1375.2 189.5 1461.8 189.5 1418.5 114.5"/><polygon class="cls-3" points="1440.5 128.5 1397.2 203.5 1483.8 203.5 1440.5 128.5"/><polygon class="cls-3" points="1418.5 145.5 1375.2 220.5 1461.8 220.5 1418.5 145.5"/><polygon class="cls-3" points="1449.5 142.5 1406.2 217.5 1492.8 217.5 1449.5 142.5"/><polygon class="cls-3" points="1426.5 156.5 1383.2 231.5 1469.8 231.5 1426.5 156.5"/><rect class="cls-2" x="1603.5" y="103.5" width="9" height="144"/><polygon class="cls-3" points="1607.5 47.5 1564.2 122.5 1650.8 122.5 1607.5 47.5"/><polygon class="cls-3" points="1603.5 63.5 1560.2 138.5 1646.8 138.5 1603.5 63.5"/><polygon class="cls-3" points="1615.5 80.5 1572.2 155.5 1658.8 155.5 1615.5 80.5"/><polygon class="cls-3" points="1595.5 103.5 1552.2 178.5 1638.8 178.5 1595.5 103.5"/><polygon class="cls-3" points="1617.5 117.5 1574.2 192.5 1660.8 192.5 1617.5 117.5"/><polygon class="cls-3" points="1595.5 134.5 1552.2 209.5 1638.8 209.5 1595.5 134.5"/><polygon class="cls-3" points="1626.5 131.5 1583.2 206.5 1669.8 206.5 1626.5 131.5"/><polygon class="cls-3" points="1603.5 145.5 1560.2 220.5 1646.8 220.5 1603.5 145.5"/><rect class="cls-2" x="1682.5" y="113.5" width="9" height="144"/><polygon class="cls-3" points="1686.5 57.5 1643.2 132.5 1729.8 132.5 1686.5 57.5"/><polygon class="cls-3" points="1682.5 73.5 1639.2 148.5 1725.8 148.5 1682.5 73.5"/><polygon class="cls-3" points="1694.5 90.5 1651.2 165.5 1737.8 165.5 1694.5 90.5"/><polygon class="cls-3" points="1674.5 113.5 1631.2 188.5 1717.8 188.5 1674.5 113.5"/><polygon class="cls-3" points="1696.5 127.5 1653.2 202.5 1739.8 202.5 1696.5 127.5"/><polygon class="cls-3" points="1674.5 144.5 1631.2 219.5 1717.8 219.5 1674.5 144.5"/><polygon class="cls-3" points="1705.5 141.5 1662.2 216.5 1748.8 216.5 1705.5 141.5"/><polygon class="cls-3" points="1682.5 155.5 1639.2 230.5 1725.8 230.5 1682.5 155.5"/><rect class="cls-2" x="1720.88" y="114.28" width="9" height="144" transform="translate(13.75 -99.99) rotate(3.33)"/><polygon class="cls-3" points="1732.32 58.47 1684.73 130.82 1771.19 135.86 1732.32 58.47"/><polygon class="cls-3" points="1727.4 74.21 1679.81 146.56 1766.26 151.6 1727.4 74.21"/><polygon class="cls-3" points="1738.39 91.88 1690.8 164.23 1777.26 169.26 1738.39 91.88"/><polygon class="cls-3" points="1717.08 113.67 1669.5 186.03 1755.95 191.06 1717.08 113.67"/><polygon class="cls-3" points="1738.23 128.93 1690.64 201.28 1777.1 206.32 1738.23 128.93"/><polygon class="cls-3" points="1715.28 144.62 1667.69 216.98 1754.15 222.01 1715.28 144.62"/><polygon class="cls-3" points="1746.4 143.43 1698.82 215.78 1785.27 220.82 1746.4 143.43"/><polygon class="cls-3" points="1722.63 156.07 1675.04 228.42 1761.5 233.46 1722.63 156.07"/><rect class="cls-2" x="1788.31" y="108.66" width="9" height="144" transform="translate(-9.08 180.13) rotate(-5.74)"/><polygon class="cls-3" points="1779.52 53.35 1743.93 132.3 1830.1 123.65 1779.52 53.35"/><polygon class="cls-3" points="1777.14 69.67 1741.55 148.62 1827.72 139.97 1777.14 69.67"/><polygon class="cls-3" points="1790.78 85.39 1755.19 164.34 1841.36 155.68 1790.78 85.39"/><polygon class="cls-3" points="1773.18 110.27 1737.59 189.22 1823.76 180.57 1773.18 110.27"/><polygon class="cls-3" points="1796.47 122 1760.88 200.95 1847.05 192.3 1796.47 122"/><polygon class="cls-3" points="1776.28 141.12 1740.69 220.07 1826.86 211.41 1776.28 141.12"/><polygon class="cls-3" points="1806.82 135.03 1771.24 213.98 1857.4 205.33 1806.82 135.03"/><polygon class="cls-3" points="1785.34 151.26 1749.75 230.21 1835.92 221.56 1785.34 151.26"/><rect class="cls-2" x="1848.33" y="103.98" width="9" height="144" transform="translate(32.09 -209.82) rotate(6.54)"/><polygon class="cls-3" points="1866.91 48.75 1815.35 118.33 1901.39 128.19 1866.91 48.75"/><polygon class="cls-3" points="1861.11 64.19 1809.55 133.77 1895.59 143.63 1861.11 64.19"/><polygon class="cls-3" points="1871.1 82.45 1819.54 152.03 1905.58 161.89 1871.1 82.45"/><polygon class="cls-3" points="1848.61 103.02 1797.05 172.6 1883.09 182.46 1848.61 103.02"/><polygon class="cls-3" points="1868.87 119.44 1817.31 189.02 1903.35 198.88 1868.87 119.44"/><polygon class="cls-3" points="1845.08 133.82 1793.52 203.4 1879.56 213.26 1845.08 133.82"/><polygon class="cls-3" points="1876.22 134.37 1824.66 203.95 1910.7 213.81 1876.22 134.37"/><polygon class="cls-3" points="1851.78 145.66 1800.22 215.24 1886.26 225.1 1851.78 145.66"/><rect class="cls-2" x="1895.5" y="122.5" width="9" height="144"/><polygon class="cls-3" points="1899.5 66.5 1856.2 141.5 1942.8 141.5 1899.5 66.5"/><polygon class="cls-3" points="1895.5 82.5 1852.2 157.5 1938.8 157.5 1895.5 82.5"/><polygon class="cls-3" points="1907.5 99.5 1864.2 174.5 1950.8 174.5 1907.5 99.5"/><polygon class="cls-3" points="1887.5 122.5 1844.2 197.5 1930.8 197.5 1887.5 122.5"/><polygon class="cls-3" points="1909.5 136.5 1866.2 211.5 1952.8 211.5 1909.5 136.5"/><polygon class="cls-3" points="1887.5 153.5 1844.2 228.5 1930.8 228.5 1887.5 153.5"/><polygon class="cls-3" points="1918.5 150.5 1875.2 225.5 1961.8 225.5 1918.5 150.5"/><polygon class="cls-3" points="1895.5 164.5 1852.2 239.5 1938.8 239.5 1895.5 164.5"/><rect class="cls-2" x="1505.37" y="110.74" width="9" height="144" transform="translate(43.94 -222.42) rotate(8.55)"/><polygon class="cls-3" points="1528.4 56.09 1474.43 123.82 1560.08 136.69 1528.4 56.09"/><polygon class="cls-3" points="1522.07 71.32 1468.1 139.05 1553.74 151.92 1522.07 71.32"/><polygon class="cls-3" points="1531.41 89.91 1477.44 157.64 1563.08 170.52 1531.41 89.91"/><polygon class="cls-3" points="1508.21 109.69 1454.24 177.41 1539.88 190.29 1508.21 109.69"/><polygon class="cls-3" points="1527.89 126.8 1473.92 194.53 1559.56 207.4 1527.89 126.8"/><polygon class="cls-3" points="1503.61 140.34 1449.63 208.07 1535.28 220.94 1503.61 140.34"/><polygon class="cls-3" points="1534.71 141.98 1480.74 209.71 1566.38 222.59 1534.71 141.98"/><polygon class="cls-3" points="1509.88 152.41 1455.91 220.14 1541.55 233.01 1509.88 152.41"/><rect class="cls-2" x="52.83" y="110.56" width="9" height="144" transform="translate(-33.38 14.08) rotate(-10.86)"/><polygon class="cls-3" points="32.72 56.95 4.33 138.77 89.38 122.45 32.72 56.95"/><polygon class="cls-3" points="31.8 73.42 3.41 155.24 88.46 138.91 31.8 73.42"/><polygon class="cls-3" points="46.79 87.85 18.4 169.67 103.45 153.35 46.79 87.85"/><polygon class="cls-3" points="31.48 114.21 3.1 196.03 88.15 179.7 31.48 114.21"/><polygon class="cls-3" points="55.73 123.81 27.34 205.63 112.39 189.31 55.73 123.81"/><polygon class="cls-3" points="37.33 144.65 8.94 226.47 93.99 210.15 37.33 144.65"/><polygon class="cls-3" points="67.21 135.87 38.82 217.68 123.87 201.36 67.21 135.87"/><polygon class="cls-3" points="47.26 153.95 18.87 235.77 103.92 219.44 47.26 153.95"/></g><g id="Layer_2" data-name="Layer 2"><path class="cls-4" d="M1917,226.5l-2.5,101.83c-8.68-18.32-71-32.83-71-32.83s-57-23-59-23-49-3-49-3l-13-11-24-1-23-9-32-4-35-2-29-10-30-3-36-8h-198l-181,1h-62l-88,4h-69s-76,4-79,4-116,4-116,4l-137,11-194,7-179,11-215,10.95-1,.05,2.5-71,184,1H310s101,3,103,3,58,2,58,2l64,4,86,5h77l109,3h90s77,1,79,0,85-3,85-3l67-2h333c1,0,88,3,88,3l27-1,74,7h102Z"/><path class="cls-5" d="M1914.5,328.33a9.67,9.67,0,0,1,1,4.17v228l-.29,2-225.71-33-340-47-238-38L949.74,486.44l-.24-.94-249,58-.11.36L686.5,539.5l-6,2v23.2l-24,6.8,2,31,46.23,17.43L704.5,736.5l25,14,20-3V636.82l194.7,73.42,2.3,146.26,22,12,21-12V727.32l357,134.61-12,167.57,38,17,23-22L1402.25,883,1915.5,1076.5v3H-4.5v-805l215-10.95,179-11,194-7,137-11s113-4,116-4,79-4,79-4h69l88-4h62l181-1h198l36,8,30,3,29,10,35,2,32,4,23,9,24,1,13,11s47,3,49,3,59,23,59,23S1905.82,310,1914.5,328.33Z"/><polygon class="cls-2" points="989.5 727.32 968.5 719.4 944.2 710.24 749.5 636.82 729.5 629.27 704.73 619.93 658.5 602.5 656.5 571.5 1349.5 814.24 1915.5 1012.5 1915.5 1076.5 1402.25 882.96 1384.96 876.44 1346.49 861.93 989.5 727.32"/><path class="cls-2" d="M1915.5,628.5v170l-38,112.89-89.06-26.76h0c2.16-3.39,89-176.12,89-176.12Z"/><polygon class="cls-2" points="1808.33 609.3 1757.69 600.22 1712.5 592.13 1670.61 584.62 1670.48 584.6 1670.5 584.5 1689.5 529.5 1915.21 562.46 1915.5 562.5 1915.5 628.5 1862.94 619.08 1808.33 609.3"/><path class="cls-2" d="M1915.5,628.5l-38,80s-86.86,172.73-89,176.12l-84.55-25.41L1800.5,714.5l62.44-95.42Z"/><polygon class="cls-2" points="1915.5 798.5 1914.5 922.5 1877.86 911.49 1877.54 911.39 1915.5 798.5"/><polygon class="cls-2" points="1914.5 985.5 1915.5 1012.5 1349.5 814.24 1367.5 803.5 1914.5 985.5"/><polygon class="cls-2" points="1914.5 933.5 1914.5 985.5 1367.5 803.5 1367.5 764.5 1914.5 933.5"/><polygon class="cls-2" points="1914.5 922.5 1914.5 933.5 1367.5 764.5 1375.5 760.5 1429.37 776.69 1493.1 795.84 1556.02 814.76 1628.92 836.67 1703.93 859.21 1788.48 884.62 1788.48 884.63 1877.54 911.39 1877.5 911.5 1877.86 911.49 1914.5 922.5"/><path class="cls-2" d="M1862.94,619.08,1800.5,714.5l-96.57,144.71-75-22.54c.58-.17,95.58-119.17,95.58-119.17l69-89,14.83-19.2Z"/><path class="cls-2" d="M1808.33,609.3l-14.83,19.2-69,89s-95,119-95.58,119.17L1556,814.76,1655.5,710.5l83-89,19.19-21.28Z"/><polygon class="cls-2" points="1757.69 600.22 1738.5 621.5 1655.5 710.5 1556.02 814.76 1493.1 795.84 1493.5 794.5 1597.5 697.5 1674.5 626.5 1712.5 592.13 1757.69 600.22"/><polygon class="cls-2" points="1712.5 592.13 1674.5 626.5 1597.5 697.5 1493.5 794.5 1493.1 795.84 1429.37 776.69 1560.5 669.5 1641.5 605.5 1663.91 583.75 1663.97 583.43 1670.48 584.6 1670.61 584.62 1712.5 592.13"/><polygon class="cls-2" points="1619.87 575.53 1576.08 567.68 1535.71 560.45 1496.85 553.48 1459.48 546.78 1459.47 546.78 1420.97 539.88 1388.33 534.03 1388.32 534.03 1355.6 528.17 1329.5 523.49 1349.5 482.5 1689.5 529.5 1670.5 584.5 1670.48 584.6 1663.97 583.43 1619.87 575.53"/><polygon class="cls-2" points="1663.97 583.43 1663.91 583.75 1641.5 605.5 1560.5 669.5 1429.37 776.69 1375.5 760.5 1367.5 757.9 1449.5 698.5 1564.5 617.5 1619.87 575.53 1663.97 583.43"/><polygon class="cls-2" points="1619.87 575.53 1564.5 617.5 1449.5 698.5 1367.5 757.9 1313.9 740.49 1440.5 658.5 1532.5 597.5 1576.08 567.68 1619.87 575.53"/><polygon class="cls-2" points="1576.08 567.68 1532.5 597.5 1440.5 658.5 1313.9 740.49 1264.46 724.44 1367.5 663.5 1470.5 600.5 1535.71 560.45 1576.08 567.68"/><path class="cls-2" d="M1496.85,553.48l38.86,7-65.21,40-103,63-103,60.94-48.61-15.79c.65-.15,135.65-73.15,135.65-73.15l93-52Z"/><path class="cls-2" d="M1496.85,553.48l-52.35,30-93,52s-135,73-135.65,73.15l-44-14.28L1345.5,607.5l114-60.72h0Z"/><polygon class="cls-2" points="1459.47 546.78 1345.5 607.5 1171.87 694.37 1128.95 680.43 1193.5 650.5 1287.5 607.5 1372.5 567.5 1420.97 539.88 1459.47 546.78"/><polygon class="cls-2" points="1420.97 539.88 1372.5 567.5 1287.5 607.5 1193.5 650.5 1128.95 680.43 1128.94 680.43 1090 667.78 1161.5 637.5 1264.5 592.5 1344.5 557.5 1388.32 534.03 1388.33 534.03 1420.97 539.88"/><polygon class="cls-2" points="1402.25 882.96 1395.5 1024.5 1372.5 1046.5 1384.96 876.44 1402.25 882.96"/><polygon class="cls-2" points="1388.32 534.03 1344.5 557.5 1264.5 592.5 1161.5 637.5 1090 667.78 1053.98 656.08 1146.5 621.5 1218.5 590.5 1276.5 563.5 1355.6 528.17 1388.32 534.03"/><polygon class="cls-2" points="1384.96 876.44 1372.5 1046.5 1334.5 1029.5 1346.49 861.93 1384.96 876.44"/><polygon class="cls-2" points="1375.5 760.5 1367.5 764.5 936.5 624.5 947.5 621.5 953.72 623.52 984.26 633.44 1020.03 645.05 1053.98 656.08 1090 667.78 1128.94 680.43 1128.95 680.43 1171.87 694.37 1215.85 708.65 1264.46 724.44 1313.9 740.49 1367.5 757.9 1375.5 760.5"/><polygon class="cls-2" points="1367.5 764.5 1367.5 803.5 936.5 660.5 936.5 624.5 1367.5 764.5"/><polygon class="cls-2" points="1367.5 803.5 1349.5 814.24 656.5 571.5 680.5 564.7 680.5 570.5 936.5 660.5 1367.5 803.5"/><polygon class="cls-2" points="1329.5 523.49 1355.6 528.17 1276.5 563.5 1218.5 590.5 1146.5 621.5 1053.98 656.08 1020.03 645.05 1161.5 591.5 1323.7 522.45 1323.71 522.45 1329.43 523.48 1329.5 523.49"/><polygon class="cls-2" points="1292.24 516.81 1264.45 511.83 1232.08 506.03 1232.07 506.03 1206.55 501.46 1180.43 496.78 1151.91 491.67 1117.5 485.5 1111.5 444.5 1349.5 482.5 1329.5 523.49 1329.43 523.48 1323.71 522.45 1323.7 522.45 1292.24 516.81"/><polygon class="cls-2" points="1323.7 522.45 1161.5 591.5 1020.03 645.05 984.26 633.44 1146.5 575.5 1292.24 516.81 1323.7 522.45"/><polygon class="cls-2" points="1292.24 516.81 1146.5 575.5 984.26 633.44 953.72 623.52 1264.45 511.83 1292.24 516.81"/><polygon class="cls-2" points="1264.45 511.83 953.72 623.52 947.5 621.5 922.44 613.63 1232.07 506.03 1232.08 506.03 1264.45 511.83"/><polygon class="cls-2" points="1232.07 506.03 922.44 613.63 896.02 605.33 1206.55 501.46 1232.07 506.03"/><polygon class="cls-2" points="1206.55 501.46 896.02 605.33 865.33 595.68 1180.43 496.78 1206.55 501.46"/><polygon class="cls-2" points="1180.43 496.78 865.33 595.68 836.76 586.71 1151.91 491.67 1180.43 496.78"/><polygon class="cls-2" points="1151.91 491.67 836.76 586.71 802.37 575.9 802.5 575.5 979.4 526.36 979.5 526.5 1117.5 485.5 1151.91 491.67"/><polygon class="cls-2" points="979.4 526.36 949.5 486.5 949.74 486.44 1111.5 444.5 1117.5 485.5 979.5 526.5 979.4 526.36"/><polygon class="cls-2" points="989.5 727.32 989.5 856.5 968.5 868.5 968.5 719.4 989.5 727.32"/><polygon class="cls-2" points="979.4 526.36 802.5 575.5 802.37 575.9 700.39 543.86 700.5 543.5 949.5 485.5 949.74 486.44 949.5 486.5 979.4 526.36"/><polygon class="cls-2" points="968.5 719.4 968.5 868.5 946.5 856.5 944.2 710.24 968.5 719.4"/><polygon class="cls-2" points="896.02 605.33 922.44 613.63 947.5 621.5 936.5 624.5 680.5 541.5 686.5 539.5 700.39 543.86 802.37 575.9 836.76 586.71 865.33 595.68 896.02 605.33"/><polygon class="cls-2" points="936.5 624.5 936.5 660.5 680.5 570.5 680.5 564.7 680.5 541.5 936.5 624.5"/><polygon class="cls-2" points="749.5 636.82 749.5 747.5 729.5 750.5 729.5 629.27 749.5 636.82"/><polygon class="cls-2" points="729.5 629.27 729.5 750.5 704.5 736.5 704.73 619.93 729.5 629.27"/><polyline class="cls-6" points="1349.5 482.5 1689.5 529.5 1670.5 584.5"/><polyline class="cls-6" points="1111.5 444.5 949.74 486.44 949.5 486.5 979.4 526.36 979.5 526.5 1117.5 485.5"/><polyline class="cls-6" points="982.5 525.5 979.4 526.36 802.5 575.5"/><line class="cls-6" x1="949.5" y1="485.5" x2="700.5" y2="543.5"/><polygon class="cls-6" points="700.39 543.86 686.5 539.5 680.5 541.5 936.5 624.5 947.5 621.5 922.44 613.63 896.02 605.33 865.33 595.68 836.76 586.71 802.37 575.9 700.39 543.86"/><polyline class="cls-6" points="1788.48 884.63 1877.54 911.39 1877.86 911.49 1914.5 922.5 1914.5 933.5 1367.5 764.5 1367.5 803.5 1914.5 985.5 1914.5 933.5"/><polyline class="cls-6" points="1375.5 760.5 1429.37 776.69 1493.1 795.84 1556.02 814.76 1628.92 836.67 1703.93 859.21 1788.48 884.62"/><polyline class="cls-6" points="936.5 660.5 680.5 570.5 680.5 564.7 680.5 541.5"/><line class="cls-6" x1="836.76" y1="586.71" x2="1151.91" y2="491.67"/><line class="cls-6" x1="865.33" y1="595.68" x2="1180.43" y2="496.78"/><polyline class="cls-6" points="895.5 605.5 896.02 605.33 1206.55 501.46"/><line class="cls-6" x1="1232.07" y1="506.03" x2="922.44" y2="613.63"/><polyline class="cls-6" points="953.72 623.52 1264.45 511.83 1264.46 511.83"/><polyline class="cls-6" points="984.26 633.44 1146.5 575.5 1292.24 516.81 1292.25 516.81"/><polyline class="cls-6" points="1020.03 645.05 1161.5 591.5 1323.7 522.45"/><polyline class="cls-6" points="1053.98 656.08 1146.5 621.5 1218.5 590.5 1276.5 563.5 1355.6 528.17"/><polyline class="cls-6" points="1090 667.78 1161.5 637.5 1264.5 592.5 1344.5 557.5 1388.32 534.03"/><polyline class="cls-6" points="1128.95 680.43 1193.5 650.5 1287.5 607.5 1372.5 567.5 1420.97 539.88 1420.98 539.88"/><polyline class="cls-6" points="1171.87 694.37 1345.5 607.5 1459.47 546.78"/><path class="cls-6" d="M1215.85,708.65c.65-.15,135.65-73.15,135.65-73.15l93-52,52.35-30"/><polyline class="cls-6" points="1264.46 724.44 1367.5 663.5 1470.5 600.5 1535.71 560.45 1535.72 560.44"/><polyline class="cls-6" points="1313.9 740.49 1440.5 658.5 1532.5 597.5 1576.08 567.68"/><polyline class="cls-6" points="1367.5 757.9 1449.5 698.5 1564.5 617.5 1619.87 575.53 1620.4 575.13"/><polyline class="cls-6" points="1429.37 776.69 1560.5 669.5 1641.5 605.5 1663.91 583.75"/><polyline class="cls-6" points="1493.5 794.5 1597.5 697.5 1674.5 626.5 1712.5 592.13 1712.51 592.12"/><polyline class="cls-6" points="1556.02 814.76 1655.5 710.5 1738.5 621.5 1757.69 600.22"/><path class="cls-6" d="M1628.92,836.67c.58-.17,95.58-119.17,95.58-119.17l69-89,14.83-19.2h0"/><polyline class="cls-6" points="1703.93 859.21 1800.5 714.5 1862.94 619.08"/><path class="cls-6" d="M1788.48,884.63h0c2.16-3.39,89-176.12,89-176.12l38-80-52.56-9.42-54.61-9.78-50.64-9.08-45.19-8.09-41.89-7.51-.13,0-6.51-1.17-44.1-7.9-43.79-7.85-40.37-7.23-38.86-7-37.37-6.7h0l-38.5-6.9L1388.33,534h0l-32.72-5.86-26.1-4.68h-.07l-5.72-1h0l-31.46-5.64-27.79-5-32.37-5.8h0l-25.52-4.57-26.12-4.68-28.52-5.11-34.41-6.17-6-41,238,38-20,41h0"/><polyline class="cls-6" points="656.5 571.5 1349.5 814.24 1915.5 1012.5 1915.5 1076.5 1402.25 882.96 1384.96 876.44 1346.49 861.93 989.5 727.32 968.5 719.4 944.2 710.24 749.5 636.82 729.5 629.27 704.73 619.93 658.5 602.5 656.5 571.5 680.5 564.7"/><polyline class="cls-6" points="1349.5 814.24 1367.5 803.5 936.5 660.5 936.5 624.5 1367.5 764.5 1375.5 760.5 1367.5 757.9 1313.9 740.49 1264.46 724.44 1215.85 708.65 1171.87 694.37 1128.95 680.43 1128.94 680.43 1090 667.78 1053.98 656.08 1020.03 645.05 984.26 633.44 953.72 623.52 947.5 621.5"/><polyline class="cls-6" points="944.2 710.24 946.5 856.5 968.5 868.5 968.5 719.4"/><polyline class="cls-6" points="968.5 868.5 989.5 856.5 989.5 727.32 989.5 726.91"/><polyline class="cls-6" points="704.73 619.93 704.5 736.5 729.5 750.5 749.5 747.5 749.5 636.82"/><line class="cls-6" x1="729.5" y1="750.5" x2="729.5" y2="629.27"/><polyline class="cls-6" points="1346.49 861.93 1334.5 1029.5 1372.5 1046.5 1384.96 876.44"/><polyline class="cls-6" points="1372.5 1046.5 1395.5 1024.5 1402.25 882.96"/><polyline class="cls-6" points="-4.5 274.5 -4.5 1079.5 1915.5 1079.5 1915.5 1076.5"/><polyline class="cls-6" points="1914.5 922.5 1915.5 798.5 1877.54 911.39 1877.5 911.5 1877.86 911.49"/><polyline class="cls-6" points="1915.5 798.5 1915.5 628.5 1915.5 562.5 1915.21 562.46 1689.5 529.5"/><path class="cls-6" d="M1914.5,328.35v0L1917,226.5l-165-1H1650l-74-7-27,1s-87-3-88-3H1128l-67,2s-83,2-85,3-79,0-79,0H807l-109-3H621l-86-5-64-4s-56-2-58-2-103-3-103-3H181l-184-1-2.5,71,1-.05,215-10.95,179-11,194-7,137-11s113-4,116-4,79-4,79-4h69l88-4h62l181-1h198l36,8,30,3,29,10,35,2,32,4,23,9,24,1,13,11s47,3,49,3,59,23,59,23,62.32,14.51,71,32.83a9.67,9.67,0,0,1,1,4.17v228"/></g></svg>