<svg xmlns="http://www.w3.org/2000/svg" xmlns:xlink="http://www.w3.org/1999/xlink" viewBox="0 0 1920 1080"><defs><style>.cls-1,.cls-6{stroke:#000;stroke-miterlimit:10;}.cls-1{fill:url(#linear-gradient);}.cls-2{fill:#c39c75;}.cls-3{fill:#006837;}.cls-4{fill:#467d16;}.cls-5{fill:url(#radial-gradient);}.cls-6{fill:none;}</style><linearGradient id="linear-gradient" x1="961" y1="241.5" x2="961" y2="0.5" gradientUnits="userSpaceOnUse"><stop offset="0" stop-color="#cce0f4"/><stop offset="0.01" stop-color="#c3dcf2"/><stop offset="0.03" stop-color="#a9d2ee"/><stop offset="0.05" stop-color="#80c2e7"/><stop offset="0.08" stop-color="#47acde"/><stop offset="0.1" stop-color="#1e9cd7"/><stop offset="0.87" stop-color="#0075be"/><stop offset="0.99" stop-color="#005b97"/></linearGradient><radialGradient id="radial-gradient" cx="960.5" cy="651.5" r="743.52" gradientUnits="userSpaceOnUse"><stop offset="0" stop-color="#1e9cd7"/><stop offset="0.14" stop-color="#0176bf"/><stop offset="0.37" stop-color="#0176bf"/><stop offset="0.46" stop-color="#0075be"/><stop offset="0.89" stop-color="#005b97"/></radialGradient></defs><title>Artboard 1</title><g id="Layer_4" data-name="Layer 4"><rect class="cls-1" x="1.5" y="0.5" width="1919" height="241"/></g><g id="Layer_3" data-name="Layer 3"><rect class="cls-2" x="1663.97" y="81.66" width="9" height="144" transform="translate(-7.05 147.25) rotate(-5.04)"/><polygon class="cls-3" points="1656.72 26.2 1620.18 104.71 1706.45 97.1 1656.72 26.2"/><polygon class="cls-3" points="1654.15 42.48 1617.6 121 1703.87 113.39 1654.15 42.48"/><polygon class="cls-3" points="1667.59 58.36 1631.05 136.88 1717.32 129.27 1667.59 58.36"/><polygon class="cls-3" points="1649.69 83.03 1613.15 161.55 1699.42 153.94 1649.69 83.03"/><polygon class="cls-3" points="1672.84 95.05 1636.3 173.56 1722.56 165.95 1672.84 95.05"/><polygon class="cls-3" points="1652.42 113.91 1615.88 192.43 1702.14 184.82 1652.42 113.91"/><polygon class="cls-3" points="1683.03 108.2 1646.49 186.72 1732.76 179.1 1683.03 108.2"/><polygon class="cls-3" points="1661.35 124.17 1624.81 202.68 1711.08 195.07 1661.35 124.17"/><rect class="cls-2" x="123.81" y="111.08" width="9" height="144" transform="translate(18.26 -11.52) rotate(5.53)"/><polygon class="cls-3" points="140.16 55.63 89.83 126.1 176.03 134.46 140.16 55.63"/><polygon class="cls-3" points="134.64 71.17 84.3 141.64 170.5 150 134.64 71.17"/><polygon class="cls-3" points="144.94 89.25 94.61 159.72 180.81 168.07 144.94 89.25"/><polygon class="cls-3" points="122.82 110.21 72.48 180.68 158.68 189.04 122.82 110.21"/><polygon class="cls-3" points="143.36 126.27 93.03 196.74 179.23 205.09 143.36 126.27"/><polygon class="cls-3" points="119.83 141.07 69.49 211.54 155.69 219.89 119.83 141.07"/><polygon class="cls-3" points="150.97 141.07 100.64 211.54 186.84 219.9 150.97 141.07"/><polygon class="cls-3" points="126.73 152.79 76.39 223.26 162.59 231.61 126.73 152.79"/><rect class="cls-2" x="219.5" y="100.5" width="9" height="144"/><polygon class="cls-3" points="223.5 44.5 180.2 119.5 266.8 119.5 223.5 44.5"/><polygon class="cls-3" points="219.5 60.5 176.2 135.5 262.8 135.5 219.5 60.5"/><polygon class="cls-3" points="231.5 77.5 188.2 152.5 274.8 152.5 231.5 77.5"/><polygon class="cls-3" points="211.5 100.5 168.2 175.5 254.8 175.5 211.5 100.5"/><polygon class="cls-3" points="233.5 114.5 190.2 189.5 276.8 189.5 233.5 114.5"/><polygon class="cls-3" points="211.5 131.5 168.2 206.5 254.8 206.5 211.5 131.5"/><polygon class="cls-3" points="242.5 128.5 199.2 203.5 285.8 203.5 242.5 128.5"/><polygon class="cls-3" points="219.5 142.5 176.2 217.5 262.8 217.5 219.5 142.5"/><rect class="cls-2" x="320.24" y="101.96" width="9" height="144" transform="translate(22.61 -36.84) rotate(6.73)"/><polygon class="cls-3" points="339.24 46.78 287.45 116.19 373.45 126.33 339.24 46.78"/><polygon class="cls-3" points="333.39 62.2 281.6 131.61 367.61 141.75 333.39 62.2"/><polygon class="cls-3" points="343.32 80.49 291.53 149.9 377.54 160.04 343.32 80.49"/><polygon class="cls-3" points="320.76 100.99 268.97 170.4 354.98 180.54 320.76 100.99"/><polygon class="cls-3" points="340.97 117.47 289.18 186.88 375.19 197.02 340.97 117.47"/><polygon class="cls-3" points="317.13 131.77 265.34 201.19 351.35 211.33 317.13 131.77"/><polygon class="cls-3" points="348.27 132.43 296.48 201.84 382.49 211.98 348.27 132.43"/><polygon class="cls-3" points="323.79 143.63 272 213.05 358 223.19 323.79 143.63"/><rect class="cls-2" x="419.02" y="99.44" width="9" height="144" transform="translate(2.98 -7.18) rotate(0.97)"/><polygon class="cls-3" points="425.2 43.45 380.63 117.71 467.22 119.18 425.2 43.45"/><polygon class="cls-3" points="420.93 59.38 376.36 133.64 462.95 135.11 420.93 59.38"/><polygon class="cls-3" points="432.64 76.59 388.07 150.84 474.66 152.31 432.64 76.59"/><polygon class="cls-3" points="412.25 99.24 367.68 173.5 454.27 174.97 412.25 99.24"/><polygon class="cls-3" points="434.01 113.61 389.44 187.87 476.03 189.34 434.01 113.61"/><polygon class="cls-3" points="411.72 130.24 367.15 204.49 453.74 205.96 411.72 130.24"/><polygon class="cls-3" points="442.77 127.77 398.2 202.02 484.79 203.49 442.77 127.77"/><polygon class="cls-3" points="419.54 141.37 374.96 215.63 461.56 217.1 419.54 141.37"/><rect class="cls-2" x="478.24" y="107.66" width="9" height="144" transform="translate(-15.21 47.89) rotate(-5.59)"/><polygon class="cls-3" points="469.77 52.32 433.99 131.18 520.18 122.74 469.77 52.32"/><polygon class="cls-3" points="467.35 68.63 431.56 147.49 517.75 139.05 467.35 68.63"/><polygon class="cls-3" points="480.95 84.38 445.16 163.24 531.35 154.8 480.95 84.38"/><polygon class="cls-3" points="463.29 109.22 427.5 188.08 513.69 179.64 463.29 109.22"/><polygon class="cls-3" points="486.55 121.01 450.76 199.87 536.95 191.43 486.55 121.01"/><polygon class="cls-3" points="466.31 140.07 430.52 218.93 516.71 210.5 466.31 140.07"/><polygon class="cls-3" points="496.87 134.07 461.08 212.93 547.27 204.49 496.87 134.07"/><polygon class="cls-3" points="475.34 150.24 439.55 229.1 525.74 220.66 475.34 150.24"/><rect class="cls-2" x="416.5" y="236.5" width="9" height="144"/><polygon class="cls-3" points="420.5 180.5 377.2 255.5 463.8 255.5 420.5 180.5"/><polygon class="cls-3" points="416.5 196.5 373.2 271.5 459.8 271.5 416.5 196.5"/><polygon class="cls-3" points="428.5 213.5 385.2 288.5 471.8 288.5 428.5 213.5"/><polygon class="cls-3" points="408.5 236.5 365.2 311.5 451.8 311.5 408.5 236.5"/><polygon class="cls-3" points="430.5 250.5 387.2 325.5 473.8 325.5 430.5 250.5"/><polygon class="cls-3" points="408.5 267.5 365.2 342.5 451.8 342.5 408.5 267.5"/><polygon class="cls-3" points="439.5 264.5 396.2 339.5 482.8 339.5 439.5 264.5"/><polygon class="cls-3" points="416.5 278.5 373.2 353.5 459.8 353.5 416.5 278.5"/><rect class="cls-2" x="547.69" y="136.25" width="9" height="144" transform="matrix(1, 0.07, -0.07, 1, 14.71, -35.46)"/><polygon class="cls-3" points="560.01 80.48 511.92 152.51 598.34 158.14 560.01 80.48"/><polygon class="cls-3" points="554.98 96.19 506.89 168.22 593.31 173.85 554.98 96.19"/><polygon class="cls-3" points="565.85 113.93 517.76 185.96 604.18 191.59 565.85 113.93"/><polygon class="cls-3" points="544.39 135.59 496.31 207.61 582.73 213.24 544.39 135.59"/><polygon class="cls-3" points="565.44 150.99 517.35 223.01 603.77 228.64 565.44 150.99"/><polygon class="cls-3" points="542.38 166.52 494.29 238.55 580.71 244.18 542.38 166.52"/><polygon class="cls-3" points="573.51 165.54 525.42 237.57 611.84 243.2 573.51 165.54"/><polygon class="cls-3" points="549.65 178.02 501.56 250.04 587.98 255.67 549.65 178.02"/><rect class="cls-2" x="618.41" y="111.51" width="9" height="144" transform="translate(-24.57 133.94) rotate(-12.04)"/><polygon class="cls-3" points="595.72 58.43 569.01 140.81 653.71 122.75 595.72 58.43"/><polygon class="cls-3" points="595.15 74.91 568.44 157.29 653.14 139.23 595.15 74.91"/><polygon class="cls-3" points="610.43 89.03 583.72 171.42 668.42 153.35 610.43 89.03"/><polygon class="cls-3" points="595.66 115.7 568.96 198.08 653.65 180.02 595.66 115.7"/><polygon class="cls-3" points="620.1 124.8 593.39 207.19 678.09 189.12 620.1 124.8"/><polygon class="cls-3" points="602.13 146.02 575.42 228.4 660.12 210.34 602.13 146.02"/><polygon class="cls-3" points="631.82 136.62 605.12 219 689.81 200.94 631.82 136.62"/><polygon class="cls-3" points="612.25 155.11 585.54 237.49 670.24 219.43 612.25 155.11"/><rect class="cls-2" x="684.33" y="133.18" width="9" height="144" transform="translate(18.03 -52.91) rotate(4.46)"/><polygon class="cls-3" points="698.28 77.53 649.28 148.94 735.62 155.67 698.28 77.53"/><polygon class="cls-3" points="693.05 93.17 644.05 164.58 730.39 171.31 693.05 93.17"/><polygon class="cls-3" points="703.69 111.05 654.69 182.46 741.03 189.19 703.69 111.05"/><polygon class="cls-3" points="681.97 132.43 632.97 203.84 719.31 210.57 681.97 132.43"/><polygon class="cls-3" points="702.81 148.1 653.81 219.5 740.15 226.23 702.81 148.1"/><polygon class="cls-3" points="679.56 163.34 630.56 234.74 716.9 241.47 679.56 163.34"/><polygon class="cls-3" points="710.7 162.75 661.7 234.16 748.04 240.89 710.7 162.75"/><polygon class="cls-3" points="686.68 174.92 637.68 246.33 724.02 253.06 686.68 174.92"/><rect class="cls-2" x="774.93" y="133.65" width="9" height="144" transform="matrix(1, -0.09, 0.09, 1, -14.87, 68.22)"/><polygon class="cls-3" points="767.86 78.18 731.21 156.64 817.49 149.15 767.86 78.18"/><polygon class="cls-3" points="765.26 94.46 728.61 172.93 814.89 165.44 765.26 94.46"/><polygon class="cls-3" points="778.68 110.36 742.04 188.83 828.31 181.33 778.68 110.36"/><polygon class="cls-3" points="760.75 135.01 724.1 213.47 810.38 205.98 760.75 135.01"/><polygon class="cls-3" points="783.88 147.05 747.23 225.52 833.51 218.02 783.88 147.05"/><polygon class="cls-3" points="763.43 165.89 726.78 244.36 813.06 236.86 763.43 165.89"/><polygon class="cls-3" points="794.06 160.22 757.41 238.69 843.69 231.19 794.06 160.22"/><polygon class="cls-3" points="772.36 176.16 735.71 254.62 821.98 247.13 772.36 176.16"/><rect class="cls-2" x="853.68" y="118.52" width="9" height="144" transform="translate(-1.2 5.48) rotate(-0.37)"/><polygon class="cls-3" points="856.86 62.52 814.04 137.8 900.64 137.25 856.86 62.52"/><polygon class="cls-3" points="852.97 78.55 810.14 153.82 896.74 153.27 852.97 78.55"/><polygon class="cls-3" points="865.07 95.47 822.25 170.75 908.85 170.19 865.07 95.47"/><polygon class="cls-3" points="845.22 118.6 802.4 193.87 889 193.32 845.22 118.6"/><polygon class="cls-3" points="867.31 132.46 824.49 207.73 911.09 207.18 867.31 132.46"/><polygon class="cls-3" points="845.42 149.6 802.6 224.87 889.2 224.32 845.42 149.6"/><polygon class="cls-3" points="876.4 146.4 833.58 221.68 920.18 221.12 876.4 146.4"/><polygon class="cls-3" points="853.49 160.55 810.66 235.82 897.27 235.27 853.49 160.55"/><rect class="cls-2" x="922.9" y="118.1" width="9" height="144" transform="translate(21.8 -85.75) rotate(5.36)"/><polygon class="cls-3" points="938.85 62.61 888.74 133.24 974.96 141.32 938.85 62.61"/><polygon class="cls-3" points="933.38 78.17 883.26 148.8 969.49 156.88 933.38 78.17"/><polygon class="cls-3" points="943.74 96.21 893.62 166.84 979.85 174.93 943.74 96.21"/><polygon class="cls-3" points="921.67 117.25 871.56 187.88 957.79 195.96 921.67 117.25"/><polygon class="cls-3" points="942.27 133.24 892.16 203.87 978.38 211.95 942.27 133.24"/><polygon class="cls-3" points="918.78 148.11 868.67 218.74 954.89 226.82 918.78 148.11"/><polygon class="cls-3" points="949.93 148.02 899.81 218.65 986.04 226.73 949.93 148.02"/><polygon class="cls-3" points="925.72 159.81 875.61 230.44 961.83 238.52 925.72 159.81"/><rect class="cls-2" x="976.5" y="129.5" width="9" height="144"/><polygon class="cls-3" points="980.5 73.5 937.2 148.5 1023.8 148.5 980.5 73.5"/><polygon class="cls-3" points="976.5 89.5 933.2 164.5 1019.8 164.5 976.5 89.5"/><polygon class="cls-3" points="988.5 106.5 945.2 181.5 1031.8 181.5 988.5 106.5"/><polygon class="cls-3" points="968.5 129.5 925.2 204.5 1011.8 204.5 968.5 129.5"/><polygon class="cls-3" points="990.5 143.5 947.2 218.5 1033.8 218.5 990.5 143.5"/><polygon class="cls-3" points="968.5 160.5 925.2 235.5 1011.8 235.5 968.5 160.5"/><polygon class="cls-3" points="999.5 157.5 956.2 232.5 1042.8 232.5 999.5 157.5"/><polygon class="cls-3" points="976.5 171.5 933.2 246.5 1019.8 246.5 976.5 171.5"/><rect class="cls-2" x="1058.69" y="108.4" width="9" height="144" transform="translate(5.66 -30.68) rotate(1.66)"/><polygon class="cls-3" points="1066.39 52.44 1020.94 126.16 1107.51 128.66 1066.39 52.44"/><polygon class="cls-3" points="1061.93 68.32 1016.48 142.03 1103.05 144.54 1061.93 68.32"/><polygon class="cls-3" points="1073.44 85.66 1027.98 159.37 1114.55 161.88 1073.44 85.66"/><polygon class="cls-3" points="1052.78 108.07 1007.33 181.79 1093.89 184.29 1052.78 108.07"/><polygon class="cls-3" points="1074.37 122.7 1028.91 196.42 1115.48 198.92 1074.37 122.7"/><polygon class="cls-3" points="1051.88 139.06 1006.43 212.77 1093 215.28 1051.88 139.06"/><polygon class="cls-3" points="1082.96 136.96 1037.5 210.67 1124.07 213.18 1082.96 136.96"/><polygon class="cls-3" points="1059.56 150.28 1014.11 224 1100.67 226.5 1059.56 150.28"/><rect class="cls-2" x="1137.9" y="109.61" width="9" height="144" transform="translate(-7.65 57.32) rotate(-2.86)"/><polygon class="cls-3" points="1135.51 53.8 1096.01 130.87 1182.5 126.54 1135.51 53.8"/><polygon class="cls-3" points="1132.31 69.98 1092.81 147.05 1179.31 142.72 1132.31 69.98"/><polygon class="cls-3" points="1145.15 86.36 1105.65 163.43 1192.14 159.1 1145.15 86.36"/><polygon class="cls-3" points="1126.32 110.33 1086.82 187.4 1173.32 183.07 1126.32 110.33"/><polygon class="cls-3" points="1148.99 123.21 1109.49 200.28 1195.99 195.96 1148.99 123.21"/><polygon class="cls-3" points="1127.87 141.29 1088.37 218.36 1174.87 214.03 1127.87 141.29"/><polygon class="cls-3" points="1158.68 136.75 1119.18 213.82 1205.68 209.49 1158.68 136.75"/><polygon class="cls-3" points="1136.41 151.88 1096.91 228.95 1183.4 224.62 1136.41 151.88"/><rect class="cls-2" x="1223.5" y="100.5" width="9" height="144"/><polygon class="cls-3" points="1227.5 44.5 1184.2 119.5 1270.8 119.5 1227.5 44.5"/><polygon class="cls-3" points="1223.5 60.5 1180.2 135.5 1266.8 135.5 1223.5 60.5"/><polygon class="cls-3" points="1235.5 77.5 1192.2 152.5 1278.8 152.5 1235.5 77.5"/><polygon class="cls-3" points="1215.5 100.5 1172.2 175.5 1258.8 175.5 1215.5 100.5"/><polygon class="cls-3" points="1237.5 114.5 1194.2 189.5 1280.8 189.5 1237.5 114.5"/><polygon class="cls-3" points="1215.5 131.5 1172.2 206.5 1258.8 206.5 1215.5 131.5"/><polygon class="cls-3" points="1246.5 128.5 1203.2 203.5 1289.8 203.5 1246.5 128.5"/><polygon class="cls-3" points="1223.5 142.5 1180.2 217.5 1266.8 217.5 1223.5 142.5"/><rect class="cls-2" x="1324.5" y="114.5" width="9" height="144"/><polygon class="cls-3" points="1328.5 58.5 1285.2 133.5 1371.8 133.5 1328.5 58.5"/><polygon class="cls-3" points="1324.5 74.5 1281.2 149.5 1367.8 149.5 1324.5 74.5"/><polygon class="cls-3" points="1336.5 91.5 1293.2 166.5 1379.8 166.5 1336.5 91.5"/><polygon class="cls-3" points="1316.5 114.5 1273.2 189.5 1359.8 189.5 1316.5 114.5"/><polygon class="cls-3" points="1338.5 128.5 1295.2 203.5 1381.8 203.5 1338.5 128.5"/><polygon class="cls-3" points="1316.5 145.5 1273.2 220.5 1359.8 220.5 1316.5 145.5"/><polygon class="cls-3" points="1347.5 142.5 1304.2 217.5 1390.8 217.5 1347.5 142.5"/><polygon class="cls-3" points="1324.5 156.5 1281.2 231.5 1367.8 231.5 1324.5 156.5"/><rect class="cls-2" x="1431.5" y="122.5" width="9" height="144"/><polygon class="cls-3" points="1435.5 66.5 1392.2 141.5 1478.8 141.5 1435.5 66.5"/><polygon class="cls-3" points="1431.5 82.5 1388.2 157.5 1474.8 157.5 1431.5 82.5"/><polygon class="cls-3" points="1443.5 99.5 1400.2 174.5 1486.8 174.5 1443.5 99.5"/><polygon class="cls-3" points="1423.5 122.5 1380.2 197.5 1466.8 197.5 1423.5 122.5"/><polygon class="cls-3" points="1445.5 136.5 1402.2 211.5 1488.8 211.5 1445.5 136.5"/><polygon class="cls-3" points="1423.5 153.5 1380.2 228.5 1466.8 228.5 1423.5 153.5"/><polygon class="cls-3" points="1454.5 150.5 1411.2 225.5 1497.8 225.5 1454.5 150.5"/><polygon class="cls-3" points="1431.5 164.5 1388.2 239.5 1474.8 239.5 1431.5 164.5"/><rect class="cls-2" x="1608.5" y="111.5" width="9" height="144"/><polygon class="cls-3" points="1612.5 55.5 1569.2 130.5 1655.8 130.5 1612.5 55.5"/><polygon class="cls-3" points="1608.5 71.5 1565.2 146.5 1651.8 146.5 1608.5 71.5"/><polygon class="cls-3" points="1620.5 88.5 1577.2 163.5 1663.8 163.5 1620.5 88.5"/><polygon class="cls-3" points="1600.5 111.5 1557.2 186.5 1643.8 186.5 1600.5 111.5"/><polygon class="cls-3" points="1622.5 125.5 1579.2 200.5 1665.8 200.5 1622.5 125.5"/><polygon class="cls-3" points="1600.5 142.5 1557.2 217.5 1643.8 217.5 1600.5 142.5"/><polygon class="cls-3" points="1631.5 139.5 1588.2 214.5 1674.8 214.5 1631.5 139.5"/><polygon class="cls-3" points="1608.5 153.5 1565.2 228.5 1651.8 228.5 1608.5 153.5"/><rect class="cls-2" x="1687.5" y="121.5" width="9" height="144"/><polygon class="cls-3" points="1691.5 65.5 1648.2 140.5 1734.8 140.5 1691.5 65.5"/><polygon class="cls-3" points="1687.5 81.5 1644.2 156.5 1730.8 156.5 1687.5 81.5"/><polygon class="cls-3" points="1699.5 98.5 1656.2 173.5 1742.8 173.5 1699.5 98.5"/><polygon class="cls-3" points="1679.5 121.5 1636.2 196.5 1722.8 196.5 1679.5 121.5"/><polygon class="cls-3" points="1701.5 135.5 1658.2 210.5 1744.8 210.5 1701.5 135.5"/><polygon class="cls-3" points="1679.5 152.5 1636.2 227.5 1722.8 227.5 1679.5 152.5"/><polygon class="cls-3" points="1710.5 149.5 1667.2 224.5 1753.8 224.5 1710.5 149.5"/><polygon class="cls-3" points="1687.5 163.5 1644.2 238.5 1730.8 238.5 1687.5 163.5"/><rect class="cls-2" x="1725.88" y="122.28" width="9" height="144" transform="translate(14.22 -100.26) rotate(3.33)"/><polygon class="cls-3" points="1737.32 66.47 1689.73 138.82 1776.19 143.86 1737.32 66.47"/><polygon class="cls-3" points="1732.4 82.21 1684.81 154.56 1771.26 159.6 1732.4 82.21"/><polygon class="cls-3" points="1743.39 99.88 1695.8 172.23 1782.26 177.26 1743.39 99.88"/><polygon class="cls-3" points="1722.08 121.67 1674.5 194.03 1760.95 199.06 1722.08 121.67"/><polygon class="cls-3" points="1743.23 136.93 1695.64 209.28 1782.1 214.32 1743.23 136.93"/><polygon class="cls-3" points="1720.28 152.62 1672.69 224.98 1759.15 230.01 1720.28 152.62"/><polygon class="cls-3" points="1751.4 151.43 1703.82 223.78 1790.27 228.82 1751.4 151.43"/><polygon class="cls-3" points="1727.63 164.07 1680.04 236.42 1766.5 241.46 1727.63 164.07"/><rect class="cls-2" x="1793.31" y="116.66" width="9" height="144" transform="translate(-9.85 180.67) rotate(-5.74)"/><polygon class="cls-3" points="1784.52 61.35 1748.93 140.3 1835.1 131.65 1784.52 61.35"/><polygon class="cls-3" points="1782.14 77.67 1746.55 156.62 1832.72 147.97 1782.14 77.67"/><polygon class="cls-3" points="1795.78 93.39 1760.19 172.34 1846.36 163.68 1795.78 93.39"/><polygon class="cls-3" points="1778.18 118.27 1742.59 197.22 1828.76 188.57 1778.18 118.27"/><polygon class="cls-3" points="1801.47 130 1765.88 208.95 1852.05 200.3 1801.47 130"/><polygon class="cls-3" points="1781.28 149.12 1745.69 228.07 1831.86 219.41 1781.28 149.12"/><polygon class="cls-3" points="1811.82 143.03 1776.24 221.98 1862.4 213.33 1811.82 143.03"/><polygon class="cls-3" points="1790.34 159.26 1754.75 238.21 1840.92 229.56 1790.34 159.26"/><rect class="cls-2" x="1853.33" y="107.98" width="9" height="144" transform="translate(32.58 -210.37) rotate(6.54)"/><polygon class="cls-3" points="1871.91 52.75 1820.35 122.33 1906.39 132.19 1871.91 52.75"/><polygon class="cls-3" points="1866.11 68.19 1814.55 137.77 1900.59 147.63 1866.11 68.19"/><polygon class="cls-3" points="1876.1 86.45 1824.54 156.03 1910.58 165.89 1876.1 86.45"/><polygon class="cls-3" points="1853.61 107.02 1802.05 176.6 1888.09 186.46 1853.61 107.02"/><polygon class="cls-3" points="1873.87 123.44 1822.31 193.02 1908.35 202.88 1873.87 123.44"/><polygon class="cls-3" points="1850.08 137.82 1798.52 207.4 1884.56 217.26 1850.08 137.82"/><polygon class="cls-3" points="1881.22 138.37 1829.66 207.95 1915.7 217.81 1881.22 138.37"/><polygon class="cls-3" points="1856.78 149.66 1805.22 219.24 1891.26 229.1 1856.78 149.66"/><rect class="cls-2" x="1900.5" y="130.5" width="9" height="144"/><polygon class="cls-3" points="1904.5 74.5 1861.2 149.5 1947.8 149.5 1904.5 74.5"/><polygon class="cls-3" points="1900.5 90.5 1857.2 165.5 1943.8 165.5 1900.5 90.5"/><polygon class="cls-3" points="1912.5 107.5 1869.2 182.5 1955.8 182.5 1912.5 107.5"/><polygon class="cls-3" points="1892.5 130.5 1849.2 205.5 1935.8 205.5 1892.5 130.5"/><polygon class="cls-3" points="1914.5 144.5 1871.2 219.5 1957.8 219.5 1914.5 144.5"/><polygon class="cls-3" points="1892.5 161.5 1849.2 236.5 1935.8 236.5 1892.5 161.5"/><polygon class="cls-3" points="1923.5 158.5 1880.2 233.5 1966.8 233.5 1923.5 158.5"/><polygon class="cls-3" points="1900.5 172.5 1857.2 247.5 1943.8 247.5 1900.5 172.5"/><rect class="cls-2" x="1510.37" y="118.74" width="9" height="144" transform="translate(45.19 -223.08) rotate(8.55)"/><polygon class="cls-3" points="1533.4 64.09 1479.43 131.82 1565.08 144.69 1533.4 64.09"/><polygon class="cls-3" points="1527.07 79.32 1473.1 147.05 1558.74 159.92 1527.07 79.32"/><polygon class="cls-3" points="1536.41 97.91 1482.44 165.64 1568.08 178.52 1536.41 97.91"/><polygon class="cls-3" points="1513.21 117.69 1459.24 185.41 1544.88 198.29 1513.21 117.69"/><polygon class="cls-3" points="1532.89 134.8 1478.92 202.53 1564.56 215.4 1532.89 134.8"/><polygon class="cls-3" points="1508.61 148.34 1454.63 216.07 1540.28 228.94 1508.61 148.34"/><polygon class="cls-3" points="1539.71 149.98 1485.74 217.71 1571.38 230.59 1539.71 149.98"/><polygon class="cls-3" points="1514.88 160.41 1460.91 228.14 1546.55 241.01 1514.88 160.41"/><rect class="cls-2" x="57.83" y="118.56" width="9" height="144" transform="translate(-34.8 15.16) rotate(-10.86)"/><polygon class="cls-3" points="37.72 64.95 9.33 146.77 94.38 130.45 37.72 64.95"/><polygon class="cls-3" points="36.8 81.42 8.41 163.24 93.46 146.91 36.8 81.42"/><polygon class="cls-3" points="51.79 95.85 23.4 177.67 108.45 161.35 51.79 95.85"/><polygon class="cls-3" points="36.48 122.21 8.1 204.03 93.15 187.7 36.48 122.21"/><polygon class="cls-3" points="60.73 131.81 32.34 213.63 117.39 197.31 60.73 131.81"/><polygon class="cls-3" points="42.33 152.65 13.94 234.47 98.99 218.15 42.33 152.65"/><polygon class="cls-3" points="72.21 143.87 43.82 225.68 128.87 209.36 72.21 143.87"/><polygon class="cls-3" points="52.26 161.95 23.87 243.77 108.92 227.44 52.26 161.95"/></g><g id="Layer_2" data-name="Layer 2"><path class="cls-4" d="M1922,227.5l-2.5,101.83c-8.68-18.32-71-32.83-71-32.83s-57-23-59-23-49-3-49-3l-13-11-24-1-23-9-32-4-35-2-29-10-30-3-36-8h-198l-181,1h-62l-88,4h-69s-76,4-79,4-116,4-116,4l-137,11-194,7-179,11L.5,275.45l-1,.05,2.5-71,184,1H315s101,3,103,3,58,2,58,2l64,4,86,5h77l109,3h90s77,1,79,0,85-3,85-3l67-2h333c1,0,88,3,88,3l27-1,74,7h102Z"/><path class="cls-5" d="M1919.5,329.33a9.67,9.67,0,0,1,1,4.17v228l-.29,2-225.71-33-340-47-238-38L954.74,487.44l-.24-.94-249,58-.11.36L691.5,540.5l-6,2v23.2l-24,6.8,2,31,46.23,17.43L709.5,737.5l25,14,20-3V637.82l194.7,73.42,2.3,146.26,22,12,21-12V728.32l357,134.61-12,167.57,38,17,23-22L1407.25,884,1920.5,1077.5v3H.5v-805l215-10.95,179-11,194-7,137-11s113-4,116-4,79-4,79-4h69l88-4h62l181-1h198l36,8,30,3,29,10,35,2,32,4,23,9,24,1,13,11s47,3,49,3,59,23,59,23S1910.82,311,1919.5,329.33Z"/><polygon class="cls-2" points="994.5 728.32 973.5 720.4 949.2 711.24 754.5 637.82 734.5 630.27 709.73 620.93 663.5 603.5 661.5 572.5 1354.5 815.24 1920.5 1013.5 1920.5 1077.5 1407.25 883.96 1389.96 877.44 1351.49 862.93 994.5 728.32"/><path class="cls-2" d="M1920.5,629.5v170l-38,112.89-89.06-26.76h0c2.16-3.39,89-176.12,89-176.12Z"/><polygon class="cls-2" points="1813.33 610.3 1762.69 601.22 1717.5 593.13 1675.61 585.62 1675.48 585.6 1675.5 585.5 1694.5 530.5 1920.21 563.46 1920.5 563.5 1920.5 629.5 1867.94 620.08 1813.33 610.3"/><path class="cls-2" d="M1920.5,629.5l-38,80s-86.86,172.73-89,176.12l-84.55-25.41L1805.5,715.5l62.44-95.42Z"/><polygon class="cls-2" points="1920.5 799.5 1919.5 923.5 1882.86 912.49 1882.54 912.39 1920.5 799.5"/><polygon class="cls-2" points="1919.5 986.5 1920.5 1013.5 1354.5 815.24 1372.5 804.5 1919.5 986.5"/><polygon class="cls-2" points="1919.5 934.5 1919.5 986.5 1372.5 804.5 1372.5 765.5 1919.5 934.5"/><polygon class="cls-2" points="1919.5 923.5 1919.5 934.5 1372.5 765.5 1380.5 761.5 1434.37 777.69 1498.1 796.84 1561.02 815.76 1633.92 837.67 1708.93 860.21 1793.48 885.62 1793.48 885.63 1882.54 912.39 1882.5 912.5 1882.86 912.49 1919.5 923.5"/><path class="cls-2" d="M1867.94,620.08,1805.5,715.5l-96.57,144.71-75-22.54c.58-.17,95.58-119.17,95.58-119.17l69-89,14.83-19.2Z"/><path class="cls-2" d="M1813.33,610.3l-14.83,19.2-69,89s-95,119-95.58,119.17L1561,815.76,1660.5,711.5l83-89,19.19-21.28Z"/><polygon class="cls-2" points="1762.69 601.22 1743.5 622.5 1660.5 711.5 1561.02 815.76 1498.1 796.84 1498.5 795.5 1602.5 698.5 1679.5 627.5 1717.5 593.13 1762.69 601.22"/><polygon class="cls-2" points="1717.5 593.13 1679.5 627.5 1602.5 698.5 1498.5 795.5 1498.1 796.84 1434.37 777.69 1565.5 670.5 1646.5 606.5 1668.91 584.75 1668.97 584.43 1675.48 585.6 1675.61 585.62 1717.5 593.13"/><polygon class="cls-2" points="1624.87 576.53 1581.08 568.68 1540.71 561.45 1501.85 554.48 1464.48 547.78 1464.47 547.78 1425.97 540.88 1393.33 535.03 1393.32 535.03 1360.6 529.17 1334.5 524.49 1354.5 483.5 1694.5 530.5 1675.5 585.5 1675.48 585.6 1668.97 584.43 1624.87 576.53"/><polygon class="cls-2" points="1668.97 584.43 1668.91 584.75 1646.5 606.5 1565.5 670.5 1434.37 777.69 1380.5 761.5 1372.5 758.9 1454.5 699.5 1569.5 618.5 1624.87 576.53 1668.97 584.43"/><polygon class="cls-2" points="1624.87 576.53 1569.5 618.5 1454.5 699.5 1372.5 758.9 1318.9 741.49 1445.5 659.5 1537.5 598.5 1581.08 568.68 1624.87 576.53"/><polygon class="cls-2" points="1581.08 568.68 1537.5 598.5 1445.5 659.5 1318.9 741.49 1269.46 725.44 1372.5 664.5 1475.5 601.5 1540.71 561.45 1581.08 568.68"/><path class="cls-2" d="M1501.85,554.48l38.86,7-65.21,40-103,63-103,60.94-48.61-15.79c.65-.15,135.65-73.15,135.65-73.15l93-52Z"/><path class="cls-2" d="M1501.85,554.48l-52.35,30-93,52s-135,73-135.65,73.15l-44-14.28L1350.5,608.5l114-60.72h0Z"/><polygon class="cls-2" points="1464.47 547.78 1350.5 608.5 1176.87 695.37 1133.95 681.43 1198.5 651.5 1292.5 608.5 1377.5 568.5 1425.97 540.88 1464.47 547.78"/><polygon class="cls-2" points="1425.97 540.88 1377.5 568.5 1292.5 608.5 1198.5 651.5 1133.95 681.43 1133.94 681.43 1095 668.78 1166.5 638.5 1269.5 593.5 1349.5 558.5 1393.32 535.03 1393.33 535.03 1425.97 540.88"/><polygon class="cls-2" points="1407.25 883.96 1400.5 1025.5 1377.5 1047.5 1389.96 877.44 1407.25 883.96"/><polygon class="cls-2" points="1393.32 535.03 1349.5 558.5 1269.5 593.5 1166.5 638.5 1095 668.78 1058.98 657.08 1151.5 622.5 1223.5 591.5 1281.5 564.5 1360.6 529.17 1393.32 535.03"/><polygon class="cls-2" points="1389.96 877.44 1377.5 1047.5 1339.5 1030.5 1351.49 862.93 1389.96 877.44"/><polygon class="cls-2" points="1380.5 761.5 1372.5 765.5 941.5 625.5 952.5 622.5 958.72 624.52 989.26 634.44 1025.03 646.05 1058.98 657.08 1095 668.78 1133.94 681.43 1133.95 681.43 1176.87 695.37 1220.85 709.65 1269.46 725.44 1318.9 741.49 1372.5 758.9 1380.5 761.5"/><polygon class="cls-2" points="1372.5 765.5 1372.5 804.5 941.5 661.5 941.5 625.5 1372.5 765.5"/><polygon class="cls-2" points="1372.5 804.5 1354.5 815.24 661.5 572.5 685.5 565.7 685.5 571.5 941.5 661.5 1372.5 804.5"/><polygon class="cls-2" points="1334.5 524.49 1360.6 529.17 1281.5 564.5 1223.5 591.5 1151.5 622.5 1058.98 657.08 1025.03 646.05 1166.5 592.5 1328.7 523.45 1328.71 523.45 1334.43 524.48 1334.5 524.49"/><polygon class="cls-2" points="1297.24 517.81 1269.45 512.83 1237.08 507.03 1237.07 507.03 1211.55 502.46 1185.43 497.78 1156.91 492.67 1122.5 486.5 1116.5 445.5 1354.5 483.5 1334.5 524.49 1334.43 524.48 1328.71 523.45 1328.7 523.45 1297.24 517.81"/><polygon class="cls-2" points="1328.7 523.45 1166.5 592.5 1025.03 646.05 989.26 634.44 1151.5 576.5 1297.24 517.81 1328.7 523.45"/><polygon class="cls-2" points="1297.24 517.81 1151.5 576.5 989.26 634.44 958.72 624.52 1269.45 512.83 1297.24 517.81"/><polygon class="cls-2" points="1269.45 512.83 958.72 624.52 952.5 622.5 927.44 614.63 1237.07 507.03 1237.08 507.03 1269.45 512.83"/><polygon class="cls-2" points="1237.07 507.03 927.44 614.63 901.02 606.33 1211.55 502.46 1237.07 507.03"/><polygon class="cls-2" points="1211.55 502.46 901.02 606.33 870.33 596.68 1185.43 497.78 1211.55 502.46"/><polygon class="cls-2" points="1185.43 497.78 870.33 596.68 841.76 587.71 1156.91 492.67 1185.43 497.78"/><polygon class="cls-2" points="1156.91 492.67 841.76 587.71 807.37 576.9 807.5 576.5 984.4 527.36 984.5 527.5 1122.5 486.5 1156.91 492.67"/><polygon class="cls-2" points="984.4 527.36 954.5 487.5 954.74 487.44 1116.5 445.5 1122.5 486.5 984.5 527.5 984.4 527.36"/><polygon class="cls-2" points="994.5 728.32 994.5 857.5 973.5 869.5 973.5 720.4 994.5 728.32"/><polygon class="cls-2" points="984.4 527.36 807.5 576.5 807.37 576.9 705.39 544.86 705.5 544.5 954.5 486.5 954.74 487.44 954.5 487.5 984.4 527.36"/><polygon class="cls-2" points="973.5 720.4 973.5 869.5 951.5 857.5 949.2 711.24 973.5 720.4"/><polygon class="cls-2" points="901.02 606.33 927.44 614.63 952.5 622.5 941.5 625.5 685.5 542.5 691.5 540.5 705.39 544.86 807.37 576.9 841.76 587.71 870.33 596.68 901.02 606.33"/><polygon class="cls-2" points="941.5 625.5 941.5 661.5 685.5 571.5 685.5 565.7 685.5 542.5 941.5 625.5"/><polygon class="cls-2" points="754.5 637.82 754.5 748.5 734.5 751.5 734.5 630.27 754.5 637.82"/><polygon class="cls-2" points="734.5 630.27 734.5 751.5 709.5 737.5 709.73 620.93 734.5 630.27"/><polyline class="cls-6" points="1354.5 483.5 1694.5 530.5 1675.5 585.5"/><polyline class="cls-6" points="1116.5 445.5 954.74 487.44 954.5 487.5 984.4 527.36 984.5 527.5 1122.5 486.5"/><polyline class="cls-6" points="987.5 526.5 984.4 527.36 807.5 576.5"/><line class="cls-6" x1="954.5" y1="486.5" x2="705.5" y2="544.5"/><polygon class="cls-6" points="705.39 544.86 691.5 540.5 685.5 542.5 941.5 625.5 952.5 622.5 927.44 614.63 901.02 606.33 870.33 596.68 841.76 587.71 807.37 576.9 705.39 544.86"/><polyline class="cls-6" points="1793.48 885.63 1882.54 912.39 1882.86 912.49 1919.5 923.5 1919.5 934.5 1372.5 765.5 1372.5 804.5 1919.5 986.5 1919.5 934.5"/><polyline class="cls-6" points="1380.5 761.5 1434.37 777.69 1498.1 796.84 1561.02 815.76 1633.92 837.67 1708.93 860.21 1793.48 885.62"/><polyline class="cls-6" points="941.5 661.5 685.5 571.5 685.5 565.7 685.5 542.5"/><line class="cls-6" x1="841.76" y1="587.71" x2="1156.91" y2="492.67"/><line class="cls-6" x1="870.33" y1="596.68" x2="1185.43" y2="497.78"/><polyline class="cls-6" points="900.5 606.5 901.02 606.33 1211.55 502.46"/><line class="cls-6" x1="1237.07" y1="507.03" x2="927.44" y2="614.63"/><polyline class="cls-6" points="958.72 624.52 1269.45 512.83 1269.46 512.83"/><polyline class="cls-6" points="989.26 634.44 1151.5 576.5 1297.24 517.81 1297.25 517.81"/><polyline class="cls-6" points="1025.03 646.05 1166.5 592.5 1328.7 523.45"/><polyline class="cls-6" points="1058.98 657.08 1151.5 622.5 1223.5 591.5 1281.5 564.5 1360.6 529.17"/><polyline class="cls-6" points="1095 668.78 1166.5 638.5 1269.5 593.5 1349.5 558.5 1393.32 535.03"/><polyline class="cls-6" points="1133.95 681.43 1198.5 651.5 1292.5 608.5 1377.5 568.5 1425.97 540.88 1425.98 540.88"/><polyline class="cls-6" points="1176.87 695.37 1350.5 608.5 1464.47 547.78"/><path class="cls-6" d="M1220.85,709.65c.65-.15,135.65-73.15,135.65-73.15l93-52,52.35-30"/><polyline class="cls-6" points="1269.46 725.44 1372.5 664.5 1475.5 601.5 1540.71 561.45 1540.72 561.44"/><polyline class="cls-6" points="1318.9 741.49 1445.5 659.5 1537.5 598.5 1581.08 568.68"/><polyline class="cls-6" points="1372.5 758.9 1454.5 699.5 1569.5 618.5 1624.87 576.53 1625.4 576.13"/><polyline class="cls-6" points="1434.37 777.69 1565.5 670.5 1646.5 606.5 1668.91 584.75"/><polyline class="cls-6" points="1498.5 795.5 1602.5 698.5 1679.5 627.5 1717.5 593.13 1717.51 593.12"/><polyline class="cls-6" points="1561.02 815.76 1660.5 711.5 1743.5 622.5 1762.69 601.22"/><path class="cls-6" d="M1633.92,837.67c.58-.17,95.58-119.17,95.58-119.17l69-89,14.83-19.2h0"/><polyline class="cls-6" points="1708.93 860.21 1805.5 715.5 1867.94 620.08"/><path class="cls-6" d="M1793.48,885.63h0c2.16-3.39,89-176.12,89-176.12l38-80-52.56-9.42-54.61-9.78-50.64-9.08-45.19-8.09-41.89-7.51-.13,0-6.51-1.17-44.1-7.9-43.79-7.85-40.37-7.23-38.86-7-37.37-6.7h0l-38.5-6.9L1393.33,535h0l-32.72-5.86-26.1-4.68h-.07l-5.72-1h0l-31.46-5.64-27.79-5-32.37-5.8h0l-25.52-4.57-26.12-4.68-28.52-5.11-34.41-6.17-6-41,238,38-20,41h0"/><polyline class="cls-6" points="661.5 572.5 1354.5 815.24 1920.5 1013.5 1920.5 1077.5 1407.25 883.96 1389.96 877.44 1351.49 862.93 994.5 728.32 973.5 720.4 949.2 711.24 754.5 637.82 734.5 630.27 709.73 620.93 663.5 603.5 661.5 572.5 685.5 565.7"/><polyline class="cls-6" points="1354.5 815.24 1372.5 804.5 941.5 661.5 941.5 625.5 1372.5 765.5 1380.5 761.5 1372.5 758.9 1318.9 741.49 1269.46 725.44 1220.85 709.65 1176.87 695.37 1133.95 681.43 1133.94 681.43 1095 668.78 1058.98 657.08 1025.03 646.05 989.26 634.44 958.72 624.52 952.5 622.5"/><polyline class="cls-6" points="949.2 711.24 951.5 857.5 973.5 869.5 973.5 720.4"/><polyline class="cls-6" points="973.5 869.5 994.5 857.5 994.5 728.32 994.5 727.91"/><polyline class="cls-6" points="709.73 620.93 709.5 737.5 734.5 751.5 754.5 748.5 754.5 637.82"/><line class="cls-6" x1="734.5" y1="751.5" x2="734.5" y2="630.27"/><polyline class="cls-6" points="1351.49 862.93 1339.5 1030.5 1377.5 1047.5 1389.96 877.44"/><polyline class="cls-6" points="1377.5 1047.5 1400.5 1025.5 1407.25 883.96"/><polyline class="cls-6" points="0.5 275.5 0.5 1080.5 1920.5 1080.5 1920.5 1077.5"/><polyline class="cls-6" points="1919.5 923.5 1920.5 799.5 1882.54 912.39 1882.5 912.5 1882.86 912.49"/><polyline class="cls-6" points="1920.5 799.5 1920.5 629.5 1920.5 563.5 1920.21 563.46 1694.5 530.5"/><path class="cls-6" d="M1919.5,329.35v0L1922,227.5l-165-1H1655l-74-7-27,1s-87-3-88-3H1133l-67,2s-83,2-85,3-79,0-79,0H812l-109-3H626l-86-5-64-4s-56-2-58-2-103-3-103-3H186l-184-1-2.5,71,1-.05,215-10.95,179-11,194-7,137-11s113-4,116-4,79-4,79-4h69l88-4h62l181-1h198l36,8,30,3,29,10,35,2,32,4,23,9,24,1,13,11s47,3,49,3,59,23,59,23,62.32,14.51,71,32.83a9.67,9.67,0,0,1,1,4.17v228"/><line class="cls-6" x1="1920.5" y1="1013.5" x2="1919.5" y2="986.5"/></g></svg>