<?xml version="1.0" encoding="utf-8"?>
<!-- Generator: Adobe Illustrator 23.0.3, SVG Export Plug-In . SVG Version: 6.00 Build 0)  -->
<svg version="1.1" id="Layer_1" xmlns="http://www.w3.org/2000/svg" xmlns:xlink="http://www.w3.org/1999/xlink" x="0px" y="0px"
	 viewBox="0 0 352.9 329.2" style="enable-background:new 0 0 352.9 329.2;" xml:space="preserve">
<style type="text/css">
	.st0{fill:url(#SVGID_1_);}
	.st1{fill:#FFDAB8;}
	.st2{fill:#FF8290;}
	.st3{fill:#FFFFFF;}
	.st4{fill:#693E00;}
	.st5{fill:#FFE5CB;}
	.st6{fill:#DDBF9A;}
</style>
<g>
	<g>
		
			<linearGradient id="SVGID_1_" gradientUnits="userSpaceOnUse" x1="187.6391" y1="39.0562" x2="187.6391" y2="325.0771" gradientTransform="matrix(-1 0 0 1 351.4084 0)">
			<stop  offset="0" style="stop-color:#DDBF9A"/>
			<stop  offset="0.1872" style="stop-color:#DABC95"/>
			<stop  offset="0.398" style="stop-color:#D3B288"/>
			<stop  offset="0.62" style="stop-color:#C6A371"/>
			<stop  offset="0.8485" style="stop-color:#B58D52"/>
			<stop  offset="1" style="stop-color:#A77C39"/>
		</linearGradient>
		<path class="st0" d="M231.9,39.1c19,10.1,36.8,22.3,53,36.3C297.4,86,309,98,316.2,112.7c10,20.4,10.3,44.1,8.9,66.8
			c-1.5,23.4-4.8,47.2-15,68.3c-12.8,26.3-35.9,46.9-62.3,59.5s-56,17.6-85.3,17.7c-53,0.1-109.7-18.6-139.1-62.6
			C2.3,231-2,190.4,4.9,153.2c3.5-19.2,10.1-38.2,22-53.6c22.8-29.3,60.9-41,96.6-51.1"/>
	</g>
	<g>
		<path class="st1" d="M257.9,70c7.8-0.6,15.1-5.8,18.2-13s1.7-16.1-3.3-22.1c-5.7-6.8-14.9-9.4-23.8-10s-17.7,0.3-26.5-1
			c-10-1.5-19.4-5.9-29.5-6.4c-8.3-0.4-16.3,2-24.4,3.6c-13.6,2.7-27.5,3.5-41.3,1.9c-6.7-0.8-13.4-2-20-0.8
			c-6.6,1.2-13.1,5.8-14.2,12.4c-1.2,6.9,3.8,13.7,3.1,20.7c-0.3,3.2-1.8,6.1-2.3,9.3c-1.1,8.2,6.3,16.4,14.5,16.2"/>
	</g>
	<g>
		<g>
			<path class="st1" d="M266.7,68.6c-0.5,6.5-8.1,5.8-12.3,4.1c-3.2-1.3-6.3-3.2-9.3-4.9c-6-3.4-12.1-6.7-18.1-10.1
				c-0.7-0.4-1.6-0.2-2.1,0.5c-7.9,12.6-19.9,30.4-37.4,25.9c-6-1.5-10.8-5.9-17.1-6.7c-7.2-0.9-14.9,2.7-21.7,4.7
				c-7.7,2.4-15.5,4.7-23.2,7.1c-5.2,1.6-10.6,2.7-13.7-2.8c-1.7-2.9-2.2-6.2-3.3-9.3c-1.5-4.3-4.1-8.6-9.1-9.2
				c-3.6-0.4-6.5,1.2-7.8,4.5c-0.7,1.8,2.2,2.6,2.9,0.8c1.1-2.9,4.8-2.8,7-1.5c2.4,1.4,3.5,4.5,4.3,7c0.9,2.7,1.4,5.5,2.7,8
				c1.9,4,5.2,7,9.9,7.1c6.8,0,14.4-3.6,20.9-5.6c7.6-2.3,15.2-5,22.9-6.9c4.7-1.2,8.9-1.2,13.3,0.8c2.5,1.1,4.9,2.6,7.4,3.6
				c5.8,2.4,11.9,2.6,17.9,0.5c12.5-4.3,20-15.8,26.6-26.5c-0.7,0.2-1.4,0.4-2.1,0.5c5.2,2.9,10.4,5.8,15.7,8.7
				c4.5,2.5,9,5.6,13.9,7.2c6.3,2.1,14.1-0.1,14.7-7.6C269.9,66.7,266.9,66.7,266.7,68.6L266.7,68.6z"/>
		</g>
	</g>
	<g>
		<g>
			<path class="st1" d="M87.8,74.1c2.9,1.6,5.7,3.2,8.6,4.7c0.4-0.9,0.8-1.8,1.2-2.7c-4.3-1-8.7-2-13-2.9c0.3,0.7,0.6,1.5,0.9,2.2
				c3.1-4.2,6.5-8.1,10.4-11.7c1-0.9,0.2-2.6-1.1-2.6c-4.1,0.1-7.9,0.9-11.6,2.6c-1.8,0.8-0.2,3.4,1.5,2.6c3.2-1.4,6.6-2.1,10.1-2.2
				c-0.4-0.9-0.7-1.7-1.1-2.6c-4,3.7-7.6,7.8-10.8,12.3c-0.6,0.8,0,2,0.9,2.2c4.3,1,8.7,2,13,2.9c1.6,0.4,2.7-1.9,1.2-2.7
				c-2.9-1.6-5.7-3.2-8.6-4.7C87.6,70.6,86.1,73.2,87.8,74.1L87.8,74.1z"/>
		</g>
	</g>
	<g>
		<g>
			<path class="st1" d="M88.1,87.7c-1.5,0.4-3.1,0.8-4.7,0.8c-3,0-4-1.7-4.3-4.7c-0.4-4.1,0.1-8.5,0.1-12.7c0-1.9-3-1.9-3,0
				c0,3.8-0.1,7.5-0.1,11.3c0,2.3-0.2,4.8,1.3,6.7c2.7,3.4,7.9,2.5,11.5,1.5C90.7,90.1,89.9,87.2,88.1,87.7L88.1,87.7z"/>
		</g>
	</g>
	<g>
		<g>
			<path class="st1" d="M89.7,103.4c-3.3,1.2-7-1.6-6.6-5.1c0.2-1.9-2.8-1.9-3,0c-0.5,5.3,5.4,9.8,10.4,8
				C92.3,105.7,91.6,102.8,89.7,103.4L89.7,103.4z"/>
		</g>
	</g>
	<g>
		<g>
			<path class="st1" d="M77.3,95.4C66.1,98,68.3,78.2,66.1,72c-0.6-1.8-3.5-1-2.9,0.8c2.2,6.4,0.4,13.8,3.8,19.8
				c2.4,4.1,6.3,6.8,11.1,5.7C80,97.9,79.2,95,77.3,95.4L77.3,95.4z"/>
		</g>
	</g>
	<g>
		<g>
			<path class="st1" d="M58,105.7c-8.4-0.7-6.7-11.4-5.4-16.9c0.4-1.9-2.4-2.7-2.9-0.8c-1.8,7.7-2.4,19.8,8.3,20.6
				C59.9,108.9,59.9,105.9,58,105.7L58,105.7z"/>
		</g>
	</g>
	<g>
		<g>
			<path class="st1" d="M142.8,98.7c-4.3,4.2-14.7,12.5-18.9,3.2c-0.8-1.8-3.4-0.2-2.6,1.5c1.9,4.1,6.2,5.9,10.5,5.5
				c5.3-0.5,9.5-4.5,13.1-8.1C146.3,99.5,144.2,97.4,142.8,98.7L142.8,98.7z"/>
		</g>
	</g>
	<g>
		<g>
			<path class="st1" d="M116.1,103.5c-2.9,2.4-5.9,4.7-8.8,7.1c0.7,0,1.4,0,2.1,0c-2.3-2-4.2-4.2-5.8-6.9c-1-1.7-3.6-0.1-2.6,1.5
				c1.7,2.8,3.8,5.3,6.3,7.5c0.7,0.6,1.4,0.5,2.1,0c2.9-2.4,5.9-4.7,8.8-7.1C119.7,104.4,117.6,102.3,116.1,103.5L116.1,103.5z"/>
		</g>
	</g>
	<g>
		<g>
			<path class="st1" d="M181.1,92.6c-1.2,1.7-2.3,3.4-3.5,5.1c-0.9,1.3-2.2,4.2-3.5,5.1c-4.6,3.1-9.4-4.7-11.4-7.6
				c-1.1-1.6-3.7-0.1-2.6,1.5c2.5,3.6,7.1,11,12.2,10.6c2.1-0.1,3.1-1.5,4.3-3.1c2.5-3.3,4.7-6.8,7-10.2
				C184.8,92.5,182.2,91,181.1,92.6L181.1,92.6z"/>
		</g>
	</g>
	<g>
		<g>
			<path class="st1" d="M223.7,86.6c1.5,6.2-6.9,9-9.7,3.4c-0.9-1.7-3.5-0.2-2.6,1.5c1.9,3.7,6.3,5.7,10.2,4.2c4-1.5,5.9-5.9,5-9.9
				C226.1,83.9,223.2,84.7,223.7,86.6L223.7,86.6z"/>
		</g>
	</g>
	<g>
		<g>
			<path class="st1" d="M256.8,83.7c-4.3,3.5-7.6,7.6-10,12.6c0.8-0.1,1.6-0.2,2.4-0.3c-4.1-4.1-8.2-8.3-12.3-12.4
				c-1.4-1.4-3.5,0.7-2.1,2.1c4.1,4.1,8.2,8.3,12.3,12.4c0.6,0.6,1.9,0.6,2.4-0.3c2.3-4.8,5.4-8.7,9.5-12
				C260.4,84.6,258.3,82.5,256.8,83.7L256.8,83.7z"/>
		</g>
	</g>
	<g>
		<g>
			<path class="st1" d="M224.5,99c1.1-1.5,1.1-3.6,0.1-5.2c-1-1.6-3.6-0.1-2.6,1.5c0.5,0.7,0.4,1.5-0.1,2.2
				c-0.5,0.7-0.1,1.7,0.5,2.1C223.2,100,224.1,99.7,224.5,99L224.5,99z"/>
		</g>
	</g>
	<g>
		<g>
			<path class="st1" d="M284.9,82c-0.9,2.2-1.8,4.3-2.7,6.5c-1.3,3.1-1.6,6.4-5.6,5.6c-4.8-0.9-10.1-4.3-14.3-6.8
				c-1.7-1-3.2,1.6-1.5,2.6c3.5,2,7,3.8,10.7,5.4c2.4,1,5.9,3.2,8.7,2.3c1.6-0.5,2.2-1.8,2.9-3.2c1.8-3.7,3.2-7.7,4.8-11.5
				C288.6,81,285.7,80.2,284.9,82L284.9,82z"/>
		</g>
	</g>
	<g>
		<g>
			<path class="st1" d="M295.4,101.5c-0.7,3.2-1.5,6.5-2.2,9.7c-0.3,1.5-0.6,4.2-2.5,4.6c-1.3,0.3-3.4-2.6-3.9-3.5
				c-1.1-1.6-3.7-0.1-2.6,1.5c1.9,2.8,5.9,7,9.5,4.1c1.6-1.3,1.9-3.5,2.3-5.4c0.8-3.4,1.5-6.8,2.3-10.3
				C298.7,100.4,295.8,99.6,295.4,101.5L295.4,101.5z"/>
		</g>
	</g>
	<g>
		<g>
			<path class="st1" d="M272.5,116.1c-2.1,3.5-4.2,6.9-6.3,10.4c-1,1.6-1.8,3.2-2.9,4.8c-0.5,0.8-1,1.5-1.6,2.1
				c-2.4,1.7-3.7,1.4-3.9-1c0.6-1.8-2.3-2.6-2.9-0.8c-1.6,4.4,3.9,7.1,7.4,5c2.5-1.5,3.9-4.3,5.3-6.7c2.5-4.1,5-8.2,7.4-12.4
				C276.1,115.9,273.5,114.4,272.5,116.1L272.5,116.1z"/>
		</g>
	</g>
	<g>
		<g>
			<path class="st1" d="M255.9,107c-3,1.7-3.5,4.6-5.3,7.3c-3.8,5.7-14.2-4.4-18.1-7.1c-1.6-1.1-3.1,1.5-1.5,2.6
				c3.8,2.6,7.4,5.4,11.3,7.9c2.1,1.3,4.2,2.7,6.8,1.9c4.8-1.4,4.4-7.7,8.3-10C259.1,108.6,257.6,106,255.9,107L255.9,107z"/>
		</g>
	</g>
	<g>
		<g>
			<path class="st1" d="M214.1,112.7c-1,4.1-4.3,7.1-8.5,7.8c-1.9,0.3-1.1,3.2,0.8,2.9c5.1-0.9,9.3-4.8,10.6-9.9
				C217.5,111.6,214.6,110.8,214.1,112.7L214.1,112.7z"/>
		</g>
	</g>
	<g>
		<g>
			<path class="st1" d="M269.5,33c1.8,5.5,1.9,11.1,0,16.6c-0.6,1.8,2.3,2.6,2.9,0.8c2-6,2-12.2,0-18.2
				C271.8,30.4,268.9,31.2,269.5,33L269.5,33z"/>
		</g>
	</g>
	<g>
		<path d="M250.5,45.2c5.1-2.3,5.9-10.2,11.1-12.2c3-1.1,6.4,0.2,8.6,2.5c2.2,2.3,3.4,5.3,4.3,8.3c1.2,3.9,2.1,7.9,1.4,11.9
			c-0.7,4-3.2,7.9-7,9.2c-5.3,1.8-11.2-1.9-13.6-6.9s-2.4-10.8-2.1-16.4"/>
	</g>
	<g>
		<path d="M93.3,31.4c2.7-2.6,7.2-1.4,10.1,0.9c4.9,4,7.1,10.7,6.9,17c-0.1,3.9-1.5,8.2-5,9.9c-5.5,2.5-11.3-3.5-12.5-9.4
			s0.1-12.2-2-17.9"/>
	</g>
	<g>
		<g>
			<path class="st2" d="M197.4,68.4c-10.7,0.3-21.2-0.4-31.7-2.3c-1.9-0.3-2.7,2.6-0.8,2.9c10.8,1.9,21.6,2.7,32.5,2.4
				C199.3,71.4,199.3,68.4,197.4,68.4L197.4,68.4z"/>
		</g>
	</g>
	<g>
		<path class="st2" d="M195.5,70c-0.9,9.1-2.9,19.7-11.2,23.5c-6.2,2.8-14.1,0.1-18.3-5.3c-4.2-5.4-5.1-12.9-3.7-19.6"/>
	</g>
	<g>
		<g>
			<path class="st3" d="M263.1,41.9c-1.6-3.1-3.1-6.2-4.7-9.3c-0.6-1.1-2.5-0.9-2.7,0.4c-0.6,2.9-1.2,6.2,0.8,8.7
				c1.6,2,4,2.7,6.3,1.7c1.8-0.8,0.2-3.4-1.5-2.6c-1.4,0.6-2.7-1-3-2.2c-0.4-1.6,0-3.3,0.3-4.9c-0.9,0.1-1.8,0.2-2.7,0.4
				c1.6,3.1,3.1,6.2,4.7,9.3C261.3,45.2,263.9,43.7,263.1,41.9L263.1,41.9z"/>
		</g>
	</g>
	<g>
		<g>
			<path class="st3" d="M100.6,42.8c3.3-1.6,6.6-3.3,9.9-4.9c1.7-0.9,0.2-3.5-1.5-2.6c-3.3,1.6-6.6,3.3-9.9,4.9
				C97.3,41.1,98.9,43.6,100.6,42.8L100.6,42.8z"/>
		</g>
	</g>
	<g>
		<g>
			<path class="st3" d="M103.4,39.7c1.3-2.5,2.5-4.9,3.8-7.4c0.9-1.7-1.7-3.2-2.6-1.5c-1.3,2.5-2.5,4.9-3.8,7.4
				C99.9,39.9,102.5,41.4,103.4,39.7L103.4,39.7z"/>
		</g>
	</g>
	<g>
		<g>
			<path class="st3" d="M105.3,35.3c0.8,0.4,1.6,0.8,2.5,1.3c0.7,0.4,1.6,0.2,2.1-0.5c0.4-0.7,0.2-1.7-0.5-2.1
				c-0.8-0.4-1.6-0.8-2.5-1.3c-0.7-0.4-1.6-0.2-2.1,0.5C104.4,33.9,104.6,34.9,105.3,35.3L105.3,35.3z"/>
		</g>
	</g>
	<g>
		<g>
			<path class="st3" d="M102.7,38c1.6-0.4,3.3-0.8,4.9-1.2c1.9-0.5,1.1-3.4-0.8-2.9c-1.6,0.4-3.3,0.8-4.9,1.2
				C100,35.6,100.8,38.5,102.7,38L102.7,38z"/>
		</g>
	</g>
	<g>
		<g>
			<path class="st4" d="M279.9,263.4c-0.7,1.9-1.4,3.9-2.1,5.8c-0.5,1.3-1.1,5.3-3.1,4.4c-1.3-0.6-2.5-2.8-3.4-3.9
				c-1.5-1.7-3-3.4-4.4-5.1c-1.3-1.5-3.4,0.7-2.1,2.1c2.3,2.6,4.5,5.3,6.9,7.9c1.2,1.3,2.6,2.8,4.6,2.4c1.5-0.3,2.4-1.6,2.9-2.9
				c1.4-3.2,2.4-6.7,3.6-10C283.5,262.4,280.6,261.6,279.9,263.4L279.9,263.4z"/>
		</g>
	</g>
	<g>
		<g>
			<path class="st4" d="M259.6,283c-1.5,5-2.8,10.1-3.8,15.2c0.8-0.2,1.7-0.4,2.5-0.7c-2.7-2.2-5.4-4.3-8.1-6.5
				c-1.5-1.2-3.6,0.9-2.1,2.1c2.7,2.2,5.4,4.3,8.1,6.5c0.8,0.6,2.3,0.6,2.5-0.7c1-5.1,2.2-10.2,3.8-15.2
				C263.1,281.9,260.2,281.1,259.6,283L259.6,283z"/>
		</g>
	</g>
	<g>
		<g>
			<path class="st4" d="M159.9,316.5c-5.8,2.4-11,5.8-15.6,10.2c0.8,0.1,1.6,0.2,2.4,0.3c-1.7-3.2-2.3-6.5-2.1-10.1
				c0.1-1.9-2.9-1.9-3,0c-0.3,4.1,0.6,7.9,2.5,11.6c0.5,0.9,1.7,0.9,2.4,0.3c4.1-4,8.9-7.2,14.2-9.4
				C162.4,318.6,161.7,315.7,159.9,316.5L159.9,316.5z"/>
		</g>
	</g>
	<g>
		<g>
			<path class="st4" d="M136.2,313.2c-2.5,1.5-3.8,4.2-6.1,5.8c-2.9,2-4-2.1-4.8-4.2c-1-2.3-1.9-4.7-2.9-7c-0.7-1.8-3.6-1-2.9,0.8
				c1.4,3.4,2.7,6.8,4.2,10.1c0.9,1.9,2.2,3.7,4.4,4c4.3,0.5,6.4-5,9.6-6.9C139.3,314.8,137.8,312.2,136.2,313.2L136.2,313.2z"/>
		</g>
	</g>
	<g>
		<g>
			<path class="st4" d="M69.6,281.1c-3.9,2.8-7.8,5.7-11.7,8.5c0.7,0.3,1.5,0.6,2.2,0.9c-2.4-7.3-4.3-14.7-5.7-22.2
				c-0.3-1.9-3.2-1.1-2.9,0.8c1.3,7.6,3.2,14.9,5.7,22.2c0.3,0.8,1.4,1.5,2.2,0.9c3.9-2.8,7.8-5.7,11.7-8.5
				C72.6,282.6,71.1,280,69.6,281.1L69.6,281.1z"/>
		</g>
	</g>
	<g>
		<g>
			<path class="st4" d="M112,292.6c-4.5,7.6-9.9,14.6-16.1,20.9c0.8,0.1,1.6,0.2,2.4,0.3c-3.7-5-5.9-10.5-6.3-16.7
				c-0.1-1.9-3.1-1.9-3,0c0.5,6.7,2.7,12.8,6.7,18.2c0.6,0.7,1.6,1.1,2.4,0.3c6.3-6.5,11.9-13.7,16.5-21.5
				C115.6,292.4,113,290.9,112,292.6L112,292.6z"/>
		</g>
	</g>
	<g>
		<g>
			<path class="st4" d="M93.4,278.9c-1.9,2.6-3.7,5.2-5.6,7.8c-0.7,1-0.9,1.5-2,0.6c-0.5-0.4-0.9-1.2-1.3-1.7
				c-1.1-1.4-2.2-2.9-3.4-4.3c-1.2-1.5-3.3,0.6-2.1,2.1c1.7,2.2,3.3,4.8,5.3,6.7c1,1,2.3,1.4,3.6,0.8c1.4-0.6,2.4-2.4,3.2-3.6
				c1.6-2.3,3.3-4.6,4.9-6.9C97.1,278.9,94.5,277.4,93.4,278.9L93.4,278.9z"/>
		</g>
	</g>
	<g>
		<g>
			<path class="st4" d="M150.3,289.3c0.2,4.2-4.7,5.8-8,4.5c-3.5-1.4-5.6-4.8-7.4-7.9c-1-1.7-3.6-0.2-2.6,1.5
				c2.7,4.6,6.7,10.1,12.6,9.9c4.4-0.1,8.7-3.4,8.4-8C153.2,287.4,150.2,287.4,150.3,289.3L150.3,289.3z"/>
		</g>
	</g>
	<g>
		<g>
			<path class="st4" d="M244.4,274.2c-2.1,3.3-8.1,2.6-9.3-1.1c-0.6-1.8-3.5-1-2.9,0.8c2.1,6.2,11.3,7.4,14.8,1.8
				C248,274.1,245.5,272.6,244.4,274.2L244.4,274.2z"/>
		</g>
	</g>
	<g>
		<g>
			<path class="st4" d="M224.9,282.7c1.6,3.8-2.4,6.6-5.9,6.4c-3.5-0.3-6.5-2.7-9.2-4.8c-1.5-1.2-3.6,0.9-2.1,2.1
				c4.1,3.2,9.3,7.2,14.8,5.3c3.9-1.4,7-5.6,5.2-9.7C227,280.2,224.1,281,224.9,282.7L224.9,282.7z"/>
		</g>
	</g>
	<g>
		<g>
			<path class="st4" d="M201.5,296.9c-0.2,1.6-0.4,3.4-1.3,4.7c-0.7,0.9-2.3,1.7-3.3,0.8c-1.4-1.3-3.6,0.8-2.1,2.1
				c1.9,1.7,4.7,1.5,6.7,0c2.3-1.8,2.7-4.9,3-7.6C204.8,295,201.8,295,201.5,296.9L201.5,296.9z"/>
		</g>
	</g>
	<g>
		<g>
			<path class="st4" d="M277.6,207.6c-0.1,4.8-2.3,9.7-6.8,11.9c-4.8,2.4-11.1,0.1-13.1-4.8c-0.7-1.8-3.6-1-2.9,0.8
				c2.4,5.9,8.7,9.2,14.9,7.6c6.9-1.7,10.7-8.8,10.9-15.5C280.7,205.7,277.7,205.7,277.6,207.6L277.6,207.6z"/>
		</g>
	</g>
	<g>
		<g>
			<path class="st4" d="M289.8,231.3c-0.4,1.9-0.9,3.8-1.4,5.6c-0.4,1.4-1.2,5.3-2.2,6.2c-1.2,1-3.4,0.8-4.7,0.2
				c-1-0.4-1.9-1.4-2.7-2c-1.8-1.6-3.4-3.4-4.7-5.3c-1.1-1.6-3.7-0.1-2.6,1.5c2.7,3.8,8.3,10.8,13.7,9.9c2.3-0.4,3.4-2.3,4.2-4.2
				c1.5-3.6,2.5-7.3,3.4-11.1C293.1,230.2,290.2,229.4,289.8,231.3L289.8,231.3z"/>
		</g>
	</g>
	<g>
		<g>
			<path class="st4" d="M245.1,223.8c-0.5,2.4-0.9,5.3-2.8,7.2c-1.4,1.4-4.3,2-5.5,0c-1-1.7-3.5-0.2-2.6,1.5
				c1.6,2.9,5.3,3.4,8.1,2.1c3.8-1.8,4.9-6.2,5.6-10C248.3,222.7,245.4,221.9,245.1,223.8L245.1,223.8z"/>
		</g>
	</g>
	<g>
		<g>
			<path class="st4" d="M307.9,190.3c-0.4,2.7-0.8,5.9-2.7,8c-1.5,1.8-5,2.7-6.4,0.3c-1-1.7-3.6-0.2-2.6,1.5
				c1.8,3.1,5.8,3.6,8.9,2.1c4.1-2,5.1-7,5.7-11.1C311.1,189.2,308.2,188.4,307.9,190.3L307.9,190.3z"/>
		</g>
	</g>
	<g>
		<g>
			<path class="st4" d="M276.5,160c-0.9,8-10.1,11.5-16.2,6.3c-1.5-1.3-3.6,0.9-2.1,2.1c8.2,7,20.1,2.3,21.3-8.4
				C279.7,158.1,276.7,158.1,276.5,160L276.5,160z"/>
		</g>
	</g>
	<g>
		<g>
			<path class="st4" d="M303.8,165.5c1.8,4.6-4.3,7.1-7.8,5.6c-3.5-1.5-5.6-4.9-7.4-8c-1-1.7-3.5-0.2-2.6,1.5
				c2.7,4.8,7,10.6,13.2,10.1c4.8-0.4,9.4-5.1,7.5-10C306,162.9,303.1,163.7,303.8,165.5L303.8,165.5z"/>
		</g>
	</g>
	<g>
		<g>
			<path class="st4" d="M26.1,195.8c-2.8-1.1-4.8,0.8-6.8,2.6c-2.2,2-4.6,3.7-7.3,1.1c-2.3-2.1-2.5-5.7-2.7-8.5
				c-0.2-1.9-3.2-1.9-3,0c0.4,4.8,1.4,10.8,6.7,12.6c1.9,0.6,3.8,0.4,5.5-0.5c1.9-1.1,4.5-5.3,6.9-4.3
				C27.1,199.4,27.9,196.5,26.1,195.8L26.1,195.8z"/>
		</g>
	</g>
	<g>
		<g>
			<path class="st4" d="M23.6,162.7c-0.7,2.3-3.4,3.3-5.6,2.7c-2.2-0.6-3.8-2.6-4.8-4.5c-2-3.8-2.2-8.4-3.6-12.4
				c-0.6-1.8-3.5-1-2.9,0.8c2.1,6.1,2.2,14.4,8.4,18.1c4.2,2.4,9.8,0.8,11.4-3.9C27.1,161.7,24.2,160.9,23.6,162.7L23.6,162.7z"/>
		</g>
	</g>
	<g>
		<g>
			<path class="st4" d="M17.1,232.7c-1.2,0.1-2.2,0.4-3.4,0.9c-0.8,0.3-1.6,1-2.4,1c-1.9,0.2-2.4-1.5-2.6-3.1
				c-0.7-4.6,0.1-10,0.1-14.6c0-1.9-3-1.9-3,0c0,3.9,0,7.8-0.1,11.7c0,2.3-0.7,5.7,0.7,7.8c2.6,4,7.5-0.3,10.7-0.7
				C19,235.5,19,232.5,17.1,232.7L17.1,232.7z"/>
		</g>
	</g>
	<g>
		<g>
			<path class="st4" d="M7.8,197.6c-1.1,0.9-3.6,0.1-4.5-0.8c-1.3-1.3-1.4-3.5-1.4-5.1c0-2,0.6-4,0.8-6c0.4-3.1,0.2-6-1.4-8.8
				c-1-1.7-3.6-0.2-2.6,1.5c3.6,6.1-2.5,13.5,1.6,19.5c2.2,3.3,6.5,4.3,9.6,1.8C11.4,198.5,9.3,196.4,7.8,197.6L7.8,197.6z"/>
		</g>
	</g>
	<g>
		<g>
			<path class="st4" d="M27.6,219.5c-2.4,1.3-5.3,0.1-6.4-2.3c-0.8-1.8-3.4-0.2-2.6,1.5c1.8,3.9,6.8,5.4,10.5,3.4
				C30.9,221.2,29.3,218.6,27.6,219.5L27.6,219.5z"/>
		</g>
	</g>
	<g>
		<g>
			<path class="st4" d="M33.4,251.7c-1.3,1.1-2.6,2.3-3.9,3.4c0.7,0,1.4,0,2.1,0c-2-2.3-3.4-4.9-4.3-7.8c-0.6-1.8-3.5-1.1-2.9,0.8
				c1,3.4,2.7,6.4,5,9.2c0.6,0.6,1.5,0.5,2.1,0c1.3-1.1,2.6-2.3,3.9-3.4C37,252.6,34.9,250.4,33.4,251.7L33.4,251.7z"/>
		</g>
	</g>
	<g>
		<g>
			<path class="st4" d="M56.7,246.1c-1.1,3.7-6.3,3.3-8.6,1.1c-2.9-2.8-3.5-7.4-4.1-11.1c-0.3-1.9-3.2-1.1-2.9,0.8
				c0.8,5.3,2.2,12.3,7.9,14.4c4.1,1.5,9.2,0.1,10.5-4.4C60.1,245,57.2,244.2,56.7,246.1L56.7,246.1z"/>
		</g>
	</g>
	<g>
		<g>
			<path class="st4" d="M40.3,265.4c-1,1.8-2,3.6-3,5.3c-1.5,2.7-2.7,4.1-5.9,2.2c-4-2.4-7.5-5.5-10.7-9c-1.3-1.4-3.4,0.7-2.1,2.1
				c3.6,3.9,9.5,10.1,15,11.3c5,1.1,7.6-7.3,9.4-10.5C43.8,265.2,41.2,263.7,40.3,265.4L40.3,265.4z"/>
		</g>
	</g>
	<g>
		<g>
			<path class="st4" d="M119,259c-1.4,1-2.9,1.9-4.3,2.9c-0.6,0.4-1.9,1.6-2.6,1.7c-1.5,0.3-1.8-0.7-2.2-1.8
				c-1.1-3.5-2-7.1-2.6-10.8c-0.3-1.9-3.2-1.1-2.9,0.8c0.5,2.8,1.1,5.5,1.9,8.2c0.5,1.9,0.9,4.8,2.5,6.2c1.3,1.3,3,0.9,4.4,0.1
				c2.6-1.4,4.9-3.3,7.3-4.9C122.1,260.5,120.6,257.9,119,259L119,259z"/>
		</g>
	</g>
	<g>
		<g>
			<path class="st4" d="M187.3,308.6c-1.2,1.9-2.3,3.8-3.5,5.7c-1,1.7-2.1,2.7-4.2,1.6c-0.8-0.4-1.6-1.6-2.3-2.3
				c-3-3.3-5.3-7-7.2-11.1c-0.8-1.7-3.4-0.2-2.6,1.5c2.5,5.4,6.5,12.2,11.7,15.5c5.4,3.4,8.6-6.1,10.6-9.5
				C190.9,308.5,188.3,307,187.3,308.6L187.3,308.6z"/>
		</g>
	</g>
	<g>
		<g>
			<path class="st4" d="M213.4,305.2c-1.6,8.1-12.6,8.3-14.3,0.1c-0.4-1.9-3.3-1.1-2.9,0.8c2.4,11,17.9,10.9,20.1-0.1
				C216.6,304.1,213.7,303.3,213.4,305.2L213.4,305.2z"/>
		</g>
	</g>
	<g>
		<g>
			<path class="st4" d="M320.3,212.7c-1.2,4.7-2.5,9.5-3.7,14.2c-0.5,1.9-0.5,5.6-3.1,4.5c-1.7-0.7-3.8-3.2-5.1-4.5
				c-1.4-1.3-3.5,0.8-2.1,2.1c2.1,2,7.7,9,11,5.6c1.8-1.9,2-6,2.7-8.5c1.1-4.2,2.2-8.4,3.3-12.6
				C323.6,211.6,320.8,210.8,320.3,212.7L320.3,212.7z"/>
		</g>
	</g>
	<g>
		<path class="st1" d="M275.9,67.5c3.1-31.3,27.2-59.4,57.6-67.3c1.1-0.3,2.4-0.5,3.3,0.3c0.7,0.6,0.8,1.5,0.9,2.4
			c0.9,6.8,1.9,13.6,2.8,20.4c0.5,3.7,1.1,7.7,3.6,10.6c1.6,1.9,3.8,3.1,5.3,5.1c2.7,3.6,2.1,9.2-1.3,12.1c-0.9,0.8-2.1,1.5-2.2,2.7
			c-0.1,1.7,1.8,2.6,3.1,3.6c4.3,3.5,2,11.2-2.9,14c-4.8,2.8-10.8,2.3-16.4,2.2c-9.9-0.3-21.3,1.4-26.7,9.8c-1,1.5-2,3.4-3.8,3.6
			c-1.2,0.1-2.3-0.6-3.3-1.3c-8-5.8-14.8-13.1-20.1-21.5"/>
	</g>
	<g>
		<g>
			<path class="st1" d="M276.4,62.8c1.9,0,1.9-3,0-3C274.5,59.8,274.5,62.8,276.4,62.8L276.4,62.8z"/>
		</g>
	</g>
	<g>
		<path class="st1" d="M71.6,67.5c1.5-2.5,4.7-3.3,7.4-4.4c2.7-1.1,5.6-3.4,5-6.3c-0.2-1-0.9-1.9-1.6-2.7
			C71.4,40.7,57.6,29.6,42.2,21.8c-10.6-5.3-24-8.9-34-2.4c2.7,1.1,5.8,3,5.5,5.8c-0.4,3.7-5.9,4.4-7.9,7.5
			c-3.1,4.8,3.6,10.6,2.6,16.2c-0.9,5-7.7,7.9-7.5,13c0.2,4.3,5.5,7,6.1,11.3c0.2,1.8-0.3,3.6,0.4,5.3c1.4,3.1,5.9,2.5,9.1,1.5
			c15.7-4.7,32.1-6.7,48.4-5.9"/>
	</g>
	<g>
		<g>
			<path class="st5" d="M282.3,70.7c22-12.8,27.3-46.5,54-52c1.9-0.4,1.1-3.3-0.8-2.9C308,21.5,303,55.1,280.7,68.1
				C279.1,69.1,280.6,71.7,282.3,70.7L282.3,70.7z"/>
		</g>
	</g>
	<g>
		<g>
			<path class="st5" d="M347.4,49.1c-5.8,3.7-12.1,6.4-18.9,7.7c-5.9,1.1-11.8,1.3-17.4,3.8c-8.4,3.7-14.6,10.7-17.8,19.3
				c-0.7,1.8,2.2,2.6,2.9,0.8c3.7-10.1,12.2-17.2,22.7-19.3c5.4-1.1,11-1.4,16.3-3.1c4.9-1.5,9.4-3.8,13.7-6.5
				C350.5,50.6,349,48,347.4,49.1L347.4,49.1z"/>
		</g>
	</g>
	<g>
		<g>
			<path class="st5" d="M257.7,66.4c-8-8.5-9.9-21.1-4.6-31.5c0.9-1.7-1.7-3.2-2.6-1.5c-5.9,11.6-3.9,25.7,5,35.1
				C256.9,70,259,67.8,257.7,66.4L257.7,66.4z"/>
		</g>
	</g>
	<g>
		<g>
			<path class="st5" d="M93.7,75.5c11.2-1.3,21.4-7,27.8-16.3c4.5-6.5,7-17.8-1.4-22.3c-1.7-0.9-3.2,1.7-1.5,2.6
				c8.5,4.6,2.3,16.4-2.2,21.4c-5.9,6.6-14,10.7-22.7,11.6C91.8,72.7,91.8,75.7,93.7,75.5L93.7,75.5z"/>
		</g>
	</g>
	<g>
		<g>
			<path class="st5" d="M88.3,59.7c-15.4-20.1-36-35.4-59.7-44.3c-1.8-0.7-2.6,2.2-0.8,2.9c22.9,8.6,43,23.5,57.9,43
				C86.9,62.7,89.5,61.2,88.3,59.7L88.3,59.7z"/>
		</g>
	</g>
	<g>
		<g>
			<path class="st5" d="M25.8,18.4c1.9,0,1.9-3,0-3C23.8,15.4,23.8,18.4,25.8,18.4L25.8,18.4z"/>
		</g>
	</g>
	<g>
		<g>
			<path class="st5" d="M76.1,72.7C57.8,56.4,37.3,42.7,15.2,32.1c-1.7-0.8-3.3,1.8-1.5,2.6c21.9,10.5,42.2,24,60.3,40.2
				C75.4,76.2,77.5,74,76.1,72.7L76.1,72.7z"/>
		</g>
	</g>
	<g>
		<g>
			<path class="st5" d="M65.1,74.5C49.2,63.4,30.3,57.7,11,58.1c-1.9,0-1.9,3,0,3c18.9-0.3,37.1,5.2,52.6,16
				C65.1,78.1,66.6,75.5,65.1,74.5L65.1,74.5z"/>
		</g>
	</g>
	<g>
		<g>
			<path class="st5" d="M184.1,66.5c-3.7,3.5-6.1,7.9-6.9,12.9c-0.3,1.9,2.6,2.7,2.9,0.8c0.7-4.5,2.8-8.4,6.1-11.6
				C187.6,67.3,185.5,65.2,184.1,66.5L184.1,66.5z"/>
		</g>
	</g>
	<g>
		<g>
			<path class="st4" d="M102,203.6c-2.1,3.8-4.8,7.1-7.9,10.1c0.8,0.2,1.7,0.4,2.5,0.7c-1.2-4.3-2.4-8.5-3.6-12.8
				c-0.5-1.9-3.4-1.1-2.9,0.8c1.2,4.3,2.4,8.5,3.6,12.8c0.3,1.1,1.7,1.4,2.5,0.7c3.3-3.1,6.1-6.7,8.4-10.7
				C105.5,203.4,102.9,201.9,102,203.6L102,203.6z"/>
		</g>
	</g>
	<g>
		<g>
			<path class="st4" d="M66.6,194.7c-3.9,3.6-8.2,6.4-13.1,8.4c0.6,0.3,1.2,0.7,1.8,1c-1.4-6.7-2.7-13.3-4.1-20
				c-0.4-1.9-3.3-1.1-2.9,0.8c1.4,6.7,2.7,13.3,4.1,20c0.1,0.7,1.1,1.3,1.8,1c5.4-2.3,10.1-5.3,14.4-9.2
				C70.2,195.5,68,193.4,66.6,194.7L66.6,194.7z"/>
		</g>
	</g>
	<g>
		<g>
			<path class="st4" d="M93.9,166.5c-3,2.8-5.9,5.6-8.9,8.5c0.8,0.1,1.6,0.2,2.4,0.3c-2-3.6-3.1-7.4-3.2-11.5c-0.1-1.9-3.1-1.9-3,0
				c0.1,4.6,1.3,9,3.6,13c0.5,0.9,1.7,1,2.4,0.3c3-2.8,5.9-5.6,8.9-8.5C97.4,167.3,95.3,165.1,93.9,166.5L93.9,166.5z"/>
		</g>
	</g>
	<g>
		<g>
			<path class="st4" d="M150.9,169.4c-1.3,4.4-3.4,8.3-6.3,11.8c0.8,0.1,1.6,0.2,2.4,0.3c-2.9-4.1-5.8-8.2-8.6-12.4
				c-1.1-1.6-3.7-0.1-2.6,1.5c2.9,4.1,5.8,8.2,8.6,12.4c0.5,0.7,1.7,1.1,2.4,0.3c3.3-3.9,5.7-8.2,7.1-13.1
				C154.3,168.3,151.4,167.5,150.9,169.4L150.9,169.4z"/>
		</g>
	</g>
	<g>
		<g>
			<path class="st4" d="M215.6,250.5c-4.1,5.4-8.1,10.7-12.2,16.1c0.9,0,1.7,0,2.6,0c-2.3-4.9-4.6-9.9-6.9-14.8
				c-0.8-1.7-3.4-0.2-2.6,1.5c2.3,4.9,4.6,9.9,6.9,14.8c0.5,1.1,2,0.8,2.6,0c4.1-5.4,8.1-10.7,12.2-16.1
				C219.3,250.4,216.7,248.9,215.6,250.5L215.6,250.5z"/>
		</g>
	</g>
	<g>
		<g>
			<path class="st4" d="M233.4,181.7c-2,4.7-4.5,9-7.7,13c0.8,0.1,1.6,0.2,2.4,0.3c-3.3-4.3-5.5-9.1-6.7-14.3
				c-0.4-1.9-3.3-1.1-2.9,0.8c1.2,5.5,3.6,10.6,7,15.1c0.5,0.7,1.7,1.1,2.4,0.3c3.3-4.2,6.1-8.7,8.1-13.6
				C236.7,181.4,234.1,179.9,233.4,181.7L233.4,181.7z"/>
		</g>
	</g>
	<g>
		<g>
			<path class="st4" d="M260.4,198.9c-2.5,5.5-5.7,10.3-10,14.6c0.7,0,1.4,0,2.1,0c-2.5-3.2-4.3-6.7-5.4-10.6
				c-0.5-1.9-3.4-1.1-2.9,0.8c1.2,4.5,3.3,8.4,6.1,12c0.5,0.6,1.6,0.5,2.1,0c4.4-4.5,7.9-9.5,10.4-15.2
				C263.7,198.6,261.1,197.1,260.4,198.9L260.4,198.9z"/>
		</g>
	</g>
	<g>
		<g>
			<path class="st4" d="M130.1,234.2c-1.7,1.3-3.5,2.6-5.2,4c-2.5,1.9-3.9,4.2-6.5,0.9c-3-3.7-5-9-7.2-13.2
				c-0.9-1.7-3.5-0.2-2.6,1.5c1.8,3.2,3.6,6.5,5.3,9.7c1.2,2.2,2.3,5.6,4.6,6.7c1.7,0.8,3.1,0.3,4.6-0.6c3-1.9,5.7-4.4,8.6-6.5
				C133.1,235.7,131.6,233,130.1,234.2L130.1,234.2z"/>
		</g>
	</g>
	<g>
		<g>
			<path class="st4" d="M189.9,239.1c0,2.1-1.7,4.1-3.9,4.1c-2.2,0-3.8-2.1-3.8-4.1c0-1.9-3-1.9-3,0c0,3.7,3,7.1,6.8,7.1
				c3.8,0,6.8-3.4,6.9-7.1C193,237.2,190,237.2,189.9,239.1L189.9,239.1z"/>
		</g>
	</g>
	<g>
		<g>
			<path class="st4" d="M167.4,256.7c-3.8,7.2-7.6,14.3-11.4,21.5c0.8-0.1,1.6-0.2,2.4-0.3c-3.9-4.6-7-9.7-9.5-15.3
				c-0.8-1.8-3.4-0.2-2.6,1.5c2.6,5.8,5.9,11,10,15.9c0.6,0.7,1.9,0.5,2.4-0.3c3.8-7.2,7.6-14.3,11.4-21.5
				C170.9,256.5,168.3,255,167.4,256.7L167.4,256.7z"/>
		</g>
	</g>
	<g>
		<g>
			<path class="st4" d="M154,241.9c-1.1,1.7-2.2,3.3-3.4,5c-0.9,1.4-2,3.9-3.4,5c-3.3,2.6-5,0.6-6.6-2.2c-0.9-1.5-1.6-2.9-2.7-4.2
				c-1.2-1.5-3.4,0.7-2.1,2.1c2.7,3.2,4.5,10.2,10.2,9c2.2-0.5,3.4-2.5,4.6-4.3c2-2.9,4-5.9,6-8.8C157.6,241.8,155,240.3,154,241.9
				L154,241.9z"/>
		</g>
	</g>
	<g>
		<g>
			<path class="st4" d="M163.5,209.7c-4.1,6.6-8.8,12.8-14.1,18.5c0.8,0.1,1.6,0.2,2.4,0.3c-2.2-2.9-3.7-6-4.6-9.6
				c-0.5-1.9-3.4-1.1-2.9,0.8c1,3.8,2.6,7.2,4.9,10.3c0.5,0.7,1.6,1.1,2.4,0.3c5.5-5.9,10.4-12.3,14.6-19.1
				C167.1,209.5,164.5,208,163.5,209.7L163.5,209.7z"/>
		</g>
	</g>
	<g>
		<g>
			<path class="st6" d="M193.6,179.6c0.3,3.1-4.2,3.7-6.2,2.3c-3.2-2.3-3-7.4-2.9-10.8c0-1.9-3-1.9-3,0c-0.1,5,0.3,12.5,6.2,14.2
				c3.9,1.1,9.4-1,9-5.7C196.4,177.7,193.4,177.6,193.6,179.6L193.6,179.6z"/>
		</g>
	</g>
	<g>
		<g>
			<path class="st6" d="M237,159.2c-0.5,3.5-2.4,5-5.7,4.4c-1.5-0.4-2.8-1.1-3.9-2.2c-1.4-1.2-2.6-2.8-3.7-4.3
				c-1.8-2.4-3.5-4.8-5.9-6.7c-1.5-1.2-3.6,0.9-2.1,2.1c5.3,4.3,8,12.8,15.4,14.1c5,0.9,9.6-3.1,8.7-8.2
				C239.6,156.5,236.7,157.3,237,159.2L237,159.2z"/>
		</g>
	</g>
	<g>
		<g>
			<path class="st6" d="M222.2,212.5c-2.3,3.5-4.7,7-7,10.5c0.9,0,1.7,0,2.6,0c-2.3-4.3-4.6-8.7-7-13c-0.9-1.7-3.5-0.2-2.6,1.5
				c2.3,4.3,4.6,8.7,7,13c0.6,1,2,0.9,2.6,0c2.3-3.5,4.7-7,7-10.5C225.9,212.4,223.3,210.9,222.2,212.5L222.2,212.5z"/>
		</g>
	</g>
	<g>
		<g>
			<path class="st6" d="M252.3,245.4c-1.9,1-3.9,2-5.8,3c-2,1-4.2,2.8-5.7,0.4c-0.9-1.5-1-4-1.5-5.7c-0.6-2.3-1.2-4.6-1.8-7
				c-0.5-1.9-3.4-1.1-2.9,0.8c0.9,3.4,1.7,6.7,2.6,10.1c0.5,1.9,0.8,4.6,2.6,5.9c1.4,1,2.9,0.7,4.3,0c3.3-1.4,6.5-3.3,9.7-4.9
				C255.5,247.1,254,244.6,252.3,245.4L252.3,245.4z"/>
		</g>
	</g>
	<g>
		<g>
			<path class="st6" d="M273,180.9c0.2,2-1.9,3.4-3.8,2.8c-2.1-0.7-3.1-3.2-3.4-5.2c-0.2-1.9-3.2-1.9-3,0c0.5,3.6,2.4,7.8,6.5,8.3
				c3.4,0.5,7.1-2.2,6.7-5.8C275.7,179,272.7,179,273,180.9L273,180.9z"/>
		</g>
	</g>
	<g>
		<g>
			<path class="st6" d="M288.9,131.1c-2.8,4.5-5.5,9-8.3,13.5c0.8-0.1,1.6-0.2,2.4-0.3c-3.3-3.2-5.8-6.7-7.7-10.9
				c-0.8-1.8-3.4-0.2-2.6,1.5c2,4.4,4.7,8.2,8.2,11.5c0.7,0.7,1.8,0.5,2.4-0.3c2.8-4.5,5.5-9,8.3-13.5
				C292.5,130.9,289.9,129.4,288.9,131.1L288.9,131.1z"/>
		</g>
	</g>
	<g>
		<g>
			<path class="st6" d="M315.5,144.3c-2.9,4.6-5.7,9.2-8.6,13.7c0.9,0.1,1.8,0.2,2.7,0.4c-1.5-3.7-3.1-7.4-4.6-11.1
				c-0.7-1.8-3.6-1-2.9,0.8c1.5,3.7,3.1,7.4,4.6,11.1c0.5,1.2,2,1.5,2.7,0.4c2.9-4.6,5.7-9.2,8.6-13.7
				C319.1,144.1,316.5,142.6,315.5,144.3L315.5,144.3z"/>
		</g>
	</g>
	<g>
		<g>
			<path class="st6" d="M313.5,180.3c0.3,2.2-1.6,3.1-3.4,3.4c-2,0.3-3.3-0.4-4.7-1.7c-1.6-1.5-2.7-3.5-3.8-5.4
				c-1.7-3-3.5-5.7-6.4-7.6c-1.6-1.1-3.1,1.5-1.5,2.6c5.7,3.8,6.5,12.9,13.7,15.1c4.7,1.5,9.8-2.1,9.1-7.1
				C316.2,177.6,313.3,178.4,313.5,180.3L313.5,180.3z"/>
		</g>
	</g>
	<g>
		<g>
			<path class="st6" d="M167.9,151.6c-2.1,2.1-4.1,4.2-6.2,6.2c0.6-0.1,1.2-0.2,1.8-0.2c-2.4-1.8-3.9-4.4-4.2-7.4
				c-0.2-1.9-3.2-1.9-3,0c0.4,4.1,2.4,7.5,5.7,10c0.5,0.4,1.4,0.2,1.8-0.2c2.1-2.1,4.1-4.2,6.2-6.2
				C171.4,152.4,169.3,150.2,167.9,151.6L167.9,151.6z"/>
		</g>
	</g>
	<g>
		<g>
			<path class="st6" d="M102.2,140c-1.1,3.2-5.2,2-6.9,0.3c-1.5-1.5-2.3-3.4-3.2-5.3c-1.4-3.1-2.8-5.8-5.6-7.9
				c-1.5-1.2-3,1.4-1.5,2.6c4.9,3.7,4.7,11.5,10.4,14.5c3.6,1.9,8.3,0.6,9.6-3.3C105.7,138.9,102.8,138.1,102.2,140L102.2,140z"/>
		</g>
	</g>
	<g>
		<g>
			<path class="st6" d="M153.2,114.4c0.8,1-0.2,2.3-1,3c-1.1,0.9-2.3,1.1-3.6,0.4c-2.5-1.3-3.5-4.6-3.8-7.2c-0.3-1.9-3.3-1.9-3,0
				c0.6,4.5,3,10.9,8.6,10.6c4.4-0.2,7.9-5.2,5-8.9C154.1,110.8,152,112.9,153.2,114.4L153.2,114.4z"/>
		</g>
	</g>
	<g>
		<g>
			<path class="st6" d="M66.6,123c-4.7,3.7-9.3,7.4-14,11c0.8,0.1,1.6,0.2,2.4,0.3c-5.7-10.6-7-22.6-3.9-34.3
				c0.5-1.9-2.4-2.7-2.9-0.8c-3.4,12.4-1.9,25.3,4.2,36.6c0.5,0.9,1.6,0.9,2.4,0.3c4.7-3.7,9.3-7.4,14-11
				C70.2,124,68.1,121.8,66.6,123L66.6,123z"/>
		</g>
	</g>
	<g>
		<g>
			<path class="st6" d="M51.2,158.2c-8.5,2.6-16.3,6.7-23.2,12.3c0.9,0.4,1.7,0.7,2.6,1.1c-0.8-7.5-1.1-15-0.6-22.6
				c0.1-1.9-2.9-1.9-3,0c-0.4,7.6-0.2,15.1,0.6,22.6c0.2,1.3,1.5,1.9,2.6,1.1c6.6-5.2,13.9-9.1,21.9-11.5
				C53.8,160.5,53,157.6,51.2,158.2L51.2,158.2z"/>
		</g>
	</g>
	<g>
		<g>
			<path class="st6" d="M26.2,131.6c-5.8,3.6-11.9,6.5-18.4,8.6c0.6,0.5,1.3,1,1.9,1.4c-0.3-4.5,0.1-8.9,1.4-13.3
				c0.5-1.9-2.4-2.7-2.9-0.8c-1.3,4.6-1.8,9.3-1.5,14.1c0.1,0.9,0.9,1.8,1.9,1.4c6.7-2.3,13.1-5.2,19.1-8.9
				C29.4,133.2,27.9,130.6,26.2,131.6L26.2,131.6z"/>
		</g>
	</g>
	<g>
		<g>
			<path class="st6" d="M45.8,203.3c-3.5-1.4-6.6,1.1-9.7,2.4c-0.9,0.4-1.9,0.8-2.8,0.4c-1.3-0.7-1.1-2.5-1.2-3.8
				c-0.1-1.9-0.4-3.4-1.6-4.9c-1.2-1.5-3.3,0.6-2.1,2.1c1.4,1.8,0.4,4.8,1.4,6.9c0.7,1.6,2.1,2.7,3.8,2.8c4,0.4,7.6-4.6,11.5-3
				C46.8,206.9,47.6,204,45.8,203.3L45.8,203.3z"/>
		</g>
	</g>
	<g>
		<g>
			<path class="st6" d="M79.4,207c-2.5,1.9-5.1,3.9-7.6,5.8c0.7,0.2,1.4,0.4,2.1,0.5c-1.4-2.4-2.1-4.9-2.1-7.7c-0.1-1.9-3.1-1.9-3,0
				c0.1,3.3,0.9,6.3,2.5,9.2c0.4,0.6,1.4,1,2.1,0.5c2.5-1.9,5.1-3.9,7.6-5.8C82.5,208.5,81,205.9,79.4,207L79.4,207z"/>
		</g>
	</g>
	<g>
		<g>
			<path class="st6" d="M103.4,177.1c0.4,3.5-3.8,6.1-6.8,4.3c-2.9-1.7-3.3-5.6-2.1-8.5c0.7-1.8-2.2-2.6-2.9-0.8
				c-1.8,4.5-0.1,10.9,4.9,12.5c4.7,1.5,10.5-2.4,9.9-7.5C106.2,175.2,103.2,175.2,103.4,177.1L103.4,177.1z"/>
		</g>
	</g>
	<g>
		<g>
			<path class="st6" d="M141.5,189.6c-4.5,1.1-8,3.5-10.7,7.3c0.9,0.3,1.9,0.5,2.8,0.8c-0.2-8.2-2-16.1-5.3-23.6
				c-0.8-1.8-3.4-0.2-2.6,1.5c3.1,7,4.7,14.4,4.9,22.1c0,1.6,2,1.9,2.8,0.8c2.2-3.2,5.1-5,8.9-6
				C144.1,192.1,143.3,189.2,141.5,189.6L141.5,189.6z"/>
		</g>
	</g>
	<g>
		<g>
			<path class="st6" d="M138.3,135.6c-1.6,1.7-3.6,4.1-5.8,4.9c-3,1.1-3.1-2.7-3.7-4.9c-1.3-4.7-2.6-9.5-3.9-14.2
				c-0.5-1.9-3.4-1.1-2.9,0.8c1.2,4.2,2.3,8.4,3.5,12.7c0.7,2.5,0.9,6.6,2.9,8.5c3.7,3.6,9.7-3.2,12-5.6
				C141.8,136.3,139.6,134.2,138.3,135.6L138.3,135.6z"/>
		</g>
	</g>
	<g>
		<g>
			<path class="st6" d="M193,129.9c-0.9,3-2.3,5.7-4.1,8.3c0.7-0.2,1.4-0.4,2.1-0.5c-3.2-2-5.2-5.1-5.9-8.8
				c-0.4-1.9-3.3-1.1-2.9,0.8c0.9,4.4,3.5,8.1,7.3,10.6c0.7,0.5,1.6,0.1,2.1-0.5c1.9-2.8,3.3-5.8,4.4-9
				C196.5,128.9,193.6,128.1,193,129.9L193,129.9z"/>
		</g>
	</g>
	<g>
		<g>
			<path class="st6" d="M176.5,222.8c0.6,0.8-0.4,1.7-1.1,1.9c-1.1,0.2-1.9-0.7-2.5-1.4c-0.8-1.1-1.1-2.6-1.4-3.9
				c-0.6-2.6-1.2-5.1-3.1-7.1c-1.3-1.4-3.5,0.7-2.1,2.1c3.5,3.6,1.5,11.1,7.2,13.1c3.5,1.2,8-2.7,5.6-6.2
				C178,219.7,175.4,221.2,176.5,222.8L176.5,222.8z"/>
		</g>
	</g>
	<g>
		<g>
			<path class="st6" d="M273.5,99.2c-1.9,2.2-3.8,4.4-5.7,6.6c-1.4,1.6-2.9,4-4.5,1.4c-1.4-2.2-2.3-4.5-5-5.3
				c-1.9-0.6-2.6,2.3-0.8,2.9c3.2,1,3,6.4,6.7,6.9c1.7,0.3,3-0.8,4.1-2c2.6-2.7,4.9-5.7,7.3-8.5C276.9,99.9,274.7,97.8,273.5,99.2
				L273.5,99.2z"/>
		</g>
	</g>
	<g>
		<g>
			<path class="st6" d="M250.2,22C236.6,26.3,234.6,42,238,54c3.3,11.8,11.9,22.9,24.5,25c1.9,0.3,2.7-2.6,0.8-2.9
				c-10.7-1.8-18.1-10.4-21.6-20.2c-3.8-10.7-3.8-26.8,9.2-30.9C252.8,24.3,252,21.5,250.2,22L250.2,22z"/>
		</g>
	</g>
	<g>
		<g>
			<path class="st6" d="M114,21.7c10.5,7.5,13.1,21.2,9.3,33c-3.8,11.7-15.3,26.5-29.2,23.6c-1.9-0.4-2.7,2.5-0.8,2.9
				c15.2,3.2,27.6-11.3,32.4-24.2c5-13.5,2-29.2-10.1-37.9C114,18,112.5,20.6,114,21.7L114,21.7z"/>
		</g>
	</g>
</g>
</svg>
