<?xml version="1.0" encoding="utf-8"?>
<!-- Generator: Adobe Illustrator 23.0.3, SVG Export Plug-In . SVG Version: 6.00 Build 0)  -->
<svg version="1.1" id="Layer_1" xmlns="http://www.w3.org/2000/svg" xmlns:xlink="http://www.w3.org/1999/xlink" x="0px" y="0px"
	 viewBox="0 0 352.9 329.2" style="enable-background:new 0 0 352.9 329.2;" xml:space="preserve" width="117.6" height="109.7">
<style type="text/css">
	.st0{fill:url(#SVGID_1_);}
	.st1{fill:#FFDAB8;}
	.st2{fill:#FF8290;}
	.st3{fill:#FFFFFF;}
	.st4{fill:#693E00;}
	.st5{fill:#FFE5CB;}
	.st6{fill:#DDBF9A;}
</style>
<g>
	<g>
		<linearGradient id="SVGID_1_" gradientUnits="userSpaceOnUse" x1="187.6391" y1="39.0562" x2="187.6391" y2="325.0771">
			<stop  offset="0" style="stop-color:#DDBF9A"/>
			<stop  offset="0.1872" style="stop-color:#DABC95"/>
			<stop  offset="0.398" style="stop-color:#D3B288"/>
			<stop  offset="0.62" style="stop-color:#C6A371"/>
			<stop  offset="0.8485" style="stop-color:#B58D52"/>
			<stop  offset="1" style="stop-color:#A77C39"/>
		</linearGradient>
		<path class="st0" d="M119.5,39.1c-19,10.1-36.8,22.3-53,36.3C54.1,86,42.4,98,35.2,112.7c-10,20.4-10.3,44.1-8.9,66.8
			c1.5,23.4,4.8,47.2,15,68.3c12.8,26.3,35.9,46.9,62.3,59.5s56,17.6,85.3,17.7c53,0.1,109.7-18.6,139.1-62.6
			c21.1-31.5,25.4-72,18.5-109.3c-3.5-19.2-10.1-38.2-22-53.6c-22.8-29.3-60.9-41-96.6-51.1"/>
	</g>
	<g>
		<path class="st1" d="M93.5,70c-7.8-0.6-15.1-5.8-18.2-13S73.6,41,78.6,35c5.7-6.8,14.9-9.4,23.8-10s17.7,0.3,26.5-1
			c10-1.5,19.4-5.9,29.5-6.4c8.3-0.4,16.3,2,24.4,3.6c13.6,2.7,27.5,3.5,41.3,1.9c6.7-0.8,13.4-2,20-0.8c6.6,1.2,13.1,5.8,14.2,12.4
			c1.2,6.9-3.8,13.7-3.1,20.7c0.3,3.2,1.8,6.1,2.3,9.3c1.1,8.2-6.3,16.4-14.5,16.2"/>
	</g>
	<g>
		<g>
			<path class="st1" d="M81.7,68.6c0.6,7.5,8.4,9.7,14.7,7.6c4.6-1.5,8.8-4.4,13.1-6.7c5.5-3.1,11-6.1,16.5-9.2
				c-0.7-0.2-1.4-0.4-2.1-0.5c6.7,10.7,14.1,22.2,26.6,26.5c5.6,1.9,11.6,2,17.1-0.2c2.8-1.1,5.4-2.7,8.1-3.9c4.5-2,8.6-2,13.3-0.8
				c7.4,1.9,14.7,4.4,22,6.6c6.7,2,14.7,5.9,21.8,5.9c4.7,0,8-3,9.9-7.1c1.1-2.3,1.7-4.8,2.4-7.3c0.8-2.4,1.5-4.7,3.4-6.5
				c2-1.9,6.6-3.8,8.2,0.3c0.7,1.8,3.6,1,2.9-0.8c-1.3-3.4-4.2-4.9-7.8-4.5c-4.7,0.5-7.3,4.4-8.8,8.5c-1.2,3.3-1.7,7-3.5,10
				c-2.9,5-7.8,4.6-12.8,3.1c-8.1-2.3-16.1-4.9-24.2-7.4c-6.6-2-13.8-5.3-20.8-4.8c-6.4,0.4-11.2,4.8-17.2,6.5
				c-17.8,5.1-30.2-12.9-38.2-25.7c-0.4-0.7-1.3-0.9-2.1-0.5c-6,3.4-12.1,6.7-18.1,10.1c-4.6,2.6-20.7,12.5-21.6,0.8
				C84.5,66.7,81.5,66.7,81.7,68.6L81.7,68.6z"/>
		</g>
	</g>
	<g>
		<g>
			<path class="st1" d="M262.1,71.5c-2.9,1.6-5.7,3.2-8.6,4.7c-1.5,0.8-0.5,3.1,1.2,2.7c4.3-1,8.7-2,13-2.9c0.9-0.2,1.5-1.4,0.9-2.2
				c-3.2-4.4-6.8-8.5-10.8-12.3c-0.4,0.9-0.7,1.7-1.1,2.6c3.5,0.1,6.9,0.7,10.1,2.2c1.8,0.8,3.3-1.8,1.5-2.6
				c-3.7-1.6-7.5-2.5-11.6-2.6c-1.3,0-2,1.7-1.1,2.6c3.8,3.5,7.3,7.4,10.4,11.7c0.3-0.7,0.6-1.5,0.9-2.2c-4.3,1-8.7,2-13,2.9
				c0.4,0.9,0.8,1.8,1.2,2.7c2.9-1.6,5.7-3.2,8.6-4.7C265.3,73.2,263.8,70.6,262.1,71.5L262.1,71.5z"/>
		</g>
	</g>
	<g>
		<g>
			<path class="st1" d="M262.6,90.6c3.6,1,8.8,1.9,11.5-1.5c1.5-1.9,1.4-4.4,1.3-6.7c0-3.8-0.1-7.5-0.1-11.3c0-1.9-3-1.9-3,0
				c0,4.1,0.5,8.6,0.1,12.7c-0.3,2.7-1.1,4.5-3.9,4.7c-1.7,0.1-3.5-0.3-5.1-0.8C261.5,87.2,260.7,90.1,262.6,90.6L262.6,90.6z"/>
		</g>
	</g>
	<g>
		<g>
			<path class="st1" d="M260.9,106.3c5,1.9,10.9-2.6,10.4-8c-0.2-1.9-3.2-1.9-3,0c0.3,3.5-3.3,6.3-6.6,5.1
				C259.9,102.8,259.1,105.7,260.9,106.3L260.9,106.3z"/>
		</g>
	</g>
	<g>
		<g>
			<path class="st1" d="M273.3,98.3c4.8,1.1,8.8-1.6,11.1-5.7c3.4-6,1.6-13.4,3.8-19.8c0.6-1.8-2.3-2.6-2.9-0.8
				c-2.2,6.2,0,26-11.3,23.5C272.2,95,271.4,97.9,273.3,98.3L273.3,98.3z"/>
		</g>
	</g>
	<g>
		<g>
			<path class="st1" d="M293.4,108.7c10.7-0.9,10.1-13,8.3-20.6c-0.4-1.9-3.3-1.1-2.9,0.8c1.3,5.5,3,16.2-5.4,16.9
				C291.5,105.9,291.5,108.9,293.4,108.7L293.4,108.7z"/>
		</g>
	</g>
	<g>
		<g>
			<path class="st1" d="M206.5,100.8c3.6,3.6,7.7,7.5,13.1,8.1c4.3,0.4,8.7-1.4,10.5-5.5c0.8-1.7-1.8-3.3-2.6-1.5
				c-4.2,9.2-14.6,1-18.9-3.2C207.2,97.4,205.1,99.5,206.5,100.8L206.5,100.8z"/>
		</g>
	</g>
	<g>
		<g>
			<path class="st1" d="M233.2,105.6c2.9,2.4,5.9,4.7,8.8,7.1c0.7,0.5,1.4,0.6,2.1,0c2.5-2.2,4.6-4.6,6.3-7.5c1-1.7-1.6-3.2-2.6-1.5
				c-1.6,2.6-3.5,4.9-5.8,6.9c0.7,0,1.4,0,2.1,0c-2.9-2.4-5.9-4.7-8.8-7.1C233.8,102.3,231.7,104.4,233.2,105.6L233.2,105.6z"/>
		</g>
	</g>
	<g>
		<g>
			<path class="st1" d="M167.7,94.1c2.3,3.4,4.5,7,7,10.2c1.2,1.6,2.2,2.9,4.3,3.1c5.1,0.4,9.7-7,12.2-10.6c1.1-1.6-1.5-3.1-2.6-1.5
				c-2,2.9-6.7,10.7-11.4,7.6c-1.3-0.9-2.6-3.8-3.5-5.1c-1.2-1.7-2.3-3.4-3.5-5.1C169.2,91,166.6,92.5,167.7,94.1L167.7,94.1z"/>
		</g>
	</g>
	<g>
		<g>
			<path class="st1" d="M124.9,85.8c-0.9,4,1,8.4,5,9.9c3.9,1.5,8.4-0.5,10.2-4.2c0.9-1.7-1.7-3.2-2.6-1.5
				c-2.8,5.6-11.2,2.8-9.7-3.4C128.2,84.7,125.3,83.9,124.9,85.8L124.9,85.8z"/>
		</g>
	</g>
	<g>
		<g>
			<path class="st1" d="M92.5,85.8c4.1,3.3,7.2,7.2,9.5,12c0.4,0.9,1.7,0.9,2.4,0.3c4.1-4.1,8.2-8.3,12.3-12.4
				c1.4-1.4-0.8-3.5-2.1-2.1c-4.1,4.1-8.2,8.3-12.3,12.4c0.8,0.1,1.6,0.2,2.4,0.3c-2.4-5-5.7-9.1-10-12.6
				C93.1,82.5,91,84.6,92.5,85.8L92.5,85.8z"/>
		</g>
	</g>
	<g>
		<g>
			<path class="st1" d="M129.5,97.5c-0.5-0.7-0.6-1.4-0.1-2.2c1-1.6-1.5-3.1-2.6-1.5c-1,1.5-1,3.7,0.1,5.2c0.5,0.7,1.3,1,2.1,0.5
				C129.6,99.2,129.9,98.2,129.5,97.5L129.5,97.5z"/>
		</g>
	</g>
	<g>
		<g>
			<path class="st1" d="M63.6,82.8c1.6,3.8,2.9,7.7,4.7,11.3c0.7,1.5,1.3,2.8,3,3.4c2.7,0.9,6.1-1.2,8.5-2.2
				c3.7-1.6,7.4-3.4,10.9-5.5c1.7-1,0.2-3.6-1.5-2.6c-4.2,2.4-9.5,5.9-14.3,6.8c-3.7,0.7-4.1-1.8-5.3-4.8c-1-2.4-2-4.9-3-7.3
				C65.8,80.2,62.9,81,63.6,82.8L63.6,82.8z"/>
		</g>
	</g>
	<g>
		<g>
			<path class="st1" d="M53.1,102.3c0.7,3.2,1.5,6.5,2.2,9.7c0.5,2,0.7,4.5,2.5,5.9c3.6,2.8,7.6-1.3,9.5-4.1
				c1.1-1.6-1.5-3.1-2.6-1.5c-0.8,1.2-2,3-3.4,3.3c-2.2,0.5-2.7-2.8-3-4.4c-0.7-3.2-1.5-6.5-2.2-9.7
				C55.6,99.6,52.7,100.4,53.1,102.3L53.1,102.3z"/>
		</g>
	</g>
	<g>
		<g>
			<path class="st1" d="M76.3,117.6c2.4,3.9,4.7,7.8,7.1,11.7c1.5,2.6,3,5.7,5.7,7.3c3.5,2,9-0.6,7.4-5c-0.6-1.8-3.5-1-2.9,0.8
				c-0.2,2.4-1.5,2.7-3.9,1c-0.6-0.6-1.2-1.3-1.6-2.1c-1-1.5-1.9-3.2-2.9-4.8c-2.1-3.5-4.2-6.9-6.3-10.4
				C77.9,114.4,75.3,115.9,76.3,117.6L76.3,117.6z"/>
		</g>
	</g>
	<g>
		<g>
			<path class="st1" d="M94,109.6c3.9,2.3,3.5,8.6,8.3,10c2.3,0.7,4.3-0.3,6.2-1.5c4.1-2.5,7.9-5.5,11.9-8.3
				c1.6-1.1,0.1-3.7-1.5-2.6c-2.7,1.9-5.4,3.8-8.1,5.6c-3.2,2.2-7,5.2-10,1.5c-2-2.6-2.2-5.5-5.3-7.3C93.8,106,92.3,108.6,94,109.6
				L94,109.6z"/>
		</g>
	</g>
	<g>
		<g>
			<path class="st1" d="M134.4,113.5c1.2,5,5.4,9,10.6,9.9c1.9,0.3,2.7-2.6,0.8-2.9c-4.2-0.7-7.5-3.7-8.5-7.8
				C136.8,110.8,133.9,111.6,134.4,113.5L134.4,113.5z"/>
		</g>
	</g>
	<g>
		<g>
			<path class="st1" d="M79,32.2c-2,6-2,12.2,0,18.2c0.6,1.8,3.5,1,2.9-0.8C80,44.1,80,38.6,81.9,33C82.5,31.2,79.6,30.4,79,32.2
				L79,32.2z"/>
		</g>
	</g>
	<g>
		<path d="M101,45.2C95.9,42.9,95.1,35,89.8,33c-3-1.1-6.4,0.2-8.6,2.5c-2.2,2.3-3.4,5.3-4.3,8.3c-1.2,3.9-2.1,7.9-1.4,11.9
			s3.2,7.9,7,9.2c5.3,1.8,11.2-1.9,13.6-6.9s2.4-10.8,2.1-16.4"/>
	</g>
	<g>
		<path d="M258.1,31.4c-2.7-2.6-7.2-1.4-10.1,0.9c-4.9,4-7.1,10.7-6.9,17c0.1,3.9,1.5,8.2,5,9.9c5.5,2.5,11.3-3.5,12.5-9.4
			c1.2-5.9-0.1-12.2,2-17.9"/>
	</g>
	<g>
		<g>
			<path class="st2" d="M154,71.4c10.9,0.3,21.8-0.5,32.5-2.4c1.9-0.3,1.1-3.2-0.8-2.9c-10.5,1.9-21.1,2.6-31.7,2.3
				C152.1,68.4,152.1,71.4,154,71.4L154,71.4z"/>
		</g>
	</g>
	<g>
		<path class="st2" d="M155.9,70c0.9,9.1,2.9,19.7,11.2,23.5c6.2,2.8,14.1,0.1,18.3-5.3c4.2-5.4,5.1-12.9,3.7-19.6"/>
	</g>
	<g>
		<g>
			<path class="st3" d="M90.9,43.5c1.6-3.1,3.1-6.2,4.7-9.3c-0.9-0.1-1.8-0.2-2.7-0.4c0.3,1.5,0.8,3.3,0.3,4.9
				c-0.3,1.2-1.6,2.8-3,2.2c-1.8-0.8-3.3,1.8-1.5,2.6c2.3,1,4.8,0.3,6.3-1.7c1.9-2.5,1.4-5.8,0.8-8.7c-0.3-1.2-2.2-1.5-2.7-0.4
				c-1.6,3.1-3.1,6.2-4.7,9.3C87.5,43.7,90.1,45.2,90.9,43.5L90.9,43.5z"/>
		</g>
	</g>
	<g>
		<g>
			<path class="st3" d="M252.3,40.2c-3.3-1.6-6.6-3.3-9.9-4.9c-1.7-0.9-3.2,1.7-1.5,2.6c3.3,1.6,6.6,3.3,9.9,4.9
				C252.6,43.6,254.1,41.1,252.3,40.2L252.3,40.2z"/>
		</g>
	</g>
	<g>
		<g>
			<path class="st3" d="M250.6,38.2c-1.3-2.5-2.5-4.9-3.8-7.4c-0.9-1.7-3.5-0.2-2.6,1.5c1.3,2.5,2.5,4.9,3.8,7.4
				C248.9,41.4,251.5,39.9,250.6,38.2L250.6,38.2z"/>
		</g>
	</g>
	<g>
		<g>
			<path class="st3" d="M244.6,32.7c-0.8,0.4-1.6,0.8-2.5,1.3c-0.7,0.4-0.9,1.4-0.5,2.1c0.4,0.7,1.3,0.9,2.1,0.5
				c0.8-0.4,1.6-0.8,2.5-1.3c0.7-0.4,0.9-1.4,0.5-2.1C246.2,32.5,245.3,32.3,244.6,32.7L244.6,32.7z"/>
		</g>
	</g>
	<g>
		<g>
			<path class="st3" d="M249.5,35.1c-1.6-0.4-3.3-0.8-4.9-1.2c-1.9-0.5-2.7,2.4-0.8,2.9c1.6,0.4,3.3,0.8,4.9,1.2
				C250.6,38.5,251.4,35.6,249.5,35.1L249.5,35.1z"/>
		</g>
	</g>
	<g>
		<g>
			<path class="st4" d="M68.6,264.2c1.2,3.2,2.2,6.5,3.5,9.7c0.6,1.4,1.4,2.9,3.1,3.3c1.7,0.4,3.1-0.8,4.2-2
				c2.5-2.7,4.9-5.6,7.3-8.4c1.3-1.5-0.9-3.6-2.1-2.1c-1.3,1.5-2.7,3.1-4,4.6c-0.9,1.1-2.5,3.8-3.8,4.3c-2,0.9-2.4-2.6-2.9-3.9
				c-0.8-2.1-1.5-4.3-2.3-6.4C70.8,261.6,67.9,262.4,68.6,264.2L68.6,264.2z"/>
		</g>
	</g>
	<g>
		<g>
			<path class="st4" d="M88.9,283.8c1.5,5,2.8,10.1,3.8,15.2c0.2,1.2,1.7,1.3,2.5,0.7c2.7-2.2,5.4-4.3,8.1-6.5
				c1.5-1.2-0.6-3.3-2.1-2.1c-2.7,2.2-5.4,4.3-8.1,6.5c0.8,0.2,1.7,0.4,2.5,0.7c-1-5.1-2.2-10.2-3.8-15.2
				C91.2,281.1,88.3,281.9,88.9,283.8L88.9,283.8z"/>
		</g>
	</g>
	<g>
		<g>
			<path class="st4" d="M190.7,319.4c5.3,2.2,10.1,5.4,14.2,9.4c0.7,0.6,1.9,0.6,2.4-0.3c1.9-3.7,2.7-7.5,2.5-11.6
				c-0.1-1.9-3.1-1.9-3,0c0.2,3.6-0.4,6.9-2.1,10.1c0.8-0.1,1.6-0.2,2.4-0.3c-4.5-4.4-9.7-7.7-15.6-10.2
				C189.8,315.7,189,318.6,190.7,319.4L190.7,319.4z"/>
		</g>
	</g>
	<g>
		<g>
			<path class="st4" d="M213.7,315.8c3.2,1.9,5.3,7.4,9.6,6.9c2.1-0.2,3.4-1.8,4.2-3.6c1.7-3.4,2.9-7,4.3-10.5
				c0.7-1.8-2.2-2.6-2.9-0.8c-1,2.3-1.9,4.7-2.9,7c-0.9,2.1-2,6.2-4.8,4.2c-2.3-1.6-3.6-4.3-6.1-5.8
				C213.6,312.2,212.1,314.8,213.7,315.8L213.7,315.8z"/>
		</g>
	</g>
	<g>
		<g>
			<path class="st4" d="M280.3,283.7c3.9,2.8,7.8,5.7,11.7,8.5c0.8,0.6,1.9-0.1,2.2-0.9c2.4-7.3,4.3-14.7,5.7-22.2
				c0.3-1.9-2.6-2.7-2.9-0.8c-1.3,7.6-3.2,14.9-5.7,22.2c0.7-0.3,1.5-0.6,2.2-0.9c-3.9-2.8-7.8-5.7-11.7-8.5
				C280.3,280,278.8,282.6,280.3,283.7L280.3,283.7z"/>
		</g>
	</g>
	<g>
		<g>
			<path class="st4" d="M236.8,294.1c4.7,7.8,10.2,15,16.5,21.5c0.7,0.8,1.8,0.4,2.4-0.3c4.1-5.4,6.2-11.5,6.7-18.2
				c0.1-1.9-2.9-1.9-3,0c-0.4,6.2-2.6,11.7-6.3,16.7c0.8-0.1,1.6-0.2,2.4-0.3c-6.2-6.4-11.5-13.3-16.1-20.9
				C238.4,290.9,235.8,292.4,236.8,294.1L236.8,294.1z"/>
		</g>
	</g>
	<g>
		<g>
			<path class="st4" d="M255.4,280.4c1.6,2.3,3.3,4.6,4.9,6.9c0.9,1.2,1.8,3,3.2,3.6c1.3,0.6,2.6,0.1,3.6-0.8c2-1.9,3.6-4.5,5.3-6.7
				c1.2-1.5-0.9-3.6-2.1-2.1c-1,1.3-2,2.6-3,3.9c-0.4,0.6-0.8,1.2-1.3,1.7c-1.1,1.1-1.3,1.3-2.4-0.2c-1.9-2.6-3.7-5.2-5.6-7.8
				C256.9,277.4,254.3,278.9,255.4,280.4L255.4,280.4z"/>
		</g>
	</g>
	<g>
		<g>
			<path class="st4" d="M198.1,289.3c-0.2,4.6,4,7.9,8.4,8c6,0.1,10-5.3,12.6-9.9c1-1.7-1.6-3.2-2.6-1.5c-1.8,3.1-4,6.6-7.4,7.9
				c-3.3,1.3-8.2-0.3-8-4.5C201.2,287.4,198.2,287.4,198.1,289.3L198.1,289.3z"/>
		</g>
	</g>
	<g>
		<g>
			<path class="st4" d="M104.4,275.7c3.5,5.6,12.7,4.4,14.8-1.8c0.6-1.8-2.3-2.6-2.9-0.8c-1.3,3.7-7.2,4.4-9.3,1.1
				C106,272.6,103.4,274.1,104.4,275.7L104.4,275.7z"/>
		</g>
	</g>
	<g>
		<g>
			<path class="st4" d="M123.6,281.9c-1.7,4.1,1.3,8.4,5.2,9.7c5.5,1.9,10.8-2.1,14.8-5.3c1.5-1.2-0.6-3.3-2.1-2.1
				c-2.7,2.1-5.7,4.6-9.2,4.8c-3.4,0.3-7.5-2.6-5.9-6.4C127.3,281,124.4,280.2,123.6,281.9L123.6,281.9z"/>
		</g>
	</g>
	<g>
		<g>
			<path class="st4" d="M146.9,296.9c0.3,2.7,0.7,5.8,3,7.6c2,1.6,4.8,1.8,6.7,0c1.4-1.3-0.7-3.4-2.1-2.1c-1,0.9-2.6,0.1-3.3-0.8
				c-1-1.3-1.1-3.1-1.3-4.7C149.6,295,146.6,295,146.9,296.9L146.9,296.9z"/>
		</g>
	</g>
	<g>
		<g>
			<path class="st4" d="M70.8,207.6c0.2,6.7,4,13.7,10.9,15.5c6.2,1.6,12.6-1.8,14.9-7.6c0.7-1.8-2.2-2.6-2.9-0.8
				c-2,5-8.3,7.2-13.1,4.8c-4.5-2.2-6.7-7.1-6.8-11.9C73.7,205.7,70.7,205.7,70.8,207.6L70.8,207.6z"/>
		</g>
	</g>
	<g>
		<g>
			<path class="st4" d="M58.8,232.1c0.8,3.6,1.8,7.1,3.1,10.5c0.9,2.1,1.9,4.4,4.4,4.8c5.4,0.9,11.1-6.1,13.7-9.9
				c1.1-1.6-1.5-3.1-2.6-1.5c-1.7,2.4-8.4,11.2-12.1,7.1c-1.1-1.2-1.6-4-2.1-5.5c-0.6-2-1.2-4.1-1.6-6.2
				C61.2,229.4,58.3,230.2,58.8,232.1L58.8,232.1z"/>
		</g>
	</g>
	<g>
		<g>
			<path class="st4" d="M103.4,224.6c0.7,3.8,1.8,8.2,5.6,10c2.9,1.3,6.5,0.8,8.1-2.1c1-1.7-1.6-3.2-2.6-1.5c-1.2,2-4.1,1.5-5.5,0
				c-1.8-1.8-2.3-4.7-2.8-7.2C106,221.9,103.1,222.7,103.4,224.6L103.4,224.6z"/>
		</g>
	</g>
	<g>
		<g>
			<path class="st4" d="M40.6,191.1c0.6,4.1,1.6,9,5.7,11.1c3.1,1.6,7.1,1,8.9-2.1c1-1.7-1.6-3.2-2.6-1.5c-1.4,2.4-4.9,1.5-6.4-0.3
				c-1.9-2.2-2.3-5.3-2.7-8C43.2,188.4,40.3,189.2,40.6,191.1L40.6,191.1z"/>
		</g>
	</g>
	<g>
		<g>
			<path class="st4" d="M71.9,160c1.2,10.6,13.2,15.4,21.3,8.4c1.5-1.3-0.7-3.4-2.1-2.1c-6.1,5.2-15.3,1.8-16.2-6.3
				C74.7,158.1,71.7,158.1,71.9,160L71.9,160z"/>
		</g>
	</g>
	<g>
		<g>
			<path class="st4" d="M44.7,164.7c-1.9,4.9,2.7,9.6,7.5,10c6.2,0.5,10.5-5.4,13.2-10.1c1-1.7-1.6-3.2-2.6-1.5
				c-1.8,3.1-3.9,6.6-7.4,8c-3.5,1.5-9.6-1-7.8-5.6C48.3,163.7,45.4,162.9,44.7,164.7L44.7,164.7z"/>
		</g>
	</g>
	<g>
		<g>
			<path class="st4" d="M326.1,198.7c2.4-0.9,4.8,3,6.6,4.1c1.8,1.1,3.8,1.4,5.8,0.7c5.3-1.8,6.2-7.7,6.7-12.6c0.2-1.9-2.8-1.9-3,0
				c-0.2,2.9-0.5,6.4-2.7,8.5c-2.6,2.5-5.2,0.9-7.3-1.1c-2-1.8-4-3.7-6.8-2.6C323.5,196.5,324.3,199.4,326.1,198.7L326.1,198.7z"/>
		</g>
	</g>
	<g>
		<g>
			<path class="st4" d="M324.9,163.5c1.5,4.7,7.2,6.3,11.4,3.9c6.3-3.6,6.4-12,8.4-18.1c0.6-1.8-2.3-2.6-2.9-0.8
				c-1.4,4-1.6,8.6-3.6,12.4c-0.9,1.8-2.2,3.4-4.1,4.3c-2.3,1-5.4,0.2-6.3-2.4C327.2,160.9,324.3,161.7,324.9,163.5L324.9,163.5z"/>
		</g>
	</g>
	<g>
		<g>
			<path class="st4" d="M334.3,235.7c3.2,0.4,8.1,4.7,10.7,0.7c1.4-2.1,0.7-5.5,0.7-7.8c0-3.9,0-7.8-0.1-11.7c0-1.9-3-1.9-3,0
				c0,4.7,0.7,10,0.1,14.6c-0.2,1.1-0.4,3.2-2,3.4c-0.5,0.1-2-0.9-2.6-1.1c-1.3-0.5-2.4-0.9-3.8-1
				C332.4,232.5,332.4,235.5,334.3,235.7L334.3,235.7z"/>
		</g>
	</g>
	<g>
		<g>
			<path class="st4" d="M341.5,199.7c3.1,2.5,7.4,1.5,9.6-1.8c4-6-2-13.4,1.6-19.5c1-1.7-1.6-3.2-2.6-1.5c-1.6,2.8-1.8,5.6-1.4,8.8
				c0.2,1.8,0.7,3.5,0.8,5.3c0.1,2.1-1.4,10.1-5.9,6.6C342.1,196.4,340,198.5,341.5,199.7L341.5,199.7z"/>
		</g>
	</g>
	<g>
		<g>
			<path class="st4" d="M322.3,222.1c3.7,2,8.7,0.6,10.5-3.4c0.8-1.7-1.8-3.3-2.6-1.5c-1.1,2.4-4,3.6-6.4,2.3
				C322.1,218.6,320.6,221.2,322.3,222.1L322.3,222.1z"/>
		</g>
	</g>
	<g>
		<g>
			<path class="st4" d="M315.9,253.8c1.3,1.1,2.6,2.3,3.9,3.4c0.6,0.5,1.6,0.7,2.1,0c2.3-2.7,4-5.7,5-9.2c0.6-1.9-2.3-2.6-2.9-0.8
				c-0.9,2.9-2.3,5.5-4.3,7.8c0.7,0,1.4,0,2.1,0c-1.3-1.1-2.6-2.3-3.9-3.4C316.5,250.4,314.4,252.6,315.9,253.8L315.9,253.8z"/>
		</g>
	</g>
	<g>
		<g>
			<path class="st4" d="M291.8,246.9c1.3,4.5,6.4,5.9,10.5,4.4c5.8-2.1,7.1-9.1,7.9-14.4c0.3-1.9-2.6-2.7-2.9-0.8
				c-0.6,3.8-1.1,8.4-4.1,11.1c-2.3,2.2-7.5,2.7-8.6-1.1C294.2,244.2,291.3,245,291.8,246.9L291.8,246.9z"/>
		</g>
	</g>
	<g>
		<g>
			<path class="st4" d="M308.5,266.9c1.8,3.1,4.4,11.6,9.4,10.5c5.5-1.2,11.4-7.4,15-11.3c1.3-1.4-0.8-3.6-2.1-2.1
				c-3.2,3.5-6.7,6.5-10.7,9c-2.6,1.6-4,1-5.5-1.6c-1.1-2-2.3-4-3.4-6C310.2,263.7,307.6,265.2,308.5,266.9L308.5,266.9z"/>
		</g>
	</g>
	<g>
		<g>
			<path class="st4" d="M230.9,261.6c2.3,1.5,4.6,3.2,6.9,4.7c1.5,0.9,3.4,1.5,4.9,0.1c1.4-1.4,1.8-3.9,2.3-5.7
				c0.8-2.9,1.5-5.8,2-8.8c0.3-1.9-2.5-2.7-2.9-0.8c-0.7,3.6-1.5,7.2-2.6,10.8c-0.4,1.2-0.3,2.1-2.2,1.8c-0.7-0.1-1.6-1.1-2.2-1.5
				c-1.6-1.1-3.2-2.1-4.8-3.2C230.8,257.9,229.3,260.5,230.9,261.6L230.9,261.6z"/>
		</g>
	</g>
	<g>
		<g>
			<path class="st4" d="M161.5,310.1c2.1,3.4,5.3,12.8,10.6,9.5c5.2-3.3,9.2-10.1,11.7-15.5c0.8-1.7-1.8-3.3-2.6-1.5
				c-1.9,4-4.2,7.8-7.2,11.1c-0.5,0.6-1.1,1.4-1.8,1.9c-0.8,1-2,1.3-3.5,0.8c-0.3-0.4-0.5-0.9-0.8-1.3c-1.6-1.8-2.6-4.4-3.8-6.4
				C163.1,307,160.5,308.5,161.5,310.1L161.5,310.1z"/>
		</g>
	</g>
	<g>
		<g>
			<path class="st4" d="M135.2,306c2.2,11.1,17.8,11.1,20.1,0.1c0.4-1.9-2.5-2.7-2.9-0.8c-1.8,8.2-12.7,8-14.3-0.1
				C137.7,303.3,134.8,304.1,135.2,306L135.2,306z"/>
		</g>
	</g>
	<g>
		<g>
			<path class="st4" d="M28.3,213.5c1.1,4.2,2.2,8.4,3.3,12.6c0.6,2.4,0.8,6.5,2.7,8.5c3.3,3.4,8.8-3.6,11-5.6
				c1.4-1.3-0.7-3.4-2.1-2.1c-1.4,1.3-2.9,3.2-4.6,4.1c-0.4,0.5-0.8,0.6-1.4,0.5c-0.8,0.4-1.2,0.2-1.1-0.7c-0.6-0.7-0.8-3.1-1-4
				c-1.2-4.7-2.5-9.5-3.7-14.2C30.7,210.8,27.8,211.6,28.3,213.5L28.3,213.5z"/>
		</g>
	</g>
	<g>
		<path class="st1" d="M75.5,67.5C72.4,36.2,48.3,8.1,17.9,0.3c-1.1-0.3-2.4-0.5-3.3,0.3c-0.7,0.6-0.8,1.5-0.9,2.4
			c-0.9,6.8-1.9,13.6-2.8,20.4c-0.5,3.7-1.1,7.7-3.6,10.6c-1.6,1.9-3.8,3.1-5.3,5.1c-2.7,3.6-2.1,9.2,1.3,12.1
			c0.9,0.8,2.1,1.5,2.2,2.7c0.1,1.7-1.8,2.6-3.1,3.6c-4.3,3.5-2,11.2,2.9,14s10.8,2.3,16.4,2.2c9.9-0.3,21.3,1.4,26.7,9.8
			c1,1.5,2,3.4,3.8,3.6c1.2,0.1,2.3-0.6,3.3-1.3c8-5.8,14.8-13.1,20.1-21.5"/>
	</g>
	<g>
		<g>
			<path class="st1" d="M75,62.8c1.9,0,1.9-3,0-3C73.1,59.8,73.1,62.8,75,62.8L75,62.8z"/>
		</g>
	</g>
	<g>
		<path class="st1" d="M279.8,67.5c-1.5-2.5-4.7-3.3-7.4-4.4c-2.7-1.1-5.6-3.4-5-6.3c0.2-1,0.9-1.9,1.6-2.7
			c10.9-13.4,24.7-24.5,40.2-32.3c10.6-5.3,24-8.9,34-2.4c-2.7,1.1-5.8,3-5.5,5.8c0.4,3.7,5.9,4.4,7.9,7.5
			c3.1,4.8-3.6,10.6-2.6,16.2c0.9,5,7.7,7.9,7.5,13c-0.2,4.3-5.5,7-6.1,11.3c-0.2,1.8,0.3,3.6-0.4,5.3c-1.4,3.1-5.9,2.5-9.1,1.5
			c-15.7-4.7-32.1-6.7-48.4-5.9"/>
	</g>
	<g>
		<g>
			<path class="st5" d="M70.7,68.1c-22.3-13-27.3-46.6-54.7-52.3c-1.9-0.4-2.7,2.5-0.8,2.9c26.7,5.5,32.1,39.3,54,52
				C70.8,71.7,72.3,69.1,70.7,68.1L70.7,68.1z"/>
		</g>
	</g>
	<g>
		<g>
			<path class="st5" d="M2.5,51.6c4,2.6,8.3,4.7,12.8,6.3c5.6,1.9,11.4,2.2,17.1,3.3c10.5,2.1,19,9.3,22.7,19.3
				c0.7,1.8,3.6,1,2.9-0.8c-3.2-8.5-9.4-15.6-17.8-19.3c-5.5-2.4-11.5-2.6-17.4-3.8C16.1,55.5,9.8,52.8,4,49.1
				C2.4,48,0.9,50.6,2.5,51.6L2.5,51.6z"/>
		</g>
	</g>
	<g>
		<g>
			<path class="st5" d="M95.9,68.6c9-9.5,11-23.5,5-35.1c-0.9-1.7-3.5-0.2-2.6,1.5c5.3,10.4,3.4,23-4.6,31.5
				C92.4,67.8,94.5,70,95.9,68.6L95.9,68.6z"/>
		</g>
	</g>
	<g>
		<g>
			<path class="st5" d="M257.7,72.5c-8.7-1-16.9-5.1-22.7-11.6c-4.5-5-10.7-16.8-2.2-21.4c1.7-0.9,0.2-3.5-1.5-2.6
				c-8.4,4.5-5.8,15.9-1.4,22.3c6.4,9.3,16.7,15,27.8,16.3C259.6,75.7,259.6,72.7,257.7,72.5L257.7,72.5z"/>
		</g>
	</g>
	<g>
		<g>
			<path class="st5" d="M265.7,61.2c14.9-19.4,35-34.3,57.9-43c1.8-0.7,1-3.6-0.8-2.9c-23.7,9-44.2,24.2-59.7,44.3
				C261.9,61.2,264.5,62.7,265.7,61.2L265.7,61.2z"/>
		</g>
	</g>
	<g>
		<g>
			<path class="st5" d="M325.6,18.4c1.9,0,1.9-3,0-3C323.7,15.4,323.7,18.4,325.6,18.4L325.6,18.4z"/>
		</g>
	</g>
	<g>
		<g>
			<path class="st5" d="M277.4,74.9c18.1-16.2,38.4-29.7,60.3-40.2c1.7-0.8,0.2-3.4-1.5-2.6c-22.1,10.6-42.6,24.3-60.9,40.7
				C273.9,74,276,76.2,277.4,74.9L277.4,74.9z"/>
		</g>
	</g>
	<g>
		<g>
			<path class="st5" d="M287.9,77c15.5-10.8,33.7-16.3,52.6-16c1.9,0,1.9-3,0-3c-19.3-0.3-38.2,5.3-54.1,16.4
				C284.8,75.5,286.3,78.2,287.9,77L287.9,77z"/>
		</g>
	</g>
	<g>
		<g>
			<path class="st5" d="M165.2,68.6c3.3,3.1,5.4,7,6.1,11.6c0.3,1.9,3.2,1.1,2.9-0.8c-0.8-5-3.2-9.4-6.9-12.9
				C165.9,65.2,163.8,67.3,165.2,68.6L165.2,68.6z"/>
		</g>
	</g>
	<g>
		<g>
			<path class="st4" d="M246.9,205.1c2.3,4,5.1,7.6,8.4,10.7c0.8,0.8,2.2,0.4,2.5-0.7c1.2-4.3,2.4-8.5,3.6-12.8
				c0.5-1.9-2.4-2.7-2.9-0.8c-1.2,4.3-2.4,8.5-3.6,12.8c0.8-0.2,1.7-0.4,2.5-0.7c-3.2-3-5.8-6.3-7.9-10.1
				C248.5,201.9,245.9,203.4,246.9,205.1L246.9,205.1z"/>
		</g>
	</g>
	<g>
		<g>
			<path class="st4" d="M282.7,196.9c4.3,3.9,9,6.9,14.4,9.2c0.7,0.3,1.7-0.3,1.8-1c1.4-6.7,2.7-13.3,4.1-20
				c0.4-1.9-2.5-2.7-2.9-0.8c-1.4,6.7-2.7,13.3-4.1,20c0.6-0.3,1.2-0.7,1.8-1c-4.9-2.1-9.2-4.9-13.1-8.4
				C283.4,193.4,281.2,195.5,282.7,196.9L282.7,196.9z"/>
		</g>
	</g>
	<g>
		<g>
			<path class="st4" d="M255.4,168.6c3,2.8,5.9,5.6,8.9,8.5c0.7,0.7,1.9,0.6,2.4-0.3c2.3-4,3.5-8.4,3.6-13c0.1-1.9-2.9-1.9-3,0
				c-0.1,4.1-1.2,7.9-3.2,11.5c0.8-0.1,1.6-0.2,2.4-0.3c-3-2.8-5.9-5.6-8.9-8.5C256.1,165.1,254,167.3,255.4,168.6L255.4,168.6z"/>
		</g>
	</g>
	<g>
		<g>
			<path class="st4" d="M197.6,170.2c1.4,4.9,3.8,9.3,7.1,13.1c0.7,0.8,1.8,0.4,2.4-0.3c2.9-4.1,5.8-8.2,8.6-12.4
				c1.1-1.6-1.5-3.1-2.6-1.5c-2.9,4.1-5.8,8.2-8.6,12.4c0.8-0.1,1.6-0.2,2.4-0.3c-3-3.5-5.1-7.4-6.3-11.8
				C200,167.5,197.1,168.3,197.6,170.2L197.6,170.2z"/>
		</g>
	</g>
	<g>
		<g>
			<path class="st4" d="M133.3,252c4.1,5.4,8.1,10.7,12.2,16.1c0.6,0.8,2.1,1.1,2.6,0c2.3-4.9,4.6-9.9,6.9-14.8
				c0.8-1.7-1.8-3.3-2.6-1.5c-2.3,4.9-4.6,9.9-6.9,14.8c0.9,0,1.7,0,2.6,0c-4.1-5.4-8.1-10.7-12.2-16.1
				C134.7,248.9,132.1,250.4,133.3,252L133.3,252z"/>
		</g>
	</g>
	<g>
		<g>
			<path class="st4" d="M115.4,183.2c2.1,4.9,4.8,9.4,8.1,13.6c0.7,0.8,1.8,0.4,2.4-0.3c3.4-4.5,5.7-9.6,7-15.1
				c0.4-1.9-2.5-2.7-2.9-0.8c-1.2,5.3-3.4,10-6.7,14.3c0.8-0.1,1.6-0.2,2.4-0.3c-3.2-4-5.7-8.3-7.7-13
				C117.3,179.9,114.7,181.4,115.4,183.2L115.4,183.2z"/>
		</g>
	</g>
	<g>
		<g>
			<path class="st4" d="M88.5,200.4c2.6,5.7,6,10.8,10.4,15.2c0.5,0.5,1.6,0.6,2.1,0c2.9-3.6,4.9-7.5,6.1-12
				c0.5-1.9-2.4-2.7-2.9-0.8c-1.1,3.9-2.8,7.5-5.4,10.6c0.7,0,1.4,0,2.1,0c-4.2-4.3-7.5-9.2-10-14.6
				C90.3,197.1,87.7,198.6,88.5,200.4L88.5,200.4z"/>
		</g>
	</g>
	<g>
		<g>
			<path class="st4" d="M219.8,236.8c2.7,2,5.3,4.3,8.1,6.2c1.6,1.1,3.1,1.9,5,0.9c2.2-1.1,3.2-4.1,4.3-6c1.9-3.5,3.8-6.9,5.7-10.4
				c0.9-1.7-1.7-3.2-2.6-1.5c-2.3,4.1-4.2,9.6-7.2,13.2c-2.4,2.8-3.5,1.4-6-0.5c-1.9-1.5-3.9-2.9-5.8-4.4
				C219.8,233,218.3,235.7,219.8,236.8L219.8,236.8z"/>
		</g>
	</g>
	<g>
		<g>
			<path class="st4" d="M158.5,239.1c0.1,3.7,3,7.1,6.9,7.1c3.8,0,6.8-3.4,6.8-7.1c0-1.9-3-1.9-3,0c0,2.1-1.6,4.1-3.8,4.1
				c-2.2,0-3.8-2.1-3.9-4.1C161.4,237.2,158.4,237.2,158.5,239.1L158.5,239.1z"/>
		</g>
	</g>
	<g>
		<g>
			<path class="st4" d="M181.4,258.2c3.8,7.2,7.6,14.3,11.4,21.5c0.4,0.8,1.7,1,2.4,0.3c4.1-4.8,7.4-10.1,10-15.9
				c0.8-1.7-1.8-3.3-2.6-1.5c-2.5,5.5-5.6,10.6-9.5,15.3c0.8,0.1,1.6,0.2,2.4,0.3c-3.8-7.2-7.6-14.3-11.4-21.5
				C183.1,255,180.5,256.5,181.4,258.2L181.4,258.2z"/>
		</g>
	</g>
	<g>
		<g>
			<path class="st4" d="M194.9,243.4c2,2.9,4,5.9,6,8.8c1.2,1.8,2.4,3.8,4.6,4.3c5.7,1.2,7.5-5.7,10.2-9c1.2-1.5-0.9-3.6-2.1-2.1
				c-2.3,2.8-4.6,10.9-9.3,6.4c-1.2-1.1-2.1-3.1-3-4.4c-1.2-1.8-2.5-3.7-3.7-5.5C196.4,240.3,193.8,241.8,194.9,243.4L194.9,243.4z"
				/>
		</g>
	</g>
	<g>
		<g>
			<path class="st4" d="M185.3,211.2c4.3,6.8,9.1,13.2,14.6,19.1c0.7,0.8,1.8,0.4,2.4-0.3c2.3-3.1,3.9-6.5,4.9-10.3
				c0.5-1.9-2.4-2.7-2.9-0.8c-0.9,3.5-2.5,6.6-4.6,9.6c0.8-0.1,1.6-0.2,2.4-0.3c-5.3-5.7-10-11.9-14.1-18.5
				C186.9,208,184.3,209.5,185.3,211.2L185.3,211.2z"/>
		</g>
	</g>
	<g>
		<g>
			<path class="st6" d="M154.9,179.6c-0.4,4.7,5.1,6.8,9,5.7c5.8-1.7,6.3-9.3,6.2-14.2c0-1.9-3-1.9-3,0c0.1,3.5,0.3,8.6-2.9,10.8
				c-2,1.4-6.5,0.8-6.2-2.3C158,177.7,155,177.7,154.9,179.6L154.9,179.6z"/>
		</g>
	</g>
	<g>
		<g>
			<path class="st6" d="M111.5,158.4c-0.9,5.1,3.7,9.1,8.7,8.2c7.4-1.3,10.2-9.8,15.4-14.1c1.5-1.2-0.6-3.3-2.1-2.1
				c-2.4,1.9-4.1,4.3-5.9,6.7c-1.1,1.5-2.2,3-3.7,4.3c-1.1,1-2.4,1.7-3.9,2.2c-3.3,0.6-5.2-0.9-5.7-4.4
				C114.7,157.3,111.8,156.5,111.5,158.4L111.5,158.4z"/>
		</g>
	</g>
	<g>
		<g>
			<path class="st6" d="M126.6,214.1c2.3,3.5,4.7,7,7,10.5c0.6,0.9,2,1,2.6,0c2.3-4.3,4.6-8.7,7-13c0.9-1.7-1.7-3.2-2.6-1.5
				c-2.3,4.3-4.6,8.7-7,13c0.9,0,1.7,0,2.6,0c-2.3-3.5-4.7-7-7-10.5C128.1,210.9,125.5,212.4,126.6,214.1L126.6,214.1z"/>
		</g>
	</g>
	<g>
		<g>
			<path class="st6" d="M97.6,248c3.1,1.6,6.1,3.3,9.3,4.8c1.6,0.7,3.2,1.3,4.7,0.1c1.6-1.2,1.9-3.5,2.4-5.3
				c0.9-3.6,1.9-7.2,2.8-10.7c0.5-1.9-2.4-2.7-2.9-0.8c-0.5,2.1-1.1,4.2-1.6,6.3c-0.5,1.8-0.7,4.7-1.6,6.3c-1.3,2.2-3.2,0.9-5.1-0.1
				c-2.1-1.1-4.3-2.2-6.4-3.3C97.4,244.6,95.9,247.1,97.6,248L97.6,248z"/>
		</g>
	</g>
	<g>
		<g>
			<path class="st6" d="M75.4,180.9c-0.4,3.6,3.3,6.3,6.7,5.8c4-0.6,6-4.7,6.5-8.3c0.2-1.9-2.8-1.9-3,0c-0.3,2-1.3,4.6-3.4,5.2
				c-1.8,0.6-4-0.8-3.8-2.8C78.7,179,75.7,179,75.4,180.9L75.4,180.9z"/>
		</g>
	</g>
	<g>
		<g>
			<path class="st6" d="M59.9,132.6c2.8,4.5,5.5,9,8.3,13.5c0.5,0.8,1.6,1,2.4,0.3c3.5-3.3,6.2-7.1,8.2-11.5
				c0.8-1.7-1.8-3.3-2.6-1.5c-1.9,4.1-4.4,7.7-7.7,10.9c0.8,0.1,1.6,0.2,2.4,0.3c-2.8-4.5-5.5-9-8.3-13.5
				C61.5,129.4,58.9,130.9,59.9,132.6L59.9,132.6z"/>
		</g>
	</g>
	<g>
		<g>
			<path class="st6" d="M33.3,145.8c2.9,4.6,5.7,9.2,8.6,13.7c0.7,1.2,2.3,0.8,2.7-0.4c1.5-3.7,3.1-7.4,4.6-11.1
				c0.7-1.8-2.2-2.6-2.9-0.8c-1.5,3.7-3.1,7.4-4.6,11.1c0.9-0.1,1.8-0.2,2.7-0.4c-2.9-4.6-5.7-9.2-8.6-13.7
				C34.9,142.6,32.3,144.1,33.3,145.8L33.3,145.8z"/>
		</g>
	</g>
	<g>
		<g>
			<path class="st6" d="M35,179.5c-0.7,5.1,4.3,8.6,9.1,7.1c7.1-2.2,7.9-11.3,13.7-15.1c1.6-1.1,0.1-3.7-1.5-2.6
				c-2.9,2-4.7,4.6-6.4,7.6c-1,1.7-2,3.6-3.4,5c-0.9,0.9-2.2,2.1-3.6,2.3c-2.2,0.4-5.2-1.1-4.8-3.6C38.1,178.4,35.3,177.6,35,179.5
				L35,179.5z"/>
		</g>
	</g>
	<g>
		<g>
			<path class="st6" d="M181.4,153.7c2.1,2.1,4.1,4.2,6.2,6.2c0.4,0.4,1.3,0.6,1.8,0.2c3.3-2.5,5.2-5.9,5.7-10c0.2-1.9-2.8-1.9-3,0
				c-0.3,3-1.8,5.6-4.2,7.4c0.6,0.1,1.2,0.2,1.8,0.2c-2.1-2.1-4.1-4.2-6.2-6.2C182.1,150.2,180,152.4,181.4,153.7L181.4,153.7z"/>
		</g>
	</g>
	<g>
		<g>
			<path class="st6" d="M246.4,140.8c1.4,3.9,6,5.3,9.6,3.3c5.7-3,5.5-10.8,10.4-14.5c1.5-1.2,0-3.8-1.5-2.6
				c-2.8,2.1-4.2,4.8-5.6,7.9c-0.8,1.7-1.6,3.5-2.8,4.9c-1.7,1.9-6,3.6-7.2,0.1C248.6,138.1,245.7,138.9,246.4,140.8L246.4,140.8z"
				/>
		</g>
	</g>
	<g>
		<g>
			<path class="st6" d="M196.1,112.3c-2.9,3.7,0.6,8.7,5,8.9c5.6,0.3,8-6.1,8.6-10.6c0.3-1.9-2.7-1.9-3,0c-0.3,2.6-1.3,5.9-3.8,7.2
				c-1.1,0.6-2.3,0.5-3.3-0.2c-0.9-0.6-2.1-2.1-1.3-3.2C199.4,112.9,197.3,110.8,196.1,112.3L196.1,112.3z"/>
		</g>
	</g>
	<g>
		<g>
			<path class="st6" d="M282.7,125.2c4.7,3.7,9.3,7.4,14,11c0.7,0.6,1.9,0.6,2.4-0.3c6.1-11.3,7.5-24.2,4.2-36.6
				c-0.5-1.9-3.4-1.1-2.9,0.8c3.2,11.6,1.8,23.6-3.9,34.3c0.8-0.1,1.6-0.2,2.4-0.3c-4.7-3.7-9.3-7.4-14-11
				C283.4,121.8,281.2,124,282.7,125.2L282.7,125.2z"/>
		</g>
	</g>
	<g>
		<g>
			<path class="st6" d="M299.4,161.1c8,2.5,15.4,6.3,21.9,11.5c1.1,0.8,2.4,0.3,2.6-1.1c0.8-7.5,1.1-15,0.6-22.6
				c-0.1-1.9-3.1-1.9-3,0c0.4,7.6,0.2,15.1-0.6,22.6c0.9-0.4,1.7-0.7,2.6-1.1c-7-5.6-14.7-9.7-23.2-12.3
				C298.4,157.6,297.6,160.5,299.4,161.1L299.4,161.1z"/>
		</g>
	</g>
	<g>
		<g>
			<path class="st6" d="M323.7,134.2c6,3.7,12.4,6.7,19.1,8.9c1,0.3,1.8-0.5,1.9-1.4c0.3-4.8-0.1-9.5-1.5-14.1
				c-0.5-1.9-3.4-1.1-2.9,0.8c1.2,4.4,1.7,8.8,1.4,13.3c0.6-0.5,1.3-1,1.9-1.4c-6.5-2.2-12.6-5-18.4-8.6
				C323.5,130.6,322,133.2,323.7,134.2L323.7,134.2z"/>
		</g>
	</g>
	<g>
		<g>
			<path class="st6" d="M306.4,206.2c3.9-1.5,7.4,3.5,11.5,3c1.6-0.2,2.9-1.1,3.6-2.5c1.1-2.2,0-5.4,1.5-7.3
				c1.2-1.5-0.9-3.6-2.1-2.1c-1.1,1.4-1.5,2.7-1.6,4.5c-0.1,1.2,0.2,3.1-0.8,4c-1,0.9-2.3,0.3-3.3-0.1c-3.1-1.3-6.2-3.7-9.7-2.4
				C303.8,204,304.6,206.9,306.4,206.2L306.4,206.2z"/>
		</g>
	</g>
	<g>
		<g>
			<path class="st6" d="M270.5,209.6c2.5,1.9,5.1,3.9,7.6,5.8c0.6,0.5,1.7,0.1,2.1-0.5c1.6-2.8,2.5-5.9,2.5-9.2c0.1-1.9-2.9-1.9-3,0
				c-0.1,2.8-0.8,5.3-2.1,7.7c0.7-0.2,1.4-0.4,2.1-0.5c-2.5-1.9-5.1-3.9-7.6-5.8C270.4,205.9,268.9,208.5,270.5,209.6L270.5,209.6z"
				/>
		</g>
	</g>
	<g>
		<g>
			<path class="st6" d="M245,177.1c-0.6,5.1,5.2,9,9.9,7.5c5-1.6,6.7-8,4.9-12.5c-0.7-1.8-3.6-1-2.9,0.8c1.2,2.9,0.8,6.7-2.1,8.5
				c-3,1.8-7.2-0.8-6.8-4.3C248.2,175.2,245.2,175.2,245,177.1L245,177.1z"/>
		</g>
	</g>
	<g>
		<g>
			<path class="st6" d="M209.1,192.5c3.7,0.9,6.6,2.8,8.9,6c0.8,1.2,2.8,0.8,2.8-0.8c0.2-7.7,1.8-15,4.9-22.1
				c0.8-1.7-1.8-3.3-2.6-1.5c-3.3,7.5-5.1,15.4-5.3,23.6c0.9-0.3,1.9-0.5,2.8-0.8c-2.7-3.8-6.1-6.2-10.7-7.3
				C208.1,189.2,207.3,192.1,209.1,192.5L209.1,192.5z"/>
		</g>
	</g>
	<g>
		<g>
			<path class="st6" d="M211,137.7c2.3,2.5,8.4,9.2,12,5.6c1.9-1.9,2.2-6,2.9-8.5c1.2-4.2,2.3-8.4,3.5-12.7c0.5-1.9-2.4-2.7-2.9-0.8
				c-1.3,4.7-2.6,9.5-3.9,14.2c-0.5,1.8-0.6,5.5-3.1,5.3c-2-0.1-5-3.8-6.4-5.3C211.8,134.2,209.6,136.3,211,137.7L211,137.7z"/>
		</g>
	</g>
	<g>
		<g>
			<path class="st6" d="M155.5,130.7c1,3.2,2.4,6.2,4.4,9c0.4,0.6,1.3,1,2.1,0.5c3.8-2.4,6.4-6.1,7.3-10.6c0.4-1.9-2.5-2.7-2.9-0.8
				c-0.7,3.7-2.7,6.8-5.9,8.8c0.7,0.2,1.4,0.4,2.1,0.5c-1.8-2.6-3.1-5.3-4.1-8.3C157.8,128.1,154.9,128.8,155.5,130.7L155.5,130.7z"
				/>
		</g>
	</g>
	<g>
		<g>
			<path class="st6" d="M172.4,221.3c-2.4,3.4,2.1,7.4,5.6,6.2c5.7-2,3.7-9.5,7.2-13.1c1.3-1.4-0.8-3.5-2.1-2.1
				c-1.9,2-2.5,4.5-3.1,7.1c-0.3,1.3-0.6,2.8-1.4,3.9c-0.6,0.8-1.4,1.7-2.5,1.4c-0.8-0.2-1.7-1-1.1-1.9
				C176,221.2,173.4,219.7,172.4,221.3L172.4,221.3z"/>
		</g>
	</g>
	<g>
		<g>
			<path class="st6" d="M75.8,101.4c2.3,2.7,4.6,5.3,6.9,8c1.2,1.4,2.5,2.7,4.5,2.4c3.7-0.6,3.5-6,6.7-6.9c1.8-0.6,1.1-3.5-0.8-2.9
				c-2.7,0.8-3.6,3.1-5,5.3c-1.7,2.6-3.1,0.2-4.5-1.4c-1.9-2.2-3.8-4.4-5.7-6.6C76.7,97.8,74.5,99.9,75.8,101.4L75.8,101.4z"/>
		</g>
	</g>
	<g>
		<g>
			<path class="st6" d="M100.4,24.9c13.1,4.1,13.1,20.3,9.2,30.9c-3.5,9.8-10.9,18.4-21.6,20.2c-1.9,0.3-1.1,3.2,0.8,2.9
				c12.6-2.1,21.2-13.2,24.5-25c3.4-12,1.4-27.7-12.2-31.9C99.4,21.5,98.6,24.3,100.4,24.9L100.4,24.9z"/>
		</g>
	</g>
	<g>
		<g>
			<path class="st6" d="M235.9,19.1c-12.1,8.6-15.2,24.4-10.1,37.9c4.8,12.9,17.2,27.3,32.4,24.2c1.9-0.4,1.1-3.3-0.8-2.9
				c-14,2.9-25.3-11.9-29.2-23.6c-3.9-11.8-1.2-25.5,9.3-33C238.9,20.6,237.4,17.9,235.9,19.1L235.9,19.1z"/>
		</g>
	</g>
</g>
</svg>
