<?xml version="1.0" encoding="utf-8"?>
<!-- Generator: Adobe Illustrator 23.0.3, SVG Export Plug-In . SVG Version: 6.00 Build 0)  -->
<svg version="1.1" id="Layer_1" xmlns="http://www.w3.org/2000/svg" xmlns:xlink="http://www.w3.org/1999/xlink" x="0px" y="0px"
	 viewBox="0 0 320 176.1" style="enable-background:new 0 0 320 176.1;" xml:space="preserve">
<style type="text/css">
	.st0{fill:url(#SVGID_1_);}
	.st1{fill:url(#SVGID_2_);}
	.st2{fill:#A5FFFD;}
	.st3{fill:#DE67FF;}
	.st4{fill:#CED9FF;}
	.st5{fill:#82C8FF;}
	.st6{fill:#FF259A;}
	.st7{fill:#F9D0FF;}
	.st8{fill:#FFFFFF;}
	.st9{fill:#4C20FF;}
	.st10{fill:#FFD0EE;}
	.st11{fill:#FFFD9D;}
</style>
<g>
	<g>
		<linearGradient id="SVGID_1_" gradientUnits="userSpaceOnUse" x1="50.2232" y1="-92.075" x2="48.4232" y2="-94.775">
			<stop  offset="0" style="stop-color:#69C5F7"/>
			<stop  offset="1" style="stop-color:#0071BC"/>
		</linearGradient>
		<path class="st0" d="M253.8,41.4c-18.1,5.7-37.9,2.3-55.7-4.3s-34.3-16.3-51.9-23.5C118.8,2.3,87.5-2.8,59.5,7
			C25.3,18.9,0.6,54.1,1.4,90.3s27.3,70.4,62.2,79.8c33.8,9.1,69.8-3.8,100.3-21c10.2-5.8,21-12.3,32.7-11.6
			c11.2,0.7,20.9,7.8,31.8,10.3c15.6,3.6,32.1-2.9,44.1-13.4c12-10.6,20-24.8,26.9-39.2c8.6-17.8,15.8-36.5,18.6-56.1
			c0.5-3.6,0.7-7.7-1.9-10.3c-1.5-1.5-3.7-2.1-5.8-2.5c-20.6-4.4-43,0.4-60,12.8"/>
		<g>
			<linearGradient id="SVGID_2_" gradientUnits="userSpaceOnUse" x1="0.9174" y1="87.3866" x2="318.9183" y2="87.3866">
				<stop  offset="0" style="stop-color:#A8FFFF"/>
				<stop  offset="0.1198" style="stop-color:#9DF6FB"/>
				<stop  offset="0.3316" style="stop-color:#7FDCEF"/>
				<stop  offset="0.6106" style="stop-color:#4FB3DB"/>
				<stop  offset="0.9427" style="stop-color:#0C7BC1"/>
				<stop  offset="1" style="stop-color:#0071BC"/>
			</linearGradient>
			<path class="st1" d="M253.4,40c-32.8,9.8-64.2-8.1-93-21.7C133.6,5.7,104.2-3.2,74.5,1.7c-49.4,8-85.2,59.6-71.5,108.6
				c6.3,22.7,22.2,42.8,42.9,54.2c24.6,13.5,53.8,12,79.8,3.5c14.2-4.6,27.6-11.1,40.6-18.4c6.7-3.8,13.5-7.8,21.1-9.6
				c8.2-2,15.8-0.2,23.4,2.8c6.7,2.7,13.2,6,20.5,7.1c6,0.9,12.2,0.4,18-1.1c12.9-3.3,23.9-11.5,32.4-21.6
				c9.1-10.8,15.6-23.4,21.4-36.2c6.3-13.7,11.8-27.9,14.9-42.7c1.1-5.3,3.3-12.4,1.1-17.7c-2.1-5.2-8.2-5.9-13.1-6.6
				c-13.1-1.9-26.7-0.3-39,4.4c-6.2,2.4-12,5.6-17.4,9.4c-1.6,1.1-0.1,3.7,1.5,2.6c11.3-8,24.5-13,38.3-14c6.3-0.5,12.7-0.2,18.9,1
				c5.2,1,8.5,3.1,8.4,8.9c-0.1,4-1.1,8.2-2,12.1c-3.1,14.2-8.3,27.9-14.4,41.1c-5.8,12.5-12.1,25-21,35.5
				c-8.5,10.1-19.6,18.2-32.7,21.2c-6.5,1.5-13.2,1.5-19.6-0.3c-7.1-1.9-13.5-5.5-20.4-7.8c-11.6-3.9-22.5-1.4-33.2,3.9
				c-13,6.5-25.2,14.1-38.8,19.4c-25.6,10.1-55.1,14.8-81.1,3.5c-21.4-9.3-38.4-28.1-46.2-50.1C-9.2,67.6,23.4,14.9,71.8,5.2
				c33.4-6.7,65.7,5.3,95.3,19.7c26.9,13,56.7,27.1,87.1,18C256,42.3,255.2,39.4,253.4,40L253.4,40z"/>
		</g>
	</g>
	<g>
		<g>
			<path class="st2" d="M255.1,38.6c-3.3,0.4-6.6,0.8-9.9,1.3c-1.9,0.2-1.9,3.2,0,3c3.3-0.4,6.6-0.8,9.9-1.3
				C256.9,41.4,257,38.4,255.1,38.6L255.1,38.6z"/>
		</g>
	</g>
	<g>
		<g>
			<path class="st3" d="M190.7,34.7c-7.4,3-16.8,7.6-16.8,16.9c0,5.3,2.9,10.3,4.6,15.2c2.1,6,3.6,12.2,3.5,18.5
				c-0.1,6.4-2.3,11.8-6,16.9c-2.8,3.8-6.4,7.7-7.1,12.6c-1.5,9.6,10.9,14.9,9.2,23.8c-0.4,1.9,2.5,2.7,2.9,0.8
				c1.6-8.3-6.3-12.5-8.7-19.6c-1.8-5.5,1.8-10.2,4.9-14.3c2.9-3.8,5.4-7.5,6.7-12.1c2.6-9.3,0.3-19.3-2.8-28.2
				c-2-5.6-6.3-12.4-3.1-18.3c2.6-4.9,8.5-7.4,13.4-9.4C193.3,36.9,192.5,34,190.7,34.7L190.7,34.7z"/>
		</g>
	</g>
	<g>
		<g>
			<path class="st3" d="M186.5,141.2c6.8-4.2,0.7-10.9-0.9-16.1c-3.4-10.8,6-20.9,9.7-30.4c3.4-8.7,1.4-17.1,0.1-26
				c-1.8-11.7,1.1-23.3,13.6-27.1c1.8-0.6,1.1-3.5-0.8-2.9c-6.8,2.1-12.5,6.9-15,13.7c-3.5,9.4,0.4,19.1,1.1,28.6
				c0.9,11.3-5.9,19.2-9.9,29.1c-1.6,3.9-2.7,8.1-2.3,12.3c0.4,3.8,7.1,13.6,3,16.2C183.3,139.7,184.8,142.3,186.5,141.2
				L186.5,141.2z"/>
		</g>
	</g>
	<g>
		<g>
			<path class="st3" d="M212.1,42.2c2.1,4.9-2.9,9.8-4.9,13.9c-1.4,2.8-2.1,5.9-2,9c0.1,3.2,1.1,6.1,2.4,9c2.6,6,2.4,11-0.6,16.9
				c-3.5,7-9.3,12.7-11.5,20.4c-0.8,2.8-1.1,5.9-0.5,8.8c1,4.5,7,10.4,3,14.8c-1.3,1.4,0.8,3.5,2.1,2.1c6.1-6.6-2.6-13.5-2.5-20.5
				c0.1-10.5,9.9-18.2,13.5-27.5c1.4-3.6,2-7.4,1.1-11.2c-1.4-5.6-4.8-9.9-3.7-16c1.3-7.4,9.6-13.3,6.2-21.2
				C214,38.9,211.4,40.4,212.1,42.2L212.1,42.2z"/>
		</g>
	</g>
	<g>
		<g>
			<path class="st3" d="M204.1,141.1c6.3-5.5,5-13.6,4.8-21.1c-0.1-9.3,5.1-16.2,9.8-23.8c3.6-5.8,6.6-12,5.7-19
				c-0.6-5-2.9-9.8-2-14.9c0.9-5,4.1-9.5,7-13.5c1.1-1.6-1.5-3.1-2.6-1.5c-4.2,5.9-8.3,12.3-7.5,19.9c0.5,4.9,2.7,9.5,2.2,14.5
				c-0.4,4.3-2.5,8.3-4.7,12c-3.6,5.9-8,11.5-9.9,18.2c-2.5,8.7,2.7,20.5-4.9,27.2C200.5,140.2,202.6,142.4,204.1,141.1L204.1,141.1
				z"/>
		</g>
	</g>
	<g>
		<g>
			<path class="st3" d="M237.3,44.4c-5.7,3.2-7.6,9.7-7.2,15.9c0.7,10.1,5.9,18.5,2.5,28.7c-2.6,8.2-7.9,15.3-10.3,23.6
				c-1.4,5-0.9,10.2-1.7,15.3c-0.9,5.4-2.9,10.3-5.8,14.9c-1,1.6,1.6,3.1,2.6,1.5c4.8-7.5,6.2-15.2,6.8-24
				c0.7-9.6,5.9-17.3,9.6-25.9c3-6.9,4-13.5,2.3-20.8c-1.8-8.2-7-21.1,2.7-26.6C240.5,46.1,239,43.5,237.3,44.4L237.3,44.4z"/>
		</g>
	</g>
	<g>
		<g>
			<path class="st4" d="M245,42c-6.3,1.9-9.9,7.6-10.9,14c-1.6,10.6,2.9,21.1,1.4,31.9c-1.6,11-7.9,19.2-12,29.1
				c-1.4,3.5-2.1,7.1-2.1,10.9c0,5.7,1,11.5-2.1,16.6c-1,1.7,1.6,3.2,2.6,1.5c4.4-7.3,1.3-15.4,2.9-23.3c1.8-9,8.4-16.3,11.3-24.9
				c2.8-8.2,3.4-16.7,2.2-25.3c-1.3-9-4.5-24.1,7.4-27.7C247.6,44.4,246.8,41.5,245,42L245,42z"/>
		</g>
	</g>
	<g>
		<g>
			<path class="st4" d="M209.3,143.4c2-3.6,4-7.3,4.7-11.4c0.8-4.4-0.6-7.6-1.9-11.7c-3.7-12,4.4-22.3,11.4-31.1
				c8.3-10.5,18.1-27.2,5.9-39c-1.4-1.3-3.5,0.8-2.1,2.1c14.2,13.8-4.7,31.9-12.3,43.1c-4.1,5.9-7.4,13.1-6.8,20.4
				c0.3,3.5,1.9,6.5,2.7,9.9c1.4,5.9-1.3,11.1-4.1,16.2C205.8,143.6,208.4,145.1,209.3,143.4L209.3,143.4z"/>
		</g>
	</g>
	<g>
		<g>
			<path class="st4" d="M221.2,44.8c-5.1,5.8-7.1,13-8.8,20.4c-1,4.4-1.4,8.3-1.1,12.8c0.4,5.1-0.9,8.9-3.5,13.3
				c-3.8,6.5-6,12.4-6.3,20c-0.4,8.6,0.7,17.6-4,25.3c-1,1.7,1.6,3.2,2.6,1.5c3.6-5.9,4.2-12.5,4.3-19.2c0.2-9.1,0.6-16.7,5.3-24.8
				c1.7-2.9,3.5-5.9,4.4-9.2c1-3.8-0.1-7.5,0-11.4c0.3-8.7,3.5-19.9,9.2-26.6C224.6,45.5,222.5,43.3,221.2,44.8L221.2,44.8z"/>
		</g>
	</g>
	<g>
		<g>
			<path class="st4" d="M198,139.5c-12.9-12-0.7-30.9,4.1-43.6c2.7-7.2,3.9-14.3,1.9-21.8c-1.1-4.1-2.9-8-2.7-12.4
				c0.2-5.7,3.2-10.8,6-15.5c1-1.7-1.6-3.2-2.6-1.5c-4.4,7.6-7.8,15.1-5.4,24c1.3,5.1,3.3,9.6,2.9,15c-0.4,6.2-3,12-5.5,17.6
				c-5.5,12.2-12.5,29.3-0.7,40.3C197.2,142.9,199.4,140.8,198,139.5L198,139.5z"/>
		</g>
	</g>
	<g>
		<g>
			<path class="st4" d="M200.1,39.6c-4.8-4.1-12.1-7.4-15.5-0.1c-2.2,4.8-3.8,10.5-4.2,15.8c-0.4,6.3,2.9,10.9,3.9,16.9
				c1.1,6.3-2.3,12.7-3.7,18.8c-1.2,5.5-1.8,11.1-2,16.7c-0.2,6.2,0.1,12.3,0.4,18.4c0.2,4.1-0.2,8.8,3.1,11.8
				c1.4,1.3,3.6-0.8,2.1-2.1c-3.3-3-2.4-11.1-2.5-15.2c-0.2-4.6-0.3-9.2-0.1-13.8c0.4-9.2,2.8-17.3,5-26c0.8-3,1.2-6.1,0.7-9.2
				c-0.8-4.4-3.5-8.1-3.9-12.7c-0.5-4.7,0.9-9.5,2.4-13.9c0.8-2.5,1.5-6.8,4.8-7.1c2.6-0.2,5.5,2.2,7.3,3.8
				C199.5,43,201.6,40.9,200.1,39.6L200.1,39.6z"/>
		</g>
	</g>
	<g>
		<g>
			<path class="st4" d="M226.7,145.3c-0.4-5.9,0.6-11.5,3.2-16.8c1.9-3.9,4.8-7.3,7.1-11c4.8-7.8,5.3-17,6.4-25.8
				c1.3-10.7,2.4-21.4,4-32c1.5-9.7,5-20.7,15.6-23.6c1.9-0.5,1.1-3.4-0.8-2.9c-19.7,5.4-18.6,33.1-20.6,49.1
				c-1.5,11.7-1.4,25-8,35.1c-5.9,9-10.5,16.8-9.8,27.9C223.8,147.2,226.8,147.2,226.7,145.3L226.7,145.3z"/>
		</g>
	</g>
	<g>
		<path class="st5" d="M98.8,122.6c-5.8-6.8-2.3-18,4.8-23.4s16.5-6.4,25.4-7c6.1-0.4,13.6,0,16.4,5.5c1.8,3.5,0.7,7.8-0.4,11.6
			c-2,7-4.1,14.3-8.8,19.9c-4.7,5.6-12.6,9.2-19.4,6.5c-6-2.3-10.9-9-17.1-7.5"/>
	</g>
	<g>
		<path class="st5" d="M86.1,42.7c-6.7-3.3-14.7-3-21.8-0.8s-13.5,6.1-19.9,10C41,54,37.4,56.3,35.6,60c-2.4,5.1-0.1,11.4,3.9,15.3
			s9.4,6,14.8,7.7c5.1,1.7,10.3,3.2,15.6,2.7c9.9-0.9,17.7-8.4,24.6-15.5c3.7-3.8,7.7-8.2,7.3-13.5c-0.3-4-3.2-7.5-6.7-9.5
			c-3.5-2-7.5-2.8-11.5-3.6"/>
	</g>
	<g>
		<g>
			<path class="st5" d="M101,127.6c-1.5-3.7-3.1-7.5-4.6-11.2c-0.7-1.8-3.6-1-2.9,0.8c1.5,3.7,3.1,7.5,4.6,11.2
				C98.8,130.2,101.7,129.4,101,127.6L101,127.6z"/>
		</g>
	</g>
	<g>
		<path class="st5" d="M130.5,92c6.8,1.7,13.5,3.3,20.3,5c1.1,0.3,2.3,0.6,3.2,1.4c2.1,1.9,1.5,5.3,0.6,8
			c-3.1,9.6-6.9,19.7-14.7,26.1c-7.8,6.4-20.9,7.6-27.3-0.3"/>
	</g>
	<g>
		<g>
			<path class="st6" d="M244,41.3c-6.3,6.8-5.4,15.9-4.7,24.4c1,11.7-0.6,22.7-4,33.9c-3.3,11-8,21.5-11.1,32.6
				c-1.6,5.8-2.3,14,4.1,17.1c0.8,0.4,2,0.1,2.2-0.9c1-5.7,2.8-11.1,5.7-16.1c2.7-4.7,6.7-8.6,9.2-13.4c2.5-4.7,3.4-10,4.6-15.1
				c1.3-6,2.6-12,3.7-18.1c2-11.2,3.4-22.6,2.9-34c-0.1-3.1-0.5-6.2-0.8-9.3c-0.4-4.1,2-6.4,5.4-8c5.5-2.6,11.1-5.2,16.7-7.8
				c-0.6-0.8-1.2-1.6-1.8-2.4c-5.8,5.3-7.9,12.7-8.5,20.3c-0.4,5.6,0,11.2-0.4,16.7c-0.5,6.8-2.8,12.6-5.4,18.8
				c-3.7,8.6-4.4,16.6-4.7,25.9c-0.1,4.6-0.3,9.4-1.8,13.8c-2,5.7-6.6,9.1-10.3,13.6c-2.8,3.3-8,13.9-1.3,16.3
				c2,0.7,4.2-0.3,5.5-1.8c1.3-1.4,1.9-3.2,3-4.7c1.6-2.3,3.8-4.2,5.9-6.1c6.2-5.7,10.4-11.2,11.6-19.7c1.4-9.6-0.5-19.6,2.5-29
				c3.3-10.4,10.9-18.7,12.8-29.6c1-5.8,0.7-11.7,1.4-17.5c0.7-6.2,4.8-20.9,14.1-14.3c-0.1-0.8-0.2-1.6-0.3-2.4
				c-5.8,6.6-11.8,13.9-11.9,23.2c0,5.4,1.9,10.5,2.1,15.9c0.2,6-2.7,10.1-6.2,14.6c-2.5,3.3-4.8,6.5-5.8,10.6
				c-1.2,4.6-1,9.5-1.4,14.3c-1.1,12.6-4.7,24.8-10.4,36.1c-0.6,1.3,0.4,2.4,1.7,2.2c9.6-1.4,13.9-10.6,15.5-19.2
				c2.5-13.1,4.9-25.1,11.6-36.9c9.8-17.3,29.6-38.2,16.3-59.1c-1-1.6-3.6-0.1-2.6,1.5c12.9,20.2-8.1,40.8-17.2,57.6
				c-4.7,8.7-8,18.1-9.7,27.8c-1.7,9.6-2.6,23.6-14.8,25.4c0.6,0.7,1.1,1.5,1.7,2.2c4.8-9.5,8.2-19.6,9.9-30.1
				c1.7-10.4,0.2-20.9,6.8-29.7c5.4-7.1,8.4-12.6,6.9-21.8c-1-6.3-2.6-12.2-0.2-18.5c2.1-5.3,5.9-9.7,9.6-13.9
				c0.7-0.8,0.5-1.8-0.3-2.4c-5.3-3.8-11.9-1-15.1,4.2c-4.7,7.7-3.5,17.7-4.4,26.3c-1.1,10.6-7.1,18.6-11.3,28
				c-3.5,7.7-3.8,15.5-3.9,23.8c-0.1,10.3-1.3,19-9.2,26.4c-2.6,2.5-5.4,4.7-7.7,7.6c-0.8,1-1.9,4.1-3,4.7c-4.8,2.8-4-2.5-3.6-4
				c0.6-2.4,2.1-4.4,3.7-6.3c5.5-6.3,10.4-10.7,11.8-19.3c1.4-8.7,0-17.7,2.2-26.2c1.4-5.3,4-10.1,5.9-15.2
				c1.9-5.1,2.7-10.2,2.8-15.7c0.3-11.1-1.2-23.9,7.9-32.1c1.3-1.2-0.4-3-1.8-2.4c-5.6,2.6-11.1,5.2-16.7,7.8
				c-3.7,1.8-6.8,3.4-7,7.8c-0.3,5.9,1.2,11.9,1.1,17.9c-0.1,7.3-0.8,14.5-1.9,21.7c-1,6.4-2.3,12.8-3.7,19.1
				c-1.4,6.3-2.3,13.4-5.3,19.2c-2.8,5.3-7.2,9.5-10,14.8c-2.6,4.8-4.3,10-5.2,15.3c0.7-0.3,1.5-0.6,2.2-0.9
				c-8.1-3.9-1.4-17.9,0.6-23.7c3.2-9.1,6.7-18.2,9.2-27.6c2.2-8.5,3.6-17.2,3-25.9c-0.6-8.6-3-19,3.5-26
				C247.4,42,245.3,39.9,244,41.3L244,41.3z"/>
		</g>
	</g>
	<g>
		<g>
			<path class="st7" d="M299.3,22.6c-7.3,6.2-11.2,14.9-14,23.8c-3.7,11.7-6.6,23.6-9.9,35.4c-3.3,12.1-6.7,24.2-10,36.4
				c-2.7,9.8-5.9,20.9-15.5,26c-1.7,0.9-0.2,3.5,1.5,2.6c7.6-4.1,11.7-11.6,14.4-19.5c4-11.5,6.7-23.6,10-35.3
				c3.4-12.4,6.9-24.9,10.3-37.3c3-11,6.4-22.3,15.4-29.9C302.9,23.5,300.8,21.4,299.3,22.6L299.3,22.6z"/>
		</g>
	</g>
	<g>
		<g>
			<path class="st7" d="M247.7,143.6c-1,0.3,0.1-3.7,0.3-4.1c0.6-1.2,1.6-2.3,2.3-3.5c1.4-2.1,2.6-4.2,3.8-6.4
				c2-3.8,3.8-7.7,5.4-11.7c3.7-9.4,6.3-19.2,8.4-29c2.1-10,3.9-20.1,5.7-30.2c1.8-9.7,3.1-20.4,10.8-27.4c1.4-1.3-0.7-3.4-2.1-2.1
				c-8.2,7.3-9.8,18.4-11.6,28.7c-2.2,12.3-4.3,24.7-7.2,36.8c-2.9,12-6.7,24-12.8,34.8c-1.4,2.4-2.8,4.8-4.4,7.1
				c-1.2,1.8-3.2,4-3,6.4c0.2,2.8,2.6,4.2,5.1,3.5C250.4,146,249.6,143.1,247.7,143.6L247.7,143.6z"/>
		</g>
	</g>
	<g>
		<g>
			<path class="st7" d="M253.7,37.5c2.6,19.7,4.5,39.2-2.1,58.4c-5.7,16.6-14.9,31.8-18.4,49.1c-0.4,1.9,2.5,2.7,2.9,0.8
				c3.6-17.9,13.3-33.5,18.9-50.7c6.1-18.9,4.2-38.2,1.7-57.6C256.5,35.6,253.5,35.6,253.7,37.5L253.7,37.5z"/>
		</g>
	</g>
	<g>
		<g>
			<path class="st7" d="M208.5,145.2c5.1-4.9,6.2-11.8,6-18.7c-0.2-5.1-1.2-10.2-0.8-15.3c0.4-5,2.5-9.4,5.1-13.6
				c4.4-7,9-13.5,11.9-21.3c3.1-8.2,4.6-16.9,4.7-25.7c0-1.9-3-1.9-3,0c-0.1,8.6-1.6,16.9-4.6,24.9c-3.1,8.1-8.1,14.6-12.5,21.9
				c-3.9,6.5-5.1,12.9-4.6,20.4c0.6,8.6,2.5,18.5-4.4,25.2C205,144.4,207.1,146.5,208.5,145.2L208.5,145.2z"/>
		</g>
	</g>
	<g>
		<g>
			<path class="st7" d="M220.5,50.6c-7.9,10.3-2.1,23.1-5.3,34.6c-1.6,5.8-5.7,10.4-7.7,16.1c-2.1,5.8-1.6,11.9-1.1,17.9
				c0.2,1.9,3.2,1.9,3,0c-0.6-6.4-1-13,1.8-19c2.2-4.8,5.5-9,7-14.2c3.1-11.1-2.6-24,5-33.9C224.3,50.6,221.7,49.1,220.5,50.6
				L220.5,50.6z"/>
		</g>
	</g>
	<g>
		<g>
			<path class="st7" d="M208.2,43.7c-5.7,2.1-8.3,7.3-8.7,13.1c-0.4,5,0.2,10,0,15c-0.2,5.2-0.7,10.4-1.5,15.5
				c-1.5,8.9-4.5,17.2-7,25.8c-1.9,6.5-2.7,13.3,1.1,19.3c1,1.6,3.6,0.1,2.6-1.5c-4.2-6.5-1.9-14,0.4-20.8
				c2.2-6.7,4.2-13.3,5.5-20.2c1.2-6.6,1.9-13.3,2-20c0.1-7.4-2.6-20,6.4-23.3C210.8,45.9,210,43,208.2,43.7L208.2,43.7z"/>
		</g>
	</g>
	<g>
		<g>
			<path class="st7" d="M209.4,136.8c3.8-6,4.1-13.2,1-19.6c-0.8-1.7-3.4-0.2-2.6,1.5c2.6,5.4,2.2,11.5-1,16.6
				C205.8,136.9,208.4,138.4,209.4,136.8L209.4,136.8z"/>
		</g>
	</g>
	<g>
		<g>
			<path class="st7" d="M197.9,40.5c-6,2.8-5.4,13-5.7,18.5c-0.4,9.7,1.7,19.8-0.3,29.4c-1.9,9.3-10.4,14.4-12.8,23.3
				c-2.2,8.1-0.5,16.8,1.2,24.8c0.4,1.9,3.3,1.1,2.9-0.8c-1.7-8.1-3.7-17.3-0.5-25.4c2.9-7.4,9.8-11.7,11.8-19.7
				c1.8-7,1.1-14.3,0.8-21.4c-0.2-4-0.2-8,0-12.1c0.3-4-0.2-12.1,4.1-14.1C201.2,42.2,199.6,39.6,197.9,40.5L197.9,40.5z"/>
		</g>
	</g>
	<g>
		<g>
			<path class="st7" d="M189.1,87.6c0.8-8,1.7-16,2.5-24c0.8-7.4,0.3-16.8,4.5-23.2c1.1-1.6-1.5-3.1-2.6-1.5c-4,6-3.7,14-4.5,20.8
				c-1,9.3-2,18.6-2.9,27.9C185.9,89.6,188.9,89.5,189.1,87.6L189.1,87.6z"/>
		</g>
	</g>
	<g>
		<g>
			<path class="st7" d="M186.7,82.6c0.9,6.5-0.2,12.8-3.2,18.6c-0.9,1.7,1.7,3.2,2.6,1.5c3.4-6.6,4.5-13.6,3.5-20.9
				C189.4,79.9,186.5,80.7,186.7,82.6L186.7,82.6z"/>
		</g>
	</g>
	<g>
		<g>
			<path class="st7" d="M184.3,31.4c-5,3.5-10.2,6.7-14.9,10.5c-3,2.5-4.2,5.1-3.8,9c1.3,11.5,8.1,21.6,9.8,33
				c1.9,13-5.8,22.9-8.7,35c-1.9,8.1-1.2,17.3,5.4,23c1.4,1.3,3.6-0.8,2.1-2.1c-7.6-6.7-5.9-17.6-2.7-26.1c3.4-9.1,8-17.6,7.2-27.6
				c-0.8-9-4.7-17.3-7.5-25.7c-1.9-5.7-4.7-12.5,1.1-16.8c4.5-3.3,9.1-6.4,13.6-9.5C187.4,32.9,185.9,30.3,184.3,31.4L184.3,31.4z"
				/>
		</g>
	</g>
	<g>
		<g>
			<path class="st7" d="M172.5,140.7c-13.6-1.6-15.1-17.9-12.5-28.3c2.7-10.7,8.5-20.8,8.4-32c-0.1-9.6-5.5-17-10.1-25
				c-7.1-12.3-5.2-24.2-1.7-37.3c0.5-1.9-2.4-2.7-2.9-0.8c-3.1,11.8-5.7,23.9-0.2,35.4c2.6,5.5,6.3,10.3,8.9,15.7
				c3.5,7.2,3.5,14.6,1.5,22.2c-3,11.6-9.9,23.1-7.9,35.5c1.4,8.7,7.5,16.4,16.5,17.5C174.4,143.9,174.4,140.9,172.5,140.7
				L172.5,140.7z"/>
		</g>
	</g>
	<g>
		<path d="M71,67c-0.8-5.6-2.5-11-5.1-16c-0.5-0.9-1-1.8-1.9-2.2c-0.7-0.3-1.6-0.2-2.3,0c-3.9,0.8-7.4,3-10.3,5.8
			c-4.6,4.4-7.7,10.5-7.5,16.9c0.2,6.3,4,12.7,9.9,14.9s13.5-0.4,16.1-6.2c2.4-5.4,0.2-11.7,1-17.6"/>
	</g>
	<g>
		<g>
			<path class="st8" d="M61.5,61.6c-0.1-1.5,0.2-2.7,1.1-3.9c-0.8,0.1-1.6,0.2-2.4,0.3c1.5,1.7,0.5,4.8-1.6,5.4
				c-1.8,0.5-1.1,3.4,0.8,2.9c4.4-1.3,5.9-7,2.9-10.4c-0.7-0.8-1.8-0.4-2.4,0.3c-1.1,1.6-1.6,3.5-1.5,5.4
				C58.6,63.5,61.6,63.5,61.5,61.6L61.5,61.6z"/>
		</g>
	</g>
	<g>
		<g>
			<path class="st8" d="M63.6,74.8c1.9,0,1.9-3,0-3C61.7,71.8,61.7,74.8,63.6,74.8L63.6,74.8z"/>
		</g>
	</g>
	<g>
		<g>
			<path class="st9" d="M9.5,129.5c20.9,0.6,43.5,0.3,60.1-14.3c1.5-1.3-0.7-3.4-2.1-2.1c-16,14-37.9,14-58,13.4
				C7.5,126.4,7.5,129.4,9.5,129.5L9.5,129.5z"/>
		</g>
	</g>
	<g>
		<path class="st10" d="M95.1,91.3c-4.7-2.9-11.6-1.4-14.7,3.2c-3.2,4.6-2.1,11.5,2.2,14.9c1.3,1,2.8,1.7,4.4,1.7
			c1.4,0,2.8-0.6,4-1.3c5.9-3.7,7.9-12.5,4-18.4"/>
	</g>
	<g>
		<g>
			<path class="st9" d="M153.1,17.6C167,23.8,181,30,195,36.1c11.7,5.1,23.9,10.7,37,10.2c27.1-1.1,50.3-27.6,78.2-18.7
				c1.8,0.6,2.6-2.3,0.8-2.9c-26.2-8.4-48.1,13.2-72.5,17.8c-14.9,2.8-28.6-3.2-42-9c-14-6.1-28-12.2-41.9-18.5
				C152.9,14.2,151.4,16.8,153.1,17.6L153.1,17.6z"/>
		</g>
	</g>
	<g>
		<g>
			<path class="st9" d="M242,43.6c17.7-3.1,32.5-18.2,51.1-16.5c1.9,0.2,1.9-2.8,0-3c-19-1.8-33.9,13.4-51.9,16.6
				C239.4,41.1,240.2,44,242,43.6L242,43.6z"/>
		</g>
	</g>
	<g>
		<g>
			<path class="st9" d="M248.3,41c16.1-9.3,34.3-13.7,52.9-12.8c1.9,0.1,1.9-2.9,0-3c-19.1-0.9-37.8,3.7-54.4,13.2
				C245.1,39.3,246.6,41.9,248.3,41L248.3,41z"/>
		</g>
	</g>
	<g>
		<g>
			<path class="st9" d="M227.6,45.2c18.5-4.6,36.6-10.6,54.3-18c1.8-0.7,1-3.6-0.8-2.9c-17.6,7.3-35.7,13.3-54.3,18
				C225,42.8,225.8,45.7,227.6,45.2L227.6,45.2z"/>
		</g>
	</g>
	<g>
		<g>
			<path class="st9" d="M318.6,36c-1.6-6-3.8-12.8-9.7-15.8c-3.4-1.7-7.4-1.6-11.1-1.8c-4.5-0.2-9.1-0.6-13.7-0.4
				c-8.1,0.3-15.1,5.9-22.1,9.6c-9,4.8-18.1,9.3-27.4,13.5c-1.8,0.8-0.2,3.4,1.5,2.6c7-3.1,13.9-6.4,20.6-9.9
				c7-3.6,13.7-8.2,20.9-11.3c6.7-2.9,15.7-1.4,22.8-0.9c9.7,0.6,12.8,6.7,15.1,15.2C316.2,38.7,319.1,37.9,318.6,36L318.6,36z"/>
		</g>
	</g>
	<g>
		<g>
			<path class="st9" d="M262.8,32.8c8.3-2,13.5-9.4,22.5-9.5c8.4,0,16.4,3.5,24.9,2.6c1.9-0.2,1.9-3.2,0-3c-9,1-17.5-3.1-26.4-2.5
				c-8.6,0.6-13.7,7.6-21.7,9.6C260.2,30.4,260.9,33.3,262.8,32.8L262.8,32.8z"/>
		</g>
	</g>
	<g>
		<g>
			<path class="st9" d="M276.3,28.7c6.6-7,16.9-6.5,25.8-5.8c1.9,0.1,1.9-2.9,0-3c-9.8-0.8-20.7-1-27.9,6.7
				C272.9,27.9,275,30.1,276.3,28.7L276.3,28.7z"/>
		</g>
	</g>
	<g>
		<g>
			<path class="st9" d="M279.1,27.9c8.7-2.8,17.5-4,26.6-3.5c1.9,0.1,1.9-2.9,0-3c-9.4-0.6-18.5,0.6-27.4,3.6
				C276.5,25.6,277.2,28.5,279.1,27.9L279.1,27.9z"/>
		</g>
	</g>
	<g>
		<g>
			<path class="st9" d="M304.9,24.2c7.2,6.4,10.7,16.1,7.3,25.3c-0.7,1.8,2.2,2.6,2.9,0.8c3.8-10.2-0.1-21.2-8-28.3
				C305.6,20.8,303.4,22.9,304.9,24.2L304.9,24.2z"/>
		</g>
	</g>
	<g>
		<g>
			<path class="st9" d="M317.1,35.1c-3,17.6-9.1,34.4-16.8,50.5c-6.8,14.4-14,29.1-22.6,42.5c-4.1,6.4-9.1,12.5-15.9,15.9
				c-8,4.1-17.3,3.7-26,2.7c-18.9-2.3-37.7-5.8-56.5-8.7c-1.9-0.3-2.7,2.6-0.8,2.9c19.6,3,39.3,6.9,59,9c16,1.7,29.4-2.2,39.4-15.4
				c5.1-6.7,8.9-14.3,12.8-21.7c4.3-8,8.5-16,12.4-24.1c8.1-16.9,14.7-34.4,17.8-52.9C320.3,34.1,317.4,33.2,317.1,35.1L317.1,35.1z
				"/>
		</g>
	</g>
	<g>
		<g>
			<path class="st9" d="M5.5,121.8c3.5,26.2,28.1,42.4,51.7,49.3c26.9,7.9,56.3,6.3,82.5-3.5c14.7-5.5,28.3-13.6,40.1-24
				c1.5-1.3-0.7-3.4-2.1-2.1c-25.3,22.2-59.3,33.4-92.9,31.3c-30.1-1.8-71.7-16.4-76.4-51C8.3,119.9,5.3,119.9,5.5,121.8L5.5,121.8z
				"/>
		</g>
	</g>
	<g>
		<g>
			<path class="st9" d="M7,121.9C3.6,91.3,1.1,58.4,21.3,32.7C40.9,7.8,71.7,0.2,102.1,4.2c18.1,2.4,35.7,7.9,53,13.5
				c1.8,0.6,2.6-2.3,0.8-2.9C124.6,4.6,89.6-6.2,57,4.3C30.1,12.9,9.6,36,3.8,63.6c-4.1,19.2-1.9,39,0.2,58.4
				C4.2,123.8,7.2,123.8,7,121.9L7,121.9z"/>
		</g>
	</g>
	<g>
		<g>
			<path class="st9" d="M180.6,142.3c1.9,0,1.9-3,0-3C178.7,139.3,178.7,142.3,180.6,142.3L180.6,142.3z"/>
		</g>
	</g>
	<g>
		<g>
			<path class="st9" d="M34.9,156.3C20.2,146.5,10,131.6,6,114.4c-0.4-1.9-3.3-1.1-2.9,0.8c4.2,17.9,15,33.5,30.2,43.7
				C35,160,36.5,157.4,34.9,156.3L34.9,156.3z"/>
		</g>
	</g>
	<g>
		<g>
			<path class="st9" d="M43.7,161c-3-2.2-5.9-4.3-8.9-6.5c-1.6-1.1-3.1,1.5-1.5,2.6c3,2.2,5.9,4.3,8.9,6.5
				C43.8,164.8,45.3,162.2,43.7,161L43.7,161z"/>
		</g>
	</g>
	<g>
		<g>
			<path class="st9" d="M51.8,167.3c-3-2.3-6.1-4.7-9.1-7c-1.5-1.2-3,1.4-1.5,2.6c3,2.3,6.1,4.7,9.1,7
				C51.9,171.1,53.4,168.5,51.8,167.3L51.8,167.3z"/>
		</g>
	</g>
	<g>
		<g>
			<path class="st9" d="M98.4,122.7c5.3-1.7,9.5,6.1,15.1,6c5.5-0.1,11.7-5.7,14.8-9.8c1.9-2.5,5.9-9.4,2.7-12.4
				c-1.5-1.4-4.8-0.8-6.5-0.7c-5.3,0.1-10.6,0.1-15.9,0.2c-1.9,0-1.9,3,0,3c3.3,0,6.6-0.1,9.9-0.1c1.5,0,8.9-1.1,9.9-0.1
				c1.9,1.9-1.4,7-2.7,8.6c-1.8,2.2-4.2,4.1-6.6,5.7c-2.9,2-5.6,3.2-9,1.6c-1.6-0.7-2.9-2-4.3-2.9c-2.6-1.8-5.1-3-8.3-2
				C95.7,120.4,96.5,123.3,98.4,122.7L98.4,122.7z"/>
		</g>
	</g>
	<g>
		<g>
			<path class="st11" d="M51.6,86c6.3,1.4,13.1,2.2,17.5-3.6c4.4-5.9,5.5-14.6,6-21.7c0.1-1.9-2.9-1.9-3,0
				c-0.4,5.6-1.4,11.5-3.7,16.7c-3.2,7.3-9.2,7.3-16.1,5.8C50.5,82.7,49.7,85.6,51.6,86L51.6,86z"/>
		</g>
	</g>
	<g>
		<g>
			<path class="st11" d="M44.2,47.7c3.6-16,26.4-7.5,35.7-2.2c2.4,1.4,4.6,3,6.4,5.1c1,1.2,1.9,3.4,3.5,4.1
				c3.7,1.4,8.8-4.4,11.3-6.3c1.5-1.1,0-3.7-1.5-2.6c-2.4,1.8-6.9,6.7-9.7,4.7c-1.8-1.3-3.1-3.7-5-5.2c-4.7-3.6-10.5-5.8-16.1-7.6
				c-9.9-3.3-24.8-3.6-27.7,9.2C40.9,48.8,43.8,49.6,44.2,47.7L44.2,47.7z"/>
		</g>
	</g>
	<g>
		<g>
			<path class="st11" d="M84.2,48.5c3.2-2.3,5.8-5.2,7.7-8.6c1-1.7-1.6-3.2-2.6-1.5c-1.7,3-3.9,5.5-6.7,7.6
				C81.1,47,82.6,49.6,84.2,48.5L84.2,48.5z"/>
		</g>
	</g>
	<g>
		<g>
			<path class="st11" d="M75.6,43.8c1.2-1.5,2.4-3,3.6-4.5c0.5-0.6,0.6-1.5,0-2.1c-0.5-0.5-1.6-0.6-2.1,0c-1.2,1.5-2.4,3-3.6,4.5
				c-0.5,0.6-0.6,1.5,0,2.1C74,44.4,75.1,44.5,75.6,43.8L75.6,43.8z"/>
		</g>
	</g>
	<g>
		<g>
			<path class="st11" d="M69.6,37.3c0-0.3,0-0.6,0-0.9c0-0.8-0.7-1.5-1.5-1.5c-0.8,0-1.5,0.7-1.5,1.5c0,0.3,0,0.6,0,0.9
				c0,0.8,0.7,1.5,1.5,1.5C68.9,38.8,69.6,38.1,69.6,37.3L69.6,37.3z"/>
		</g>
	</g>
	<g>
		<g>
			<path class="st11" d="M21.8,136.4c13.6,19.9,37,30.8,60.8,31.6c26.6,0.8,52.1-10.9,72.6-27.1c6-4.8,11.9-10,19.2-12.5
				c7.4-2.5,15.4-2,23-0.8c13.4,2.1,26.4,6.2,40.1,4.1c12.4-1.8,24.1-7.7,32.9-16.6c9.6-9.7,15.3-22.3,21.2-34.4
				c3.9-8,8-15.9,11.7-24.1c2.6-5.8,4.7-12.2,3.1-18.6c-2.4-9.5-15.3-15.6-21.4-5.6c-1,1.7,1.6,3.2,2.6,1.5
				c4.8-7.9,14.2-1.8,15.9,4.9c1.9,7.4-1.9,14.7-5.1,21.2c-5.6,11.5-10.9,23.2-17,34.4c-5.9,10.9-13.3,20.7-24.1,27.1
				c-10.5,6.2-22.7,8.7-34.8,7.4c-11.9-1.2-23.5-5.3-35.5-5.4c-11.6-0.1-20.6,4.5-29.4,11.6c-19.4,15.4-41,27.8-66.3,29.7
				c-25.5,1.9-52.2-8.3-66.9-29.9C23.4,133.3,20.8,134.8,21.8,136.4L21.8,136.4z"/>
		</g>
	</g>
</g>
</svg>
