<?xml version="1.0" encoding="utf-8"?>
<!-- Generator: Adobe Illustrator 23.0.3, SVG Export Plug-In . SVG Version: 6.00 Build 0)  -->
<svg version="1.1" id="Layer_1" xmlns="http://www.w3.org/2000/svg" xmlns:xlink="http://www.w3.org/1999/xlink" x="0px" y="0px"
	 viewBox="0 0 320 176.1" style="enable-background:new 0 0 320 176.1;" xml:space="preserve" width="106.7" height="58.7">
<style type="text/css">
	.st0{fill:url(#SVGID_1_);}
	.st1{fill:url(#SVGID_2_);}
	.st2{fill:#A5FFFD;}
	.st3{fill:#DE67FF;}
	.st4{fill:#CED9FF;}
	.st5{fill:#82C8FF;}
	.st6{fill:#FF259A;}
	.st7{fill:#F9D0FF;}
	.st8{fill:#FFFFFF;}
	.st9{fill:#4C20FF;}
	.st10{fill:#FFD0EE;}
	.st11{fill:#FFFD9D;}
</style>
<g>
	<g>

			<linearGradient id="SVGID_1_" gradientUnits="userSpaceOnUse" x1="50.2232" y1="-92.075" x2="48.4232" y2="-94.775" gradientTransform="matrix(-1 0 0 1 319.9848 0)">
			<stop  offset="0" style="stop-color:#69C5F7"/>
			<stop  offset="1" style="stop-color:#0071BC"/>
		</linearGradient>
		<path class="st0" d="M66.2,41.4c18.1,5.7,37.9,2.3,55.7-4.3s34.3-16.3,51.9-23.5C201.2,2.3,232.5-2.8,260.5,7
			c34.1,11.9,58.8,47.1,58,83.3c-0.8,36.2-27.3,70.4-62.2,79.8c-33.8,9.1-69.8-3.8-100.3-21c-10.2-5.8-21-12.3-32.7-11.6
			c-11.2,0.7-20.9,7.8-31.8,10.3c-15.6,3.6-32.1-2.9-44.1-13.4c-12-10.6-20-24.8-26.9-39.2C11.9,77.3,4.7,58.6,1.9,39
			c-0.5-3.6-0.7-7.7,1.9-10.3c1.5-1.5,3.7-2.1,5.8-2.5c20.6-4.4,43,0.4,60,12.8"/>
		<g>
			<linearGradient id="SVGID_2_" gradientUnits="userSpaceOnUse" x1="1.0665" y1="87.4366" x2="319.0674" y2="87.4366">
				<stop  offset="0" style="stop-color:#A8FFFF"/>
				<stop  offset="0.1198" style="stop-color:#9DF6FB"/>
				<stop  offset="0.3316" style="stop-color:#7FDCEF"/>
				<stop  offset="0.6106" style="stop-color:#4FB3DB"/>
				<stop  offset="0.9427" style="stop-color:#0C7BC1"/>
				<stop  offset="1" style="stop-color:#0071BC"/>
			</linearGradient>
			<path class="st1" d="M65.8,42.8c26.8,8,53.8-2.1,78-13.6c26.8-12.8,53.4-25.7,83.8-25.9c26.3-0.2,50.9,9.8,68.2,29.9
				c15.6,18.1,24,42.7,20.4,66.6c-3.5,23.1-17.2,44.4-36.3,57.6c-22.5,15.5-50.4,16.9-76.3,10.1C190,164,177,158.5,164.5,152
				c-11.1-5.8-22-13.8-34.6-15.7c-13.3-1.9-24.1,5.8-36.3,9.4c-13.5,3.9-27.7,0-39-7.7c-12.6-8.5-21.3-21.5-28.3-34.7
				C18.6,88.8,12,73.6,7.5,57.9c-2-7.1-4.7-15.6-4.4-23c0.4-9.3,15.6-8.8,22.5-8.7c15.5,0.2,30.5,5.2,43.2,14.2
				c1.6,1.1,3.1-1.5,1.5-2.6C59.5,30,46.9,25.2,33.7,23.7c-6.6-0.8-13.2-0.7-19.8,0.3C9,24.6,3,25.4,0.9,30.5
				C-1.3,35.8,0.9,43,2,48.3c1.6,7.6,3.8,15.1,6.5,22.4c5,13.7,11.1,27.3,18.4,39.9c12.6,21.8,34.5,43.3,61.9,39.2
				c15.3-2.3,27.7-13.8,43.9-9.9c7.6,1.8,14.4,5.8,21.1,9.6c6.7,3.8,13.4,7.3,20.4,10.5c25.9,11.8,55.8,19.3,83.9,11.1
				c22.8-6.6,41.9-23.6,52.6-44.6c11-21.6,12.3-46.5,3.3-69c-8.8-22.2-26.5-41.1-48.7-50.3c-27.2-11.3-58.2-7.5-85.2,2.3
				c-29.8,10.9-56.9,31.1-89.4,33.1c-8.2,0.5-16.2-0.4-24-2.7C64.8,39.4,64,42.3,65.8,42.8L65.8,42.8z"/>
		</g>
	</g>
	<g>
		<g>
			<path class="st2" d="M64.9,41.6c3.3,0.4,6.6,0.8,9.9,1.3c1.9,0.2,1.9-2.8,0-3c-3.3-0.4-6.6-0.8-9.9-1.3
				C63,38.4,63,41.4,64.9,41.6L64.9,41.6z"/>
		</g>
	</g>
	<g>
		<g>
			<path class="st3" d="M128.5,37.6c4.9,2,10.8,4.5,13.4,9.4c3.2,5.9-1.1,12.7-3.1,18.3c-3.1,8.9-5.3,18.9-2.8,28.2
				c1.2,4.4,3.5,8,6.3,11.5c3.3,4.3,7.3,9.1,5.4,14.9c-2.4,7.1-10.3,11.3-8.7,19.6c0.4,1.9,3.3,1.1,2.9-0.8
				c-1.7-8.9,10.6-14.3,9.2-23.8c-0.7-4.6-3.9-8.4-6.7-12c-4-5.3-6.4-10.7-6.5-17.5c-0.1-6.1,1.3-12.1,3.2-17.8
				c1.7-5.2,4.9-10.4,4.9-16c0-9.3-9.4-13.9-16.8-16.9C127.5,34,126.7,36.9,128.5,37.6L128.5,37.6z"/>
		</g>
	</g>
	<g>
		<g>
			<path class="st3" d="M135,138.7c-1.9-1.2-1.3-5.2-0.5-6.9c0.5-1.1,1.2-2.1,1.8-3.2c0.9-1.9,1.5-3.8,1.7-5.9c0.4-4-0.5-8-1.9-11.7
				c-3.9-10.2-11.2-18.3-10.2-29.9c0.8-9.2,4.5-18.8,1.4-27.9c-2.4-7.1-8.2-12.2-15.3-14.4c-1.8-0.6-2.6,2.3-0.8,2.9
				c12,3.7,15.4,14.9,13.7,26.3c-1.3,9.1-3.6,17.9-0.1,26.8c3.7,9.3,12.6,18.9,9.9,29.6c-1.3,5.4-8.2,12.5-1.1,16.9
				C135.2,142.3,136.7,139.7,135,138.7L135,138.7z"/>
		</g>
	</g>
	<g>
		<g>
			<path class="st3" d="M105.3,40.7c-3.2,7.6,4.1,12.9,5.9,19.8c1.7,6.4-1.5,10.9-3.2,16.6c-1.2,4-0.7,8.1,0.8,12
				c3.5,9,12.3,16.2,13.3,26.1c0.8,7.4-8.5,15.1-2.3,21.9c1.3,1.4,3.4-0.7,2.1-2.1c-4-4.4,2-10.3,3-14.8c0.6-2.9,0.3-6-0.5-8.8
				c-2.2-7.7-8-13.4-11.5-20.4c-3-5.9-3.2-10.8-0.6-16.9c1.3-2.9,2.3-5.8,2.4-9c0.1-3.1-0.7-6.2-2-9c-2-4.1-7-9-4.9-13.9
				C108.6,40.4,106,38.9,105.3,40.7L105.3,40.7z"/>
		</g>
	</g>
	<g>
		<g>
			<path class="st3" d="M118,139c-7.5-6.6-2.5-18-4.7-26.6c-1.8-7-6.5-12.8-10.1-18.8c-2-3.4-3.9-7-4.5-10.9
				c-0.8-5.1,1.2-9.7,1.9-14.7c1.1-8-3-14.5-7.4-20.8c-1.1-1.6-3.7-0.1-2.6,1.5c2.7,3.9,5.8,8.1,6.8,12.8c1.2,5.4-1.1,10.2-1.8,15.5
				c-0.9,7.1,2,13.4,5.7,19.2c4.5,7.2,9.7,14,9.8,22.8c0.1,7.8-1.8,16.2,4.8,22C117.4,142.4,119.5,140.2,118,139L118,139z"/>
		</g>
	</g>
	<g>
		<g>
			<path class="st3" d="M81.2,47c9.4,5.3,4.8,17.7,2.9,25.7c-1.8,7.7-1,14.5,2.1,21.7c3.6,8.2,8.8,15.8,9.6,25
				c0.7,9.2,1.8,17,6.9,25c1,1.6,3.6,0.1,2.6-1.5c-2.8-4.3-4.8-9-5.7-14.1c-0.9-5.1-0.4-10.3-1.7-15.4c-2.2-8.6-7.7-15.9-10.5-24.3
				c-3.2-10,1.6-18.3,2.5-28.1c0.6-6.4-1.3-13.2-7.1-16.5C81,43.5,79.5,46,81.2,47L81.2,47z"/>
		</g>
	</g>
	<g>
		<g>
			<path class="st4" d="M74.2,44.9c11.5,3.5,8.9,18,7.5,26.8c-1.3,8.8-0.8,17.7,2.1,26.2c2.9,8.4,9.2,15.5,11.2,24.1
				c1.8,8.1-1.4,16.6,3.1,24.1c1,1.7,3.6,0.1,2.6-1.5c-3-4.9-2.1-10.4-2.1-15.8c0-4-0.6-7.8-2-11.5c-4-10.1-10.5-18.2-12.1-29.3
				c-1.5-10.7,2.9-21.1,1.4-31.7C85,49.8,81.4,44,75,42C73.2,41.5,72.4,44.4,74.2,44.9L74.2,44.9z"/>
		</g>
	</g>
	<g>
		<g>
			<path class="st4" d="M113.3,141.9c-2.7-5-5.5-10.3-4.1-16.2c0.8-3.4,2.4-6.4,2.7-9.9c0.6-7.4-2.8-14.5-6.8-20.4
				c-7.7-11.2-26.6-29.3-12.3-43.1c1.4-1.3-0.7-3.5-2.1-2.1c-12.1,11.7-2.4,28.4,5.9,39c6.8,8.6,14.9,18.7,11.6,30.4
				c-1.2,4.3-2.9,7.7-2.2,12.3c0.6,4.2,2.7,8,4.7,11.6C111.6,145.1,114.2,143.6,113.3,141.9L113.3,141.9z"/>
		</g>
	</g>
	<g>
		<g>
			<path class="st4" d="M96.6,46.9c5.7,6.6,8.6,17.1,9.2,25.7c0.3,4.2-1,8.2,0.1,12.3c0.8,3.3,2.7,6.3,4.4,9.2
				c4.5,7.8,5.2,15.2,5.3,24c0.1,7,0.5,13.9,4.3,20c1,1.6,3.6,0.1,2.6-1.5c-4.7-7.7-3.6-16.7-4-25.3c-0.4-7.6-2.6-13.4-6.3-20
				c-2.5-4.4-3.8-8.2-3.5-13.3c0.3-4.5-0.1-8.4-1.1-12.8c-1.6-7.4-3.7-14.5-8.8-20.4C97.5,43.3,95.4,45.5,96.6,46.9L96.6,46.9z"/>
		</g>
	</g>
	<g>
		<g>
			<path class="st4" d="M124.1,141.6c11.8-11,4.8-28-0.7-40.3c-2.4-5.3-4.8-10.9-5.4-16.8c-0.5-5.4,1.2-10,2.6-15.1
				c2.6-9.2-0.7-16.8-5.2-24.8c-1-1.7-3.5-0.2-2.6,1.5c2.7,4.8,5.8,9.9,6,15.5c0.1,4.3-1.6,8.3-2.7,12.4c-2,7.5-0.9,14.6,1.9,21.8
				c4.8,12.7,17,31.6,4.1,43.6C120.6,140.8,122.7,142.9,124.1,141.6L124.1,141.6z"/>
		</g>
	</g>
	<g>
		<g>
			<path class="st4" d="M122,41.7c1.8-1.6,4.7-4,7.3-3.8c3.2,0.3,3.7,3.8,4.5,6.2c1.6,4.7,3.2,9.8,2.7,14.8
				c-0.5,4.5-3.1,8.3-3.9,12.7c-0.6,3.1-0.1,6.2,0.7,9.2c2.2,8.8,4.7,16.9,5,26c0.2,4.3,0.1,8.6-0.1,12.9c-0.2,4.3,0.9,13-2.6,16.2
				c-1.4,1.3,0.7,3.4,2.1,2.1c3.1-2.8,2.9-7,3.1-10.9c0.4-6.1,0.7-12.3,0.5-18.4c-0.2-5.6-0.7-11.3-1.8-16.8
				c-1.3-6.3-5.1-13.1-3.9-19.7c1-5.6,4.1-10.1,4-16c-0.2-5.5-1.9-11.1-4-16.1c-3.2-7.9-10.6-5-15.7-0.5
				C118.4,40.9,120.5,43,122,41.7L122,41.7z"/>
		</g>
	</g>
	<g>
		<g>
			<path class="st4" d="M96.3,145.3c0.7-10.8-3.6-18.6-9.4-27.3c-7-10.5-7-23.7-8.5-35.8c-2-16-0.9-43.7-20.6-49.1
				C56,32.6,55.2,35.5,57,36C67.3,38.9,71,49.4,72.5,58.8c1.7,10.9,2.8,21.9,4.2,32.9c1.1,8.5,1.5,17.5,5.9,25.1
				c2.2,3.8,5,7.1,7.1,10.9c2.9,5.5,4,11.4,3.6,17.6C93.2,147.2,96.2,147.2,96.3,145.3L96.3,145.3z"/>
		</g>
	</g>
	<g>
		<path class="st5" d="M221.2,122.6c5.8-6.8,2.3-18-4.8-23.4c-7.1-5.4-16.5-6.4-25.4-7c-6.1-0.4-13.6,0-16.4,5.5
			c-1.8,3.5-0.7,7.8,0.4,11.6c2,7,4.1,14.3,8.8,19.9c4.7,5.6,12.6,9.2,19.4,6.5c6-2.3,10.9-9,17.1-7.5"/>
	</g>
	<g>
		<path class="st5" d="M233.9,42.7c6.7-3.3,14.7-3,21.8-0.8s13.5,6.1,19.9,10c3.5,2.1,7.1,4.5,8.8,8.1c2.4,5.1,0.1,11.4-3.9,15.3
			s-9.4,6-14.8,7.7c-5.1,1.7-10.3,3.2-15.6,2.7c-9.9-0.9-17.7-8.4-24.6-15.5c-3.7-3.8-7.7-8.2-7.3-13.5c0.3-4,3.2-7.5,6.7-9.5
			c3.5-2,7.5-2.8,11.5-3.6"/>
	</g>
	<g>
		<g>
			<path class="st5" d="M221.9,128.4c1.5-3.7,3.1-7.5,4.6-11.2c0.7-1.8-2.2-2.6-2.9-0.8c-1.5,3.7-3.1,7.5-4.6,11.2
				C218.3,129.4,221.2,130.2,221.9,128.4L221.9,128.4z"/>
		</g>
	</g>
	<g>
		<path class="st5" d="M189.5,92c-6.8,1.7-13.5,3.3-20.3,5c-1.1,0.3-2.3,0.6-3.2,1.4c-2.1,1.9-1.5,5.3-0.6,8
			c3.1,9.6,6.9,19.7,14.7,26.1c7.8,6.4,20.9,7.6,27.3-0.3"/>
	</g>
	<g>
		<g>
			<path class="st6" d="M73.9,43.4c6.3,6.8,4.2,16.9,3.6,25.3c-0.6,9,0.6,18,2.9,26.7c2.4,9.1,5.8,17.9,8.9,26.7
				c2.1,5.9,9.2,20.6,0.9,24.5c0.7,0.3,1.5,0.6,2.2,0.9c-0.9-5.1-2.5-10-4.8-14.6c-2.8-5.4-7-9.6-10-14.8c-3.2-5.7-4.2-12.6-5.6-19
				c-1.5-6.6-2.8-13.3-3.9-20c-1.1-6.9-1.8-13.8-1.9-20.7c-0.1-6.1,1.2-12.1,1.1-18.2c0-4.4-2.4-6.3-6.2-8.1
				c-5.8-2.8-11.7-5.4-17.5-8.1c-1.4-0.7-3.2,1.1-1.8,2.4c7.7,7,7.8,17.6,7.8,27.3c0,10,1.8,18,5.7,27.1c2.1,4.9,3.7,9.6,4.2,15
				c0.4,4.7,0.3,9.4,0.5,14c0.5,7.9,2.4,14.6,7.9,20.4c1.5,1.6,3.1,3,4.5,4.6c1.5,1.8,5.1,6.4,4,9c-2.4,5.6-5.3-1.1-6.1-2.2
				c-1.2-1.7-2.6-3.3-4.1-4.7c-3.1-3-6.7-5.6-9.1-9.2c-3-4.4-3.9-9.7-4.3-15c-0.5-8.2,0.4-16.5-1.9-24.5c-2.6-8.8-8.6-16-11.6-24.6
				c-3.6-10.4-0.7-22-4.8-32.3c-2.6-6.6-9.9-11.9-16.5-7.1c-0.8,0.6-1,1.6-0.3,2.4c3.4,3.9,6.9,7.9,9.1,12.7
				c2.9,6.3,1.6,12.4,0.4,18.9c-0.7,4-1.1,8.2,0.2,12.2c1.3,4,4.1,7.2,6.6,10.5c6.5,8.7,5.1,18.7,6.7,28.8c1.7,10.8,5.1,21.2,10,31
				c0.6-0.7,1.1-1.5,1.7-2.2c-11.8-1.8-13-15.1-14.6-24.5c-1.7-10-5-19.7-9.8-28.6C18.9,68.3-2.2,47.7,10.8,27.4
				c1-1.6-1.6-3.1-2.6-1.5C-5.2,46.8,14.7,67.7,24.5,85c6.5,11.4,9.2,23.3,11.4,36.1c1.6,8.8,5.7,18.5,15.7,20
				c1.3,0.2,2.3-1,1.7-2.2c-5.5-11-9.2-22.9-10.3-35.2c-0.5-4.8-0.3-9.7-1.3-14.4c-1-4.4-3.3-7.8-5.9-11.3
				c-3.3-4.3-6.2-8.1-6.2-13.8c0-5.3,2-10.5,2.1-15.8c0.3-9.6-5.9-17.2-11.8-24c-0.1,0.8-0.2,1.6-0.3,2.4C26.9,21.5,31.9,31,33,36.9
				c1.2,5.8,0.9,11.8,1.4,17.6c1,9.8,5.5,17.4,10,25.9c5.1,9.7,4.9,19.2,5.3,29.8c0.3,8.1,1.7,15.8,7.3,22c2.8,3.1,6.3,5.6,9.1,8.8
				c2.2,2.5,3.7,7.5,7.3,8.5c6.6,1.9,6.5-7.3,4.9-11.2c-1.7-3.9-4.8-6.7-7.7-9.7c-4.4-4.6-6.6-9.5-7.3-15.8c-1-9,0.2-18.1-2.7-26.8
				c-1.8-5.4-4.7-10.4-6.3-15.9c-1.9-6.6-1.6-13.4-1.7-20.2c-0.1-9.3-1.5-19-8.7-25.6c-0.6,0.8-1.2,1.6-1.8,2.4
				c5.3,2.5,10.5,4.9,15.8,7.4c3.4,1.6,6.2,3.5,6.3,7.7c0,3-0.7,6.1-0.9,9.1c-0.6,11.7,0.8,23.4,2.9,35c1.9,10.5,3.2,22.8,7.9,32.4
				c2.4,4.9,6.3,8.8,9.2,13.5c3.1,5.2,5.1,10.8,6.2,16.8c0.2,1,1.4,1.3,2.2,0.9c6.4-3.1,5.7-11.2,4.1-17.1
				c-3.1-11-7.7-21.6-11.1-32.6c-3.4-11.2-5-22.2-4-33.9c0.7-8.6,1.6-17.7-4.7-24.4C74.7,39.9,72.6,42,73.9,43.4L73.9,43.4z"/>
		</g>
	</g>
	<g>
		<g>
			<path class="st7" d="M18.6,24.8c8.8,7.5,12.2,18.4,15.2,29.2c3.5,12.7,7,25.4,10.5,38.1c3.2,11.5,5.9,23.3,9.7,34.6
				c2.7,8.1,6.8,16,14.6,20.2c1.7,0.9,3.2-1.7,1.5-2.6c-9.4-5-12.6-15.5-15.2-25.1c-3.5-12.4-6.9-24.9-10.3-37.3
				c-3.2-11.5-6.1-23.2-9.7-34.7C32.1,38,28.2,29,20.7,22.6C19.2,21.4,17.1,23.5,18.6,24.8L18.6,24.8z"/>
		</g>
	</g>
	<g>
		<g>
			<path class="st7" d="M71.4,146.5c2.5,0.7,4.9-0.8,5.1-3.5c0.2-2.1-1.4-4.1-2.5-5.7c-1.7-2.5-3.4-5.1-4.9-7.8
				c-6.1-10.8-9.9-22.8-12.8-34.8c-2.9-12.2-4.9-24.5-7.2-36.8c-1.9-10.3-3.5-21.4-11.6-28.7c-1.4-1.3-3.6,0.8-2.1,2.1
				c7.5,6.8,9,17,10.7,26.5c1.9,10.4,3.6,20.8,5.8,31.2c2,9.6,4.5,19.1,8.1,28.2c1.6,4,3.3,7.9,5.3,11.7c1.2,2.2,2.4,4.4,3.7,6.5
				c0.7,1.2,1.5,2.3,2.3,3.5c0.1,0.2,3.7,5.6,0.7,4.8C70.4,143.1,69.6,145.9,71.4,146.5L71.4,146.5z"/>
		</g>
	</g>
	<g>
		<g>
			<path class="st7" d="M63.3,37.5c-2.5,19.3-4.5,38.7,1.7,57.6c5.6,17.2,15.3,32.8,18.9,50.7c0.4,1.9,3.3,1.1,2.9-0.8
				c-3.5-17.3-12.7-32.5-18.4-49.1c-6.5-19.2-4.7-38.6-2.1-58.4C66.5,35.6,63.5,35.6,63.3,37.5L63.3,37.5z"/>
		</g>
	</g>
	<g>
		<g>
			<path class="st7" d="M113.6,143c-6.7-6.5-5.1-15.9-4.5-24.2c0.6-7.9-0.5-14.5-4.6-21.4c-4.1-6.9-8.8-13-11.9-20.5
				c-3.4-8.4-5.1-17.3-5.2-26.4c0-1.9-3-1.9-3,0c0.1,8.8,1.6,17.5,4.7,25.7c3,7.8,7.6,14.3,11.9,21.3c2.6,4.2,4.7,8.6,5.1,13.6
				c0.4,5.1-0.6,10.2-0.8,15.3c-0.3,6.8,0.9,13.7,6,18.7C112.9,146.5,115,144.4,113.6,143L113.6,143z"/>
		</g>
	</g>
	<g>
		<g>
			<path class="st7" d="M96.9,52.1c7.6,9.9,1.9,22.7,5,33.9c1.4,4.9,4.4,8.9,6.6,13.5c3,6.3,2.7,12.9,2.1,19.7c-0.2,1.9,2.8,1.9,3,0
				c0.5-5.7,1-11.6-0.8-17.2c-1.9-6-6.3-10.8-8-16.8c-3.2-11.5,2.6-24.3-5.3-34.6C98.3,49.1,95.7,50.6,96.9,52.1L96.9,52.1z"/>
		</g>
	</g>
	<g>
		<g>
			<path class="st7" d="M111,46.6c9.1,3.3,6.3,15.9,6.4,23.3c0.1,6.7,0.8,13.4,2,20c1.3,6.9,3.3,13.5,5.5,20.2
				c2.2,6.8,4.5,14.3,0.4,20.8c-1,1.6,1.6,3.1,2.6,1.5c3.7-5.7,3.1-12.2,1.3-18.5c-2.4-8.9-5.7-17.4-7.2-26.6
				c-1.6-9.9-0.9-19.6-1.4-29.5c-0.3-6.1-2.7-11.8-8.8-14.1C110,43,109.2,45.9,111,46.6L111,46.6z"/>
		</g>
	</g>
	<g>
		<g>
			<path class="st7" d="M113.2,135.3c-3.2-5.1-3.7-11.1-1-16.6c0.8-1.7-1.8-3.3-2.6-1.5c-3.1,6.4-2.8,13.6,1,19.6
				C111.6,138.4,114.2,136.9,113.2,135.3L113.2,135.3z"/>
		</g>
	</g>
	<g>
		<g>
			<path class="st7" d="M120.6,43.1c4.3,2.1,3.9,10.1,4.1,14.1c0.3,4,0.2,8,0,12.1c-0.3,7.1-1,14.4,0.8,21.4c2,8,8.9,12.3,11.8,19.7
				c3.2,8.1,1.2,17.3-0.5,25.4c-0.4,1.9,2.5,2.7,2.9,0.8c1.7-7.8,3.3-16.2,1.4-24.1c-2.2-9.4-11.2-14.5-13-24.1
				c-1.8-9.4,0.1-19.1-0.2-28.5c-0.2-5.6,0.4-16.5-5.7-19.4C120.4,39.6,118.8,42.2,120.6,43.1L120.6,43.1z"/>
		</g>
	</g>
	<g>
		<g>
			<path class="st7" d="M133.9,87.6c-1-9.3-2-18.6-2.9-27.9c-0.7-6.9-0.5-14.9-4.5-20.8c-1.1-1.6-3.7-0.1-2.6,1.5
				c4.2,6.4,3.7,15.8,4.5,23.2c0.8,8,1.7,16,2.5,24C131.1,89.5,134.1,89.6,133.9,87.6L133.9,87.6z"/>
		</g>
	</g>
	<g>
		<g>
			<path class="st7" d="M130.4,81.8c-1,7.3,0.1,14.3,3.5,20.9c0.9,1.7,3.5,0.2,2.6-1.5c-3-5.8-4.1-12.1-3.2-18.6
				C133.5,80.7,130.6,79.9,130.4,81.8L130.4,81.8z"/>
		</g>
	</g>
	<g>
		<g>
			<path class="st7" d="M134.1,34c4.3,3,8.6,5.9,12.9,9c3.7,2.7,4.9,5.7,3.9,10.2c-0.5,2.2-1.1,4.3-1.8,6.4
				c-2.9,8.8-7,17.2-7.8,26.5c-0.8,9.7,3.4,18,6.8,26.8c3.4,8.7,5.5,20-2.3,26.9c-1.5,1.3,0.7,3.4,2.1,2.1c6.6-5.8,7.3-14.9,5.4-23
				c-2.8-12.1-10.6-22-8.7-35c1.7-11.4,8.5-21.5,9.8-33c0.4-3.9-0.7-6.4-3.6-8.9c-4.7-3.9-10.1-7.1-15.1-10.6
				C134.1,30.3,132.6,32.9,134.1,34L134.1,34z"/>
		</g>
	</g>
	<g>
		<g>
			<path class="st7" d="M147.5,143.7c8.8-1,14.8-8.4,16.4-16.8c2.4-12.6-4.7-24.4-7.8-36.2c-2-7.6-2-15.1,1.5-22.2
				c2.5-5.2,6.1-9.8,8.6-15c5.8-11.8,3.3-24,0.1-36.1c-0.5-1.9-3.4-1.1-2.9,0.8c3.4,12.7,5.4,24.6-1.3,36.6
				c-4.6,8.3-10.4,15.8-10.5,25.7c-0.1,10.9,5.3,20.8,8.1,31.1c2.8,10.6,1.8,27.5-12.3,29.2C145.6,140.9,145.6,143.9,147.5,143.7
				L147.5,143.7z"/>
		</g>
	</g>
	<g>
		<path d="M249,67c0.8-5.6,2.5-11,5.1-16c0.5-0.9,1-1.8,1.9-2.2c0.7-0.3,1.6-0.2,2.3,0c3.9,0.8,7.4,3,10.3,5.8
			c4.6,4.4,7.7,10.5,7.5,16.9c-0.2,6.3-4,12.7-9.9,14.9s-13.5-0.4-16.1-6.2c-2.4-5.4-0.2-11.7-1-17.6"/>
	</g>
	<g>
		<g>
			<path class="st8" d="M261.5,61.6c0.1-2-0.4-3.8-1.5-5.4c-0.5-0.7-1.7-1.1-2.4-0.3c-3,3.4-1.4,9.1,2.9,10.4
				c1.9,0.5,2.6-2.3,0.8-2.9c-2.1-0.6-3.1-3.7-1.6-5.4c-0.8-0.1-1.6-0.2-2.4-0.3c0.8,1.2,1.2,2.4,1.1,3.9
				C258.3,63.5,261.3,63.5,261.5,61.6L261.5,61.6z"/>
		</g>
	</g>
	<g>
		<g>
			<path class="st8" d="M256.4,74.8c1.9,0,1.9-3,0-3C254.4,71.8,254.4,74.8,256.4,74.8L256.4,74.8z"/>
		</g>
	</g>
	<g>
		<g>
			<path class="st9" d="M310.5,126.5c-20,0.6-42,0.6-58-13.4c-1.4-1.3-3.6,0.8-2.1,2.1c16.6,14.6,39.1,14.9,60.1,14.3
				C312.5,129.4,312.5,126.4,310.5,126.5L310.5,126.5z"/>
		</g>
	</g>
	<g>
		<path class="st10" d="M224.8,91.3c4.7-2.9,11.6-1.4,14.7,3.2c3.2,4.6,2.1,11.5-2.2,14.9c-1.3,1-2.8,1.7-4.4,1.7
			c-1.4,0-2.8-0.6-4-1.3c-5.9-3.7-7.9-12.5-4-18.4"/>
	</g>
	<g>
		<g>
			<path class="st9" d="M165.4,15c-13.6,6.1-27.3,12.1-41,18.1c-13.7,6-27.6,12.2-42.9,9.4C57,38,35.2,16.3,8.9,24.7
				c-1.8,0.6-1,3.5,0.8,2.9C37.6,18.6,60.9,45.1,88,46.2c13.1,0.6,25.3-5.1,37-10.2c14-6.1,28-12.2,41.9-18.5
				C168.6,16.8,167.1,14.2,165.4,15L165.4,15z"/>
		</g>
	</g>
	<g>
		<g>
			<path class="st9" d="M78.7,40.7c-18-3.2-32.9-18.4-51.9-16.6c-1.9,0.2-1.9,3.2,0,3c18.6-1.7,33.4,13.4,51.1,16.5
				C79.8,43.9,80.6,41.1,78.7,40.7L78.7,40.7z"/>
		</g>
	</g>
	<g>
		<g>
			<path class="st9" d="M73.2,38.4c-16.6-9.5-35.3-14.1-54.4-13.2c-1.9,0.1-1.9,3.1,0,3c18.6-0.9,36.8,3.5,52.9,12.8
				C73.3,41.9,74.9,39.4,73.2,38.4L73.2,38.4z"/>
		</g>
	</g>
	<g>
		<g>
			<path class="st9" d="M93.1,42.4c-18.5-4.6-36.6-10.6-54.3-18c-1.8-0.7-2.6,2.2-0.8,2.9c17.6,7.3,35.7,13.3,54.3,18
				C94.2,45.7,95,42.8,93.1,42.4L93.1,42.4z"/>
		</g>
	</g>
	<g>
		<g>
			<path class="st9" d="M4.3,36.8c2.2-8,5-14.5,14.3-15.2c7.3-0.6,16.9-2.1,23.7,0.9c6.9,3,13.4,7.4,20.1,10.8
				c7.1,3.7,14.2,7.1,21.5,10.4c1.7,0.8,3.3-1.8,1.5-2.6c-9.3-4.2-18.4-8.7-27.4-13.5C51,23.9,44,18.4,35.9,18
				c-4.5-0.2-9.1,0.2-13.7,0.4c-3.7,0.2-7.7,0.1-11.1,1.8C5.2,23.2,3,30.1,1.4,36C0.9,37.9,3.8,38.7,4.3,36.8L4.3,36.8z"/>
		</g>
	</g>
	<g>
		<g>
			<path class="st9" d="M58,29.9c-8-1.9-13.1-9-21.7-9.6c-8.9-0.6-17.5,3.5-26.4,2.5c-1.9-0.2-1.9,2.8,0,3
				c8.5,0.9,16.4-2.6,24.9-2.6c9,0.1,14.2,7.5,22.5,9.5C59,33.3,59.8,30.4,58,29.9L58,29.9z"/>
		</g>
	</g>
	<g>
		<g>
			<path class="st9" d="M45.8,26.5c-7.2-7.6-18.2-7.4-27.9-6.7c-1.9,0.1-1.9,3.1,0,3c8.9-0.7,19.1-1.2,25.8,5.8
				C45,30.1,47.1,27.9,45.8,26.5L45.8,26.5z"/>
		</g>
	</g>
	<g>
		<g>
			<path class="st9" d="M41.7,25c-8.9-2.9-18.1-4.1-27.4-3.6c-1.9,0.1-1.9,3.1,0,3c9.1-0.5,17.9,0.6,26.6,3.5
				C42.7,28.5,43.5,25.6,41.7,25L41.7,25z"/>
		</g>
	</g>
	<g>
		<g>
			<path class="st9" d="M13,22.1c-7.9,7-11.8,18.1-8,28.3c0.7,1.8,3.6,1,2.9-0.8c-3.4-9.2,0.1-19,7.3-25.3
				C16.5,22.9,14.4,20.8,13,22.1L13,22.1z"/>
		</g>
	</g>
	<g>
		<g>
			<path class="st9" d="M0,35.9c3.1,18.5,9.8,36,17.8,52.9c3.9,8.1,8.1,16.1,12.4,24.1c4,7.4,7.8,15,12.8,21.7
				c10,13.2,23.3,17.1,39.4,15.4c19.7-2.1,39.4-5.9,59-9c1.9-0.3,1.1-3.2-0.8-2.9c-18.8,2.9-37.6,6.3-56.5,8.7
				c-8.7,1.1-18,1.4-26-2.7c-6.8-3.5-11.8-9.6-15.9-15.9c-8.6-13.4-15.8-28.1-22.6-42.5C12,69.6,5.8,52.8,2.9,35.1
				C2.5,33.2-0.3,34.1,0,35.9L0,35.9z"/>
		</g>
	</g>
	<g>
		<g>
			<path class="st9" d="M311.4,121.8c-4.6,34.6-46.3,49.2-76.4,51c-33.6,2-67.5-9.1-92.9-31.3c-1.4-1.3-3.6,0.8-2.1,2.1
				c20.9,18.3,47.3,29.3,75,31.9c26.8,2.5,56.6-2.8,78.3-19.6c11-8.6,19.2-20.1,21.1-34.1C314.7,119.9,311.7,119.9,311.4,121.8
				L311.4,121.8z"/>
		</g>
	</g>
	<g>
		<g>
			<path class="st9" d="M316,121.9c3.5-31.3,5.7-64.5-14.7-90.8C282,6.4,251.7-2.4,221.3,0.8c-19.6,2.1-38.5,7.9-57.2,14
				c-1.8,0.6-1,3.5,0.8,2.9c30-9.7,63.2-20.3,94.7-11.3c28.2,8,49,32,54.2,60.6c3.3,18.1,1.2,36.8-0.8,54.9
				C312.7,123.8,315.7,123.8,316,121.9L316,121.9z"/>
		</g>
	</g>
	<g>
		<g>
			<path class="st9" d="M139.4,142.3c1.9,0,1.9-3,0-3C137.4,139.3,137.4,142.3,139.4,142.3L139.4,142.3z"/>
		</g>
	</g>
	<g>
		<g>
			<path class="st9" d="M286.6,158.9c15.3-10.2,26.1-25.7,30.2-43.7c0.4-1.9-2.5-2.7-2.9-0.8c-4,17.2-14.2,32.1-28.9,41.9
				C283.5,157.4,285,160,286.6,158.9L286.6,158.9z"/>
		</g>
	</g>
	<g>
		<g>
			<path class="st9" d="M277.8,163.6c3-2.2,5.9-4.3,8.9-6.5c1.5-1.1,0-3.7-1.5-2.6c-3,2.2-5.9,4.3-8.9,6.5
				C274.7,162.2,276.2,164.8,277.8,163.6L277.8,163.6z"/>
		</g>
	</g>
	<g>
		<g>
			<path class="st9" d="M269.7,169.9c3-2.3,6.1-4.7,9.1-7c1.5-1.2,0-3.8-1.5-2.6c-3,2.3-6.1,4.7-9.1,7
				C266.6,168.5,268.1,171.1,269.7,169.9L269.7,169.9z"/>
		</g>
	</g>
	<g>
		<g>
			<path class="st9" d="M222.4,119.8c-2.9-0.9-5.3,0-7.8,1.7c-1.6,1-3,2.4-4.8,3.3c-3.5,1.7-6.1,0.4-9-1.6c-2.4-1.6-4.7-3.5-6.6-5.7
				c-1.2-1.5-4.7-6.8-3-8.4c1.3-1.2,7.3-0.2,9.2-0.1c3.6,0,7.3,0.1,10.9,0.1c1.9,0,1.9-3,0-3c-5.3-0.1-10.6-0.1-15.9-0.2
				c-1.8,0-5.1-0.7-6.5,0.7c-3.2,3.1,0.8,9.9,2.7,12.4c3.1,4,9.4,9.7,14.8,9.8c5.6,0.1,9.8-7.7,15.1-6
				C223.5,123.3,224.3,120.4,222.4,119.8L222.4,119.8z"/>
		</g>
	</g>
	<g>
		<g>
			<path class="st11" d="M267.6,83.1c-6.8,1.5-12.9,1.5-16.1-5.8c-2.3-5.2-3.2-11.1-3.7-16.7c-0.1-1.9-3.1-1.9-3,0
				c0.5,7.1,1.6,15.9,6,21.7c4.4,5.8,11.2,5,17.5,3.6C270.2,85.6,269.4,82.7,267.6,83.1L267.6,83.1z"/>
		</g>
	</g>
	<g>
		<g>
			<path class="st11" d="M278.7,46.9c-2.9-12.9-17.8-12.5-27.7-9.2c-5.6,1.9-11.4,4-16.1,7.6c-1.7,1.3-2.9,3.3-4.6,4.6
				c-2,1.6-2.1,1.3-4.3,0.2c-2-1-4-3-5.8-4.3c-1.5-1.2-3,1.4-1.5,2.6c2.4,1.8,7.6,7.6,11.1,6.4c1.4-0.5,2.1-2.1,3-3.1
				c2-2.5,4.4-4.5,7.2-6.1c9.3-5.3,32.1-13.8,35.7,2.2C276.2,49.6,279.1,48.8,278.7,46.9L278.7,46.9z"/>
		</g>
	</g>
	<g>
		<g>
			<path class="st11" d="M237.3,45.9c-2.7-2-5-4.6-6.7-7.6c-1-1.7-3.6-0.2-2.6,1.5c2,3.4,4.6,6.3,7.7,8.6
				C237.4,49.6,238.9,47,237.3,45.9L237.3,45.9z"/>
		</g>
	</g>
	<g>
		<g>
			<path class="st11" d="M246.5,41.7c-1.2-1.5-2.4-3-3.6-4.5c-0.5-0.6-1.6-0.5-2.1,0c-0.6,0.6-0.5,1.5,0,2.1c1.2,1.5,2.4,3,3.6,4.5
				c0.5,0.6,1.6,0.5,2.1,0C247.2,43.2,247,42.4,246.5,41.7L246.5,41.7z"/>
		</g>
	</g>
	<g>
		<g>
			<path class="st11" d="M253.4,37.3c0-0.3,0-0.6,0-0.9c0-0.8-0.7-1.5-1.5-1.5c-0.8,0-1.5,0.7-1.5,1.5c0,0.3,0,0.6,0,0.9
				c0,0.8,0.7,1.5,1.5,1.5C252.7,38.8,253.4,38.1,253.4,37.3L253.4,37.3z"/>
		</g>
	</g>
	<g>
		<g>
			<path class="st11" d="M295.6,134.9c-13.1,19.2-36,29.6-58.9,30.1c-24.3,0.5-47.6-9.6-66.8-23.9c-8.9-6.7-17-14.7-28.4-16.8
				c-11.5-2.1-23,1.1-34.2,3.2c-12.4,2.3-24.5,2.8-36.4-1.9c-12-4.6-21.3-13.3-28.2-24c-7.5-11.8-13.1-24.9-19.2-37.4
				c-3.3-6.8-8-14.3-7.6-22.1c0.2-3.8,1.6-7.8,4.8-10c3.7-2.6,9.1-2.2,11.6,1.9c1,1.6,3.6,0.1,2.6-1.5c-4.9-8-16-5.7-20,1.9
				c-6.2,11.7,3,25.3,8.1,35.6c11.6,23.8,22.1,50.2,49.3,59.4c12.7,4.3,25.4,3.1,38.3,0.6c15.7-3.1,30.7-6,44.7,3.7
				c11.5,8,21.6,17.1,34.4,23.3c11.7,5.7,24.3,9.6,37.3,10.8c27.1,2.5,55.5-8.3,71.2-31.2C299.2,134.8,296.6,133.3,295.6,134.9
				L295.6,134.9z"/>
		</g>
	</g>
</g>
</svg>
