<?xml version="1.0" encoding="utf-8"?>
<!-- Generator: Adobe Illustrator 23.0.3, SVG Export Plug-In . SVG Version: 6.00 Build 0)  -->
<svg version="1.1" id="Layer_1" xmlns="http://www.w3.org/2000/svg" xmlns:xlink="http://www.w3.org/1999/xlink" x="0px" y="0px"
	 viewBox="0 0 468.6 581.4" style="enable-background:new 0 0 468.6 581.4;" xml:space="preserve">
<style type="text/css">
	.st0{fill:#FF744F;}
	.st1{fill:#FDD0B1;}
	.st2{fill:#6F501F;}
	.st3{fill:#593700;}
	.st4{fill:#FFFB20;}
	.st5{fill:#E9F3FF;}
</style>
<g>
	<g>
		<path class="st0" d="M143.6,145.8c31.2,25.2,72.5,37.4,112.4,33.1c11-1.2,22.1-3.6,32.9-1.6c6.6,1.2,12.8,4,19,6.6
			c17.8,7.5,37.6,13.4,56.2,8.1c18.6-5.3,33.8-25.9,26.8-43.9c-0.7-1.8-1.7-3.6-3.5-4.2c-5.1-1.8-6.8,6.7-10.7,10.5
			c-2,2-5,2.7-7.8,2.9c-19.5,1.7-36.6-13.1-47.6-29.2c-11-16.1-18.9-34.8-33.1-48.1c-20-18.7-49.1-23.7-76.4-26.4
			c-21.5-2.1-44.1-3.3-63.6,6c-23.2,11-37.7,34.6-48.4,57.9c-9.5,20.5-17.1,41.8-22,63.8c-10.8,49.1-7.3,100.6,4.4,149.5
			s31.4,95.5,52.8,141c10.3,21.9,21.3,43.9,38.4,61.1c16.9,17,38.9,28.2,61.7,35.7c41.6,13.8,87.5,16,129.2,2.4s78.3-43.9,96.2-83.9
			c5.3-11.9,9-24.8,8.3-37.9c-1.5-28.3-25.3-53.2-53.2-57.7c-27.9-4.5-57.5,10.5-72,34.8c-2.7,4.5-4.9,9.3-5.7,14.5
			c-1.5,9.3,1.7,18.8,6.7,26.8c8.6,13.9,23.6,24.6,40,24.9c16.4,0.3,33-11.8,35-28c1.1-9.2-3.6-19.8-12.5-22.3
			c2.1,12.3-9,24.8-21.4,25.1c-12.5,0.3-23.8-10.9-24.7-23.3c-0.9-12.5,8.1-24.6,20-28.5c11.9-3.8,25.7,0.3,34.2,9.5
			c5.7,6.1,9.2,14.2,10.9,22.4c5.3,25.3-6.5,53.2-28.3,67.1c-8.9,5.6-19,9-29.3,11c-42,8.3-87.8-6.6-116.9-37.9
			c-7.6-8.2-14.2-17.5-17.7-28.1c-8.9-26.7,2.6-55.3,4.9-83.3c1.8-21.9-2.3-44.3-11.8-64.2c-11.1-23.3-29.1-42.8-40.2-66
			s-13.9-54,3.9-72.6"/>
	</g>
	<g>
		<path class="st0" d="M80.1,320.3c-18.5,3.8-38.5-0.2-54.1-10.7c-4.2-2.8-8.6-6.3-13.7-6.1c-7.2,0.3-12.1,8.6-11.2,15.8
			c0.9,7.2,5.7,13.2,10.9,18.3s10.9,9.8,14.3,16.2c9.9,18.3-2.8,40.1-5,60.7c-0.4,3.7-0.4,7.5,0.9,10.9c3.7,9.7,16,13.2,21.7,21.9
			c10,15.5-5.5,39.5,6.5,53.5c5.6,6.6,15.4,8,24,7.1c8.6-0.9,17.2-3.4,25.8-2.9c9,0.5,17.5,4.4,26.3,6.6c8.8,2.2,18.9,2.5,26-3.2"/>
	</g>
	<g>
		<path class="st0" d="M254.4,59.9c4.1-15.8-3.5-31.9-6.8-47.8c-0.3-1.5-0.5-3.1,0.2-4.4c1.7-2.9,6-1.5,8.9,0.2
			c6.2,3.7,12.5,7.4,18.7,11.1c4.7,2.8,10,6.9,9,12.3c-1,5.3-7.4,7.2-12.1,10.1c-8.3,5.1-12.1,16.5-8.4,25.6"/>
	</g>
	<g>
		<path class="st0" d="M216.2,54.7c-8.3-3.4-15.3-9.7-19.6-17.5c-3.9-7-5.7-15.3-11.4-21c-1.4-1.4-3.1-2.6-5.1-2.7
			c-1.6-0.1-3.1,0.7-4.6,1.4c-10.4,5.1-20.7,10.2-31.1,15.3c2.3,9.8,17.8,11.4,20.3,21.2"/>
	</g>
	<g>
		<path class="st1" d="M179,14c-6.5,1.5-13.1,3-19.6,4.4c-3.6,0.8-7.5,1.8-10,4.6s-2.4,8.1,1,9.6c1.8,0.8,3.8,0.3,5.6-0.2
			c10.1-3,19.6-9,30.1-8.5c0.6-2.4,0.3-5-1-7.1"/>
	</g>
	<g>
		<path class="st1" d="M283,28.6c0.9-4.6-1.6-9.3-5.2-12.3s-8.1-4.6-12.5-6.2c-8.3-2.9-16.7-5.9-25-8.8c6,14.6,20,24.2,33.2,33
			c1.2,0.8,2.5,1.6,3.9,1.7c3.1,0.2,5.4-4.1,3.5-6.6"/>
	</g>
	<g>
		<g>
			<path class="st1" d="M183.8,14.4c-0.8-0.8-1.6-1.6-2.5-2.5c-0.6-0.6-1.5-0.6-2.1,0c-0.6,0.6-0.6,1.5,0,2.1
				c0.8,0.8,1.6,1.6,2.5,2.5c0.6,0.6,1.5,0.6,2.1,0C184.4,15.9,184.4,14.9,183.8,14.4L183.8,14.4z"/>
		</g>
	</g>
	<g>
		<path class="st1" d="M47.4,317.9C32.2,312.1,17.8,304,4.9,294c-8.3,10.1-4.9,25.4,1.4,36.8c6.3,11.4,15.3,21.8,17.8,34.6
			c4.3,22-11.5,46-1.8,66.2c4.1,8.5,12.1,14.6,15.7,23.3c3.5,8.4,2.5,17.9,2.8,27c0.4,9.1,3.1,19.3,11.1,23.7
			c4.5,2.5,10,2.6,15.1,2.7c12.6,0.2,25.2,0.4,37.8,0.6c-12.7-11.8-21.3-28.1-23.8-45.3c-1-7-1.1-14.3-3.7-20.9
			c-4.5-11.7-16.1-20.1-19-32.3c-1.8-7.7,0.1-15.7,0.9-23.6c2.2-22.1-4.9-43.9-11.8-64.9"/>
	</g>
	<g>
		<g>
			<path class="st1" d="M49.4,323.4c-1.2-1.6-2.5-3.3-3.7-4.9c-0.5-0.7-1.3-1-2.1-0.5c-0.6,0.4-1,1.4-0.5,2.1
				c1.2,1.6,2.5,3.3,3.7,4.9c0.5,0.7,1.3,1,2.1,0.5C49.5,325.1,49.9,324,49.4,323.4L49.4,323.4z"/>
		</g>
	</g>
	<g>
		<g>
			<path class="st1" d="M46.7,319.1c0,2.1,0,4.1,0,6.2c0,1.9,3,1.9,3,0c0-2.1,0-4.1,0-6.2C49.7,317.2,46.7,317.2,46.7,319.1
				L46.7,319.1z"/>
		</g>
	</g>
	<g>
		<path class="st1" d="M267.9,110.2c-4.7,0.2-9.5-1.2-13.3-4.1c-2.9-2.2-5.2-5.2-8-7.7c-6.8-6-16.4-8.4-25.5-7.5s-17.6,5-24.9,10.5
			c-2.6,1.9-5.1,4.2-6.3,7.2c-2.1,5.6,1.1,11.6,4.2,16.7c1.9,3,4,6.3,7.3,7.5c2.8,1.1,5.9,0.5,8.9,0c19.6-3,40.1-0.8,58.6,6.5
			c2.3,0.9,4.9,1.8,7,0.6c1.4-0.8,2.2-2.4,2.9-3.9c1.9-4,3.8-8.5,2.7-12.8c-1.6-6.2-8.5-9.2-14.2-12.2"/>
	</g>
	<g>
		<path class="st1" d="M297.9,89.5c-0.4,8.7-0.9,17.4-1.3,26.1c-0.1,2.1,0,4.7,1.8,5.8c1,0.6,2.3,0.6,3.4,0.3
			c6.2-1.6,9.1-9.2,7.7-15.4c-1.4-6.2-5.7-11.3-10-16"/>
	</g>
	<g>
		<path class="st2" d="M169.2,51.1c-8,1.1-15.9,3.1-23.4,6.2c0.1,4.7,5.7,6.9,10.4,7.8c32.4,6.3,65.8,7.8,98.7,4.7
			c4.9-0.5,10-1.1,14-3.9c4.1-2.8,6.7-8.3,4.5-12.7c-1.2-2.6-3.8-4.3-6.3-5.7c-10.7-6.1-22.6-10.1-34.8-11.6"/>
	</g>
	<g>
		<path class="st2" d="M173.9,55.2c-3-4.3,1-9.7,3.7-14.2c6.1-10.1,5.3-22.9,9.2-34c0.8-2.3,2.1-4.7,4.4-5.5
			c2.1-0.7,4.3,0.3,6.4,1.2c8.8,3.7,18.4,5.5,28,5.3c2.1-0.1,4.4-0.2,6.3,0.7c3.6,1.7,4.8,6.1,5.6,9.9c1.8,8.8,3.4,18.8-1.7,26.1
			c-4.7,6.8-13.8,9.1-22,9.2c-8.3,0.1-16.6-1.4-24.8,0"/>
	</g>
	<g>
		<g>
			<path class="st3" d="M216.2,13.3c-5.4-7.3-16.7-19-26.1-10c-2,1.9-2.9,4.4-3.8,6.9c-1.6,4.3-3,8.7-4.5,13c-3,8.7-6,17.3-9,26
				c-0.6,1.8,2.3,2.6,2.9,0.8c4-11.4,8-22.9,11.9-34.3c2.3-6.5,4.7-14.1,13.3-12c5.7,1.4,9.5,6.6,12.7,11.1
				C214.8,16.3,217.4,14.8,216.2,13.3L216.2,13.3z"/>
		</g>
	</g>
	<g>
		<g>
			<path class="st3" d="M211.8,10.4c3.3,2.2,6.7,1.4,10.3,0.5c2.7-0.7,6-1.8,8.7-0.3c3,1.7,4.1,5.8,5,8.8c1.8,5.8,6,18.4-1.7,21.7
				c-2.6,1.1-6.4,1-9.2,1.4c-3.9,0.6-7.7,1.1-11.6,1.7c-1.9,0.3-1.1,3.2,0.8,2.9c5.2-0.7,10.3-1.5,15.5-2.2c2.8-0.4,6.4-0.4,8.7-2.3
				c5-4.1,3.2-13.6,1.9-18.9c-1.3-5.4-2.8-13.3-8.4-16c-6-2.9-12.9,3.6-18.3,0C211.7,6.7,210.2,9.3,211.8,10.4L211.8,10.4z"/>
		</g>
	</g>
	<g>
		<g>
			<path class="st3" d="M240.4,39.1c6.7,2.1,14.1,1.7,20.6,4.3c8,3.1,12.8,11.5,5.6,18.4c-5.8,5.6-15.2,5.5-22.7,6
				c-8,0.5-15.9,0.7-23.9,0.6c-16.1-0.2-32.3-1.8-48.1-4.7c-3.8-0.7-7.5-1.4-11.3-2.3c-1.9-0.4-11.3-1.4-9.6-4.6
				c0.9-1.7,9.2-3.6,11.1-4.2c4.1-1.4,8.3-2.6,12.4-3.7c1.9-0.5,1.1-3.4-0.8-2.9c-3.2,0.9-33.9,8-25.8,14.9c2,1.7,5.7,1.9,8.1,2.5
				c4.3,1,8.7,2,13.1,2.8c8,1.5,16,2.7,24.1,3.5c17.5,1.8,35.1,2.1,52.6,0.8c10.2-0.7,27.1-2.6,27.5-16.3c0.5-16.2-22-15-32.1-18.2
				C239.3,35.7,238.5,38.6,240.4,39.1L240.4,39.1z"/>
		</g>
	</g>
	<g>
		<path class="st4" d="M215.6,27.2c1.4-2,2.8-4.1,4.2-6.1c3-0.1,0.5,6.3,3.3,7.5c1.5,0.6,3.2-0.9,4.7-0.3c1.8,0.7,1.2,3.5,0,5.1
			c-1.3,1.5-3,3.3-2.4,5.1c0.4,1.2,1.7,2.5,0.8,3.4c-0.7,0.6-1.7,0.1-2.5-0.3c-4.5-2.5-10.7-1.5-14,2.4c0.4-4.6,0.3-10.3-3.8-12.3
			c3.6-0.6,7.2-1.2,10.8-1.8"/>
	</g>
	<g>
		<g>
			<path class="st4" d="M216.7,27.2c0,0.3,0,0.6,0,0.9c0,0.8,0.7,1.5,1.5,1.5c0.8,0,1.5-0.7,1.5-1.5c0-0.3,0-0.6,0-0.9
				c0-0.8-0.7-1.5-1.5-1.5C217.4,25.7,216.7,26.3,216.7,27.2L216.7,27.2z"/>
		</g>
	</g>
	<g>
		<g>
			<path class="st4" d="M216.3,27c-0.3,0.3-0.6,0.6-0.9,0.9c-0.6,0.6-0.6,1.5,0,2.1c0.6,0.6,1.5,0.6,2.1,0c0.3-0.3,0.6-0.6,0.9-0.9
				c0.6-0.6,0.6-1.5,0-2.1C217.8,26.4,216.9,26.4,216.3,27L216.3,27z"/>
		</g>
	</g>
	<g>
		<path d="M243.7,122.6c-0.2-3.5-2.7-6.8-6.1-7.9c-3.3-1.1-7.3,0-9.6,2.7c-2.3,2.7-2.7,6.4-2.9,9.9c-0.1,3.3,0.3,7.2,2.9,9.2
			c1.4,1.1,3.3,1.4,5.1,1.3c8.3-0.3,14.7-10.1,11.7-17.8"/>
	</g>
	<g>
		<g>
			<path class="st5" d="M240.3,119.8c0.1-0.2,0.2-0.3,0.3-0.5c-0.1,0.1,0,0,0,0c0,0,0.3-0.3,0.2-0.2c-0.1,0.1,0.4-0.2,0.3-0.2
				c-0.1,0.1,0.1,0,0.2,0c0.1,0,0.2,0,0.3-0.1c-0.6-0.2-1.1-0.5-1.7-0.7c0,0-0.1-0.3-0.1-0.1c0-0.2,0-0.3,0-0.5
				c0,0.2,0.1-0.1,0.1-0.2c-0.1,0.2,0.1-0.1,0.1-0.1c-0.2,0.3,0.2-0.1,0,0c0,0-0.1,0.1-0.1,0.1c0,0,0.4-0.1,0.1,0c0,0-0.1,0-0.2,0
				c-0.2,0.1,0.3-0.1,0.2,0c-0.1,0-0.1,0-0.2,0c-0.2,0,0.3,0.1,0.2,0c0.1,0,0.2,0.1,0.3,0.2c0,0,0.1,0.2,0.2,0.3c0.1,0.2,0,0,0-0.1
				c-0.1-0.8-1.1-1.2-1.8-1c-0.8,0.2-1.2,1-1,1.8c0.3,1.5,2,2.1,3.3,1.6c1.5-0.5,2.4-2,1.6-3.5c-0.3-0.6-1.1-0.8-1.7-0.7
				c-1.3,0.2-2.5,1.1-3,2.3c-0.3,0.7-0.2,1.6,0.5,2.1C238.9,120.7,240,120.5,240.3,119.8L240.3,119.8z"/>
		</g>
	</g>
	<g>
		<g>
			<path class="st5" d="M224.1,118.8c1.6,3.2,3.8,6,6.5,8.4c1.4,1.3,3.6-0.8,2.1-2.1c-2.5-2.2-4.5-4.8-6.1-7.8
				C225.9,115.6,223.3,117.1,224.1,118.8L224.1,118.8z"/>
		</g>
	</g>
	<g>
		<g>
			<path class="st1" d="M44.9,318.7c11.1,4,22.7,5.3,34.5,3.8c1-0.1,1.7-0.9,1.4-1.9C65.1,247,69.5,167.1,109.6,101.6
				C119.8,85.1,132,70,146.1,56.7c1.4-1.3-0.7-3.4-2.1-2.1C89.9,105.3,67.1,180.2,69.4,253c0.7,23.1,3.8,46,8.6,68.5
				c0.5-0.6,1-1.3,1.4-1.9c-11.5,1.4-22.8,0.2-33.7-3.7C43.9,315.2,43.1,318.1,44.9,318.7L44.9,318.7z"/>
		</g>
	</g>
	<g>
		<g>
			<path class="st1" d="M146.1,27.9c-2.4,2.2-0.5,5.2,1.3,7.1c4,4.1,8.1,8.1,12.2,12.2c1.4,1.4,3.5-0.8,2.1-2.1
				c-1.4-1.4-14.8-13.8-13.5-15C149.6,28.7,147.5,26.6,146.1,27.9L146.1,27.9z"/>
		</g>
	</g>
	<g>
		<g>
			<path class="st1" d="M161.5,49.4c1.9,0,1.9-3,0-3C159.6,46.4,159.6,49.4,161.5,49.4L161.5,49.4z"/>
		</g>
	</g>
	<g>
		<g>
			<path class="st1" d="M241.5,3.8c5.4,9.5,11,19.9,8.7,31.2c-0.4,1.9,2.5,2.7,2.9,0.8c2.5-12.1-3.1-23.2-9-33.5
				C243.2,0.7,240.6,2.2,241.5,3.8L241.5,3.8z"/>
		</g>
	</g>
	<g>
		<g>
			<path class="st1" d="M269.6,44.7c9.7,0.1,15.7-9.4,12-18.2c-0.8-1.8-3.3-0.2-2.6,1.5c2.9,6.8-2.1,13.8-9.4,13.7
				C267.6,41.6,267.6,44.6,269.6,44.7L269.6,44.7z"/>
		</g>
	</g>
	<g>
		<g>
			<path class="st1" d="M281.7,29.8c0.9,1.8,0.9,3.8,0,5.6c-0.9,1.7,1.7,3.2,2.6,1.5c1.4-2.8,1.4-5.9,0-8.7
				C283.4,26.5,280.8,28,281.7,29.8L281.7,29.8z"/>
		</g>
	</g>
	<g>
		<g>
			<path class="st1" d="M282.7,33.7c-0.9,1.2-1.8,2.4-2.7,3.6c-0.5,0.6-0.1,1.7,0.5,2.1c0.8,0.4,1.6,0.1,2.1-0.5
				c0.9-1.2,1.8-2.4,2.7-3.6c0.5-0.6,0.1-1.7-0.5-2.1C284,32.7,283.2,33,282.7,33.7L282.7,33.7z"/>
		</g>
	</g>
	<g>
		<g>
			<path class="st1" d="M283.5,26.8c-0.8-3.3-1.7-6.6-2.5-9.9c-0.5-1.9-3.4-1.1-2.9,0.8c0.8,3.3,1.7,6.6,2.5,9.9
				C281.1,29.5,284,28.7,283.5,26.8L283.5,26.8z"/>
		</g>
	</g>
	<g>
		<g>
			<path class="st1" d="M99.2,508c9-2.7,15.8-0.2,24,3.3c5.1,2.2,10.5,3.1,16.1,2.2c3.7-0.6,10.7-2.4,12.6-6.2
				c0.9-1.8,0.3-3.5-0.4-5.2c-1.4-3.8-3.1-7.4-4.5-11.2c-5.2-14-8.5-28.4-10.7-43.2c-1.9-12.9-3.8-26.1-11.2-37.2
				c-1.1-1.6-3.7-0.1-2.6,1.5c6.9,10.4,8.9,22.7,10.6,34.8c1.9,12.8,4.4,25.5,8.5,37.8c1.9,5.7,4.1,11.3,6.4,16.9
				c1.3,3.1,1.3,4-1.1,6c-1.3,1-3.2,1.6-4.7,2.1c-3.1,1-6.4,1.4-9.7,1.1c-6.8-0.6-12.2-5-18.8-6.5c-5.2-1.2-10.4-0.8-15.5,0.7
				C96.5,505.7,97.3,508.6,99.2,508L99.2,508z"/>
		</g>
	</g>
	<g>
		<g>
			<path class="st1" d="M151,506.4c13.5,27.7,40.6,45.8,68.1,57.6c30.2,13,63.4,18.8,96.3,17.2c18.6-0.9,36.9-4.3,54.6-10
				c1.8-0.6,1-3.5-0.8-2.9c-59.7,19.1-130.2,11.4-181.9-25.3c-14.1-10-26.1-22.6-33.7-38.2C152.8,503.2,150.2,504.7,151,506.4
				L151,506.4z"/>
		</g>
	</g>
	<g>
		<g>
			<path class="st1" d="M174.2,165.7c12.4,11.6,29.4,14.3,45.7,14.8c22,0.6,43.9-1.1,65.8-3.2c5.5-0.5,10.8-0.6,16.1,1.3
				c5.3,2,10.2,5,15.4,7.3c8.4,3.7,17.3,6.3,26.4,7.2c16.3,1.6,32.8-3.9,42.7-17.4c4.9-6.6,7.7-14.9,6.7-23.1
				c-0.8-6.7-4.6-13.7-12-14.1c-0.9,0-1.4,0.7-1.5,1.5c-1.5,18.6-25.2,14.9-36.5,8.9c-12.1-6.4-19.5-17-26.1-28.5
				c-12.3-21.5-27.5-40-47.6-54.6c-1.6-1.1-3.1,1.5-1.5,2.6c12.7,9.3,24.1,20.4,33.5,33.1c8.6,11.6,14.2,25.2,23.4,36.3
				c8.1,9.8,20.1,17.5,32.9,19.1c11.4,1.4,23.9-4.3,24.9-16.9c-0.5,0.5-1,1-1.5,1.5c9.3,0.5,10,13.7,8.5,20.4
				c-1.7,7.4-6.3,13.9-12,18.8c-13.8,11.6-32.7,11.4-49.2,6.2c-8.4-2.6-15.8-7-23.9-10.4c-7.5-3.2-14.7-2.6-22.7-1.8
				c-18.5,1.9-37.1,2.9-55.7,2.9c-17.4,0-36.5-1.5-49.8-14C174.9,162.3,172.8,164.4,174.2,165.7L174.2,165.7z"/>
		</g>
	</g>
	<g>
		<g>
			<path class="st1" d="M188.3,174.1c-22.6,30.5-9.1,70.7,7.4,100.5c10.4,18.7,22.5,36.6,30.1,56.7c7.5,20,10.6,41.6,9.1,62.9
				c-1.5,20.9-10.8,41.2-9.7,62.2c0.9,17.4,10.9,31.7,24.7,41.7c16.7,12.1,37.9,18.3,57.3,24.6c19.8,6.4,41.1,11.3,61.9,7.3
				c35.2-6.7,62-40.5,61.8-76.1c0-1.9-3-1.9-3,0c0.2,32.3-22.8,63.2-54.1,71.9c-20,5.6-41,1.5-60.4-4.4
				c-19.2-5.8-39.8-11.9-56.9-22.5c-16.2-10-28.3-25.5-28.4-45.2c0-19.6,8-38.3,9.7-57.8c1.6-18.8-0.4-38-5.9-56.1
				c-5.5-18.1-14.8-34.4-24.3-50.6c-19.2-32.7-43.2-77.8-16.6-113.6C192.1,174.1,189.5,172.6,188.3,174.1L188.3,174.1z"/>
		</g>
	</g>
	<g>
		<g>
			<path class="st1" d="M383.3,141.6c-4.7,8.2-13.6,12.5-23,11.5c-1.9-0.2-1.9,2.8,0,3c10.4,1.2,20.3-4,25.6-13
				C386.9,141.4,384.3,139.9,383.3,141.6L383.3,141.6z"/>
		</g>
	</g>
	<g>
		<g>
			<path class="st1" d="M380.6,140.5c2.4,3.4-3.8,7.4-5.8,9c-1.1,0.9-2.2,2.2-3.4,2.9c-4.7,2.8-5.9,2-9.6,0.7
				c-6.6-2.2-13.2-4.5-19.8-6.8c-1.8-0.6-2.6,2.3-0.8,2.9c6,2.1,12,4.1,18,6.2c4.2,1.4,7.9,3.2,12,0.9c3.8-2.2,8.6-6.2,11.2-9.7
				c1.8-2.4,2.7-5.1,0.8-7.7C382.1,137.4,379.5,138.9,380.6,140.5L380.6,140.5z"/>
		</g>
	</g>
	<g>
		<g>
			<path class="st1" d="M378,149.2c-2.8,3.2-6.8,4.7-10.9,3.9c-1.9-0.4-2.7,2.5-0.8,2.9c5.2,1,10.4-0.7,13.8-4.7
				C381.3,149.8,379.2,147.7,378,149.2L378,149.2z"/>
		</g>
	</g>
	<g>
		<g>
			<path class="st1" d="M381.1,143c1.9,0,1.9-3,0-3C379.2,140,379.2,143,381.1,143L381.1,143z"/>
		</g>
	</g>
	<g>
		<g>
			<path class="st1" d="M141.3,61c6.9-5.6,14.7-9.5,23.3-11.7c1.9-0.5,1.1-3.4-0.8-2.9c-9.1,2.4-17.3,6.6-24.6,12.5
				C137.7,60.1,139.9,62.3,141.3,61L141.3,61z"/>
		</g>
	</g>
	<g>
		<g>
			<path class="st1" d="M140.8,62c0.3,0,0.6,0,0.9,0c0.8,0,1.5-0.7,1.5-1.5c0-0.8-0.7-1.5-1.5-1.5c-0.3,0-0.6,0-0.9,0
				c-0.8,0-1.5,0.7-1.5,1.5C139.4,61.3,140,62,140.8,62L140.8,62z"/>
		</g>
	</g>
	<g>
		<g>
			<path class="st1" d="M409.7,443.1c-4.3,1-4.8,5.3-5.8,8.9c-2.1,7.4-9,12.1-16.6,12.7c-15.2,1.1-33.3-18.2-27.7-33.4
				c2.2-5.9,9.5-13.6,15.4-15.8c4.2-1.6,9.5-1,13.9-0.9c4.3,0.1,8.5,0.2,12.8,0.5c2.4,0.2,5.3,0,7.4,1.3c1.6,1,2.7,3.1,3.7,4.7
				c2,3.2,3.9,6.6,5.7,9.9c3.9,7.4,7.2,15.2,9.8,23.2c0.6,1.8,3.5,1,2.9-0.8c-2.5-7.4-5.4-14.6-8.9-21.5
				c-2.8-5.5-5.8-13.1-10.6-17.2c-4.6-3.9-13.3-2.8-18.9-3c-6.9-0.2-15.8-1.6-21.9,2.4c-10.5,6.9-18.5,18-13.9,30.7
				c4,11,14,21.3,26,22.8c5.8,0.7,11.8-0.9,16.5-4.4c2.6-1.9,4.7-4.4,6-7.4c1.2-2.7,1.2-8.9,4.7-9.7
				C412.4,445.6,411.6,442.7,409.7,443.1L409.7,443.1z"/>
		</g>
	</g>
	<g>
		<g>
			<path class="st1" d="M408.8,443.1c12.4,12.6,5.8,32.4-8.6,40c-15.7,8.4-34.7,3.1-48.3-6.9c-31.1-22.7-7.3-64.2,20.3-77.5
				c28.9-13.9,65.5-2.4,82.1,24.8c8.5,13.8,11.8,30.8,9.1,46.8c-2.8,16.7-12.2,31.8-21.9,45.4c-22,31-55.1,56.4-94.5,57
				c-1.9,0-1.9,3,0,3c39.1-0.5,72.1-24.7,94.7-55.1c11.4-15.3,22.5-32.9,25-52.2c2.3-17.2-2-35.4-11.9-49.7
				c-19.3-27.8-58.4-37.3-88-20.6c-14.1,8-25.5,21.2-30.5,36.7c-2.7,8.4-3.5,17.8-0.4,26.3c2.8,7.6,8.6,13.5,15.1,18.1
				c15.6,11.1,37.8,15.9,54.4,4.2c13.7-9.7,17.9-29.9,5.5-42.5C409.6,439.6,407.5,441.7,408.8,443.1L408.8,443.1z"/>
		</g>
	</g>
	<g>
		<g>
			<path class="st1" d="M372.9,570.2c6-2.6,12.2-4.5,18.6-6c1.9-0.4,1.1-3.3-0.8-2.9c-6.6,1.5-13,3.6-19.3,6.3
				C369.6,568.3,371.1,570.9,372.9,570.2L372.9,570.2z"/>
		</g>
	</g>
	<g>
		<g>
			<path class="st1" d="M394.6,562.4c1.9,0,1.9-3,0-3C392.7,559.4,392.7,562.4,394.6,562.4L394.6,562.4z"/>
		</g>
	</g>
	<g>
		<g>
			<path class="st1" d="M396.2,562.1c2.8-2,5.5-4,8.3-6c1.5-1.1,0.1-3.7-1.5-2.6c-2.8,2-5.5,4-8.3,6
				C393.1,560.6,394.6,563.2,396.2,562.1L396.2,562.1z"/>
		</g>
	</g>
	<g>
		<g>
			<path class="st1" d="M388.8,565.9c3.8-3.1,7.7-6.1,11.5-9.2c1.5-1.2-0.6-3.3-2.1-2.1c-3.8,3.1-7.7,6.1-11.5,9.2
				C385.2,565,387.3,567.1,388.8,565.9L388.8,565.9z"/>
		</g>
	</g>
	<g>
		<g>
			<path class="st1" d="M390.3,565.2c3.8-8.2,16-7.6,22.3-13.5c1.4-1.3-0.7-3.4-2.1-2.1c-6.6,6.2-18.6,5.1-22.8,14.1
				C386.9,565.5,389.5,567,390.3,565.2L390.3,565.2z"/>
		</g>
	</g>
	<g>
		<g>
			<path class="st0" d="M33.4,317c-1.1,12.7,5.9,23.5,10.7,34.7c3.1,7.1,4.7,14.2,4.2,22c-0.5,7.6-2.4,15-3.5,22.6
				c-1.8,12.8,0.4,23.5,8.2,33.9c3.9,5.2,8.3,10,12,15.3c3.8,5.6,6,11.6,7.4,18.2c2.6,12.6,3,26.5,12.6,36.2
				c1.4,1.4,3.5-0.8,2.1-2.1c-11.5-11.5-9-29.5-14.3-43.7c-5.5-14.7-20.4-24-24.6-39.2c-4.6-17,5.5-34.1,2.7-51.3
				c-2.6-16.2-15.9-29.5-14.5-46.5C36.5,315,33.5,315,33.4,317L33.4,317z"/>
		</g>
	</g>
	<g>
		<g>
			<path class="st0" d="M15.9,313.8c-3.9,18.6,12.6,30.7,18.4,46.6c5.8,15.9,0,33.1-1.8,49.1c-0.9,7.8-1,15.8,1.3,23.3
				c2.3,7.4,6.8,13.8,11,20.3c4.3,6.7,7,13.9,10.6,20.9c2.8,5.5,6.4,10.1,12.2,12.5c1.8,0.7,2.6-2.2,0.8-2.9
				c-7.1-2.9-10.2-10.2-13-16.8c-3-6.9-6.6-13.1-10.7-19.4c-4.6-7-8.5-14.1-9.5-22.5c-0.9-7.6,0.1-15.4,1.3-22.9
				c2.1-13.4,5.4-27.6,1.2-41c-5-15.8-22.7-28.5-18.9-46.5C19.2,312.7,16.3,311.9,15.9,313.8L15.9,313.8z"/>
		</g>
	</g>
	<g>
		<g>
			<path class="st0" d="M151.1,26.7c5.7-1.3,11.5-2.6,17.2-4c1.9-0.4,1.1-3.3-0.8-2.9c-5.7,1.3-11.5,2.6-17.2,4
				C148.4,24.2,149.2,27.1,151.1,26.7L151.1,26.7z"/>
		</g>
	</g>
	<g>
		<g>
			<path class="st0" d="M255.3,15.9c5.6,3.6,11.4,6.5,17.5,9c1.8,0.7,2.6-2.2,0.8-2.9c-5.9-2.4-11.5-5.3-16.8-8.7
				C255.1,12.3,253.6,14.9,255.3,15.9L255.3,15.9z"/>
		</g>
	</g>
	<g>
		<g>
			<path class="st0" d="M209.2,113.6c5.4-4.4,13.8-20.4,22.4-13.2c1.5,1.2,3.6-0.9,2.1-2.1c-11-9.1-19.7,7.5-26.7,13.2
				C205.6,112.7,207.7,114.8,209.2,113.6L209.2,113.6z"/>
		</g>
	</g>
</g>
</svg>
