<?xml version="1.0" encoding="utf-8"?>
<!-- Generator: Adobe Illustrator 23.0.3, SVG Export Plug-In . SVG Version: 6.00 Build 0)  -->
<svg version="1.1" id="Layer_1" xmlns="http://www.w3.org/2000/svg" xmlns:xlink="http://www.w3.org/1999/xlink" x="0px" y="0px"
	 viewBox="0 0 468.6 581.4" style="enable-background:new 0 0 468.6 581.4;" xml:space="preserve">
<style type="text/css">
	.st0{fill:#FF744F;}
	.st1{fill:#FDD0B1;}
	.st2{fill:#6F501F;}
	.st3{fill:#593700;}
	.st4{fill:#FFFB20;}
	.st5{fill:#E9F3FF;}
</style>
<g>
	<g>
		<path class="st0" d="M325,145.8c-31.2,25.2-72.5,37.4-112.4,33.1c-11-1.2-22.1-3.6-32.9-1.6c-6.6,1.2-12.8,4-19,6.6
			c-17.8,7.5-37.6,13.4-56.2,8.1s-33.8-25.9-26.8-43.9c0.7-1.8,1.7-3.6,3.5-4.2c5.1-1.8,6.8,6.7,10.7,10.5c2,2,5,2.7,7.8,2.9
			c19.5,1.7,36.6-13.1,47.6-29.2s18.9-34.8,33.1-48.1c20-18.7,49.1-23.7,76.4-26.4c21.5-2.1,44.1-3.3,63.6,6
			c23.2,11,37.7,34.6,48.4,57.9c9.5,20.5,17.1,41.8,22,63.8c10.8,49.1,7.3,100.6-4.4,149.5c-11.7,48.9-31.4,95.5-52.8,141
			c-10.3,21.9-21.3,43.9-38.4,61.1c-16.9,17-38.9,28.2-61.7,35.7c-41.6,13.8-87.5,16-129.2,2.4s-78.3-43.9-96.2-83.9
			c-5.3-11.9-9-24.8-8.3-37.9c1.5-28.3,25.3-53.2,53.2-57.7c27.9-4.5,57.5,10.5,72,34.8c2.7,4.5,4.9,9.3,5.7,14.5
			c1.5,9.3-1.7,18.8-6.7,26.8c-8.6,13.9-23.6,24.6-40,24.9s-33-11.8-35-28c-1.1-9.2,3.6-19.8,12.5-22.3c-2.1,12.3,9,24.8,21.4,25.1
			s23.8-10.9,24.7-23.3c0.9-12.5-8.1-24.6-20-28.5c-11.9-3.8-25.7,0.3-34.2,9.5c-5.7,6.1-9.2,14.2-10.9,22.4
			c-5.3,25.3,6.5,53.2,28.3,67.1c8.9,5.6,19,9,29.3,11c42,8.3,87.8-6.6,116.9-37.9c7.6-8.2,14.2-17.5,17.7-28.1
			c8.9-26.7-2.6-55.3-4.9-83.3c-1.8-21.9,2.3-44.3,11.8-64.2c11.1-23.3,29.1-42.8,40.2-66c11.2-23.3,13.9-54-3.9-72.6"/>
	</g>
	<g>
		<path class="st0" d="M388.5,320.3c18.5,3.8,38.5-0.2,54.1-10.7c4.2-2.8,8.6-6.3,13.7-6.1c7.2,0.3,12.1,8.6,11.2,15.8
			c-0.9,7.2-5.7,13.2-10.9,18.3s-10.9,9.8-14.3,16.2c-9.9,18.3,2.8,40.1,5,60.7c0.4,3.7,0.4,7.5-0.9,10.9
			c-3.7,9.7-16,13.2-21.7,21.9c-10,15.5,5.5,39.5-6.5,53.5c-5.6,6.6-15.4,8-24,7.1c-8.6-0.9-17.2-3.4-25.8-2.9
			c-9,0.5-17.5,4.4-26.3,6.6c-8.8,2.2-18.9,2.5-26-3.2"/>
	</g>
	<g>
		<path class="st0" d="M214.3,59.9c-4.1-15.8,3.5-31.9,6.8-47.8c0.3-1.5,0.5-3.1-0.2-4.4c-1.7-2.9-6-1.5-8.9,0.2
			c-6.2,3.7-12.5,7.4-18.7,11.1c-4.7,2.8-10,6.9-9,12.3c1,5.3,7.4,7.2,12.1,10.1c8.3,5.1,12.1,16.5,8.4,25.6"/>
	</g>
	<g>
		<path class="st0" d="M252.5,54.7c8.3-3.4,15.3-9.7,19.6-17.5c3.9-7,5.7-15.3,11.4-21c1.4-1.4,3.1-2.6,5.1-2.7
			c1.6-0.1,3.1,0.7,4.6,1.4c10.4,5.1,20.7,10.2,31.1,15.3c-2.3,9.8-17.8,11.4-20.3,21.2"/>
	</g>
	<g>
		<path class="st1" d="M289.6,14c6.5,1.5,13.1,3,19.6,4.4c3.6,0.8,7.5,1.8,10,4.6s2.4,8.1-1,9.6c-1.8,0.8-3.8,0.3-5.6-0.2
			c-10.1-3-19.6-9-30.1-8.5c-0.6-2.4-0.3-5,1-7.1"/>
	</g>
	<g>
		<path class="st1" d="M185.6,28.6c-0.9-4.6,1.6-9.3,5.2-12.3s8.1-4.6,12.5-6.2c8.3-2.9,16.7-5.9,25-8.8c-6,14.6-20,24.2-33.2,33
			c-1.2,0.8-2.5,1.6-3.9,1.7c-3.1,0.2-5.4-4.1-3.5-6.6"/>
	</g>
	<g>
		<g>
			<path class="st1" d="M286.9,16.5c0.8-0.8,1.6-1.6,2.5-2.5c0.6-0.6,0.6-1.5,0-2.1c-0.6-0.6-1.5-0.6-2.1,0
				c-0.8,0.8-1.6,1.6-2.5,2.5c-0.6,0.6-0.6,1.5,0,2.1C285.4,17.1,286.3,17.1,286.9,16.5L286.9,16.5z"/>
		</g>
	</g>
	<g>
		<path class="st1" d="M421.2,317.9c15.2-5.8,29.6-13.9,42.5-23.8c8.3,10.1,4.9,25.4-1.4,36.8c-6.3,11.4-15.3,21.8-17.8,34.6
			c-4.3,22,11.5,46,1.8,66.2c-4.1,8.5-12.1,14.6-15.7,23.3c-3.5,8.4-2.5,17.9-2.8,27c-0.4,9.1-3.1,19.3-11.1,23.7
			c-4.5,2.5-10,2.6-15.1,2.7c-12.6,0.2-25.2,0.4-37.8,0.6c12.7-11.8,21.3-28.1,23.8-45.3c1-7,1.1-14.3,3.7-20.9
			c4.5-11.7,16.1-20.1,19-32.3c1.8-7.7-0.1-15.7-0.9-23.6c-2.2-22.1,4.9-43.9,11.8-64.9"/>
	</g>
	<g>
		<g>
			<path class="st1" d="M421.8,324.9c1.2-1.6,2.5-3.3,3.7-4.9c0.5-0.7,0.1-1.7-0.5-2.1c-0.8-0.5-1.6-0.1-2.1,0.5
				c-1.2,1.6-2.5,3.3-3.7,4.9c-0.5,0.7-0.1,1.7,0.5,2.1C420.5,325.9,421.3,325.5,421.8,324.9L421.8,324.9z"/>
		</g>
	</g>
	<g>
		<g>
			<path class="st1" d="M418.9,319.1c0,2.1,0,4.1,0,6.2c0,1.9,3,1.9,3,0c0-2.1,0-4.1,0-6.2C421.9,317.2,418.9,317.2,418.9,319.1
				L418.9,319.1z"/>
		</g>
	</g>
	<g>
		<path class="st1" d="M200.8,110.2c4.7,0.2,9.5-1.2,13.3-4.1c2.9-2.2,5.2-5.2,8-7.7c6.8-6,16.4-8.4,25.5-7.5s17.6,5,24.9,10.5
			c2.6,1.9,5.1,4.2,6.3,7.2c2.1,5.6-1.1,11.6-4.2,16.7c-1.9,3-4,6.3-7.3,7.5c-2.8,1.1-5.9,0.5-8.9,0c-19.6-3-40.1-0.8-58.6,6.5
			c-2.3,0.9-4.9,1.8-7,0.6c-1.4-0.8-2.2-2.4-2.9-3.9c-1.9-4-3.8-8.5-2.7-12.8c1.6-6.2,8.5-9.2,14.2-12.2"/>
	</g>
	<g>
		<path class="st1" d="M170.7,89.5c0.4,8.7,0.9,17.4,1.3,26.1c0.1,2.1,0,4.7-1.8,5.8c-1,0.6-2.3,0.6-3.4,0.3
			c-6.2-1.6-9.1-9.2-7.7-15.4c1.4-6.2,5.7-11.3,10-16"/>
	</g>
	<g>
		<path class="st2" d="M299.5,51.1c8,1.1,15.9,3.1,23.4,6.2c-0.1,4.7-5.7,6.9-10.4,7.8c-32.4,6.3-65.8,7.8-98.7,4.7
			c-4.9-0.5-10-1.1-14-3.9c-4.1-2.8-6.7-8.3-4.5-12.7c1.2-2.6,3.8-4.3,6.3-5.7c10.7-6.1,22.6-10.1,34.8-11.6"/>
	</g>
	<g>
		<path class="st2" d="M294.7,55.2c3-4.3-1-9.7-3.7-14.2c-6.1-10.1-5.3-22.9-9.2-34c-0.8-2.3-2.1-4.7-4.4-5.5
			c-2.1-0.7-4.3,0.3-6.4,1.2c-8.8,3.7-18.4,5.5-28,5.3c-2.1-0.1-4.4-0.2-6.3,0.7c-3.6,1.7-4.8,6.1-5.6,9.9
			c-1.8,8.8-3.4,18.8,1.7,26.1c4.7,6.8,13.8,9.1,22,9.2c8.3,0.1,16.6-1.4,24.8,0"/>
	</g>
	<g>
		<g>
			<path class="st3" d="M255,14.8c3.1-4.2,6.7-9.4,12-10.9c3.8-1.1,8.1-0.5,10.5,3c1.7,2.4,2.4,6,3.4,8.8c4,11.4,8,22.9,11.9,34.3
				c0.6,1.8,3.5,1,2.9-0.8c-3-8.7-6-17.3-9-26c-1.5-4.3-2.9-8.7-4.5-13c-0.9-2.5-1.8-5-3.8-6.9c-9.4-9-20.7,2.6-26.1,10
				C251.2,14.8,253.8,16.3,255,14.8L255,14.8z"/>
		</g>
	</g>
	<g>
		<g>
			<path class="st3" d="M255.4,7.8c-5.2,3.5-11.9-2.6-17.8-0.3c-6,2.4-7.6,10.7-8.9,16.2c-1.3,5.3-2.9,14,1.4,18.4
				c2.3,2.3,6.1,2.3,9.1,2.8c5.2,0.7,10.3,1.5,15.5,2.2c1.9,0.3,2.7-2.6,0.8-2.9c-3.6-0.5-7.1-1-10.7-1.5c-2.9-0.4-7.5-0.2-10.2-1.5
				c-7.6-3.6-3.6-15.7-1.7-21.7c0.8-2.8,1.7-5.8,3.9-7.7c3-2.7,6.2-1.7,9.8-0.8c3.6,0.9,7,1.6,10.3-0.5C258.5,9.3,257,6.7,255.4,7.8
				L255.4,7.8z"/>
		</g>
	</g>
	<g>
		<g>
			<path class="st3" d="M227.5,36.2c-10.2,3.2-27.8,1.4-31.7,14.6c-3.7,12.6,11.1,18.3,20.7,19.4c17.3,1.9,35,1.8,52.3,0.3
				c16.3-1.3,33.9-3.2,49.4-8.3c3.6-1.2,5.3-4.3,2-7.1c-2.8-2.4-7.7-3.4-11.1-4.6c-4.7-1.6-9.4-3-14.2-4.3c-1.9-0.5-2.7,2.4-0.8,2.9
				c3.9,1,7.7,2.2,11.6,3.4c2.8,0.9,8.6,2,10.8,4c1.6,0.2,1.9,1.2,0.9,2.8c-1.2,0.3-2.5,0.6-3.7,0.9c-1.9,0.5-3.7,0.9-5.6,1.3
				c-3.7,0.8-7.5,1.6-11.3,2.3c-15.9,2.9-32,4.4-48.1,4.7c-8,0.1-16-0.1-23.9-0.6c-7.5-0.5-17-0.4-22.7-6c-6.6-6.5-3.1-14.6,4.5-18
				c6.8-3.1,14.7-2.5,21.7-4.7C230.1,38.6,229.3,35.7,227.5,36.2L227.5,36.2z"/>
		</g>
	</g>
	<g>
		<path class="st4" d="M253.1,27.2c-1.4-2-2.8-4.1-4.2-6.1c-3-0.1-0.5,6.3-3.3,7.5c-1.5,0.6-3.2-0.9-4.7-0.3c-1.8,0.7-1.2,3.5,0,5.1
			c1.3,1.5,3,3.3,2.4,5.1c-0.4,1.2-1.7,2.5-0.8,3.4c0.7,0.6,1.7,0.1,2.5-0.3c4.5-2.5,10.7-1.5,14,2.4c-0.4-4.6-0.3-10.3,3.8-12.3
			c-3.6-0.6-7.2-1.2-10.8-1.8"/>
	</g>
	<g>
		<g>
			<path class="st4" d="M248.9,27.2c0,0.3,0,0.6,0,0.9c0,0.8,0.7,1.5,1.5,1.5c0.8,0,1.5-0.7,1.5-1.5c0-0.3,0-0.6,0-0.9
				c0-0.8-0.7-1.5-1.5-1.5C249.6,25.7,248.9,26.3,248.9,27.2L248.9,27.2z"/>
		</g>
	</g>
	<g>
		<g>
			<path class="st4" d="M250.2,29.1c0.3,0.3,0.6,0.6,0.9,0.9c0.6,0.6,1.5,0.6,2.1,0c0.6-0.6,0.6-1.5,0-2.1c-0.3-0.3-0.6-0.6-0.9-0.9
				c-0.6-0.6-1.5-0.6-2.1,0C249.7,27.6,249.7,28.6,250.2,29.1L250.2,29.1z"/>
		</g>
	</g>
	<g>
		<path d="M225,122.6c0.2-3.5,2.7-6.8,6.1-7.9c3.3-1.1,7.3,0,9.6,2.7c2.3,2.7,2.7,6.4,2.9,9.9c0.1,3.3-0.3,7.2-2.9,9.2
			c-1.4,1.1-3.3,1.4-5.1,1.3c-8.3-0.3-14.7-10.1-11.7-17.8"/>
	</g>
	<g>
		<g>
			<path class="st5" d="M230.9,118.3c-0.5-1.2-1.7-2.1-3-2.3c-0.6-0.1-1.4,0-1.7,0.7c-0.8,1.5,0.1,3,1.6,3.5c1.3,0.4,3-0.1,3.3-1.6
				c0.1-0.8-0.2-1.7-1-1.8c-0.7-0.2-1.7,0.2-1.8,1c0,0,0,0.1,0,0.2c0.1-0.1,0.1-0.3,0.2-0.4c-0.1,0.1,0.1-0.1,0.1-0.1
				c-0.2,0.1,0.1-0.1,0.2-0.1c-0.2,0.1,0.2,0,0.2,0c0,0-0.1,0-0.2,0c-0.2,0,0.2,0,0.2,0c0,0-0.2,0-0.2,0c-0.3-0.1,0.2,0.2,0,0
				c-0.3-0.2,0.2,0.2,0,0c0.1,0.1,0.1,0.2,0.2,0.3c0,0,0,0.3,0,0.3c0,0.1,0,0.2,0,0.1c0-0.1,0-0.1-0.1,0.2c-0.6,0.2-1.1,0.5-1.7,0.7
				c0.2,0,0.4,0.1,0.5,0.1c-0.1,0-0.1,0,0,0c0,0,0.3,0.2,0.2,0.1c-0.1-0.1,0.3,0.3,0.2,0.2c-0.1-0.1,0.1,0.1,0.1,0.1
				c0.1,0.1,0.1,0.2,0.2,0.3c0.3,0.7,1.4,0.9,2.1,0.5C231.1,119.9,231.2,119,230.9,118.3L230.9,118.3z"/>
		</g>
	</g>
	<g>
		<g>
			<path class="st5" d="M241.9,117.3c-1.5,3-3.5,5.6-6.1,7.8c-1.5,1.3,0.7,3.4,2.1,2.1c2.7-2.4,4.9-5.2,6.5-8.4
				C245.4,117.1,242.8,115.6,241.9,117.3L241.9,117.3z"/>
		</g>
	</g>
	<g>
		<g>
			<path class="st1" d="M422.9,315.9c-10.9,3.9-22.2,5.2-33.7,3.7c0.5,0.6,1,1.3,1.4,1.9c15.8-74.4,11.4-155.2-29.1-221.4
				c-10.3-16.7-22.6-32.1-36.9-45.5c-1.4-1.3-3.5,0.8-2.1,2.1C376.1,107,398.5,181,396.3,253c-0.7,22.8-3.7,45.4-8.5,67.7
				c-0.2,1,0.4,1.8,1.4,1.9c11.7,1.5,23.3,0.2,34.5-3.8C425.5,318.1,424.7,315.2,422.9,315.9L422.9,315.9z"/>
		</g>
	</g>
	<g>
		<g>
			<path class="st1" d="M320.4,30c1.3,1.2-12.1,13.6-13.5,15c-1.4,1.4,0.8,3.5,2.1,2.1c4.1-4.1,8.2-8,12.2-12.2
				c1.8-1.9,3.7-4.8,1.3-7.1C321.1,26.6,319,28.7,320.4,30L320.4,30z"/>
		</g>
	</g>
	<g>
		<g>
			<path class="st1" d="M307.1,49.4c1.9,0,1.9-3,0-3C305.2,46.4,305.2,49.4,307.1,49.4L307.1,49.4z"/>
		</g>
	</g>
	<g>
		<g>
			<path class="st1" d="M224.5,2.3c-5.8,10.3-11.5,21.3-9,33.5c0.4,1.9,3.3,1.1,2.9-0.8c-2.4-11.3,3.3-21.7,8.7-31.2
				C228,2.2,225.4,0.7,224.5,2.3L224.5,2.3z"/>
		</g>
	</g>
	<g>
		<g>
			<path class="st1" d="M199.1,41.7c-7.3,0.1-12.3-6.9-9.4-13.7c0.8-1.8-1.8-3.3-2.6-1.5c-3.8,8.8,2.2,18.3,12,18.2
				C201,44.6,201,41.6,199.1,41.7L199.1,41.7z"/>
		</g>
	</g>
	<g>
		<g>
			<path class="st1" d="M184.3,28.2c-1.4,2.8-1.4,5.9,0,8.7c0.9,1.7,3.5,0.2,2.6-1.5c-0.9-1.8-0.9-3.8,0-5.6
				C187.8,28,185.2,26.5,184.3,28.2L184.3,28.2z"/>
		</g>
	</g>
	<g>
		<g>
			<path class="st1" d="M183.3,35.2c0.9,1.2,1.8,2.4,2.7,3.6c0.5,0.6,1.3,1,2.1,0.5c0.6-0.4,1-1.4,0.5-2.1c-0.9-1.2-1.8-2.4-2.7-3.6
				c-0.5-0.6-1.3-1-2.1-0.5C183.2,33.5,182.8,34.5,183.3,35.2L183.3,35.2z"/>
		</g>
	</g>
	<g>
		<g>
			<path class="st1" d="M188,27.6c0.8-3.3,1.7-6.6,2.5-9.9c0.5-1.9-2.4-2.7-2.9-0.8c-0.8,3.3-1.7,6.6-2.5,9.9
				C184.6,28.7,187.5,29.5,188,27.6L188,27.6z"/>
		</g>
	</g>
	<g>
		<g>
			<path class="st1" d="M370.3,505.1c-5.1-1.5-10.3-1.9-15.5-0.7c-6.5,1.5-12,5.9-18.8,6.5c-3,0.3-6.1,0-9-0.9c-3.9-1.1-8-2.4-7.1-7
				c0.6-2.8,2.5-5.9,3.5-8.6c1.2-3.2,2.4-6.4,3.4-9.6c4.1-12.3,6.6-25,8.5-37.8c1.8-12.1,3.7-24.4,10.6-34.8
				c1.1-1.6-1.5-3.1-2.6-1.5c-7.4,11.1-9.3,24.2-11.2,37.2c-2.2,14.8-5.5,29.2-10.7,43.2c-1.4,3.7-3.1,7.3-4.5,11
				c-0.7,1.8-1.4,3.5-0.4,5.4c2,3.8,8.9,5.5,12.6,6.2c5.2,0.9,10.4,0.2,15.3-1.9c8.6-3.6,15.5-6.5,24.9-3.7
				C371.3,508.6,372.1,505.7,370.3,505.1L370.3,505.1z"/>
		</g>
	</g>
	<g>
		<g>
			<path class="st1" d="M315,504.9c-13.5,27.7-40.8,45.5-68.5,57.1c-29.4,12.3-61.6,17.8-93.4,16.2c-18.3-0.9-36.4-4.3-53.8-9.8
				c-1.8-0.6-2.6,2.3-0.8,2.9c61.2,19.6,134.6,11.4,186.8-27.4c13.4-10,24.9-22.3,32.3-37.4C318.4,504.7,315.8,503.2,315,504.9
				L315,504.9z"/>
		</g>
	</g>
	<g>
		<g>
			<path class="st1" d="M292.3,163.6c-11.7,11-28.1,13.4-43.6,13.9c-18,0.5-36.1-0.5-54.1-2.1c-8.3-0.7-17.1-2.8-25.3-0.8
				c-7.9,1.9-14.8,6.9-22.3,9.8c-15.8,6.2-34.9,9.2-50.3,0.2c-7.4-4.4-13.7-11.2-16.7-19.4c-2.5-7-3.3-23.2,7.5-23.8
				c-0.5-0.5-1-1-1.5-1.5c1,12.6,13.5,18.3,24.9,16.9c12.8-1.6,24.8-9.3,32.9-19.1c9.1-11.1,14.8-24.7,23.4-36.3
				c9.4-12.7,20.8-23.8,33.5-33.1c1.5-1.1,0-3.7-1.5-2.6c-20.1,14.6-35.3,33.2-47.6,54.6c-6.6,11.6-14,22.1-26.1,28.5
				c-11.3,6-35,9.7-36.5-8.9c-0.1-0.8-0.6-1.5-1.5-1.5c-15.1,0.8-13.3,22.5-8.6,31.8c7.4,14.7,23.1,22.7,39.1,23.1
				c9.6,0.2,19.1-2,28.1-5.3c9.5-3.6,18.7-10.7,29.1-11.2c10.9-0.5,22.3,1.9,33.1,2.6c11.1,0.7,22.3,1.1,33.4,1.1
				c18.5,0,38.6-1.6,52.7-14.8C295.8,164.4,293.7,162.3,292.3,163.6L292.3,163.6z"/>
		</g>
	</g>
	<g>
		<g>
			<path class="st1" d="M277.7,175.6c23.1,31.1,7.4,71.6-9.5,101.3c-9.2,16.3-19.4,32-26.6,49.4c-7.2,17.5-11,36.4-11.2,55.3
				c-0.2,19.5,5,37.5,8.5,56.5c1.9,10.1,2.6,20.6-0.7,30.6c-2.9,8.7-8.6,16.2-15.3,22.3c-14.9,13.4-34.8,19.5-53.3,25.9
				c-19.4,6.6-39.7,12.9-60.5,11.4c-37.8-2.7-68.6-36.6-68.4-74.3c0-1.9-3-1.9-3,0c-0.2,31.6,20.8,61.6,50.3,72.8
				c18.6,7.1,39.1,5.2,58.1,0.4c10.6-2.7,21-6.3,31.3-9.9c9.6-3.4,19.2-6.8,28.3-11.3c15.1-7.6,29.5-19.3,35.2-35.7
				c6.8-19.4-1.1-39.6-4.8-58.7c-4.2-21.7-3.5-44.3,2.2-65.7c5.5-21,16.3-39.5,27.2-58.1c19.2-32.8,41.2-78.1,14.9-113.6
				C279.2,172.6,276.6,174.1,277.7,175.6L277.7,175.6z"/>
		</g>
	</g>
	<g>
		<g>
			<path class="st1" d="M82.7,143.1c5.2,9,15.2,14.1,25.6,13c1.9-0.2,1.9-3.2,0-3c-9.4,1-18.2-3.3-23-11.5
				C84.3,139.9,81.7,141.4,82.7,143.1L82.7,143.1z"/>
		</g>
	</g>
	<g>
		<g>
			<path class="st1" d="M85.4,139c-1.9,2.6-1,5.2,0.8,7.7c2.7,3.5,7.4,7.4,11.2,9.7c4,2.4,7.9,0.5,12-0.9c6-2.1,12-4.1,18-6.2
				c1.8-0.6,1-3.5-0.8-2.9c-6.6,2.3-13.2,4.5-19.8,6.8c-2.8,0.9-3.4,1.2-6.5,0.2c-2.7-0.8-3.8-1.5-5.8-3.3c-2.1-1.8-9-6.1-6.5-9.6
				C89.2,138.9,86.6,137.4,85.4,139L85.4,139z"/>
		</g>
	</g>
	<g>
		<g>
			<path class="st1" d="M88.5,151.3c3.5,4,8.7,5.7,13.8,4.7c1.9-0.4,1.1-3.3-0.8-2.9c-4.2,0.8-8.2-0.7-10.9-3.9
				C89.4,147.7,87.3,149.8,88.5,151.3L88.5,151.3z"/>
		</g>
	</g>
	<g>
		<g>
			<path class="st1" d="M87.5,143c1.9,0,1.9-3,0-3C85.6,140,85.6,143,87.5,143L87.5,143z"/>
		</g>
	</g>
	<g>
		<g>
			<path class="st1" d="M329.4,58.9c-7.3-5.9-15.5-10.1-24.6-12.5c-1.9-0.5-2.7,2.4-0.8,2.9c8.6,2.2,16.4,6.1,23.3,11.7
				C328.8,62.3,330.9,60.1,329.4,58.9L329.4,58.9z"/>
		</g>
	</g>
	<g>
		<g>
			<path class="st1" d="M327.8,59c-0.3,0-0.6,0-0.9,0c-0.8,0-1.5,0.7-1.5,1.5c0,0.8,0.7,1.5,1.5,1.5c0.3,0,0.6,0,0.9,0
				c0.8,0,1.5-0.7,1.5-1.5C329.2,59.7,328.6,59,327.8,59L327.8,59z"/>
		</g>
	</g>
	<g>
		<g>
			<path class="st1" d="M58.1,446c3.3,0.7,3.3,6.1,4.3,8.7c0.9,2.5,2.5,4.8,4.4,6.7c3.7,3.6,8.7,5.7,13.8,6.2
				c12.4,1.2,23.5-8.1,28.9-18.6c2.8-5.5,4.5-12,2.5-18c-1.9-6-6.8-10.5-11.5-14.4c-5.3-4.6-10.2-5-17.1-5c-4.3,0-8.5,0.1-12.8,0.3
				c-3.5,0.2-7.9-0.1-11.3,1.2c-5.8,2.1-9,10.7-11.7,15.6c-4.2,7.9-7.7,16.2-10.5,24.7c-0.6,1.8,2.3,2.6,2.9,0.8
				c2.6-7.7,5.7-15.2,9.4-22.4c1.9-3.7,3.9-7.2,6.1-10.7c1-1.5,2.2-3.7,3.7-4.7c1.9-1.2,4.3-1,6.4-1.2c4.6-0.4,9.2-0.5,13.7-0.6
				c4.1-0.1,8.7-0.6,12.7,0.4c6.4,1.6,14.5,10.3,16.7,16.3c5.5,15-12.1,34-27,33.4c-7.5-0.3-14.7-4.8-17-12c-1.2-3.8-1.4-8.5-6-9.6
				C57,442.7,56.2,445.6,58.1,446L58.1,446z"/>
		</g>
	</g>
	<g>
		<g>
			<path class="st1" d="M57.7,440.9c-10.7,10.9-9.3,28.6,1.3,39c12.5,12.2,31.3,12.5,46.6,6c16-6.8,29.8-19.8,29-38.3
				c-0.7-16.6-10.4-32.3-22.9-42.7c-26.2-21.7-65.3-19.6-89.6,4C9.6,421,2.4,437.9,1.4,455.1c-1.1,19.8,7,37.5,17.5,53.8
				c22.9,35.6,58.4,66.1,102.7,66.7c1.9,0,1.9-3,0-3c-34.5-0.5-64.7-20.2-86.2-46.1c-11-13.3-21.5-28.6-27.3-45
				C2.9,466.5,3.1,450,8.7,435c11.2-30.2,45-48.6,76.5-40.4c14.7,3.8,27.8,13.1,36.5,25.6c9.1,13.2,14.7,32.3,4.7,46.6
				C115.6,482.1,92,491.4,74,485.5c-8.5-2.8-16.3-9-19.3-17.6c-3-8.6-1.3-18.3,5.1-24.8C61.1,441.7,59,439.6,57.7,440.9L57.7,440.9z
				"/>
		</g>
	</g>
	<g>
		<g>
			<path class="st1" d="M97.3,567.6c-6.3-2.7-12.7-4.8-19.3-6.3c-1.9-0.4-2.7,2.5-0.8,2.9c6.4,1.4,12.6,3.4,18.6,6
				C97.5,570.9,99.1,568.3,97.3,567.6L97.3,567.6z"/>
		</g>
	</g>
	<g>
		<g>
			<path class="st1" d="M74,562.4c1.9,0,1.9-3,0-3C72.1,559.4,72.1,562.4,74,562.4L74,562.4z"/>
		</g>
	</g>
	<g>
		<g>
			<path class="st1" d="M73.9,559.5c-2.8-2-5.5-4-8.3-6c-1.6-1.1-3.1,1.5-1.5,2.6c2.8,2,5.5,4,8.3,6C74,563.2,75.5,560.6,73.9,559.5
				L73.9,559.5z"/>
		</g>
	</g>
	<g>
		<g>
			<path class="st1" d="M82,563.8c-3.8-3.1-7.7-6.1-11.5-9.2c-1.5-1.2-3.6,0.9-2.1,2.1c3.8,3.1,7.7,6.1,11.5,9.2
				C81.3,567.1,83.5,565,82,563.8L82,563.8z"/>
		</g>
	</g>
	<g>
		<g>
			<path class="st1" d="M80.9,563.7c-4.2-9.1-16.2-7.9-22.8-14.1c-1.4-1.3-3.5,0.8-2.1,2.1c6.3,5.9,18.5,5.3,22.3,13.5
				C79.1,567,81.7,565.5,80.9,563.7L80.9,563.7z"/>
		</g>
	</g>
	<g>
		<g>
			<path class="st0" d="M432.3,317c1.4,17-11.9,30.3-14.5,46.5c-2.7,17.2,7.3,34.3,2.7,51.3c-4.2,15.3-19.1,24.5-24.6,39.2
				c-5.3,14.3-2.8,32.3-14.3,43.7c-1.4,1.4,0.8,3.5,2.1,2.1c8.4-8.4,9.8-20.1,11.7-31.2c1.1-6.4,2.5-12.9,5.6-18.7
				c3.3-6,7.9-11.1,12.2-16.5c7.9-9.9,12.3-19.9,11.2-32.7c-1.3-14.5-6.8-28.6-2.1-43c4.4-13.6,14.2-25.7,13-40.7
				C435.1,315,432.1,315,432.3,317L432.3,317z"/>
		</g>
	</g>
	<g>
		<g>
			<path class="st0" d="M449.9,314.6c3.8,18-13.9,30.7-18.9,46.5c-4.2,13.4-0.9,27.6,1.2,41c1.2,7.5,2.2,15.3,1.3,22.9
				c-1,8.4-4.9,15.5-9.5,22.5c-4,6.1-7.5,12.1-10.4,18.8c-2.9,6.7-6,14.4-13.3,17.4c-1.8,0.7-1,3.6,0.8,2.9c5.8-2.4,9.4-7,12.2-12.5
				c3.6-7,6.3-14.2,10.6-20.9c4.2-6.5,8.7-12.8,11-20.3c2.3-7.6,2.2-15.6,1.3-23.3c-1.8-16.1-7.6-33.2-1.8-49.1
				c5.8-15.9,22.3-28,18.4-46.6C452.4,311.9,449.5,312.7,449.9,314.6L449.9,314.6z"/>
		</g>
	</g>
	<g>
		<g>
			<path class="st0" d="M318.3,23.8c-5.7-1.3-11.5-2.6-17.2-4c-1.9-0.4-2.7,2.5-0.8,2.9c5.7,1.3,11.5,2.6,17.2,4
				C319.4,27.1,320.2,24.2,318.3,23.8L318.3,23.8z"/>
		</g>
	</g>
	<g>
		<g>
			<path class="st0" d="M211.9,13.3c-5.3,3.4-10.9,6.3-16.8,8.7c-1.8,0.7-1,3.6,0.8,2.9c6.1-2.5,12-5.5,17.5-9
				C215,14.9,213.5,12.3,211.9,13.3L211.9,13.3z"/>
		</g>
	</g>
	<g>
		<g>
			<path class="st0" d="M261.6,111.5c-7-5.7-15.7-22.3-26.7-13.2c-1.5,1.2,0.6,3.3,2.1,2.1c8.7-7.1,17.1,8.8,22.4,13.2
				C260.9,114.8,263,112.7,261.6,111.5L261.6,111.5z"/>
		</g>
	</g>
</g>
</svg>
